<?xml version="1.0" encoding="UTF-8" standalone="no"?>
<svg
   xmlns:dc="http://purl.org/dc/elements/1.1/"
   xmlns:cc="http://creativecommons.org/ns#"
   xmlns:rdf="http://www.w3.org/1999/02/22-rdf-syntax-ns#"
   xmlns:svg="http://www.w3.org/2000/svg"
   xmlns="http://www.w3.org/2000/svg"
   xmlns:sodipodi="http://sodipodi.sourceforge.net/DTD/sodipodi-0.dtd"
   xmlns:inkscape="http://www.inkscape.org/namespaces/inkscape"
   version="1.1"
   id="svg2"
   viewBox="0 0 213.32188 318.5163"
   height="89.89238mm"
   width="60.204174mm"
   inkscape:version="0.91 r13725"
   sodipodi:docname="layer51.svg">
  <sodipodi:namedview
     pagecolor="#ffffff"
     bordercolor="#666666"
     borderopacity="1"
     objecttolerance="10"
     gridtolerance="10"
     guidetolerance="10"
     inkscape:pageopacity="0"
     inkscape:pageshadow="2"
     inkscape:window-width="640"
     inkscape:window-height="480"
     id="namedview22"
     showgrid="false"
     inkscape:zoom="0.74093538"
     inkscape:cx="106.66094"
     inkscape:cy="159.25825"
     inkscape:window-x="0"
     inkscape:window-y="0"
     inkscape:window-maximized="0"
     inkscape:current-layer="svg2" />
  <defs
     id="defs4" />
  <metadata
     id="metadata7">
    <rdf:RDF>
      <cc:Work
         rdf:about="">
        <dc:format>image/svg+xml</dc:format>
        <dc:type
           rdf:resource="http://purl.org/dc/dcmitype/StillImage" />
        <dc:title />
      </cc:Work>
    </rdf:RDF>
  </metadata>
  <g
     transform="translate(-265.38631,-366.923)"
     id="layer51">
    <g
       id="g28424"
       transform="translate(167.51791,-3292.9169)">
      <path
         d="m 107.99015,3659.9749 193.07837,0 c 5.49288,0 9.98675,4.4939 9.98675,9.9868 l 0,298.2728 c 0,5.4927 -4.49387,9.9867 -9.98675,9.9867 l -193.07837,0 c -5.49287,0 -9.98675,-4.494 -9.98675,-9.9867 l 0,-298.2728 c 0,-5.4929 4.49388,-9.9868 9.98675,-9.9868 z"
         style="fill:#ffffff;fill-opacity:1;fill-rule:evenodd;stroke:#1f1917;stroke-width:0.27000001;stroke-linecap:butt;stroke-linejoin:miter;stroke-miterlimit:10;stroke-dasharray:none;stroke-opacity:1"
         id="path11654"
         inkscape:connector-curvature="0" />
      <path
         d="m 128.4659,3719.0847 c -1.40637,-1.5626 -2.969,-2.4999 -4.06238,-2.4999 -1.06274,0 -3.66,-0.2572 -5.85537,4.2333 -2.18625,-4.4061 -4.75825,-4.1553 -5.81463,-4.1553 -1.09375,0 -2.65637,0.9375 -4.06275,2.5002 -1.40587,1.5622 -1.17175,4.2966 -0.69087,5.7196 0.48112,1.4226 10.525,16.077 10.525,16.077 0,0 10.17112,-14.7326 10.65187,-16.1553 0.48088,-1.4227 0.71538,-4.1571 -0.69087,-5.7196"
         style="fill:#b32621;fill-opacity:1;fill-rule:evenodd;stroke:none"
         id="path11656"
         inkscape:connector-curvature="0" />
      <path
         d="m 283.5819,3920.4043 c 1.40637,1.5627 2.969,2.4999 4.06238,2.4999 1.06274,0 3.66,0.2573 5.85537,-4.2332 2.18625,4.4061 4.75825,4.1552 5.81463,4.1552 1.09374,0 2.65637,-0.9375 4.06275,-2.5001 1.40587,-1.5623 1.17175,-4.2966 0.69087,-5.7196 -0.48112,-1.4227 -10.525,-16.077 -10.525,-16.077 0,0 -10.17112,14.7327 -10.65187,16.1553 -0.48088,1.4227 -0.71538,4.157 0.69087,5.7195"
         style="fill:#b32621;fill-opacity:1;fill-rule:evenodd;stroke:none"
         id="path11658"
         inkscape:connector-curvature="0" />
      <path
         d="m 180.51952,3701.2456 c -2.67237,-2.9694 -5.64162,-4.7503 -7.7195,-4.7503 -2.01887,0 -6.95437,-0.4886 -11.12587,8.0438 -4.15425,-8.3721 -9.0415,-7.8956 -11.04875,-7.8956 -2.07825,0 -5.0475,1.7816 -7.71987,4.7508 -2.67163,2.9687 -2.22663,8.1642 -1.31275,10.8681 0.91412,2.7032 19.99912,30.549 19.99912,30.549 0,0 19.32662,-27.9947 20.24038,-30.6978 0.91349,-2.7033 1.35925,-7.8988 -1.31276,-10.868"
         style="fill:#b32621;fill-opacity:1;fill-rule:evenodd;stroke:none"
         id="path11660"
         inkscape:connector-curvature="0" />
      <path
         d="m 223.50977,3798.8765 c -2.67237,-2.9694 -5.64162,-4.7503 -7.7195,-4.7503 -2.01887,0 -6.95437,-0.4886 -11.12599,8.0438 -4.15413,-8.3721 -9.04138,-7.8957 -11.04863,-7.8957 -2.07825,0 -5.0475,1.7817 -7.71988,4.7509 -2.67162,2.9686 -2.22662,8.1641 -1.31275,10.868 0.91413,2.7033 19.99913,30.549 19.99913,30.549 0,0 19.32662,-27.9946 20.24037,-30.6977 0.9135,-2.7033 1.35925,-7.8988 -1.31275,-10.868"
         style="fill:#b32621;fill-opacity:1;fill-rule:evenodd;stroke:none"
         id="path11662"
         inkscape:connector-curvature="0" />
      <path
         d="m 267.47977,3901.8108 c -2.67237,-2.9692 -5.64175,-4.7501 -7.71949,-4.7501 -2.01901,0 -6.95451,-0.4886 -11.12601,8.0437 -4.15412,-8.3722 -9.04137,-7.8955 -11.04874,-7.8955 -2.07813,0 -5.04738,1.7816 -7.71975,4.7508 -2.67163,2.9687 -2.22663,8.1642 -1.31288,10.868 0.91425,2.7033 19.99925,30.549 19.99925,30.549 0,0 19.3265,-27.9946 20.24037,-30.6977 0.9135,-2.7033 1.35925,-7.8988 -1.31275,-10.8682"
         style="fill:#b32621;fill-opacity:1;fill-rule:evenodd;stroke:none"
         id="path11664"
         inkscape:connector-curvature="0" />
      <path
         d="m 124.07115,3693.5293 c 1.91587,1.3358 3.17588,3.556 3.17588,6.0544 l 0,3.3208 c 0,4.0553 -3.31875,7.3757 -7.37575,7.3757 l 0,0 c -4.05713,0 -7.37576,-3.3186 -7.37576,-7.3757 l 0,-0.658 2.79213,0 c 0.0537,2.4757 2.09475,4.4855 4.58363,4.4855 l 0,0 c 2.52212,0 4.585,-2.0658 4.585,-4.585 l 0,-1.5431 c 0,-2.52 -2.06288,-4.5854 -4.585,-4.5854 l 0,0 c -0.13363,0 -0.26513,0 -0.39588,0.017 l 0,-4.3743 c 0.13037,0.012 0.26225,0.019 0.39588,0.019 l 0,0 c 2.3445,0 4.26225,-1.9205 4.26225,-4.2622 l 0,-1.4352 c 0,-2.3421 -1.91775,-4.2622 -4.26225,-4.2622 l 0,0 c -2.34463,0 -4.26226,1.918 -4.26226,4.2622 l 0,0 -2.5945,0 0,-0.9517 c 0,-3.7716 3.08525,-6.8568 6.85676,-6.8568 l 0,0 c 3.77149,0 6.85662,3.0866 6.85662,6.8568 l 0,3.0868 c 0,2.1913 -1.04312,4.1503 -2.65675,5.4079"
         style="fill:#b32621;fill-opacity:1;fill-rule:evenodd;stroke:none"
         id="path11666"
         inkscape:connector-curvature="0" />
      <path
         d="m 290.11477,3941.8776 c -1.91587,-1.3359 -3.17587,-3.5561 -3.17587,-6.0545 l 0,-3.3208 c 0,-4.0553 3.31862,-7.3757 7.37575,-7.3757 l 0,0 c 4.057,0 7.37575,3.3186 7.37575,7.3757 l 0,0.658 -2.79213,0 c -0.0539,-2.4757 -2.09487,-4.4855 -4.58362,-4.4855 l 0,0 c -2.52213,0 -4.58513,2.0658 -4.58513,4.5851 l 0,1.5431 c 0,2.52 2.063,4.5853 4.58513,4.5853 l 0,0 c 0.1335,0 0.265,-0.01 0.39575,-0.017 l 0,4.3743 c -0.13038,-0.013 -0.26225,-0.018 -0.39575,-0.018 l 0,0 c -2.34463,0 -4.26225,1.9204 -4.26225,4.2621 l 0,1.4352 c 0,2.3421 1.91762,4.2622 4.26225,4.2622 l 0,0 c 2.34462,0 4.26225,-1.918 4.26225,-4.2622 l 0,0 2.59437,0 0,0.9516 c 0,3.7716 -3.08512,6.8568 -6.85662,6.8568 l 0,0 c -3.7715,0 -6.85675,-3.0866 -6.85675,-6.8568 l 0,-3.0868 c 0,-2.1912 1.04325,-4.1503 2.65687,-5.4078"
         style="fill:#b32621;fill-opacity:1;fill-rule:evenodd;stroke:none"
         id="path11668"
         inkscape:connector-curvature="0" />
      <path
         d="m 107.99015,3659.9749 193.07837,0 c 5.49288,0 9.98675,4.4939 9.98675,9.9868 l 0,298.2728 c 0,5.4927 -4.49387,9.9867 -9.98675,9.9867 l -193.07837,0 c -5.49287,0 -9.98675,-4.494 -9.98675,-9.9867 l 0,-298.2728 c 0,-5.4929 4.49388,-9.9868 9.98675,-9.9868 z"
         style="fill:#ffffff;fill-opacity:1;fill-rule:evenodd;stroke:#1f1917;stroke-width:0.27000001;stroke-linecap:butt;stroke-linejoin:miter;stroke-miterlimit:10;stroke-dasharray:none;stroke-opacity:1"
         id="path11670"
         inkscape:connector-curvature="0" />
      <path
         d="m 112.5469,3719.7937 c 0.36425,-2.5257 1.53425,-3.6262 3.32387,-4.2402 3.26063,-1.1169 7.33151,0.7008 8.10188,3.601 0.68237,2.5706 -0.747,4.3055 -2.40138,6.6015 1.84325,-0.5532 2.55163,-1.6026 4.80125,-1.2011 1.9945,0.3578 3.36925,2.5611 3.601,3.601 0.87875,3.959 -1.84212,7.5621 -5.10125,7.5012 -1.46625,-0.027 -2.019,-0.6445 -2.70037,-1.1997 -1.3535,-1.1049 -1.6405,-2.0374 -2.7,-3.301 -0.46875,0.6593 -0.13188,1.4697 0,2.1008 0.17187,0.8267 0.659,1.4198 0.89962,2.0998 0.26863,0.7579 0.326,1.682 0.60063,2.4009 0.23562,0.6191 1.18662,1.1392 0.59912,1.7993 -2.10325,-0.1963 -4.996,0.3969 -6.60012,-0.2987 0.62262,-2.3804 2.47437,-5.1236 1.50025,-8.1021 -0.55413,4.8097 -6.43,5.445 -8.82038,2.5178 -1.73262,-2.1224 -2.448,-8.4376 3.41863,-9.1193 1.12325,-0.1304 2.22312,0.5346 3.301,0.9009 -0.56413,-1.8361 -1.83125,-2.6542 -1.82375,-5.0629 0,-0.2002 0,-0.4004 0,-0.5992"
         style="fill:#171717;fill-opacity:1;fill-rule:evenodd;stroke:none"
         id="path11672"
         inkscape:connector-curvature="0" />
      <path
         d="m 299.07578,3917.6413 c -0.36426,2.5257 -1.53425,3.6263 -3.32401,4.2403 -3.26049,1.1169 -7.3315,-0.7009 -8.10174,-3.601 -0.6825,-2.5708 0.74687,-4.3055 2.40124,-6.6016 -1.84325,0.5531 -2.5515,1.6026 -4.80112,1.2012 -1.9945,-0.3579 -3.36937,-2.5611 -3.60112,-3.6011 -0.87875,-3.9589 1.84225,-7.5621 5.10137,-7.5011 1.46613,0.027 2.01887,0.6445 2.70038,1.1997 1.3535,1.1048 1.6405,2.0374 2.7,3.3009 0.46875,-0.6594 0.13175,-1.4698 0,-2.1007 -0.17188,-0.8267 -0.65913,-1.4199 -0.89975,-2.0998 -0.26851,-0.758 -0.32601,-1.682 -0.6005,-2.401 -0.23563,-0.619 -1.18675,-1.1391 -0.59925,-1.7993 2.10337,0.1963 4.99612,-0.3968 6.60012,0.2987 -0.6225,2.3805 -2.47425,5.1236 -1.50025,8.1021 0.55425,-4.8096 6.43013,-5.445 8.82038,-2.5179 1.73275,2.1225 2.44812,8.4378 -3.41863,9.1195 -1.12312,0.1304 -2.223,-0.5347 -3.30087,-0.9011 0.56412,1.8361 1.83112,2.6544 1.82375,5.0631 0,0.2002 0,0.4004 0,0.5991"
         style="fill:#171717;fill-opacity:1;fill-rule:evenodd;stroke:none"
         id="path11674"
         inkscape:connector-curvature="0" />
      <path
         d="m 148.29665,3705.7462 c 0.71337,-4.9461 3.00475,-7.1011 6.5095,-8.3037 6.38538,-2.1873 14.35737,1.3727 15.86588,7.0522 1.3365,5.034 -1.46276,8.4314 -4.70238,12.9278 3.60962,-1.0832 4.99675,-3.1383 9.40213,-2.3524 3.90612,0.7009 6.59837,5.0156 7.05224,7.0523 1.72063,7.7527 -3.60774,14.8092 -9.99,14.6898 -2.8715,-0.053 -3.954,-1.2621 -5.28837,-2.3496 -2.65075,-2.1635 -3.21275,-3.9901 -5.28725,-6.4644 -0.91813,1.2915 -0.25838,2.8783 0,4.1141 0.33625,1.6191 1.29037,2.7805 1.76162,4.1121 0.52588,1.4842 0.6385,3.2938 1.17613,4.7019 0.46162,1.2122 2.324,2.2309 1.1735,3.5236 -4.11913,-0.3846 -9.78413,0.777 -12.92525,-0.585 1.21925,-4.6617 4.8455,-10.0337 2.93812,-15.8667 -1.08537,9.4189 -12.59225,10.6633 -17.27325,4.9309 -3.39312,-4.1563 -4.79412,-16.5239 6.69463,-17.859 2.19975,-0.2551 4.35337,1.0474 6.4645,1.7646 -1.10487,-3.5957 -3.58625,-5.1977 -3.57175,-9.9149 0,-0.3922 0,-0.7841 0,-1.1736"
         style="fill:#171717;fill-opacity:1;fill-rule:evenodd;stroke:none"
         id="path11676"
         inkscape:connector-curvature="0" />
      <path
         d="m 261.22228,3936.1211 c -0.71326,4.9461 -3.00475,7.1015 -6.50938,8.3041 -6.3855,2.1869 -14.3575,-1.3727 -15.86625,-7.0522 -1.33625,-5.0344 1.463,-8.4316 4.70263,-12.9282 -3.60951,1.0832 -4.99676,3.1387 -9.40213,2.3524 -3.90613,-0.7009 -6.59838,-5.0155 -7.05225,-7.0519 -1.72063,-7.7531 3.60775,-14.8092 9.99,-14.6898 2.8715,0.053 3.954,1.2621 5.28838,2.3496 2.65075,2.1635 3.21275,3.9897 5.28737,6.4644 0.918,-1.2915 0.25825,-2.8787 0,-4.1141 -0.33662,-1.6189 -1.2905,-2.7804 -1.76175,-4.1121 -0.52587,-1.4842 -0.6385,-3.2942 -1.176,-4.7019 -0.46175,-1.2122 -2.32413,-2.2309 -1.17362,-3.5236 4.11912,0.3842 9.78412,-0.7773 12.92525,0.5848 -1.21925,4.6619 -4.84538,10.0339 -2.93813,15.8669 1.08537,-9.4191 12.59225,-10.6633 17.27337,-4.9309 3.393,4.1564 4.794,16.5235 -6.69475,17.8586 -2.19975,0.2555 -4.35362,-1.047 -6.46437,-1.7645 1.10475,3.5958 3.58613,5.198 3.57163,9.9152 0,0.3919 0,0.7842 0,1.1732"
         style="fill:#171717;fill-opacity:1;fill-rule:evenodd;stroke:none"
         id="path11678"
         inkscape:connector-curvature="0" />
      <path
         d="m 118.32853,3679.479 0,0 c -3.7715,0 -6.856,3.087 -6.85676,6.8567 l 0,0.01 2.70038,0 c 0.4305,-1.896 2.13412,-3.3243 4.15663,-3.3243 l 0,0 c 2.344,0 4.262,1.918 4.262,4.2622 0,1.2097 -0.34025,1.7901 -0.86813,2.8903 l -10.2505,21.3336 1.14238,0.01 0.22887,0.1258 0.0684,-0.124 9.59562,0.056 2.67138,0 0.006,0 0,-3.2662 -0.006,0 0,-3.8286 -2.67138,0 0,3.8286 -6.02,4e-4 -0.0112,0.011 -0.40925,0.056 8.05425,-16.4706 c 1.068,-2.1841 1.29863,-3.6082 1.13113,-5.5669 -0.06,-0.7002 -0.17513,-1.383 -0.37425,-2.0229 l -0.005,-0.096 -0.016,0.029 c -0.88863,-2.7577 -3.48413,-4.7672 -6.52813,-4.7672"
         style="fill:#1f1917;fill-opacity:1;fill-rule:evenodd;stroke:none"
         id="path11680"
         inkscape:connector-curvature="0" />
      <path
         d="m 294.34865,3957.2767 0,0 c 3.7715,0 6.85587,-3.0869 6.85662,-6.8566 l 0,-0.01 -2.70037,0 c -0.4305,1.896 -2.13412,3.3242 -4.15663,3.3242 l 0,0 c -2.34387,0 -4.26187,-1.9179 -4.26187,-4.2622 0,-1.2096 0.34013,-1.79 0.86812,-2.8902 l 10.25038,-21.3336 -1.14238,-0.01 -0.22887,-0.1258 -0.0684,0.1241 -9.59562,-0.056 -2.67125,0 -0.006,0 0,3.2662 0.006,0 0,3.8285 2.67125,0 0,-3.8285 6.02012,-3e-4 0.0113,-0.011 0.40925,-0.056 -8.05425,16.4707 c -1.068,2.1842 -1.29863,3.6082 -1.13101,5.5669 0.0599,0.7002 0.17501,1.383 0.37413,2.0229 l 0.005,0.096 0.0159,-0.029 c 0.88875,2.7578 3.48412,4.7671 6.52825,4.7671"
         style="fill:#1f1917;fill-opacity:1;fill-rule:evenodd;stroke:none"
         id="path11682"
         inkscape:connector-curvature="0" />
    </g>
  </g>
</svg>
