<?xml version="1.0" encoding="UTF-8" standalone="no"?>
<svg
   xmlns:dc="http://purl.org/dc/elements/1.1/"
   xmlns:cc="http://creativecommons.org/ns#"
   xmlns:rdf="http://www.w3.org/1999/02/22-rdf-syntax-ns#"
   xmlns:svg="http://www.w3.org/2000/svg"
   xmlns="http://www.w3.org/2000/svg"
   xmlns:sodipodi="http://sodipodi.sourceforge.net/DTD/sodipodi-0.dtd"
   xmlns:inkscape="http://www.inkscape.org/namespaces/inkscape"
   version="1.1"
   id="svg2"
   viewBox="0 0 213.32188 318.51639"
   height="89.892403mm"
   width="60.204174mm"
   inkscape:version="0.91 r13725"
   sodipodi:docname="layer52.svg">
  <sodipodi:namedview
     pagecolor="#ffffff"
     bordercolor="#666666"
     borderopacity="1"
     objecttolerance="10"
     gridtolerance="10"
     guidetolerance="10"
     inkscape:pageopacity="0"
     inkscape:pageshadow="2"
     inkscape:window-width="640"
     inkscape:window-height="480"
     id="namedview14"
     showgrid="false"
     inkscape:zoom="0.74093519"
     inkscape:cx="106.66093"
     inkscape:cy="159.25821"
     inkscape:window-x="0"
     inkscape:window-y="0"
     inkscape:window-maximized="0"
     inkscape:current-layer="svg2" />
  <defs
     id="defs4" />
  <metadata
     id="metadata7">
    <rdf:RDF>
      <cc:Work
         rdf:about="">
        <dc:format>image/svg+xml</dc:format>
        <dc:type
           rdf:resource="http://purl.org/dc/dcmitype/StillImage" />
        <dc:title />
      </cc:Work>
    </rdf:RDF>
  </metadata>
  <g
     transform="translate(-265.3863,-366.9229)"
     id="layer52">
    <g
       id="g28441"
       transform="translate(-61.994846,-3295.3104)">
      <path
         d="m 337.5029,3662.3683 193.07837,0 c 5.49288,0 9.98676,4.494 9.98676,9.9869 l 0,298.2728 c 0,5.4927 -4.49388,9.9867 -9.98676,9.9867 l -193.07837,0 c -5.49288,0 -9.98675,-4.494 -9.98675,-9.9867 l 0,-298.2728 c 0,-5.4929 4.49387,-9.9869 9.98675,-9.9869 z"
         style="fill:#ffffff;fill-opacity:1;fill-rule:evenodd;stroke:#1f1917;stroke-width:0.27000001;stroke-linecap:butt;stroke-linejoin:miter;stroke-miterlimit:10;stroke-dasharray:none;stroke-opacity:1"
         id="path11684"
         inkscape:connector-curvature="0" />
      <path
         d="m 390.7284,3697.6951 c 0,0 -4.93162,18.8146 -17.90125,25.7549 0,0 15.5265,9.8636 18.08337,24.6593 0,0 4.9315,-18.2653 18.26638,-24.8407 0,0 -13.33488,-7.1241 -18.4485,-25.5735"
         style="fill:#b32621;fill-opacity:1;fill-rule:evenodd;stroke:none"
         id="path11686"
         inkscape:connector-curvature="0" />
      <path
         d="m 479.18915,3896.732 c 0,0 -4.93162,18.8145 -17.90113,25.7548 0,0 15.52638,9.8635 18.08325,24.6593 0,0 4.93163,-18.2654 18.2665,-24.8408 0,0 -13.33487,-7.1241 -18.44862,-25.5733"
         style="fill:#b32621;fill-opacity:1;fill-rule:evenodd;stroke:none"
         id="path11688"
         inkscape:connector-curvature="0" />
      <path
         d="m 349.0544,3715.7894 c 0,0 -2.8665,10.9364 -10.40525,14.9705 0,0 9.02512,5.7334 10.51125,14.3337 0,0 2.8665,-10.6171 10.61787,-14.4393 0,0 -7.75137,-4.1411 -10.72387,-14.8649"
         style="fill:#b32621;fill-opacity:1;fill-rule:evenodd;stroke:none"
         id="path11690"
         inkscape:connector-curvature="0" />
      <path
         d="m 522.96027,3894.7215 c 0,0 -2.86649,10.9364 -10.40525,14.9705 0,0 9.02513,5.7334 10.51125,14.3337 0,0 2.8665,-10.6172 10.61788,-14.4393 0,0 -7.75138,-4.1412 -10.72388,-14.8649"
         style="fill:#b32621;fill-opacity:1;fill-rule:evenodd;stroke:none"
         id="path11692"
         inkscape:connector-curvature="0" />
      <path
         d="m 347.84127,3681.8725 0,0 c -3.7715,0 -6.856,3.087 -6.85675,6.8567 l 0,0.01 2.70038,0 c 0.4305,-1.896 2.13412,-3.3243 4.15662,-3.3243 l 0,0 c 2.344,0 4.26201,1.9179 4.26201,4.2622 0,1.2097 -0.34026,1.7901 -0.86813,2.8902 l -10.2505,21.3337 1.14237,0.01 0.22888,0.1258 0.0684,-0.124 9.59562,0.056 2.67138,0 0.006,0 0,-3.2663 -0.006,0 0,-3.8286 -2.67138,0 0,3.8286 -6.02,4e-4 -0.0113,0.011 -0.40925,0.056 8.05425,-16.4706 c 1.068,-2.1841 1.29862,-3.6083 1.13112,-5.5669 -0.0599,-0.7002 -0.17512,-1.383 -0.37424,-2.0228 l -0.005,-0.096 -0.016,0.029 c -0.88862,-2.7577 -3.48412,-4.7672 -6.52812,-4.7672"
         style="fill:#b32621;fill-opacity:1;fill-rule:evenodd;stroke:none"
         id="path11694"
         inkscape:connector-curvature="0" />
      <path
         d="m 522.6049,3959.6702 0,0 c 3.7715,0 6.856,-3.0869 6.85663,-6.8566 l 0,-0.01 -2.70025,0 c -0.4305,1.896 -2.13413,3.3242 -4.15675,3.3242 l 0,0 c -2.34388,0 -4.26188,-1.918 -4.26188,-4.2622 0,-1.2096 0.34025,-1.79 0.86812,-2.8903 l 10.25051,-21.3334 -1.14238,-0.01 -0.22888,-0.1257 -0.0685,0.1239 -9.59563,-0.056 -2.67125,0 -0.006,0 0,3.2662 0.006,0 0,3.8285 2.67125,0 0,-3.8285 6.02012,-3e-4 0.0113,-0.011 0.40926,-0.056 -8.05438,16.4708 c -1.06787,2.1841 -1.29862,3.6081 -1.131,5.5668 0.0599,0.7001 0.17513,1.383 0.37425,2.0229 l 0.005,0.096 0.016,-0.029 c 0.88862,2.7578 3.48412,4.7671 6.52812,4.7671"
         style="fill:#b32621;fill-opacity:1;fill-rule:evenodd;stroke:none"
         id="path11696"
         inkscape:connector-curvature="0" />
    </g>
  </g>
</svg>
