<?xml version="1.0" encoding="UTF-8" standalone="no"?>
<svg
   xmlns:dc="http://purl.org/dc/elements/1.1/"
   xmlns:cc="http://creativecommons.org/ns#"
   xmlns:rdf="http://www.w3.org/1999/02/22-rdf-syntax-ns#"
   xmlns:svg="http://www.w3.org/2000/svg"
   xmlns="http://www.w3.org/2000/svg"
   xmlns:sodipodi="http://sodipodi.sourceforge.net/DTD/sodipodi-0.dtd"
   xmlns:inkscape="http://www.inkscape.org/namespaces/inkscape"
   version="1.1"
   id="svg2"
   viewBox="0 0 213.32188 318.5163"
   height="89.89238mm"
   width="60.204174mm"
   inkscape:version="0.91 r13725"
   sodipodi:docname="layer53.svg">
  <sodipodi:namedview
     pagecolor="#ffffff"
     bordercolor="#666666"
     borderopacity="1"
     objecttolerance="10"
     gridtolerance="10"
     guidetolerance="10"
     inkscape:pageopacity="0"
     inkscape:pageshadow="2"
     inkscape:window-width="448"
     inkscape:window-height="428"
     id="namedview14"
     showgrid="false"
     inkscape:zoom="0.74093538"
     inkscape:cx="106.66094"
     inkscape:cy="159.25825"
     inkscape:window-x="0"
     inkscape:window-y="0"
     inkscape:window-maximized="0"
     inkscape:current-layer="svg2" />
  <defs
     id="defs4" />
  <metadata
     id="metadata7">
    <rdf:RDF>
      <cc:Work
         rdf:about="">
        <dc:format>image/svg+xml</dc:format>
        <dc:type
           rdf:resource="http://purl.org/dc/dcmitype/StillImage" />
        <dc:title />
      </cc:Work>
    </rdf:RDF>
  </metadata>
  <g
     transform="translate(-265.3863,-366.923)"
     id="layer53">
    <g
       id="g28450"
       transform="translate(-291.5076,-3290.5234)">
      <path
         d="m 567.01565,3657.5814 193.07838,0 c 5.49287,0 9.98675,4.494 9.98675,9.9868 l 0,298.2728 c 0,5.4927 -4.49388,9.9867 -9.98675,9.9867 l -193.07838,0 c -5.49275,0 -9.98675,-4.494 -9.98675,-9.9867 l 0,-298.2728 c 0,-5.4928 4.494,-9.9868 9.98675,-9.9868 z"
         style="fill:#ffffff;fill-opacity:1;fill-rule:evenodd;stroke:#1f1917;stroke-width:0.27000001;stroke-linecap:butt;stroke-linejoin:miter;stroke-miterlimit:10;stroke-dasharray:none;stroke-opacity:1"
         id="path11746"
         inkscape:connector-curvature="0" />
      <path
         d="m 587.4914,3716.6912 c -1.40637,-1.5626 -2.969,-2.4998 -4.06238,-2.4998 -1.06262,0 -3.65987,-0.2573 -5.85537,4.2332 -2.18625,-4.4061 -4.75825,-4.1553 -5.8145,-4.1553 -1.09388,0 -2.6565,0.9375 -4.06275,2.5002 -1.406,1.5622 -1.17187,4.2966 -0.691,5.7196 0.48112,1.4226 10.525,16.077 10.525,16.077 0,0 10.17112,-14.7326 10.65187,-16.1554 0.48088,-1.4226 0.7155,-4.157 -0.69087,-5.7195"
         style="fill:#b32621;fill-opacity:1;fill-rule:evenodd;stroke:none"
         id="path11748"
         inkscape:connector-curvature="0" />
      <path
         d="m 742.6074,3918.0108 c 1.40637,1.5627 2.969,2.4999 4.0625,2.4999 1.06262,0 3.65987,0.2573 5.85525,-4.2332 2.18625,4.4061 4.75838,4.1552 5.81462,4.1552 1.09375,0 2.65638,-0.9375 4.06275,-2.5001 1.406,-1.5623 1.17175,-4.2966 0.69088,-5.7196 -0.48113,-1.4227 -10.525,-16.077 -10.525,-16.077 0,0 -10.17112,14.7326 -10.65187,16.1554 -0.48088,1.4226 -0.71538,4.1569 0.69087,5.7194"
         style="fill:#b32621;fill-opacity:1;fill-rule:evenodd;stroke:none"
         id="path11750"
         inkscape:connector-curvature="0" />
      <path
         d="m 639.54503,3698.8521 c -2.67238,-2.9694 -5.64163,-4.7502 -7.71938,-4.7502 -2.019,0 -6.9545,-0.4887 -11.126,8.0437 -4.15425,-8.3721 -9.0415,-7.8956 -11.04875,-7.8956 -2.07813,0 -5.0475,1.7816 -7.71988,4.7509 -2.67162,2.9686 -2.22662,8.1641 -1.31275,10.8679 0.91413,2.7033 19.99913,30.549 19.99913,30.549 0,0 19.32662,-27.9946 20.2405,-30.6977 0.91337,-2.7032 1.35912,-7.8988 -1.31288,-10.868"
         style="fill:#b32621;fill-opacity:1;fill-rule:evenodd;stroke:none"
         id="path11752"
         inkscape:connector-curvature="0" />
      <path
         d="m 688.8909,3936.2281 c 2.67237,2.9693 5.64162,4.7501 7.7195,4.7501 2.01887,0 6.95438,0.4886 11.126,-8.0436 4.15413,8.3721 9.04138,7.8955 11.04862,7.8955 2.07825,0 5.04751,-1.7815 7.71988,-4.7507 2.67162,-2.9687 2.22662,-8.1643 1.31275,-10.8682 -0.91413,-2.7031 -19.99913,-30.549 -19.99913,-30.549 0,0 -19.32662,27.9946 -20.24037,30.6979 -0.9135,2.7031 -1.35925,7.8987 1.31275,10.868"
         style="fill:#b32621;fill-opacity:1;fill-rule:evenodd;stroke:none"
         id="path11754"
         inkscape:connector-curvature="0" />
      <path
         d="m 575.77228,3675.9981 0,0 c -3.77151,0 -6.856,3.0869 -6.85663,6.8566 l 0,0.01 2.70025,0 c 0.4305,-1.896 2.13413,-3.3242 4.15675,-3.3242 l 0,0 c 2.34387,0 4.26188,1.918 4.26188,4.2622 0,1.2097 -0.34026,1.79 -0.86813,2.8903 l -10.2505,21.3335 1.14238,0.01 0.22887,0.1258 0.0685,-0.124 9.59563,0.056 2.67124,0 0.006,0 0,-3.2663 -0.006,0 0,-3.8285 -2.67124,0 0,3.8285 -6.02013,4e-4 -0.0113,0.011 -0.40925,0.056 8.05438,-16.4707 c 1.06787,-2.1842 1.29862,-3.6081 1.13099,-5.5669 -0.0599,-0.7001 -0.17512,-1.383 -0.37424,-2.0229 l -0.005,-0.096 -0.016,0.029 c -0.88863,-2.7578 -3.48413,-4.7671 -6.52813,-4.7671"
         style="fill:#b32621;fill-opacity:1;fill-rule:evenodd;stroke:none"
         id="path11756"
         inkscape:connector-curvature="0" />
      <path
         d="m 751.28852,3956.4777 0,0 c 3.7715,0 6.856,-3.0869 6.85663,-6.8566 l 0,-0.01 -2.70025,0 c -0.43063,1.896 -2.13413,3.3242 -4.15675,3.3242 l 0,0 c -2.34387,0 -4.26188,-1.9179 -4.26188,-4.2622 0,-1.2096 0.34013,-1.79 0.86813,-2.8902 l 10.2505,-21.3336 -1.14238,-0.01 -0.229,-0.1258 -0.0684,0.1241 -9.59563,-0.056 -2.67125,0 -0.006,0 0,3.2662 0.006,0 0,3.8285 2.67125,0 0,-3.8285 6.02013,-3e-4 0.0113,-0.011 0.40925,-0.056 -8.05438,16.4707 c -1.06787,2.1842 -1.29862,3.6082 -1.131,5.5669 0.0599,0.7001 0.17513,1.383 0.37425,2.0229 l 0.005,0.096 0.016,-0.029 c 0.88863,2.7578 3.48413,4.7671 6.52813,4.7671"
         style="fill:#b32621;fill-opacity:1;fill-rule:evenodd;stroke:none"
         id="path11758"
         inkscape:connector-curvature="0" />
    </g>
  </g>
</svg>
