<?xml version="1.0" encoding="UTF-8" standalone="no"?>
<svg
   xmlns:dc="http://purl.org/dc/elements/1.1/"
   xmlns:cc="http://creativecommons.org/ns#"
   xmlns:rdf="http://www.w3.org/1999/02/22-rdf-syntax-ns#"
   xmlns:svg="http://www.w3.org/2000/svg"
   xmlns="http://www.w3.org/2000/svg"
   xmlns:sodipodi="http://sodipodi.sourceforge.net/DTD/sodipodi-0.dtd"
   xmlns:inkscape="http://www.inkscape.org/namespaces/inkscape"
   version="1.1"
   id="svg2"
   viewBox="0 0 213.32188 318.5163"
   height="89.89238mm"
   width="60.204174mm"
   inkscape:version="0.91 r13725"
   sodipodi:docname="layer50.svg">
  <sodipodi:namedview
     pagecolor="#ffffff"
     bordercolor="#666666"
     borderopacity="1"
     objecttolerance="10"
     gridtolerance="10"
     guidetolerance="10"
     inkscape:pageopacity="0"
     inkscape:pageshadow="2"
     inkscape:window-width="448"
     inkscape:window-height="428"
     id="namedview14"
     showgrid="false"
     inkscape:zoom="0.74093538"
     inkscape:cx="106.66094"
     inkscape:cy="159.25825"
     inkscape:window-x="0"
     inkscape:window-y="0"
     inkscape:window-maximized="0"
     inkscape:current-layer="svg2" />
  <defs
     id="defs4" />
  <metadata
     id="metadata7">
    <rdf:RDF>
      <cc:Work
         rdf:about="">
        <dc:format>image/svg+xml</dc:format>
        <dc:type
           rdf:resource="http://purl.org/dc/dcmitype/StillImage" />
        <dc:title />
      </cc:Work>
    </rdf:RDF>
  </metadata>
  <g
     transform="translate(-265.38631,-366.923)"
     id="layer50">
    <g
       id="g28415"
       transform="translate(397.03066,-3300.0974)">
      <path
         d="m -121.5226,3667.1554 193.078375,0 c 5.49275,0 9.98675,4.4939 9.98675,9.9868 l 0,298.2728 c 0,5.4929 -4.494,9.9867 -9.98675,9.9867 l -193.078375,0 c -5.49288,0 -9.98675,-4.4938 -9.98675,-9.9867 l 0,-298.2728 c 0,-5.4929 4.49387,-9.9868 9.98675,-9.9868 z"
         style="fill:#ffffff;fill-opacity:1;fill-rule:evenodd;stroke:#1f1917;stroke-width:0.27000001;stroke-linecap:butt;stroke-linejoin:miter;stroke-miterlimit:10;stroke-dasharray:none;stroke-opacity:1"
         id="path11640"
         inkscape:connector-curvature="0" />
      <path
         d="m -100.51323,3736.3835 c -0.45175,-1.3351 -9.49862,-14.4759 -10.46625,-15.8804 l 0,-0.1298 c -0.002,0 -0.0191,0.027 -0.0454,0.065 -0.0255,-0.039 -0.0433,-0.063 -0.0446,-0.065 l 0,0.1298 c -0.96837,1.4045 -10.0145,14.5453 -10.467,15.8804 -0.47575,1.4099 -0.70825,4.1205 0.685,5.6689 1.39388,1.5484 2.94275,2.4778 4.02663,2.4778 0.49112,0 1.31387,0.053 2.273,-0.3412 1.09412,-0.6835 2.20675,-2.0696 2.31875,-4.8902 0,0 0.19625,4.82 -1.66075,7.6224 -0.11625,0.218 -0.23775,0.421 -0.37313,0.5875 0,0 2.52463,-0.2136 3.24213,-0.2072 0.71787,-0.01 3.24212,0.2072 3.24212,0.2072 -0.13462,-0.1665 -0.25612,-0.3695 -0.37275,-0.5875 -1.85662,-2.8024 -1.66,-7.6224 -1.66,-7.6224 0.11088,2.8206 1.22413,4.2067 2.31875,4.8902 0.95813,0.3943 1.7815,0.3412 2.27188,0.3412 1.085,0 2.63337,-0.9294 4.02662,-2.4778 1.39438,-1.5484 1.1615,-4.259 0.685,-5.6689"
         style="fill:#171717;fill-opacity:1;fill-rule:evenodd;stroke:none"
         id="path11642"
         inkscape:connector-curvature="0" />
      <path
         d="m 52.3694,3916.4621 c 0.451875,1.3351 9.498625,14.4759 10.46625,15.8804 l 0,0.1297 c 0.0012,0 0.01912,-0.027 0.04537,-0.065 0.0255,0.039 0.04325,0.063 0.04462,0.065 l 0,-0.1297 c 0.968375,-1.4045 10.0145,-14.5453 10.467,-15.8804 0.475875,-1.4099 0.70825,-4.1205 -0.685,-5.6689 -1.393875,-1.5485 -2.942625,-2.4779 -4.026625,-2.4779 -0.491,0 -1.313875,-0.053 -2.273,0.3413 -1.094125,0.6835 -2.20675,2.0696 -2.31875,4.8901 0,0 -0.19625,-4.82 1.66075,-7.6224 0.11625,-0.2178 0.23775,-0.4209 0.373125,-0.5875 0,0 -2.524625,0.2137 -3.242125,0.2073 -0.717875,0.01 -3.242125,-0.2073 -3.242125,-0.2073 0.134625,0.1666 0.256125,0.3697 0.37275,0.5875 1.85675,2.8024 1.66,7.6224 1.66,7.6224 -0.110875,-2.8205 -1.224125,-4.2066 -2.31875,-4.8901 -0.958,-0.3944 -1.7815,-0.3413 -2.271875,-0.3413 -1.085,0 -2.633375,0.9294 -4.026625,2.4779 -1.394375,1.5484 -1.1615,4.259 -0.685,5.6689"
         style="fill:#171717;fill-opacity:1;fill-rule:evenodd;stroke:none"
         id="path11644"
         inkscape:connector-curvature="0" />
      <path
         d="m 2.935025,3922.1388 c 0.780875,2.3089 16.425,25.0321 18.0985,27.4611 l 0,0.2242 c 0.0025,0 0.03288,-0.046 0.07825,-0.1126 0.04437,0.067 0.07475,0.1095 0.07725,0.1126 l 0,-0.2242 c 1.674625,-2.429 17.317625,-25.1522 18.1,-27.4611 0.823125,-2.4381 1.224875,-7.1256 -1.184625,-9.8028 -2.410125,-2.6778 -5.0885,-4.285 -6.962875,-4.285 -0.849,0 -2.272,-0.092 -3.930625,0.59 -1.892125,1.182 -3.81575,3.5791 -4.009625,8.4565 0,0 -0.339375,-8.335 2.871875,-13.1811 0.200875,-0.3767 0.411,-0.7278 0.64525,-1.0159 0,0 -4.36575,0.3695 -5.606625,0.3586 -1.241125,0.011 -5.606125,-0.3586 -5.606125,-0.3586 0.23275,0.2881 0.442875,0.6392 0.6445,1.0159 3.210625,4.8461 2.870375,13.1811 2.870375,13.1811 -0.191625,-4.8774 -2.11675,-7.2745 -4.009625,-8.4565 -1.65675,-0.6818 -3.0805,-0.59 -3.92875,-0.59 -1.87625,0 -4.5535,1.6072 -6.963,4.285 -2.410875,2.6772 -2.008375,7.3647 -1.184125,9.8028"
         style="fill:#171717;fill-opacity:1;fill-rule:evenodd;stroke:none"
         id="path11646"
         inkscape:connector-curvature="0" />
      <path
         d="m -50.751725,3732.2956 c -0.781,-2.3089 -16.425,-25.0321 -18.0985,-27.461 l 0,-0.2244 c -0.0038,0 -0.033,0.046 -0.07838,0.1128 -0.04425,-0.067 -0.07475,-0.1095 -0.07725,-0.1128 l 0,0.2244 c -1.6745,2.4289 -17.3175,25.1521 -18.099875,27.461 -0.823125,2.4381 -1.225,7.1255 1.1845,9.8029 2.410125,2.6776 5.0885,4.2849 6.963,4.2849 0.849,0 2.271875,0.092 3.9305,-0.5899 1.892125,-1.1821 3.815875,-3.5792 4.009625,-8.4565 0,0 0.3395,8.3348 -2.871875,13.1811 -0.200875,0.3766 -0.411,0.7277 -0.645125,1.0159 0,0 4.365625,-0.3696 5.6065,-0.3586 1.24125,-0.011 5.60625,0.3586 5.60625,0.3586 -0.23275,-0.2882 -0.442875,-0.6393 -0.6445,-1.0159 -3.210625,-4.8463 -2.8705,-13.1811 -2.8705,-13.1811 0.19175,4.8773 2.11675,7.2744 4.009625,8.4565 1.656875,0.6816 3.080625,0.5899 3.928875,0.5899 1.876125,0 4.5535,-1.6073 6.962875,-4.2849 2.410875,-2.6774 2.008375,-7.3648 1.18425,-9.8029"
         style="fill:#171717;fill-opacity:1;fill-rule:evenodd;stroke:none"
         id="path11648"
         inkscape:connector-curvature="0" />
      <path
         d="m -111.18423,3686.0313 0,0 c -3.7715,0 -6.856,3.0869 -6.85675,6.8567 l 0,0.01 2.70038,0 c 0.4305,-1.896 2.13413,-3.3243 4.15662,-3.3243 l 0,0 c 2.34401,0 4.26188,1.9179 4.26188,4.2622 0,1.2097 -0.34013,1.7901 -0.868,2.8903 l -10.2505,21.3335 1.14237,0.01 0.22888,0.1257 0.0684,-0.124 9.59563,0.056 2.67137,0 0.007,0 0,-3.2663 -0.007,0 0,-3.8285 -2.67137,0 0,3.8285 -6.02,4e-4 -0.0114,0.011 -0.40925,0.056 8.05425,-16.4708 c 1.068,-2.1841 1.29863,-3.6081 1.131,-5.5669 -0.0599,-0.7001 -0.175,-1.383 -0.37412,-2.0228 l -0.005,-0.096 -0.016,0.029 c -0.88863,-2.7578 -3.48413,-4.7672 -6.52813,-4.7672"
         style="fill:#1f1917;fill-opacity:1;fill-rule:evenodd;stroke:none"
         id="path11650"
         inkscape:connector-curvature="0" />
      <path
         d="m 64.20765,3981.4195 0,0 c 3.7715,0 6.855875,-3.087 6.856625,-6.8567 l 0,-0.01 -2.700375,0 c -0.4305,1.8959 -2.134125,3.3243 -4.156625,3.3243 l 0,0 c -2.343875,0 -4.261875,-1.918 -4.261875,-4.2622 0,-1.2098 0.340125,-1.7901 0.868125,-2.8903 l 10.250375,-21.3336 -1.142375,-0.01 -0.228875,-0.1258 -0.06838,0.124 -9.595625,-0.056 -2.67125,0 -0.0063,0 0,3.2661 0.0063,0 0,3.8286 2.67125,0 0,-3.8286 6.020125,-3e-4 0.01125,-0.011 0.40925,-0.056 -8.05425,16.4706 c -1.067875,2.1841 -1.298625,3.6082 -1.131,5.567 0.05987,0.7001 0.175,1.3829 0.374125,2.0229 l 0.005,0.096 0.01588,-0.029 c 0.88875,2.7577 3.484125,4.7672 6.52825,4.7672"
         style="fill:#1f1917;fill-opacity:1;fill-rule:evenodd;stroke:none"
         id="path11652"
         inkscape:connector-curvature="0" />
    </g>
  </g>
</svg>
