<?xml version="1.0" encoding="UTF-8" standalone="no"?>
<svg
   xmlns:dc="http://purl.org/dc/elements/1.1/"
   xmlns:cc="http://creativecommons.org/ns#"
   xmlns:rdf="http://www.w3.org/1999/02/22-rdf-syntax-ns#"
   xmlns:svg="http://www.w3.org/2000/svg"
   xmlns="http://www.w3.org/2000/svg"
   xmlns:sodipodi="http://sodipodi.sourceforge.net/DTD/sodipodi-0.dtd"
   xmlns:inkscape="http://www.inkscape.org/namespaces/inkscape"
   version="1.1"
   id="svg2"
   viewBox="0 0 213.32188 318.51639"
   height="89.892403mm"
   width="60.204174mm"
   inkscape:version="0.91 r13725"
   sodipodi:docname="layer47.svg">
  <sodipodi:namedview
     pagecolor="#ffffff"
     bordercolor="#666666"
     borderopacity="1"
     objecttolerance="10"
     gridtolerance="10"
     guidetolerance="10"
     inkscape:pageopacity="0"
     inkscape:pageshadow="2"
     inkscape:window-width="448"
     inkscape:window-height="428"
     id="namedview33"
     showgrid="false"
     inkscape:zoom="0.74093519"
     inkscape:cx="106.66093"
     inkscape:cy="159.25821"
     inkscape:window-x="0"
     inkscape:window-y="0"
     inkscape:window-maximized="0"
     inkscape:current-layer="svg2" />
  <defs
     id="defs4" />
  <metadata
     id="metadata7">
    <rdf:RDF>
      <cc:Work
         rdf:about="">
        <dc:format>image/svg+xml</dc:format>
        <dc:type
           rdf:resource="http://purl.org/dc/dcmitype/StillImage" />
        <dc:title />
      </cc:Work>
    </rdf:RDF>
  </metadata>
  <g
     transform="translate(-265.3863,-366.9229)"
     id="layer47">
    <g
       id="g28459"
       transform="translate(167.51791,-2955.4818)">
      <path
         d="m 107.99015,3322.5397 193.07837,0 c 5.49288,0 9.98675,4.494 9.98675,9.9868 l 0,298.2728 c 0,5.4928 -4.49387,9.9868 -9.98675,9.9868 l -193.07837,0 c -5.49287,0 -9.98675,-4.494 -9.98675,-9.9868 l 0,-298.2728 c 0,-5.4928 4.49388,-9.9868 9.98675,-9.9868 z"
         style="fill:#ffffff;fill-opacity:1;fill-rule:evenodd;stroke:#1f1917;stroke-width:0.27000001;stroke-linecap:butt;stroke-linejoin:miter;stroke-miterlimit:10;stroke-dasharray:none;stroke-opacity:1"
         id="path11624"
         inkscape:connector-curvature="0" />
      <path
         d="m 128.99952,3391.7678 c -0.45175,-1.3351 -9.49862,-14.4758 -10.46624,-15.8804 l 0,-0.1297 c -0.001,0 -0.0191,0.027 -0.0454,0.065 -0.0255,-0.039 -0.0433,-0.063 -0.0446,-0.065 l 0,0.1297 c -0.96837,1.4046 -10.01449,14.5453 -10.46687,15.8804 -0.47587,1.4099 -0.70837,4.1205 0.68488,5.6689 1.39387,1.5484 2.94275,2.4779 4.02662,2.4779 0.49113,0 1.31388,0.053 2.273,-0.3413 1.09413,-0.6835 2.20675,-2.0696 2.31875,-4.8901 0,0 0.19625,4.82 -1.66075,7.6224 -0.11625,0.2179 -0.23775,0.4209 -0.37312,0.5875 0,0 2.52462,-0.2138 3.24212,-0.2074 0.71788,-0.01 3.24213,0.2074 3.24213,0.2074 -0.13463,-0.1666 -0.25613,-0.3696 -0.37275,-0.5875 -1.85663,-2.8024 -1.66,-7.6224 -1.66,-7.6224 0.11087,2.8205 1.22412,4.2066 2.31875,4.8901 0.95812,0.3944 1.7815,0.3413 2.27187,0.3413 1.085,0 2.6335,-0.9295 4.02663,-2.4779 1.39437,-1.5484 1.1615,-4.259 0.685,-5.6689"
         style="fill:#171717;fill-opacity:1;fill-rule:evenodd;stroke:none"
         id="path11626"
         inkscape:connector-curvature="0" />
      <path
         d="m 281.88215,3571.8465 c 0.45187,1.3351 9.49863,14.4757 10.46625,15.8804 l 0,0.1296 c 10e-4,0 0.0191,-0.026 0.0454,-0.065 0.0255,0.039 0.0433,0.063 0.0446,0.065 l 0,-0.1296 c 0.96837,-1.4047 10.0145,-14.5453 10.467,-15.8804 0.47588,-1.4099 0.70825,-4.1205 -0.685,-5.669 -1.39388,-1.5484 -2.94263,-2.4778 -4.02662,-2.4778 -0.49101,0 -1.31375,-0.053 -2.27301,0.3411 -1.09412,0.6836 -2.20674,2.0698 -2.31875,4.8902 0,0 -0.19625,-4.8199 1.66075,-7.6224 0.11626,-0.2179 0.23775,-0.4209 0.37313,-0.5874 0,0 -2.52463,0.2137 -3.24213,0.2073 -0.71787,0.01 -3.24212,-0.2073 -3.24212,-0.2073 0.13462,0.1665 0.25625,0.3695 0.37275,0.5874 1.85675,2.8025 1.66,7.6224 1.66,7.6224 -0.11088,-2.8204 -1.22413,-4.2066 -2.31863,-4.8902 -0.95812,-0.3943 -1.78162,-0.3411 -2.272,-0.3411 -1.085,0 -2.63337,0.9294 -4.02662,2.4778 -1.39425,1.5485 -1.1615,4.2591 -0.685,5.669"
         style="fill:#171717;fill-opacity:1;fill-rule:evenodd;stroke:none"
         id="path11628"
         inkscape:connector-curvature="0" />
      <path
         d="m 268.9864,3585.8131 c -0.781,-2.3087 -16.425,-25.032 -18.0985,-27.461 l 0,-0.2243 c -0.004,0 -0.033,0.046 -0.0784,0.1127 -0.0442,-0.067 -0.0747,-0.1095 -0.0772,-0.1127 l 0,0.2243 c -1.67451,2.429 -17.3175,25.1523 -18.09988,27.461 -0.82312,2.4381 -1.225,7.1256 1.1845,9.8029 2.41013,2.6777 5.0885,4.285 6.963,4.285 0.84888,0 2.27188,0.092 3.9305,-0.59 1.89213,-1.182 3.81588,-3.5791 4.00963,-8.4565 0,0 0.3395,8.335 -2.87188,13.1811 -0.20087,0.3766 -0.411,0.7279 -0.64525,1.0159 0,0 4.36575,-0.3695 5.60662,-0.3586 1.24125,-0.011 5.60626,0.3586 5.60626,0.3586 -0.23288,-0.288 -0.44288,-0.6393 -0.64451,-1.0159 -3.21062,-4.8461 -2.8705,-13.1811 -2.8705,-13.1811 0.19175,4.8774 2.11676,7.2745 4.00963,8.4565 1.65687,0.6817 3.0805,0.59 3.92887,0.59 1.87613,0 4.55351,-1.6073 6.96288,-4.285 2.41087,-2.6773 2.00837,-7.3648 1.18425,-9.8029"
         style="fill:#171717;fill-opacity:1;fill-rule:evenodd;stroke:none"
         id="path11630"
         inkscape:connector-curvature="0" />
      <path
         d="m 178.76103,3387.6799 c -0.78101,-2.3088 -16.42501,-25.0321 -18.0985,-27.4611 l 0,-0.2242 c -0.004,0 -0.033,0.046 -0.0784,0.1126 -0.0443,-0.066 -0.0747,-0.1094 -0.0772,-0.1126 l 0,0.2242 c -1.6745,2.429 -17.3175,25.1523 -18.09987,27.4611 -0.82313,2.4381 -1.22488,7.1256 1.1845,9.8029 2.41012,2.6777 5.0885,4.2849 6.963,4.2849 0.849,0 2.27187,0.092 3.9305,-0.59 1.89212,-1.182 3.81587,-3.5791 4.00962,-8.4564 0,0 0.3395,8.3349 -2.87175,13.181 -0.201,0.3768 -0.41112,0.7279 -0.64525,1.0159 0,0 4.36563,-0.3695 5.6065,-0.3585 1.24125,-0.011 5.60625,0.3585 5.60625,0.3585 -0.23275,-0.288 -0.44287,-0.6391 -0.6445,-1.0159 -3.21062,-4.8461 -2.8705,-13.181 -2.8705,-13.181 0.19175,4.8773 2.11675,7.2744 4.00963,8.4564 1.65687,0.6818 3.08062,0.59 3.92887,0.59 1.87613,0 4.5535,-1.6072 6.96288,-4.2849 2.41087,-2.6773 2.00837,-7.3648 1.18425,-9.8029"
         style="fill:#171717;fill-opacity:1;fill-rule:evenodd;stroke:none"
         id="path11632"
         inkscape:connector-curvature="0" />
      <path
         d="m 223.76027,3485.3107 c -0.781,-2.3087 -16.42499,-25.032 -18.09849,-27.461 l 0,-0.2242 c -0.004,0 -0.033,0.046 -0.0782,0.1126 -0.0444,-0.067 -0.0749,-0.1095 -0.0772,-0.1126 l 0,0.2242 c -1.67463,2.429 -17.31763,25.1523 -18.10001,27.461 -0.82312,2.4382 -1.22487,7.1257 1.18451,9.8029 2.41025,2.6778 5.08862,4.285 6.963,4.285 0.849,0 2.272,0.092 3.93062,-0.59 1.89213,-1.182 3.81575,-3.5791 4.00963,-8.4564 0,0 0.33937,8.3349 -2.87188,13.181 -0.20088,0.3768 -0.411,0.7279 -0.64525,1.0159 0,0 4.36575,-0.3695 5.60662,-0.3585 1.24113,-0.011 5.60613,0.3585 5.60613,0.3585 -0.23275,-0.288 -0.44288,-0.6391 -0.6445,-1.0159 -3.21063,-4.8461 -2.87038,-13.181 -2.87038,-13.181 0.19163,4.8773 2.11675,7.2744 4.00951,8.4564 1.65687,0.6818 3.08062,0.59 3.92887,0.59 1.87613,0 4.5535,-1.6072 6.963,-4.285 2.41088,-2.6772 2.00825,-7.3647 1.18412,-9.8029"
         style="fill:#171717;fill-opacity:1;fill-rule:evenodd;stroke:none"
         id="path11634"
         inkscape:connector-curvature="0" />
      <path
         d="m 288.67902,3604.4423 c -1.91587,-1.3357 -3.17587,-3.556 -3.17587,-6.0543 l 0,-3.3208 c 0,-4.0554 3.31862,-7.3757 7.37575,-7.3757 l 0,0 c 4.057,0 7.37575,3.3186 7.37575,7.3757 l 0,0.6579 -2.79213,0 c -0.0539,-2.4756 -2.09487,-4.4854 -4.58362,-4.4854 l 0,0 c -2.52213,0 -4.58513,2.0658 -4.58513,4.585 l 0,1.5431 c 0,2.5201 2.063,4.5854 4.58513,4.5854 l 0,0 c 0.1335,0 0.265,-0.01 0.39575,-0.017 l 0,4.3743 c -0.13038,-0.013 -0.26225,-0.019 -0.39575,-0.019 l 0,0 c -2.34463,0 -4.26225,1.9205 -4.26225,4.2622 l 0,1.4351 c 0,2.3422 1.91762,4.2622 4.26225,4.2622 l 0,0 c 2.34462,0 4.26225,-1.9179 4.26225,-4.2622 l 0,0 2.59437,0 0,0.9517 c 0,3.7716 -3.08512,6.8567 -6.85662,6.8567 l 0,0 c -3.7715,0 -6.85675,-3.0865 -6.85675,-6.8567 l 0,-3.0868 c 0,-2.1913 1.04325,-4.1503 2.65687,-5.4079"
         style="fill:#1f1917;fill-opacity:1;fill-rule:evenodd;stroke:none"
         id="path11636"
         inkscape:connector-curvature="0" />
      <path
         d="m 121.8154,3356.7298 c 1.91587,1.3358 3.17588,3.556 3.17588,6.0544 l 0,3.3208 c 0,4.0553 -3.31863,7.3757 -7.37576,7.3757 l 0,0 c -4.057,0 -7.37574,-3.3186 -7.37574,-7.3757 l 0,-0.6579 2.79212,0 c 0.0539,2.4756 2.09488,4.4854 4.58362,4.4854 l 0,0 c 2.52213,0 4.58513,-2.0658 4.58513,-4.585 l 0,-1.5432 c 0,-2.5199 -2.063,-4.5853 -4.58513,-4.5853 l 0,0 c -0.1335,0 -0.26499,0.01 -0.39574,0.017 l 0,-4.3743 c 0.13037,0.013 0.26224,0.019 0.39574,0.019 l 0,0 c 2.34463,0 4.26226,-1.9205 4.26226,-4.2622 l 0,-1.4352 c 0,-2.3421 -1.91763,-4.2621 -4.26226,-4.2621 l 0,0 c -2.34462,0 -4.26225,1.9179 -4.26225,4.2621 l 0,0 -2.59437,0 0,-0.9518 c 0,-3.7714 3.08512,-6.8566 6.85662,-6.8566 l 0,0 c 3.7715,0 6.85663,3.0865 6.85663,6.8566 l 0,3.0869 c 0,2.1913 -1.04312,4.1503 -2.65675,5.4079"
         style="fill:#1f1917;fill-opacity:1;fill-rule:evenodd;stroke:none"
         id="path11638"
         inkscape:connector-curvature="0" />
    </g>
    <g
       id="g37266"
       transform="translate(-61.994846,-2957.6758)">
      <path
         d="m 337.5029,3324.7337 193.07837,0 c 5.49288,0 9.98676,4.494 9.98676,9.9869 l 0,298.2727 c 0,5.4928 -4.49388,9.9868 -9.98676,9.9868 l -193.07837,0 c -5.49288,0 -9.98675,-4.494 -9.98675,-9.9868 l 0,-298.2727 c 0,-5.4929 4.49387,-9.9869 9.98675,-9.9869 z"
         style="fill:#ffffff;fill-opacity:1;fill-rule:evenodd;stroke:#1f1917;stroke-width:0.27000001;stroke-linecap:butt;stroke-linejoin:miter;stroke-miterlimit:10;stroke-dasharray:none;stroke-opacity:1"
         id="path11698"
         inkscape:connector-curvature="0" />
      <g
         id="g28469">
        <path
           id="path11700"
           style="fill:#b32621;fill-opacity:1;fill-rule:evenodd;stroke:none"
           d="m 357.97865,3383.8436 c -1.40637,-1.5626 -2.969,-2.4999 -4.06238,-2.4999 -1.06274,0 -3.65987,-0.2572 -5.85537,4.2333 -2.18625,-4.4061 -4.75825,-4.1553 -5.8145,-4.1553 -1.09387,0 -2.6565,0.9375 -4.06288,2.5001 -1.40587,1.5623 -1.17175,4.2967 -0.69087,5.7197 0.48112,1.4226 10.525,16.077 10.525,16.077 0,0 10.17113,-14.7328 10.65188,-16.1554 0.48087,-1.4226 0.7155,-4.157 -0.69088,-5.7195"
           inkscape:connector-curvature="0" />
        <path
           id="path11702"
           style="fill:#b32621;fill-opacity:1;fill-rule:evenodd;stroke:none"
           d="m 513.09465,3585.1632 c 1.40638,1.5626 2.969,2.4999 4.0625,2.4999 1.06263,0 3.65988,0.2572 5.85525,-4.2332 2.18625,4.4061 4.75837,4.1552 5.81463,4.1552 1.09375,0 2.65637,-0.9375 4.06275,-2.5001 1.406,-1.5623 1.17175,-4.2967 0.69087,-5.7196 -0.48113,-1.4227 -10.525,-16.0771 -10.525,-16.0771 0,0 -10.17113,14.7327 -10.65188,16.1553 -0.48087,1.4227 -0.71537,4.1571 0.69088,5.7196"
           inkscape:connector-curvature="0" />
        <path
           id="path11704"
           style="fill:#b32621;fill-opacity:1;fill-rule:evenodd;stroke:none"
           d="m 410.03227,3366.0043 c -2.67237,-2.9692 -5.64162,-4.7501 -7.71937,-4.7501 -2.019,0 -6.9545,-0.4886 -11.126,8.0437 -4.15425,-8.3722 -9.0415,-7.8956 -11.04875,-7.8956 -2.07813,0 -5.0475,1.7817 -7.71987,4.7509 -2.67163,2.9686 -2.22663,8.1641 -1.31276,10.868 0.91413,2.7033 19.99913,30.549 19.99913,30.549 0,0 19.32662,-27.9946 20.24037,-30.6977 0.9135,-2.7033 1.35925,-7.8988 -1.31275,-10.8682"
           inkscape:connector-curvature="0" />
        <path
           id="path11706"
           style="fill:#b32621;fill-opacity:1;fill-rule:evenodd;stroke:none"
           d="m 453.02252,3463.6352 c -2.67237,-2.9692 -5.64162,-4.7501 -7.7195,-4.7501 -2.01887,0 -6.95437,-0.4886 -11.12587,8.0436 -4.15425,-8.3721 -9.0415,-7.8955 -11.04875,-7.8955 -2.07825,0 -5.0475,1.7816 -7.71988,4.7509 -2.67162,2.9686 -2.22662,8.1641 -1.31275,10.868 0.91413,2.7032 19.99913,30.549 19.99913,30.549 0,0 19.32662,-27.9946 20.24037,-30.6977 0.9135,-2.7033 1.35925,-7.8988 -1.31275,-10.8682"
           inkscape:connector-curvature="0" />
        <path
           id="path11708"
           style="fill:#b32621;fill-opacity:1;fill-rule:evenodd;stroke:none"
           d="m 496.99252,3566.5697 c -2.67237,-2.9692 -5.64175,-4.7501 -7.71949,-4.7501 -2.019,0 -6.95451,-0.4886 -11.12601,8.0436 -4.15412,-8.3721 -9.04137,-7.8955 -11.04875,-7.8955 -2.07812,0 -5.04737,1.7817 -7.71975,4.7509 -2.67162,2.9686 -2.22662,8.1641 -1.31275,10.868 0.91413,2.7033 19.99913,30.549 19.99913,30.549 0,0 19.3265,-27.9946 20.24037,-30.6978 0.9135,-2.7032 1.35925,-7.8987 -1.31275,-10.8681"
           inkscape:connector-curvature="0" />
        <path
           id="path11710"
           style="fill:#b32621;fill-opacity:1;fill-rule:evenodd;stroke:none"
           d="m 353.5839,3358.2881 c 1.91587,1.3359 3.17588,3.5561 3.17588,6.0545 l 0,3.3207 c 0,4.0554 -3.31875,7.3758 -7.37576,7.3758 l 0,0 c -4.05712,0 -7.37575,-3.3186 -7.37575,-7.3758 l 0,-0.6579 2.79213,0 c 0.0539,2.4757 2.09475,4.4855 4.58362,4.4855 l 0,0 c 2.52213,0 4.58501,-2.0658 4.58501,-4.585 l 0,-1.5432 c 0,-2.52 -2.06288,-4.5854 -4.58501,-4.5854 l 0,0 c -0.13362,0 -0.26512,0.01 -0.39587,0.017 l 0,-4.3742 c 0.13038,0.013 0.26225,0.019 0.39587,0.019 l 0,0 c 2.34451,0 4.26225,-1.9205 4.26225,-4.2623 l 0,-1.4351 c 0,-2.3421 -1.91774,-4.2622 -4.26225,-4.2622 l 0,0 c -2.34462,0 -4.26224,1.918 -4.26224,4.2622 l 0,0 -2.59451,0 0,-0.9516 c 0,-3.7715 3.08526,-6.8568 6.85675,-6.8568 l 0,0 c 3.77151,0 6.85663,3.0866 6.85663,6.8568 l 0,3.0868 c 0,2.1911 -1.04313,4.1503 -2.65675,5.4078"
           inkscape:connector-curvature="0" />
        <path
           id="path11712"
           style="fill:#b32621;fill-opacity:1;fill-rule:evenodd;stroke:none"
           d="m 519.62752,3606.6365 c -1.91587,-1.3359 -3.17587,-3.5562 -3.17587,-6.0545 l 0,-3.3208 c 0,-4.0554 3.31862,-7.3757 7.37575,-7.3757 l 0,0 c 4.057,0 7.37575,3.3186 7.37575,7.3757 l 0,0.658 -2.79212,0 c -0.0539,-2.4757 -2.09488,-4.4855 -4.58363,-4.4855 l 0,0 c -2.52213,0 -4.58512,2.0658 -4.58512,4.585 l 0,1.5432 c 0,2.52 2.06299,4.5853 4.58512,4.5853 l 0,0 c 0.1335,0 0.265,-0.01 0.39575,-0.017 l 0,4.3743 c -0.13037,-0.012 -0.26225,-0.019 -0.39575,-0.019 l 0,0 c -2.34463,0 -4.26225,1.9205 -4.26225,4.2622 l 0,1.4351 c 0,2.3422 1.91762,4.2623 4.26225,4.2623 l 0,0 c 2.34463,0 4.26225,-1.918 4.26225,-4.2623 l 0,0 2.59438,0 0,0.9518 c 0,3.7715 -3.08513,6.8567 -6.85663,6.8567 l 0,0 c -3.7715,0 -6.85663,-3.0866 -6.85663,-6.8567 l 0,-3.0869 c 0,-2.1913 1.04313,-4.1503 2.65675,-5.4078"
           inkscape:connector-curvature="0" />
        <path
           id="path11714"
           style="fill:#ffffff;fill-opacity:1;fill-rule:evenodd;stroke:#1f1917;stroke-width:0.27000001;stroke-linecap:butt;stroke-linejoin:miter;stroke-miterlimit:10;stroke-dasharray:none;stroke-opacity:1"
           d="m 337.5029,3324.7337 193.07837,0 c 5.49288,0 9.98676,4.494 9.98676,9.9869 l 0,298.2727 c 0,5.4928 -4.49388,9.9868 -9.98676,9.9868 l -193.07837,0 c -5.49288,0 -9.98675,-4.494 -9.98675,-9.9868 l 0,-298.2727 c 0,-5.4929 4.49387,-9.9869 9.98675,-9.9869 z"
           inkscape:connector-curvature="0" />
        <path
           id="path11716"
           style="fill:#171717;fill-opacity:1;fill-rule:evenodd;stroke:none"
           d="m 342.05965,3384.5526 c 0.36425,-2.5257 1.53425,-3.6263 3.32388,-4.2404 3.26062,-1.1167 7.3315,0.7009 8.10187,3.6011 0.68238,2.5707 -0.747,4.3055 -2.40138,6.6016 1.84325,-0.5532 2.55163,-1.6027 4.80125,-1.2012 1.9945,0.3579 3.36925,2.5612 3.60101,3.601 0.87874,3.959 -1.84213,7.5622 -5.10126,7.5013 -1.46625,-0.027 -2.019,-0.6445 -2.70037,-1.1998 -1.3535,-1.1048 -1.6405,-2.0375 -2.7,-3.301 -0.46875,0.6594 -0.13175,1.4698 0,2.1009 0.17187,0.8266 0.659,1.4197 0.89962,2.0998 0.26863,0.7578 0.326,1.682 0.60063,2.4008 0.23562,0.619 1.18662,1.1393 0.59912,1.7994 -2.10324,-0.1964 -4.996,0.3967 -6.60012,-0.2987 0.62262,-2.3804 2.47437,-5.1237 1.50025,-8.1022 -0.55413,4.8098 -6.43,5.445 -8.82038,2.5179 -1.73262,-2.1224 -2.448,-8.4376 3.41863,-9.1194 1.12325,-0.1304 2.22312,0.5346 3.301,0.901 -0.56413,-1.8361 -1.83125,-2.6542 -1.82375,-5.063 0,-0.2002 0,-0.4003 0,-0.5991"
           inkscape:connector-curvature="0" />
        <path
           id="path11718"
           style="fill:#171717;fill-opacity:1;fill-rule:evenodd;stroke:none"
           d="m 528.58852,3582.4002 c -0.36424,2.5256 -1.53425,3.6263 -3.324,4.2403 -3.2605,1.1168 -7.33149,-0.7009 -8.10175,-3.6011 -0.6825,-2.5707 0.74688,-4.3054 2.40125,-6.6016 -1.84325,0.5532 -2.5515,1.6027 -4.80112,1.2013 -1.9945,-0.3579 -3.36938,-2.5611 -3.60113,-3.6011 -0.87875,-3.9589 1.84225,-7.5622 5.10138,-7.5011 1.46612,0.027 2.019,0.6444 2.70037,1.1997 1.3535,1.1047 1.6405,2.0374 2.7,3.3009 0.46875,-0.6594 0.13175,-1.4698 0,-2.1008 -0.17187,-0.8267 -0.65912,-1.4198 -0.89975,-2.0997 -0.2685,-0.758 -0.32587,-1.682 -0.6005,-2.401 -0.23562,-0.619 -1.18675,-1.1392 -0.59925,-1.7993 2.10338,0.1963 4.99613,-0.3968 6.60013,0.2986 -0.6225,2.3804 -2.47425,5.1237 -1.50025,8.1022 0.55425,-4.8097 6.43012,-5.445 8.82037,-2.5179 1.73275,2.1225 2.44813,8.4377 -3.4185,9.1195 -1.12325,0.1304 -2.22312,-0.5348 -3.301,-0.9011 0.56413,1.8361 1.83113,2.6542 1.82375,5.063 0,0.2002 0,0.4005 0,0.5992"
           inkscape:connector-curvature="0" />
        <path
           id="path11720"
           style="fill:#171717;fill-opacity:1;fill-rule:evenodd;stroke:none"
           d="m 377.8094,3370.5051 c 0.71337,-4.9461 3.00475,-7.1011 6.5095,-8.3038 6.38537,-2.1872 14.3575,1.3728 15.86587,7.0523 1.33651,5.034 -1.46275,8.4314 -4.70237,12.9277 3.60962,-1.0831 4.99675,-3.1382 9.40212,-2.3523 3.90625,0.7008 6.59838,5.0155 7.05225,7.0522 1.72063,7.7528 -3.60774,14.8093 -9.99,14.6899 -2.8715,-0.053 -3.95387,-1.2621 -5.28837,-2.3496 -2.65075,-2.1635 -3.21263,-3.9901 -5.28725,-6.4644 -0.91813,1.2915 -0.25838,2.8782 0,4.1141 0.33625,1.6189 1.29037,2.7804 1.76175,4.112 0.52575,1.4843 0.6385,3.2939 1.176,4.702 0.46162,1.2121 2.324,2.2309 1.1735,3.5234 -4.11913,-0.3844 -9.78412,0.7771 -12.92525,-0.585 1.21925,-4.6615 4.8455,-10.0335 2.93813,-15.8665 -1.08538,9.4187 -12.59225,10.6632 -17.27325,4.9309 -3.39313,-4.1564 -4.79413,-16.5239 6.69462,-17.859 2.19975,-0.2552 4.35338,1.0473 6.4645,1.7646 -1.10487,-3.5958 -3.58625,-5.1978 -3.57175,-9.915 0,-0.3921 0,-0.7841 0,-1.1735"
           inkscape:connector-curvature="0" />
        <path
           id="path11722"
           style="fill:#171717;fill-opacity:1;fill-rule:evenodd;stroke:none"
           d="m 421.49277,3465.8626 c 0.71325,-4.9461 3.00475,-7.1011 6.50938,-8.3038 6.38537,-2.1872 14.3575,1.3727 15.86587,7.0523 1.3365,5.034 -1.46262,8.4312 -4.70225,12.9278 3.6095,-1.0832 4.99675,-3.1383 9.40213,-2.3524 3.90612,0.7009 6.59837,5.0155 7.05225,7.0522 1.72062,7.7528 -3.60788,14.8093 -9.99,14.6899 -2.8715,-0.053 -3.954,-1.2621 -5.28838,-2.3496 -2.65074,-2.1635 -3.21274,-3.9901 -5.28737,-6.4644 -0.918,1.2915 -0.25825,2.8782 0,4.1141 0.33625,1.6189 1.2905,2.7804 1.76175,4.112 0.52587,1.4843 0.6385,3.2939 1.176,4.702 0.46175,1.2121 2.32412,2.2309 1.17362,3.5234 -4.11912,-0.3844 -9.78425,0.7771 -12.92537,-0.585 1.21925,-4.6615 4.8455,-10.0335 2.93812,-15.8665 -1.08525,9.4187 -12.59212,10.6632 -17.27325,4.9309 -3.39312,-4.1564 -4.79412,-16.5239 6.69475,-17.859 2.19963,-0.2552 4.35325,1.0473 6.46438,1.7645 -1.10475,-3.5958 -3.58613,-5.1976 -3.57163,-9.9149 0,-0.3922 0,-0.7841 0,-1.1735"
           inkscape:connector-curvature="0" />
        <path
           id="path11724"
           style="fill:#171717;fill-opacity:1;fill-rule:evenodd;stroke:none"
           d="m 468.8724,3569.9544 c 0.71338,-4.9462 3.00475,-7.1012 6.5095,-8.3038 6.38537,-2.1872 14.35737,1.3726 15.86587,7.0522 1.3365,5.034 -1.46275,8.4313 -4.70237,12.9278 3.60962,-1.0833 4.99675,-3.1384 9.40212,-2.3524 3.90613,0.7009 6.59838,5.0155 7.05225,7.0523 1.72063,7.7527 -3.60775,14.8092 -9.98999,14.6897 -2.8715,-0.053 -3.954,-1.2621 -5.28838,-2.3495 -2.65075,-2.1635 -3.21275,-3.9901 -5.28725,-6.4643 -0.91812,1.2914 -0.25837,2.8781 0,4.1141 0.33625,1.6188 1.29038,2.7803 1.76163,4.112 0.52587,1.4842 0.6385,3.2939 1.17612,4.7018 0.46163,1.2123 2.324,2.2309 1.1735,3.5236 -4.11912,-0.3844 -9.78412,0.7771 -12.92525,-0.585 1.21925,-4.6616 4.8455,-10.0335 2.93813,-15.8665 -1.08538,9.4187 -12.59225,10.6631 -17.27325,4.9308 -3.39313,-4.1563 -4.79413,-16.5239 6.69462,-17.859 2.19975,-0.2551 4.35338,1.0474 6.4645,1.7645 -1.10487,-3.5957 -3.58625,-5.1976 -3.57175,-9.9149 0,-0.3922 0,-0.7841 0,-1.1734"
           inkscape:connector-curvature="0" />
        <path
           id="path11726"
           style="fill:#1f1917;fill-opacity:1;fill-rule:evenodd;stroke:none"
           d="m 351.43027,3359.006 c 1.91588,1.3358 3.17588,3.5561 3.17588,6.0545 l 0,3.3207 c 0,4.0554 -3.31875,7.3758 -7.37575,7.3758 l 0,0 c -4.05712,0 -7.37575,-3.3186 -7.37575,-7.3758 l 0,-0.658 2.79212,0 c 0.0539,2.4758 2.09475,4.4855 4.58363,4.4855 l 0,0 c 2.52213,0 4.585,-2.0657 4.585,-4.585 l 0,-1.5431 c 0,-2.52 -2.06287,-4.5854 -4.585,-4.5854 l 0,0 c -0.13362,0 -0.26512,0.01 -0.39587,0.017 l 0,-4.3742 c 0.1305,0.013 0.26225,0.019 0.39587,0.019 l 0,0 c 2.34463,0 4.26225,-1.9205 4.26225,-4.2623 l 0,-1.4351 c 0,-2.3421 -1.91762,-4.2623 -4.26225,-4.2623 l 0,0 c -2.34462,0 -4.26225,1.9181 -4.26225,4.2623 l 0,0 -2.5945,0 0,-0.9516 c 0,-3.7715 3.08525,-6.8567 6.85675,-6.8567 l 0,0 c 3.7715,0 6.85663,3.0866 6.85663,6.8567 l 0,3.0869 c 0,2.1911 -1.04313,4.1502 -2.65676,5.4077"
           inkscape:connector-curvature="0" />
        <path
           id="path11728"
           style="fill:#1f1917;fill-opacity:1;fill-rule:evenodd;stroke:none"
           d="m 518.19177,3606.6365 c -1.91587,-1.3359 -3.17587,-3.5562 -3.17587,-6.0545 l 0,-3.3208 c 0,-4.0554 3.31862,-7.3757 7.37575,-7.3757 l 0,0 c 4.057,0 7.37575,3.3186 7.37575,7.3757 l 0,0.658 -2.79213,0 c -0.0539,-2.4757 -2.09487,-4.4855 -4.58362,-4.4855 l 0,0 c -2.52212,0 -4.58513,2.0658 -4.58513,4.585 l 0,1.5432 c 0,2.52 2.06301,4.5853 4.58513,4.5853 l 0,0 c 0.1335,0 0.265,-0.01 0.39575,-0.017 l 0,4.3743 c -0.13038,-0.012 -0.26225,-0.019 -0.39575,-0.019 l 0,0 c -2.34463,0 -4.26225,1.9205 -4.26225,4.2622 l 0,1.4351 c 0,2.3422 1.91762,4.2623 4.26225,4.2623 l 0,0 c 2.34462,0 4.26225,-1.918 4.26225,-4.2623 l 0,0 2.59438,0 0,0.9518 c 0,3.7715 -3.08513,6.8567 -6.85663,6.8567 l 0,0 c -3.7715,0 -6.85663,-3.0866 -6.85663,-6.8567 l 0,-3.0869 c 0,-2.1913 1.04313,-4.1503 2.65675,-5.4078"
           inkscape:connector-curvature="0" />
      </g>
    </g>
  </g>
</svg>
