<?xml version="1.0" encoding="UTF-8" standalone="no"?>
<svg
   xmlns:dc="http://purl.org/dc/elements/1.1/"
   xmlns:cc="http://creativecommons.org/ns#"
   xmlns:rdf="http://www.w3.org/1999/02/22-rdf-syntax-ns#"
   xmlns:svg="http://www.w3.org/2000/svg"
   xmlns="http://www.w3.org/2000/svg"
   xmlns:sodipodi="http://sodipodi.sourceforge.net/DTD/sodipodi-0.dtd"
   xmlns:inkscape="http://www.inkscape.org/namespaces/inkscape"
   version="1.1"
   id="svg2"
   viewBox="0 0 213.32188 318.51639"
   height="89.892403mm"
   width="60.204174mm"
   inkscape:version="0.91 r13725"
   sodipodi:docname="layer46.svg">
  <sodipodi:namedview
     pagecolor="#ffffff"
     bordercolor="#666666"
     borderopacity="1"
     objecttolerance="10"
     gridtolerance="10"
     guidetolerance="10"
     inkscape:pageopacity="0"
     inkscape:pageshadow="2"
     inkscape:window-width="640"
     inkscape:window-height="480"
     id="namedview15"
     showgrid="false"
     inkscape:zoom="0.74093519"
     inkscape:cx="106.66094"
     inkscape:cy="159.25821"
     inkscape:window-x="0"
     inkscape:window-y="0"
     inkscape:window-maximized="0"
     inkscape:current-layer="svg2" />
  <defs
     id="defs4" />
  <metadata
     id="metadata7">
    <rdf:RDF>
      <cc:Work
         rdf:about="">
        <dc:format>image/svg+xml</dc:format>
        <dc:type
           rdf:resource="http://purl.org/dc/dcmitype/StillImage" />
        <dc:title />
      </cc:Work>
    </rdf:RDF>
  </metadata>
  <g
     transform="translate(-265.38631,-366.9229)"
     id="layer46">
    <g
       id="g28405"
       transform="translate(397.03066,-2962.0638)">
      <path
         d="m -121.5226,3329.1217 193.078375,0 c 5.49275,0 9.98675,4.494 9.98675,9.9869 l 0,298.2727 c 0,5.4929 -4.494,9.9868 -9.98675,9.9868 l -193.078375,0 c -5.49288,0 -9.98675,-4.4939 -9.98675,-9.9868 l 0,-298.2727 c 0,-5.4929 4.49387,-9.9869 9.98675,-9.9869 z"
         style="fill:#ffffff;fill-opacity:1;fill-rule:evenodd;stroke:#1f1917;stroke-width:0.27000001;stroke-linecap:butt;stroke-linejoin:miter;stroke-miterlimit:10;stroke-dasharray:none;stroke-opacity:1"
         id="path11608"
         inkscape:connector-curvature="0" />
      <path
         d="m -68.2971,3364.4486 c 0,0 -4.931625,18.8145 -17.90125,25.7549 0,0 15.5265,9.8635 18.083375,24.6592 0,0 4.9315,-18.2653 18.266375,-24.8407 0,0 -13.334875,-7.1242 -18.4485,-25.5734"
         style="fill:#b32621;fill-opacity:1;fill-rule:evenodd;stroke:none"
         id="path11610"
         inkscape:connector-curvature="0" />
      <path
         d="m 20.16365,3563.4854 c 0,0 -4.931625,18.8146 -17.901125,25.7548 0,0 15.526375,9.8635 18.08325,24.6593 0,0 4.9315,-18.2654 18.266375,-24.8408 0,0 -13.334875,-7.1241 -18.4485,-25.5733"
         style="fill:#b32621;fill-opacity:1;fill-rule:evenodd;stroke:none"
         id="path11612"
         inkscape:connector-curvature="0" />
      <path
         d="m -24.816225,3462.9793 c 0,0 -4.9315,18.8147 -17.901125,25.755 0,0 15.5265,9.8636 18.08325,24.6593 0,0 4.931625,-18.2654 18.2665,-24.8407 0,0 -13.334875,-7.1242 -18.448625,-25.5736"
         style="fill:#b32621;fill-opacity:1;fill-rule:evenodd;stroke:none"
         id="path11614"
         inkscape:connector-curvature="0" />
      <path
         d="m -109.9711,3382.5428 c 0,0 -2.8665,10.9364 -10.40525,14.9704 0,0 9.02512,5.7335 10.51125,14.3338 0,0 2.8665,-10.6172 10.617875,-14.4393 0,0 -7.751375,-4.1411 -10.723875,-14.8649"
         style="fill:#b32621;fill-opacity:1;fill-rule:evenodd;stroke:none"
         id="path11616"
         inkscape:connector-curvature="0" />
      <path
         d="m 63.934775,3561.4748 c 0,0 -2.8665,10.9364 -10.40525,14.9706 0,0 9.025125,5.7333 10.51125,14.3337 0,0 2.8665,-10.6172 10.617875,-14.4394 0,0 -7.751375,-4.1411 -10.723875,-14.8649"
         style="fill:#b32621;fill-opacity:1;fill-rule:evenodd;stroke:none"
         id="path11618"
         inkscape:connector-curvature="0" />
      <path
         d="m -106.87735,3362.6762 c 1.91588,1.3358 3.17587,3.556 3.17587,6.0544 l 0,3.3209 c 0,4.0552 -3.31874,7.3757 -7.37575,7.3757 l 0,0 c -4.05712,0 -7.37574,-3.3187 -7.37574,-7.3757 l 0,-0.658 2.79212,0 c 0.0537,2.4756 2.09475,4.4854 4.58362,4.4854 l 0,0 c 2.52213,0 4.58501,-2.0658 4.58501,-4.585 l 0,-1.5432 c 0,-2.52 -2.06288,-4.5854 -4.58501,-4.5854 l 0,0 c -0.13362,0 -0.26512,0.01 -0.39587,0.017 l 0,-4.3743 c 0.13037,0.012 0.26225,0.018 0.39587,0.018 l 0,0 c 2.34451,0 4.26226,-1.9205 4.26226,-4.2623 l 0,-1.435 c 0,-2.3421 -1.91775,-4.2622 -4.26226,-4.2622 l 0,0 c -2.34462,0 -4.26224,1.9179 -4.26224,4.2622 l 0,0 -2.5945,0 0,-0.9518 c 0,-3.7714 3.08524,-6.8566 6.85674,-6.8566 l 0,0 c 3.77151,0 6.85663,3.0865 6.85663,6.8566 l 0,3.0869 c 0,2.1913 -1.04313,4.1503 -2.65675,5.4079"
         style="fill:#b32621;fill-opacity:1;fill-rule:evenodd;stroke:none"
         id="path11620"
         inkscape:connector-curvature="0" />
      <path
         d="m 59.166275,3609.5887 c -1.915875,-1.3359 -3.175875,-3.5561 -3.175875,-6.0545 l 0,-3.3207 c 0,-4.0554 3.318625,-7.3758 7.37575,-7.3758 l 0,0 c 4.057,0 7.37575,3.3186 7.37575,7.3758 l 0,0.658 -2.792125,0 c -0.05388,-2.4758 -2.094875,-4.4855 -4.583625,-4.4855 l 0,0 c -2.522125,0 -4.585125,2.0657 -4.585125,4.585 l 0,1.5431 c 0,2.52 2.063,4.5854 4.585125,4.5854 l 0,0 c 0.1335,0 0.265,0 0.39575,-0.017 l 0,4.3742 c -0.130375,-0.013 -0.26225,-0.018 -0.39575,-0.018 l 0,0 c -2.344625,0 -4.26225,1.9203 -4.26225,4.2622 l 0,1.435 c 0,2.3421 1.917625,4.2622 4.26225,4.2622 l 0,0 c 2.344625,0 4.26225,-1.918 4.26225,-4.2622 l 0,0 2.594375,0 0,0.9518 c 0,3.7715 -3.085125,6.8566 -6.856625,6.8566 l 0,0 c -3.7715,0 -6.85675,-3.0866 -6.85675,-6.8566 l 0,-3.087 c 0,-2.1911 1.04325,-4.1503 2.656875,-5.4077"
         style="fill:#b32621;fill-opacity:1;fill-rule:evenodd;stroke:none"
         id="path11622"
         inkscape:connector-curvature="0" />
    </g>
  </g>
</svg>
