<?xml version="1.0" encoding="UTF-8" standalone="no"?>
<svg
   xmlns:dc="http://purl.org/dc/elements/1.1/"
   xmlns:cc="http://creativecommons.org/ns#"
   xmlns:rdf="http://www.w3.org/1999/02/22-rdf-syntax-ns#"
   xmlns:svg="http://www.w3.org/2000/svg"
   xmlns="http://www.w3.org/2000/svg"
   xmlns:sodipodi="http://sodipodi.sourceforge.net/DTD/sodipodi-0.dtd"
   xmlns:inkscape="http://www.inkscape.org/namespaces/inkscape"
   version="1.1"
   id="svg2"
   viewBox="0 0 213.32188 318.51639"
   height="89.892403mm"
   width="60.204174mm"
   inkscape:version="0.91 r13725"
   sodipodi:docname="layer49.svg">
  <sodipodi:namedview
     pagecolor="#ffffff"
     bordercolor="#666666"
     borderopacity="1"
     objecttolerance="10"
     gridtolerance="10"
     guidetolerance="10"
     inkscape:pageopacity="0"
     inkscape:pageshadow="2"
     inkscape:window-width="448"
     inkscape:window-height="428"
     id="namedview15"
     showgrid="false"
     inkscape:zoom="0.74093519"
     inkscape:cx="106.66094"
     inkscape:cy="159.25821"
     inkscape:window-x="0"
     inkscape:window-y="0"
     inkscape:window-maximized="0"
     inkscape:current-layer="svg2" />
  <defs
     id="defs4" />
  <metadata
     id="metadata7">
    <rdf:RDF>
      <cc:Work
         rdf:about="">
        <dc:format>image/svg+xml</dc:format>
        <dc:type
           rdf:resource="http://purl.org/dc/dcmitype/StillImage" />
        <dc:title />
      </cc:Work>
    </rdf:RDF>
  </metadata>
  <g
     transform="translate(-265.3863,-366.9229)"
     id="layer49">
    <g
       id="g28486"
       transform="translate(-291.5076,-2953.2878)">
      <path
         d="m 567.01565,3320.3457 193.07838,0 c 5.49287,0 9.98675,4.494 9.98675,9.9868 l 0,298.2727 c 0,5.4929 -4.49388,9.9869 -9.98675,9.9869 l -193.07838,0 c -5.49275,0 -9.98675,-4.494 -9.98675,-9.9869 l 0,-298.2727 c 0,-5.4928 4.494,-9.9868 9.98675,-9.9868 z"
         style="fill:#ffffff;fill-opacity:1;fill-rule:evenodd;stroke:#1f1917;stroke-width:0.27000001;stroke-linecap:butt;stroke-linejoin:miter;stroke-miterlimit:10;stroke-dasharray:none;stroke-opacity:1"
         id="path11730"
         inkscape:connector-curvature="0" />
      <path
         d="m 587.4914,3379.4555 c -1.40637,-1.5627 -2.969,-2.4998 -4.06238,-2.4998 -1.06262,0 -3.65987,-0.2572 -5.85537,4.2331 -2.18625,-4.406 -4.75825,-4.1552 -5.8145,-4.1552 -1.09388,0 -2.6565,0.9376 -4.06275,2.5002 -1.406,1.5623 -1.17187,4.2967 -0.691,5.7197 0.48112,1.4226 10.525,16.077 10.525,16.077 0,0 10.17112,-14.7328 10.65187,-16.1554 0.48088,-1.4226 0.7155,-4.157 -0.69087,-5.7196"
         style="fill:#b32621;fill-opacity:1;fill-rule:evenodd;stroke:none"
         id="path11732"
         inkscape:connector-curvature="0" />
      <path
         d="m 742.6074,3580.7752 c 1.40637,1.5626 2.969,2.4998 4.0625,2.4998 1.06262,0 3.65987,0.2572 5.85525,-4.2332 2.18625,4.4062 4.75838,4.1553 5.81462,4.1553 1.09375,0 2.65638,-0.9376 4.06275,-2.5001 1.406,-1.5623 1.17175,-4.2967 0.69088,-5.7196 -0.48113,-1.4227 -10.525,-16.0772 -10.525,-16.0772 0,0 -10.17112,14.7328 -10.65187,16.1554 -0.48088,1.4226 -0.71538,4.157 0.69087,5.7196"
         style="fill:#b32621;fill-opacity:1;fill-rule:evenodd;stroke:none"
         id="path11734"
         inkscape:connector-curvature="0" />
      <path
         d="m 639.54503,3361.6163 c -2.67238,-2.9692 -5.64163,-4.7501 -7.71938,-4.7501 -2.019,0 -6.9545,-0.4886 -11.126,8.0437 -4.15425,-8.3722 -9.0415,-7.8956 -11.04875,-7.8956 -2.07813,0 -5.0475,1.7815 -7.71988,4.7509 -2.67162,2.9685 -2.22662,8.1641 -1.31275,10.868 0.91413,2.7033 19.99913,30.549 19.99913,30.549 0,0 19.32662,-27.9946 20.2405,-30.6979 0.91337,-2.7031 1.35912,-7.8986 -1.31288,-10.868"
         style="fill:#b32621;fill-opacity:1;fill-rule:evenodd;stroke:none"
         id="path11736"
         inkscape:connector-curvature="0" />
      <path
         d="m 726.50527,3562.1817 c -2.67237,-2.9692 -5.64175,-4.7501 -7.7195,-4.7501 -2.01899,0 -6.95437,-0.4886 -11.126,8.0436 -4.15412,-8.3721 -9.04137,-7.8955 -11.04875,-7.8955 -2.07812,0 -5.04737,1.7815 -7.71975,4.7509 -2.67162,2.9685 -2.22662,8.1641 -1.31275,10.868 0.91413,2.7031 19.99913,30.549 19.99913,30.549 0,0 19.32662,-27.9946 20.24037,-30.6979 0.9135,-2.7031 1.35925,-7.8987 -1.31275,-10.868"
         style="fill:#b32621;fill-opacity:1;fill-rule:evenodd;stroke:none"
         id="path11738"
         inkscape:connector-curvature="0" />
      <path
         d="m 581.71865,3355.513 c 1.91587,1.3358 3.17587,3.5561 3.17587,6.0545 l 0,3.3207 c 0,4.0554 -3.31874,7.3758 -7.37575,7.3758 l 0,0 c -4.05712,0 -7.37575,-3.3186 -7.37575,-7.3758 l 0,-0.658 2.79213,0 c 0.0539,2.4758 2.09475,4.4855 4.58362,4.4855 l 0,0 c 2.52213,0 4.585,-2.0657 4.585,-4.585 l 0,-1.5431 c 0,-2.52 -2.06287,-4.5854 -4.585,-4.5854 l 0,0 c -0.13362,0 -0.26512,0.01 -0.39587,0.017 l 0,-4.3742 c 0.1305,0.012 0.26225,0.019 0.39587,0.019 l 0,0 c 2.34463,0 4.26225,-1.9205 4.26225,-4.2623 l 0,-1.4351 c 0,-2.3421 -1.91762,-4.2623 -4.26225,-4.2623 l 0,0 c -2.34462,0 -4.26225,1.918 -4.26225,4.2623 l 0,0 -2.59437,0 0,-0.9517 c 0,-3.7715 3.08512,-6.8567 6.85662,-6.8567 l 0,0 c 3.7715,0 6.85663,3.0866 6.85663,6.8567 l 0,3.0869 c 0,2.1913 -1.04313,4.1503 -2.65675,5.4078"
         style="fill:#b32621;fill-opacity:1;fill-rule:evenodd;stroke:none"
         id="path11740"
         inkscape:connector-curvature="0" />
      <path
         d="m 747.73353,3604.2465 c -1.91588,-1.3359 -3.17588,-3.5562 -3.17588,-6.0545 l 0,-3.3208 c 0,-4.0553 3.31875,-7.3757 7.37575,-7.3757 l 0,0 c 4.05713,0 7.37575,3.3186 7.37575,7.3757 l 0,0.658 -2.79212,0 c -0.0539,-2.4757 -2.09475,-4.4855 -4.58363,-4.4855 l 0,0 c -2.52212,0 -4.585,2.0658 -4.585,4.585 l 0,1.5431 c 0,2.5201 2.06288,4.5854 4.585,4.5854 l 0,0 c 0.13363,0 0.26513,-0.01 0.39588,-0.017 l 0,4.3743 c -0.13051,-0.013 -0.26225,-0.018 -0.39588,-0.018 l 0,0 c -2.34463,0 -4.26225,1.9204 -4.26225,4.2623 l 0,1.435 c 0,2.3421 1.91762,4.2622 4.26225,4.2622 l 0,0 c 2.34463,0 4.26225,-1.918 4.26225,-4.2622 l 0,0 2.59438,0 0,0.9517 c 0,3.7716 -3.08513,6.8567 -6.85663,6.8567 l 0,0 c -3.7715,0 -6.85663,-3.0867 -6.85663,-6.8567 l 0,-3.087 c 0,-2.1911 1.04313,-4.1502 2.65676,-5.4077"
         style="fill:#b32621;fill-opacity:1;fill-rule:evenodd;stroke:none"
         id="path11742"
         inkscape:connector-curvature="0" />
      <path
         d="m 682.63165,3460.6862 c -2.67237,-2.9694 -5.64162,-4.7502 -7.7195,-4.7502 -2.01888,0 -6.95437,-0.4886 -11.12588,8.0437 -4.15425,-8.3721 -9.0415,-7.8956 -11.04875,-7.8956 -2.07825,0 -5.0475,1.7816 -7.71987,4.7509 -2.67163,2.9686 -2.22663,8.1641 -1.31275,10.868 0.91412,2.7032 19.99912,30.549 19.99912,30.549 0,0 19.32663,-27.9947 20.24038,-30.6978 0.9135,-2.7032 1.35925,-7.8987 -1.31275,-10.868"
         style="fill:#b32621;fill-opacity:1;fill-rule:evenodd;stroke:none"
         id="path11744"
         inkscape:connector-curvature="0" />
    </g>
  </g>
</svg>
