<?xml version="1.0" encoding="UTF-8" standalone="no"?>
<svg
   xmlns:dc="http://purl.org/dc/elements/1.1/"
   xmlns:cc="http://creativecommons.org/ns#"
   xmlns:rdf="http://www.w3.org/1999/02/22-rdf-syntax-ns#"
   xmlns:svg="http://www.w3.org/2000/svg"
   xmlns="http://www.w3.org/2000/svg"
   version="1.1"
   id="svg8177"
   viewBox="0 0 213.32188 318.51639"
   height="89.892403mm"
   width="60.204174mm">
  <defs
     id="defs8179" />
  <metadata
     id="metadata8182">
    <rdf:RDF>
      <cc:Work
         rdf:about="">
        <dc:format>image/svg+xml</dc:format>
        <dc:type
           rdf:resource="http://purl.org/dc/dcmitype/StillImage" />
        <dc:title></dc:title>
      </cc:Work>
    </rdf:RDF>
  </metadata>
  <g
     transform="translate(-410.48192,-621.6754)"
     id="layer1">
    <g
       id="g28459"
       transform="translate(312.61352,-2700.7293)"
       style="display:inline">
      <path
         d="m 107.99015,3322.5397 193.07837,0 c 5.49288,0 9.98675,4.494 9.98675,9.9868 l 0,298.2728 c 0,5.4928 -4.49387,9.9868 -9.98675,9.9868 l -193.07837,0 c -5.49287,0 -9.98675,-4.494 -9.98675,-9.9868 l 0,-298.2728 c 0,-5.4928 4.49388,-9.9868 9.98675,-9.9868 z"
         style="fill:#ffffff;fill-opacity:1;fill-rule:evenodd;stroke:#1f1917;stroke-width:0.27000001;stroke-linecap:butt;stroke-linejoin:miter;stroke-miterlimit:10;stroke-dasharray:none;stroke-opacity:1"
         id="path11624" />
      <path
         d="m 128.99952,3391.7678 c -0.45175,-1.3351 -9.49862,-14.4758 -10.46624,-15.8804 l 0,-0.1297 c -0.001,0 -0.0191,0.027 -0.0454,0.065 -0.0255,-0.039 -0.0433,-0.063 -0.0446,-0.065 l 0,0.1297 c -0.96837,1.4046 -10.01449,14.5453 -10.46687,15.8804 -0.47587,1.4099 -0.70837,4.1205 0.68488,5.6689 1.39387,1.5484 2.94275,2.4779 4.02662,2.4779 0.49113,0 1.31388,0.053 2.273,-0.3413 1.09413,-0.6835 2.20675,-2.0696 2.31875,-4.8901 0,0 0.19625,4.82 -1.66075,7.6224 -0.11625,0.2179 -0.23775,0.4209 -0.37312,0.5875 0,0 2.52462,-0.2138 3.24212,-0.2074 0.71788,-0.01 3.24213,0.2074 3.24213,0.2074 -0.13463,-0.1666 -0.25613,-0.3696 -0.37275,-0.5875 -1.85663,-2.8024 -1.66,-7.6224 -1.66,-7.6224 0.11087,2.8205 1.22412,4.2066 2.31875,4.8901 0.95812,0.3944 1.7815,0.3413 2.27187,0.3413 1.085,0 2.6335,-0.9295 4.02663,-2.4779 1.39437,-1.5484 1.1615,-4.259 0.685,-5.6689"
         style="fill:#171717;fill-opacity:1;fill-rule:evenodd;stroke:none"
         id="path11626" />
      <path
         d="m 281.88215,3571.8465 c 0.45187,1.3351 9.49863,14.4757 10.46625,15.8804 l 0,0.1296 c 10e-4,0 0.0191,-0.026 0.0454,-0.065 0.0255,0.039 0.0433,0.063 0.0446,0.065 l 0,-0.1296 c 0.96837,-1.4047 10.0145,-14.5453 10.467,-15.8804 0.47588,-1.4099 0.70825,-4.1205 -0.685,-5.669 -1.39388,-1.5484 -2.94263,-2.4778 -4.02662,-2.4778 -0.49101,0 -1.31375,-0.053 -2.27301,0.3411 -1.09412,0.6836 -2.20674,2.0698 -2.31875,4.8902 0,0 -0.19625,-4.8199 1.66075,-7.6224 0.11626,-0.2179 0.23775,-0.4209 0.37313,-0.5874 0,0 -2.52463,0.2137 -3.24213,0.2073 -0.71787,0.01 -3.24212,-0.2073 -3.24212,-0.2073 0.13462,0.1665 0.25625,0.3695 0.37275,0.5874 1.85675,2.8025 1.66,7.6224 1.66,7.6224 -0.11088,-2.8204 -1.22413,-4.2066 -2.31863,-4.8902 -0.95812,-0.3943 -1.78162,-0.3411 -2.272,-0.3411 -1.085,0 -2.63337,0.9294 -4.02662,2.4778 -1.39425,1.5485 -1.1615,4.2591 -0.685,5.669"
         style="fill:#171717;fill-opacity:1;fill-rule:evenodd;stroke:none"
         id="path11628" />
      <path
         d="m 268.9864,3585.8131 c -0.781,-2.3087 -16.425,-25.032 -18.0985,-27.461 l 0,-0.2243 c -0.004,0 -0.033,0.046 -0.0784,0.1127 -0.0442,-0.067 -0.0747,-0.1095 -0.0772,-0.1127 l 0,0.2243 c -1.67451,2.429 -17.3175,25.1523 -18.09988,27.461 -0.82312,2.4381 -1.225,7.1256 1.1845,9.8029 2.41013,2.6777 5.0885,4.285 6.963,4.285 0.84888,0 2.27188,0.092 3.9305,-0.59 1.89213,-1.182 3.81588,-3.5791 4.00963,-8.4565 0,0 0.3395,8.335 -2.87188,13.1811 -0.20087,0.3766 -0.411,0.7279 -0.64525,1.0159 0,0 4.36575,-0.3695 5.60662,-0.3586 1.24125,-0.011 5.60626,0.3586 5.60626,0.3586 -0.23288,-0.288 -0.44288,-0.6393 -0.64451,-1.0159 -3.21062,-4.8461 -2.8705,-13.1811 -2.8705,-13.1811 0.19175,4.8774 2.11676,7.2745 4.00963,8.4565 1.65687,0.6817 3.0805,0.59 3.92887,0.59 1.87613,0 4.55351,-1.6073 6.96288,-4.285 2.41087,-2.6773 2.00837,-7.3648 1.18425,-9.8029"
         style="fill:#171717;fill-opacity:1;fill-rule:evenodd;stroke:none"
         id="path11630" />
      <path
         d="m 178.76103,3387.6799 c -0.78101,-2.3088 -16.42501,-25.0321 -18.0985,-27.4611 l 0,-0.2242 c -0.004,0 -0.033,0.046 -0.0784,0.1126 -0.0443,-0.066 -0.0747,-0.1094 -0.0772,-0.1126 l 0,0.2242 c -1.6745,2.429 -17.3175,25.1523 -18.09987,27.4611 -0.82313,2.4381 -1.22488,7.1256 1.1845,9.8029 2.41012,2.6777 5.0885,4.2849 6.963,4.2849 0.849,0 2.27187,0.092 3.9305,-0.59 1.89212,-1.182 3.81587,-3.5791 4.00962,-8.4564 0,0 0.3395,8.3349 -2.87175,13.181 -0.201,0.3768 -0.41112,0.7279 -0.64525,1.0159 0,0 4.36563,-0.3695 5.6065,-0.3585 1.24125,-0.011 5.60625,0.3585 5.60625,0.3585 -0.23275,-0.288 -0.44287,-0.6391 -0.6445,-1.0159 -3.21062,-4.8461 -2.8705,-13.181 -2.8705,-13.181 0.19175,4.8773 2.11675,7.2744 4.00963,8.4564 1.65687,0.6818 3.08062,0.59 3.92887,0.59 1.87613,0 4.5535,-1.6072 6.96288,-4.2849 2.41087,-2.6773 2.00837,-7.3648 1.18425,-9.8029"
         style="fill:#171717;fill-opacity:1;fill-rule:evenodd;stroke:none"
         id="path11632" />
      <path
         d="m 223.76027,3485.3107 c -0.781,-2.3087 -16.42499,-25.032 -18.09849,-27.461 l 0,-0.2242 c -0.004,0 -0.033,0.046 -0.0782,0.1126 -0.0444,-0.067 -0.0749,-0.1095 -0.0772,-0.1126 l 0,0.2242 c -1.67463,2.429 -17.31763,25.1523 -18.10001,27.461 -0.82312,2.4382 -1.22487,7.1257 1.18451,9.8029 2.41025,2.6778 5.08862,4.285 6.963,4.285 0.849,0 2.272,0.092 3.93062,-0.59 1.89213,-1.182 3.81575,-3.5791 4.00963,-8.4564 0,0 0.33937,8.3349 -2.87188,13.181 -0.20088,0.3768 -0.411,0.7279 -0.64525,1.0159 0,0 4.36575,-0.3695 5.60662,-0.3585 1.24113,-0.011 5.60613,0.3585 5.60613,0.3585 -0.23275,-0.288 -0.44288,-0.6391 -0.6445,-1.0159 -3.21063,-4.8461 -2.87038,-13.181 -2.87038,-13.181 0.19163,4.8773 2.11675,7.2744 4.00951,8.4564 1.65687,0.6818 3.08062,0.59 3.92887,0.59 1.87613,0 4.5535,-1.6072 6.963,-4.285 2.41088,-2.6772 2.00825,-7.3647 1.18412,-9.8029"
         style="fill:#171717;fill-opacity:1;fill-rule:evenodd;stroke:none"
         id="path11634" />
      <path
         d="m 288.67902,3604.4423 c -1.91587,-1.3357 -3.17587,-3.556 -3.17587,-6.0543 l 0,-3.3208 c 0,-4.0554 3.31862,-7.3757 7.37575,-7.3757 l 0,0 c 4.057,0 7.37575,3.3186 7.37575,7.3757 l 0,0.6579 -2.79213,0 c -0.0539,-2.4756 -2.09487,-4.4854 -4.58362,-4.4854 l 0,0 c -2.52213,0 -4.58513,2.0658 -4.58513,4.585 l 0,1.5431 c 0,2.5201 2.063,4.5854 4.58513,4.5854 l 0,0 c 0.1335,0 0.265,-0.01 0.39575,-0.017 l 0,4.3743 c -0.13038,-0.013 -0.26225,-0.019 -0.39575,-0.019 l 0,0 c -2.34463,0 -4.26225,1.9205 -4.26225,4.2622 l 0,1.4351 c 0,2.3422 1.91762,4.2622 4.26225,4.2622 l 0,0 c 2.34462,0 4.26225,-1.9179 4.26225,-4.2622 l 0,0 2.59437,0 0,0.9517 c 0,3.7716 -3.08512,6.8567 -6.85662,6.8567 l 0,0 c -3.7715,0 -6.85675,-3.0865 -6.85675,-6.8567 l 0,-3.0868 c 0,-2.1913 1.04325,-4.1503 2.65687,-5.4079"
         style="fill:#1f1917;fill-opacity:1;fill-rule:evenodd;stroke:none"
         id="path11636" />
      <path
         d="m 121.8154,3356.7298 c 1.91587,1.3358 3.17588,3.556 3.17588,6.0544 l 0,3.3208 c 0,4.0553 -3.31863,7.3757 -7.37576,7.3757 l 0,0 c -4.057,0 -7.37574,-3.3186 -7.37574,-7.3757 l 0,-0.6579 2.79212,0 c 0.0539,2.4756 2.09488,4.4854 4.58362,4.4854 l 0,0 c 2.52213,0 4.58513,-2.0658 4.58513,-4.585 l 0,-1.5432 c 0,-2.5199 -2.063,-4.5853 -4.58513,-4.5853 l 0,0 c -0.1335,0 -0.26499,0.01 -0.39574,0.017 l 0,-4.3743 c 0.13037,0.013 0.26224,0.019 0.39574,0.019 l 0,0 c 2.34463,0 4.26226,-1.9205 4.26226,-4.2622 l 0,-1.4352 c 0,-2.3421 -1.91763,-4.2621 -4.26226,-4.2621 l 0,0 c -2.34462,0 -4.26225,1.9179 -4.26225,4.2621 l 0,0 -2.59437,0 0,-0.9518 c 0,-3.7714 3.08512,-6.8566 6.85662,-6.8566 l 0,0 c 3.7715,0 6.85663,3.0865 6.85663,6.8566 l 0,3.0869 c 0,2.1913 -1.04312,4.1503 -2.65675,5.4079"
         style="fill:#1f1917;fill-opacity:1;fill-rule:evenodd;stroke:none"
         id="path11638" />
    </g>
  </g>
</svg>
