<?xml version="1.0" encoding="UTF-8" standalone="no"?>
<svg
   xmlns:dc="http://purl.org/dc/elements/1.1/"
   xmlns:cc="http://creativecommons.org/ns#"
   xmlns:rdf="http://www.w3.org/1999/02/22-rdf-syntax-ns#"
   xmlns:svg="http://www.w3.org/2000/svg"
   xmlns="http://www.w3.org/2000/svg"
   xmlns:sodipodi="http://sodipodi.sourceforge.net/DTD/sodipodi-0.dtd"
   xmlns:inkscape="http://www.inkscape.org/namespaces/inkscape"
   version="1.1"
   id="svg2"
   viewBox="0 0 213.32188 318.51639"
   height="89.892403mm"
   width="60.204174mm"
   inkscape:version="0.91 r13725"
   sodipodi:docname="layer43.svg">
  <sodipodi:namedview
     pagecolor="#ffffff"
     bordercolor="#666666"
     borderopacity="1"
     objecttolerance="10"
     gridtolerance="10"
     guidetolerance="10"
     inkscape:pageopacity="0"
     inkscape:pageshadow="2"
     inkscape:window-width="448"
     inkscape:window-height="428"
     id="namedview16"
     showgrid="false"
     inkscape:zoom="0.74093519"
     inkscape:cx="106.66094"
     inkscape:cy="159.25821"
     inkscape:window-x="0"
     inkscape:window-y="0"
     inkscape:window-maximized="0"
     inkscape:current-layer="svg2" />
  <defs
     id="defs4" />
  <metadata
     id="metadata7">
    <rdf:RDF>
      <cc:Work
         rdf:about="">
        <dc:format>image/svg+xml</dc:format>
        <dc:type
           rdf:resource="http://purl.org/dc/dcmitype/StillImage" />
        <dc:title />
      </cc:Work>
    </rdf:RDF>
  </metadata>
  <g
     transform="translate(-265.38631,-366.9229)"
     id="layer43">
    <g
       id="g28518"
       transform="translate(167.51791,-2618.0467)">
      <path
         d="m 107.99015,2985.1046 193.07837,0 c 5.49288,0 9.98675,4.494 9.98675,9.9867 l 0,298.2728 c 0,5.4929 -4.49387,9.9869 -9.98675,9.9869 l -193.07837,0 c -5.49287,0 -9.98675,-4.494 -9.98675,-9.9869 l 0,-298.2728 c 0,-5.4927 4.49388,-9.9867 9.98675,-9.9867 z"
         style="fill:#ffffff;fill-opacity:1;fill-rule:evenodd;stroke:#1f1917;stroke-width:0.27000001;stroke-linecap:butt;stroke-linejoin:miter;stroke-miterlimit:10;stroke-dasharray:none;stroke-opacity:1"
         id="path11554"
         inkscape:connector-curvature="0" />
      <path
         d="m 112.5469,3044.9234 c 0.36425,-2.5257 1.53425,-3.6262 3.32387,-4.2403 3.26063,-1.1169 7.33151,0.7009 8.10188,3.6011 0.68237,2.5706 -0.747,4.3054 -2.40138,6.6015 1.84325,-0.5531 2.55163,-1.6026 4.80125,-1.2012 1.9945,0.3578 3.36925,2.5611 3.601,3.6011 0.87875,3.9589 -1.84212,7.5621 -5.10125,7.5011 -1.46625,-0.027 -2.019,-0.6445 -2.70037,-1.1997 -1.3535,-1.1048 -1.6405,-2.0374 -2.7,-3.3009 -0.46875,0.6594 -0.13188,1.4697 0,2.1007 0.17187,0.8268 0.659,1.4199 0.89962,2.0998 0.26863,0.758 0.326,1.682 0.60063,2.401 0.23562,0.619 1.18662,1.1391 0.59912,1.7993 -2.10325,-0.1963 -4.996,0.3968 -6.60012,-0.2987 0.62262,-2.3803 2.47437,-5.1236 1.50025,-8.1021 -0.55413,4.8096 -6.43,5.445 -8.82038,2.5179 -1.73262,-2.1225 -2.448,-8.4378 3.41863,-9.1195 1.12325,-0.1304 2.22312,0.5347 3.301,0.9011 -0.56413,-1.8361 -1.83125,-2.6543 -1.82375,-5.063 0,-0.2002 0,-0.4004 0,-0.5992"
         style="fill:#171717;fill-opacity:1;fill-rule:evenodd;stroke:none"
         id="path11556"
         inkscape:connector-curvature="0" />
      <path
         d="m 299.07578,3242.771 c -0.36426,2.5257 -1.53425,3.6262 -3.32401,4.2403 -3.26049,1.1168 -7.3315,-0.7008 -8.10174,-3.6011 -0.6825,-2.5706 0.74687,-4.3055 2.40124,-6.6015 -1.84325,0.5531 -2.5515,1.6026 -4.80112,1.2012 -1.9945,-0.3579 -3.36937,-2.5612 -3.60112,-3.6011 -0.87875,-3.9589 1.84225,-7.5621 5.10137,-7.5012 1.46613,0.027 2.01887,0.6446 2.70038,1.1997 1.3535,1.1049 1.6405,2.0375 2.7,3.301 0.46875,-0.6593 0.13175,-1.4697 0,-2.1008 -0.17188,-0.8266 -0.65913,-1.4198 -0.89975,-2.0998 -0.26851,-0.7578 -0.32601,-1.682 -0.6005,-2.4008 -0.23563,-0.6191 -1.18675,-1.1393 -0.59925,-1.7994 2.10337,0.1963 4.99612,-0.3968 6.60012,0.2987 -0.6225,2.3804 -2.47425,5.1237 -1.50025,8.1022 0.55425,-4.8098 6.43013,-5.445 8.82038,-2.5179 1.73275,2.1224 2.44812,8.4376 -3.41863,9.1194 -1.12312,0.1303 -2.223,-0.5347 -3.30087,-0.9011 0.56412,1.8362 1.83112,2.6543 1.82375,5.063 0,0.2003 0,0.4004 0,0.5992"
         style="fill:#171717;fill-opacity:1;fill-rule:evenodd;stroke:none"
         id="path11558"
         inkscape:connector-curvature="0" />
      <path
         d="m 148.29665,3030.876 c 0.71337,-4.9461 3.00475,-7.1012 6.5095,-8.3038 6.38538,-2.1872 14.35737,1.3726 15.86588,7.0523 1.3365,5.034 -1.46276,8.4312 -4.70238,12.9277 3.60962,-1.0832 4.99675,-3.1383 9.40213,-2.3523 3.90612,0.7008 6.59837,5.0155 7.05224,7.0522 1.72063,7.7527 -3.60774,14.8093 -9.99,14.6898 -2.8715,-0.053 -3.954,-1.2622 -5.28837,-2.3496 -2.65075,-2.1636 -3.21275,-3.9901 -5.28725,-6.4645 -0.91813,1.2917 -0.25838,2.8783 0,4.1143 0.33625,1.6189 1.29037,2.7804 1.76162,4.112 0.52588,1.4843 0.6385,3.2937 1.17613,4.7019 0.46162,1.2122 2.324,2.2309 1.1735,3.5235 -4.11913,-0.3845 -9.78413,0.777 -12.92525,-0.585 1.21925,-4.6617 4.8455,-10.0336 2.93812,-15.8667 -1.08537,9.4189 -12.59225,10.6633 -17.27325,4.9309 -3.39312,-4.1562 -4.79412,-16.5237 6.69463,-17.8588 2.19975,-0.2552 4.35337,1.0473 6.4645,1.7644 -1.10487,-3.5957 -3.58625,-5.1976 -3.57175,-9.9148 0,-0.3923 0,-0.7842 0,-1.1735"
         style="fill:#171717;fill-opacity:1;fill-rule:evenodd;stroke:none"
         id="path11560"
         inkscape:connector-curvature="0" />
      <path
         d="m 237.9239,3030.0383 c 0.71325,-4.9461 3.00475,-7.1011 6.5095,-8.3037 6.38537,-2.1874 14.35737,1.3726 15.86588,7.0522 1.3365,5.0339 -1.46276,8.4313 -4.70238,12.9278 3.6095,-1.0833 4.99675,-3.1384 9.40212,-2.3524 3.90613,0.7008 6.59838,5.0155 7.05225,7.0522 1.72063,7.7528 -3.60775,14.8092 -9.99,14.6898 -2.8715,-0.053 -3.954,-1.2621 -5.28837,-2.3495 -2.65075,-2.1636 -3.21275,-3.9901 -5.28725,-6.4645 -0.91813,1.2917 -0.25838,2.8783 0,4.1141 0.33625,1.6191 1.29037,2.7805 1.76162,4.1122 0.52588,1.4842 0.6385,3.2937 1.17613,4.7019 0.46162,1.2122 2.324,2.2308 1.1735,3.5234 -4.11913,-0.3844 -9.78413,0.7771 -12.92525,-0.585 1.21925,-4.6616 4.8455,-10.0336 2.93812,-15.8666 -1.08537,9.4189 -12.59225,10.6633 -17.27337,4.9309 -3.393,-4.1563 -4.794,-16.5239 6.69475,-17.8589 2.19975,-0.2551 4.35337,1.0474 6.4645,1.7645 -1.10488,-3.5957 -3.58625,-5.1976 -3.57175,-9.9149 0,-0.3922 0,-0.7841 0,-1.1735"
         style="fill:#171717;fill-opacity:1;fill-rule:evenodd;stroke:none"
         id="path11562"
         inkscape:connector-curvature="0" />
      <path
         d="m 261.2099,3256.7335 c -0.71337,4.946 -3.00475,7.1011 -6.5095,8.3037 -6.38538,2.1873 -14.3575,-1.3727 -15.86588,-7.0522 -1.3365,-5.034 1.46276,-8.4314 4.70238,-12.9278 -3.60963,1.0831 -4.99675,3.1383 -9.40213,2.3524 -3.90625,-0.7009 -6.59837,-5.0156 -7.05225,-7.0523 -1.72062,-7.7527 3.60775,-14.8092 9.99001,-14.6898 2.87149,0.053 3.95387,1.2621 5.28837,2.3496 2.65075,2.1635 3.21263,3.9901 5.28725,6.4644 0.91813,-1.2915 0.25838,-2.8783 0,-4.1141 -0.33625,-1.6191 -1.29038,-2.7806 -1.76175,-4.112 -0.52575,-1.4844 -0.6385,-3.2939 -1.176,-4.702 -0.46162,-1.2122 -2.324,-2.2309 -1.1735,-3.5236 4.11912,0.3846 9.78412,-0.777 12.92525,0.5851 -1.21925,4.6616 -4.8455,10.0336 -2.93813,15.8666 1.08538,-9.4189 12.59225,-10.6633 17.27325,-4.9309 3.39313,4.1562 4.79413,16.5239 -6.69462,17.859 -2.19975,0.2551 -4.35338,-1.0474 -6.4645,-1.7646 1.10487,3.5957 3.58625,5.1977 3.57175,9.9148 0,0.3923 0,0.7842 0,1.1737"
         style="fill:#171717;fill-opacity:1;fill-rule:evenodd;stroke:none"
         id="path11564"
         inkscape:connector-curvature="0" />
      <path
         d="m 171.58265,3257.5711 c -0.71337,4.9461 -3.00475,7.1011 -6.5095,8.3038 -6.38538,2.1872 -14.35738,-1.3728 -15.86588,-7.0523 -1.3365,-5.034 1.46275,-8.4314 4.70238,-12.9278 -3.60963,1.0832 -4.99675,3.1383 -9.40213,2.3524 -3.90612,-0.7009 -6.59837,-5.0156 -7.05224,-7.0522 -1.72063,-7.7528 3.60774,-14.8093 9.99,-14.6899 2.87149,0.053 3.954,1.2621 5.28837,2.3496 2.65075,2.1635 3.21275,3.9902 5.28725,6.4644 0.91813,-1.2915 0.25838,-2.8782 0,-4.1141 -0.33625,-1.619 -1.29037,-2.7805 -1.76162,-4.112 -0.52588,-1.4844 -0.6385,-3.2939 -1.17613,-4.702 -0.46162,-1.2122 -2.324,-2.2309 -1.1735,-3.5235 4.11913,0.3845 9.78413,-0.777 12.92525,0.585 -1.21925,4.6616 -4.8455,10.0336 -2.93812,15.8666 1.08537,-9.4189 12.59225,-10.6632 17.27325,-4.9309 3.39312,4.1563 4.79412,16.5239 -6.69463,17.859 -2.19975,0.2551 -4.35338,-1.0473 -6.4645,-1.7646 1.10487,3.5957 3.58625,5.1977 3.57175,9.9149 0,0.3922 0,0.7841 0,1.1736"
         style="fill:#171717;fill-opacity:1;fill-rule:evenodd;stroke:none"
         id="path11566"
         inkscape:connector-curvature="0" />
      <path
         d="m 113.12553,3033.2712 -0.82175,0 -2.85525,0 8.54575,-27.6937 2.74925,0 -7.19325,24.4279 4.21762,-4e-4 0,-5.3454 2.67138,0 0,5.3514 4.58887,0 0,3.2602 -0.006,0 -2.67125,0 -1.91087,0 0,4.4813 -2.67138,0 0,-4.4813 -4.64237,0 z"
         style="fill:#1f1917;fill-opacity:1;fill-rule:evenodd;stroke:none"
         id="path11568"
         inkscape:connector-curvature="0" />
      <path
         d="m 298.33915,3255.7179 0.82162,0 2.85525,0 -8.54574,27.6938 -2.74926,0 7.19325,-24.428 -4.21762,4e-4 0,5.3455 -2.67125,0 0,-5.3515 -4.589,0 0,-3.2603 0.006,0 2.67125,0 1.911,0 0,-4.4811 2.67125,0 0,4.4811 4.6425,0 z"
         style="fill:#1f1917;fill-opacity:1;fill-rule:evenodd;stroke:none"
         id="path11570"
         inkscape:connector-curvature="0" />
    </g>
  </g>
</svg>
