<?xml version="1.0" encoding="UTF-8" standalone="no"?>
<svg
   xmlns:dc="http://purl.org/dc/elements/1.1/"
   xmlns:cc="http://creativecommons.org/ns#"
   xmlns:rdf="http://www.w3.org/1999/02/22-rdf-syntax-ns#"
   xmlns:svg="http://www.w3.org/2000/svg"
   xmlns="http://www.w3.org/2000/svg"
   xmlns:sodipodi="http://sodipodi.sourceforge.net/DTD/sodipodi-0.dtd"
   xmlns:inkscape="http://www.inkscape.org/namespaces/inkscape"
   version="1.1"
   id="svg2"
   viewBox="0 0 213.32188 318.51639"
   height="89.892403mm"
   width="60.204174mm"
   inkscape:version="0.91 r13725"
   sodipodi:docname="layer45.svg">
  <sodipodi:namedview
     pagecolor="#ffffff"
     bordercolor="#666666"
     borderopacity="1"
     objecttolerance="10"
     gridtolerance="10"
     guidetolerance="10"
     inkscape:pageopacity="0"
     inkscape:pageshadow="2"
     inkscape:window-width="640"
     inkscape:window-height="480"
     id="namedview16"
     showgrid="false"
     inkscape:zoom="0.74093519"
     inkscape:cx="106.66094"
     inkscape:cy="159.25821"
     inkscape:window-x="0"
     inkscape:window-y="0"
     inkscape:window-maximized="0"
     inkscape:current-layer="svg2" />
  <defs
     id="defs4" />
  <metadata
     id="metadata7">
    <rdf:RDF>
      <cc:Work
         rdf:about="">
        <dc:format>image/svg+xml</dc:format>
        <dc:type
           rdf:resource="http://purl.org/dc/dcmitype/StillImage" />
        <dc:title />
      </cc:Work>
    </rdf:RDF>
  </metadata>
  <g
     transform="translate(-265.3863,-366.9229)"
     id="layer45">
    <g
       id="g28496"
       transform="translate(-291.5076,-2616.0518)">
      <path
         d="m 567.01565,2983.1097 193.07838,0 c 5.49287,0 9.98675,4.4939 9.98675,9.9868 l 0,298.2727 c 0,5.4929 -4.49388,9.9869 -9.98675,9.9869 l -193.07838,0 c -5.49275,0 -9.98675,-4.494 -9.98675,-9.9869 l 0,-298.2727 c 0,-5.4929 4.494,-9.9868 9.98675,-9.9868 z"
         style="fill:#ffffff;fill-opacity:1;fill-rule:evenodd;stroke:#1f1917;stroke-width:0.27000001;stroke-linecap:butt;stroke-linejoin:miter;stroke-miterlimit:10;stroke-dasharray:none;stroke-opacity:1"
         id="path11590"
         inkscape:connector-curvature="0" />
      <path
         d="m 620.24115,3018.4365 c 0,0 -4.93163,18.8146 -17.90113,25.7549 0,0 15.52638,9.8634 18.08325,24.6592 0,0 4.9315,-18.2654 18.26638,-24.8406 0,0 -13.33488,-7.1243 -18.4485,-25.5735"
         style="fill:#b32621;fill-opacity:1;fill-rule:evenodd;stroke:none"
         id="path11592"
         inkscape:connector-curvature="0" />
      <path
         d="m 708.7019,3017.4312 c 0,0 -4.93163,18.8146 -17.90113,25.7549 0,0 15.52638,9.8635 18.08325,24.6592 0,0 4.93163,-18.2653 18.2665,-24.8406 0,0 -13.33487,-7.1242 -18.44862,-25.5735"
         style="fill:#b32621;fill-opacity:1;fill-rule:evenodd;stroke:none"
         id="path11594"
         inkscape:connector-curvature="0" />
      <path
         d="m 708.7019,3217.4732 c 0,0 -4.93163,18.8146 -17.90113,25.7549 0,0 15.52638,9.8635 18.08325,24.6593 0,0 4.93163,-18.2654 18.2665,-24.8407 0,0 -13.33487,-7.1242 -18.44862,-25.5735"
         style="fill:#b32621;fill-opacity:1;fill-rule:evenodd;stroke:none"
         id="path11596"
         inkscape:connector-curvature="0" />
      <path
         d="m 619.2359,3217.4732 c 0,0 -4.93163,18.8146 -17.90112,25.7549 0,0 15.52637,9.8635 18.08324,24.6593 0,0 4.9315,-18.2654 18.26638,-24.8407 0,0 -13.33488,-7.1242 -18.4485,-25.5735"
         style="fill:#b32621;fill-opacity:1;fill-rule:evenodd;stroke:none"
         id="path11598"
         inkscape:connector-curvature="0" />
      <path
         d="m 578.56715,3036.5307 c 0,0 -2.8665,10.9364 -10.40525,14.9705 0,0 9.02525,5.7334 10.51125,14.3338 0,0 2.8665,-10.6173 10.61787,-14.4394 0,0 -7.75137,-4.1411 -10.72387,-14.8649"
         style="fill:#b32621;fill-opacity:1;fill-rule:evenodd;stroke:none"
         id="path11600"
         inkscape:connector-curvature="0" />
      <path
         d="m 752.47302,3215.4627 c 0,0 -2.86649,10.9365 -10.40525,14.9705 0,0 9.02513,5.7334 10.51125,14.3338 0,0 2.8665,-10.6172 10.61788,-14.4394 0,0 -7.75138,-4.141 -10.72388,-14.8649"
         style="fill:#b32621;fill-opacity:1;fill-rule:evenodd;stroke:none"
         id="path11602"
         inkscape:connector-curvature="0" />
      <path
         d="m 571.44303,3030.5683 -0.82163,0 -2.85525,0 8.54575,-27.6937 2.74925,0 -7.19325,24.4279 4.21762,-3e-4 0,-5.3455 2.67125,0 0,5.3515 4.589,0 0,3.2602 -0.006,0 -2.67137,0 -1.91088,0 0,4.4812 -2.67125,0 0,-4.4812 -4.6425,0 z"
         style="fill:#b32621;fill-opacity:1;fill-rule:evenodd;stroke:none"
         id="path11604"
         inkscape:connector-curvature="0" />
      <path
         d="m 755.94865,3252.3079 0.82175,0 2.85525,0 -8.54575,27.6937 -2.74925,0 7.19325,-24.4279 -4.21762,4e-4 0,5.3454 -2.67125,0 0,-5.3515 -4.589,0 0,-3.2601 0.006,0 2.67125,0 1.911,0 0,-4.4813 2.67125,0 0,4.4813 4.64237,0 z"
         style="fill:#b32621;fill-opacity:1;fill-rule:evenodd;stroke:none"
         id="path11606"
         inkscape:connector-curvature="0" />
    </g>
  </g>
</svg>
