<?xml version="1.0" encoding="UTF-8" standalone="no"?>
<svg
   xmlns:dc="http://purl.org/dc/elements/1.1/"
   xmlns:cc="http://creativecommons.org/ns#"
   xmlns:rdf="http://www.w3.org/1999/02/22-rdf-syntax-ns#"
   xmlns:svg="http://www.w3.org/2000/svg"
   xmlns="http://www.w3.org/2000/svg"
   xmlns:sodipodi="http://sodipodi.sourceforge.net/DTD/sodipodi-0.dtd"
   xmlns:inkscape="http://www.inkscape.org/namespaces/inkscape"
   version="1.1"
   id="svg2"
   viewBox="0 0 213.32188 318.51639"
   height="89.892403mm"
   width="60.204174mm"
   inkscape:version="0.91 r13725"
   sodipodi:docname="layer44.svg">
  <sodipodi:namedview
     pagecolor="#ffffff"
     bordercolor="#666666"
     borderopacity="1"
     objecttolerance="10"
     gridtolerance="10"
     guidetolerance="10"
     inkscape:pageopacity="0"
     inkscape:pageshadow="2"
     inkscape:window-width="448"
     inkscape:window-height="428"
     id="namedview16"
     showgrid="false"
     inkscape:zoom="0.74093519"
     inkscape:cx="106.66093"
     inkscape:cy="159.25821"
     inkscape:window-x="0"
     inkscape:window-y="0"
     inkscape:window-maximized="0"
     inkscape:current-layer="svg2" />
  <defs
     id="defs4" />
  <metadata
     id="metadata7">
    <rdf:RDF>
      <cc:Work
         rdf:about="">
        <dc:format>image/svg+xml</dc:format>
        <dc:type
           rdf:resource="http://purl.org/dc/dcmitype/StillImage" />
        <dc:title />
      </cc:Work>
    </rdf:RDF>
  </metadata>
  <g
     transform="translate(-265.3863,-366.9229)"
     id="layer44">
    <g
       id="g28507"
       transform="translate(-61.994846,-2620.0412)">
      <path
         d="m 337.5029,2987.0991 193.07837,0 c 5.49288,0 9.98676,4.494 9.98676,9.9868 l 0,298.2727 c 0,5.4929 -4.49388,9.9869 -9.98676,9.9869 l -193.07837,0 c -5.49288,0 -9.98675,-4.494 -9.98675,-9.9869 l 0,-298.2727 c 0,-5.4928 4.49387,-9.9868 9.98675,-9.9868 z"
         style="fill:#ffffff;fill-opacity:1;fill-rule:evenodd;stroke:#1f1917;stroke-width:0.27000001;stroke-linecap:butt;stroke-linejoin:miter;stroke-miterlimit:10;stroke-dasharray:none;stroke-opacity:1"
         id="path11572"
         inkscape:connector-curvature="0" />
      <path
         d="m 357.97865,3046.2089 c -1.40637,-1.5625 -2.969,-2.4998 -4.06238,-2.4998 -1.06274,0 -3.65987,-0.2572 -5.85537,4.2331 -2.18625,-4.406 -4.75825,-4.1551 -5.8145,-4.1551 -1.09387,0 -2.6565,0.9375 -4.06288,2.5001 -1.40587,1.5623 -1.17175,4.2967 -0.69087,5.7196 0.48112,1.4227 10.525,16.077 10.525,16.077 0,0 10.17113,-14.7327 10.65188,-16.1553 0.48087,-1.4227 0.7155,-4.157 -0.69088,-5.7197"
         style="fill:#b32621;fill-opacity:1;fill-rule:evenodd;stroke:none"
         id="path11574"
         inkscape:connector-curvature="0" />
      <path
         d="m 513.09465,3247.5286 c 1.40638,1.5626 2.969,2.4999 4.0625,2.4999 1.06263,0 3.65988,0.2572 5.85525,-4.2333 2.18625,4.4061 4.75837,4.1553 5.81463,4.1553 1.09375,0 2.65637,-0.9376 4.06275,-2.5001 1.406,-1.5623 1.17175,-4.2967 0.69087,-5.7197 -0.48113,-1.4226 -10.525,-16.0771 -10.525,-16.0771 0,0 -10.17113,14.7327 -10.65188,16.1554 -0.48087,1.4226 -0.71537,4.157 0.69088,5.7196"
         style="fill:#b32621;fill-opacity:1;fill-rule:evenodd;stroke:none"
         id="path11576"
         inkscape:connector-curvature="0" />
      <path
         d="m 410.03227,3028.3697 c -2.67237,-2.9692 -5.64162,-4.7501 -7.71937,-4.7501 -2.019,0 -6.9545,-0.4886 -11.126,8.0436 -4.15425,-8.3721 -9.0415,-7.8955 -11.04875,-7.8955 -2.07813,0 -5.0475,1.7816 -7.71987,4.7509 -2.67163,2.9686 -2.22663,8.1641 -1.31276,10.868 0.91413,2.7032 19.99913,30.549 19.99913,30.549 0,0 19.32662,-27.9946 20.24037,-30.6978 0.9135,-2.7032 1.35925,-7.8987 -1.31275,-10.8681"
         style="fill:#b32621;fill-opacity:1;fill-rule:evenodd;stroke:none"
         id="path11578"
         inkscape:connector-curvature="0" />
      <path
         d="m 498.24853,3028.3697 c -2.67225,-2.9692 -5.64163,-4.7501 -7.71938,-4.7501 -2.019,0 -6.9545,-0.4886 -11.126,8.0436 -4.15413,-8.3721 -9.0415,-7.8955 -11.04875,-7.8955 -2.07813,0 -5.04738,1.7816 -7.71975,4.7509 -2.67175,2.9686 -2.22663,8.1641 -1.31288,10.868 0.91425,2.7032 19.99913,30.549 19.99913,30.549 0,0 19.32662,-27.9946 20.2405,-30.6978 0.9135,-2.7032 1.35925,-7.8987 -1.31288,-10.8681"
         style="fill:#b32621;fill-opacity:1;fill-rule:evenodd;stroke:none"
         id="path11580"
         inkscape:connector-curvature="0" />
      <path
         d="m 459.3789,3265.7458 c 2.67237,2.9693 5.64162,4.7502 7.71937,4.7502 2.019,0 6.9545,0.4886 11.12601,-8.0436 4.15425,8.3721 9.0415,7.8955 11.04875,7.8955 2.07812,0 5.0475,-1.7815 7.71987,-4.7509 2.67162,-2.9685 2.2265,-8.1641 1.31275,-10.868 -0.91425,-2.7033 -19.99912,-30.549 -19.99912,-30.549 0,0 -19.32663,27.9946 -20.2405,30.6978 -0.91338,2.7032 -1.35913,7.8987 1.31287,10.8681"
         style="fill:#b32621;fill-opacity:1;fill-rule:evenodd;stroke:none"
         id="path11582"
         inkscape:connector-curvature="0" />
      <path
         d="m 371.16253,3265.7458 c 2.67237,2.9693 5.64175,4.7502 7.71949,4.7502 2.019,0 6.95438,0.4886 11.12601,-8.0436 4.15412,8.3721 9.04137,7.8955 11.04874,7.8955 2.07813,0 5.04738,-1.7815 7.71975,-4.7509 2.67163,-2.9685 2.22663,-8.1641 1.31275,-10.868 -0.91412,-2.7033 -19.99912,-30.549 -19.99912,-30.549 0,0 -19.32662,27.9946 -20.24038,30.6978 -0.9135,2.7032 -1.35925,7.8987 1.31276,10.8681"
         style="fill:#b32621;fill-opacity:1;fill-rule:evenodd;stroke:none"
         id="path11584"
         inkscape:connector-curvature="0" />
      <path
         d="m 342.63827,3033.8498 -0.82174,0 -2.85513,0 8.54575,-27.6937 2.74925,0 -7.19338,24.4279 4.21763,-4e-4 0,-5.3454 2.67137,0 0,5.3514 4.58888,0 0,3.2602 -0.006,0 -2.67125,0 -1.91088,0 0,4.4813 -2.67137,0 0,-4.4813 -4.64238,0 z"
         style="fill:#b32621;fill-opacity:1;fill-rule:evenodd;stroke:none"
         id="path11586"
         inkscape:connector-curvature="0" />
      <path
         d="m 527.1439,3257.0045 0.82175,0 2.85512,0 -8.54575,27.6937 -2.74924,0 7.19325,-24.4279 -4.21763,4e-4 0,5.3454 -2.67125,0 0,-5.3514 -4.58887,0 0,-3.2602 0.006,0 2.67138,0 1.91087,0 0,-4.4813 2.67126,0 0,4.4813 4.64249,0 z"
         style="fill:#b32621;fill-opacity:1;fill-rule:evenodd;stroke:none"
         id="path11588"
         inkscape:connector-curvature="0" />
    </g>
  </g>
</svg>
