<?xml version="1.0" encoding="UTF-8" standalone="no"?>
<svg
   xmlns:dc="http://purl.org/dc/elements/1.1/"
   xmlns:cc="http://creativecommons.org/ns#"
   xmlns:rdf="http://www.w3.org/1999/02/22-rdf-syntax-ns#"
   xmlns:svg="http://www.w3.org/2000/svg"
   xmlns="http://www.w3.org/2000/svg"
   xmlns:sodipodi="http://sodipodi.sourceforge.net/DTD/sodipodi-0.dtd"
   xmlns:inkscape="http://www.inkscape.org/namespaces/inkscape"
   version="1.1"
   id="svg2"
   viewBox="0 0 213.32188 318.51639"
   height="89.892403mm"
   width="60.204174mm"
   inkscape:version="0.91 r13725"
   sodipodi:docname="layer42.svg">
  <sodipodi:namedview
     pagecolor="#ffffff"
     bordercolor="#666666"
     borderopacity="1"
     objecttolerance="10"
     gridtolerance="10"
     guidetolerance="10"
     inkscape:pageopacity="0"
     inkscape:pageshadow="2"
     inkscape:window-width="640"
     inkscape:window-height="480"
     id="namedview16"
     showgrid="false"
     inkscape:zoom="0.74093519"
     inkscape:cx="106.66094"
     inkscape:cy="156.55891"
     inkscape:window-x="0"
     inkscape:window-y="0"
     inkscape:window-maximized="0"
     inkscape:current-layer="svg2" />
  <defs
     id="defs4" />
  <metadata
     id="metadata7">
    <rdf:RDF>
      <cc:Work
         rdf:about="">
        <dc:format>image/svg+xml</dc:format>
        <dc:type
           rdf:resource="http://purl.org/dc/dcmitype/StillImage" />
        <dc:title />
      </cc:Work>
    </rdf:RDF>
  </metadata>
  <g
     transform="translate(-265.38631,-366.9229)"
     id="layer42">
    <g
       id="g28394"
       transform="translate(397.03066,-2624.0302)">
      <path
         d="m -121.5226,2991.0881 193.078375,0 c 5.49275,0 9.98675,4.494 9.98675,9.9869 l 0,298.2727 c 0,5.4929 -4.494,9.9868 -9.98675,9.9868 l -193.078375,0 c -5.49288,0 -9.98675,-4.4939 -9.98675,-9.9868 l 0,-298.2727 c 0,-5.4929 4.49387,-9.9869 9.98675,-9.9869 z"
         style="fill:#ffffff;fill-opacity:1;fill-rule:evenodd;stroke:#1f1917;stroke-width:0.27000001;stroke-linecap:butt;stroke-linejoin:miter;stroke-miterlimit:10;stroke-dasharray:none;stroke-opacity:1"
         id="path11536"
         inkscape:connector-curvature="0" />
      <path
         d="m -100.51323,3060.3162 c -0.45175,-1.3351 -9.49862,-14.4758 -10.46625,-15.8804 l 0,-0.1297 c -0.002,0 -0.0191,0.027 -0.0454,0.065 -0.0255,-0.039 -0.0433,-0.063 -0.0446,-0.065 l 0,0.1297 c -0.96837,1.4046 -10.0145,14.5453 -10.467,15.8804 -0.47575,1.4099 -0.70825,4.1205 0.685,5.6689 1.39388,1.5485 2.94275,2.4779 4.02663,2.4779 0.49112,0 1.31387,0.053 2.273,-0.3413 1.09412,-0.6835 2.20675,-2.0696 2.31875,-4.8901 0,0 0.19625,4.82 -1.66075,7.6224 -0.11625,0.218 -0.23775,0.421 -0.37313,0.5875 0,0 2.52463,-0.2137 3.24213,-0.2073 0.71787,-0.01 3.24212,0.2073 3.24212,0.2073 -0.13462,-0.1665 -0.25612,-0.3695 -0.37275,-0.5875 -1.85662,-2.8024 -1.66,-7.6224 -1.66,-7.6224 0.11088,2.8205 1.22413,4.2066 2.31875,4.8901 0.95813,0.3944 1.7815,0.3413 2.27188,0.3413 1.085,0 2.63337,-0.9294 4.02662,-2.4779 1.39438,-1.5484 1.1615,-4.259 0.685,-5.6689"
         style="fill:#171717;fill-opacity:1;fill-rule:evenodd;stroke:none"
         id="path11538"
         inkscape:connector-curvature="0" />
      <path
         d="m 52.3694,3240.3948 c 0.451875,1.3352 9.498625,14.4759 10.46625,15.8804 l 0,0.1298 c 0.0012,0 0.01912,-0.027 0.04537,-0.065 0.0255,0.039 0.04325,0.064 0.04462,0.065 l 0,-0.1298 c 0.968375,-1.4045 10.0145,-14.5452 10.467,-15.8804 0.475875,-1.4098 0.70825,-4.1205 -0.685,-5.6688 -1.393875,-1.5485 -2.942625,-2.4779 -4.026625,-2.4779 -0.491,0 -1.313875,-0.053 -2.273,0.3412 -1.094125,0.6835 -2.20675,2.0697 -2.31875,4.8902 0,0 -0.19625,-4.82 1.66075,-7.6224 0.11625,-0.2179 0.23775,-0.421 0.373125,-0.5875 0,0 -2.524625,0.2136 -3.242125,0.2073 -0.717875,0.01 -3.242125,-0.2073 -3.242125,-0.2073 0.134625,0.1665 0.256125,0.3696 0.37275,0.5875 1.85675,2.8024 1.66,7.6224 1.66,7.6224 -0.110875,-2.8205 -1.224125,-4.2067 -2.31875,-4.8902 -0.958,-0.3943 -1.7815,-0.3412 -2.271875,-0.3412 -1.085,0 -2.633375,0.9294 -4.026625,2.4779 -1.394375,1.5483 -1.1615,4.259 -0.685,5.6688"
         style="fill:#171717;fill-opacity:1;fill-rule:evenodd;stroke:none"
         id="path11540"
         inkscape:connector-curvature="0" />
      <path
         d="m 38.0379,3056.2283 c -0.781,-2.3088 -16.425,-25.0321 -18.098625,-27.4609 l 0,-0.2244 c -0.0025,0 -0.03287,0.046 -0.07825,0.1127 -0.04425,-0.067 -0.07475,-0.1095 -0.07725,-0.1127 l 0,0.2244 c -1.6745,2.4288 -17.3175,25.1521 -18.099875,27.4609 -0.823125,2.4382 -1.225,7.1255 1.1845,9.8029 2.410125,2.6777 5.0885,4.2849 6.963,4.2849 0.848875,0 2.271875,0.092 3.9305,-0.5899 1.892125,-1.1821 3.815875,-3.5791 4.009625,-8.4565 0,0 0.3395,8.3349 -2.871875,13.1811 -0.200875,0.3767 -0.411,0.7278 -0.64525,1.0159 0,0 4.36575,-0.3696 5.606625,-0.3586 1.24125,-0.011 5.60625,0.3586 5.60625,0.3586 -0.232875,-0.2881 -0.443,-0.6392 -0.6445,-1.0159 -3.210625,-4.8462 -2.8705,-13.1811 -2.8705,-13.1811 0.19175,4.8774 2.11675,7.2744 4.009625,8.4565 1.656875,0.6816 3.0805,0.5899 3.928875,0.5899 1.876125,0 4.5535,-1.6072 6.962875,-4.2849 2.410875,-2.6773 2.008375,-7.3647 1.18425,-9.8029"
         style="fill:#171717;fill-opacity:1;fill-rule:evenodd;stroke:none"
         id="path11542"
         inkscape:connector-curvature="0" />
      <path
         d="m -50.751725,3056.2283 c -0.781,-2.3088 -16.425,-25.0321 -18.0985,-27.4609 l 0,-0.2244 c -0.0038,0 -0.033,0.046 -0.07838,0.1127 -0.04425,-0.067 -0.07475,-0.1095 -0.07725,-0.1127 l 0,0.2244 c -1.6745,2.4288 -17.3175,25.1521 -18.099875,27.4609 -0.823125,2.4382 -1.225,7.1255 1.1845,9.8029 2.410125,2.6777 5.0885,4.2849 6.963,4.2849 0.849,0 2.271875,0.092 3.9305,-0.5899 1.892125,-1.1821 3.815875,-3.5791 4.009625,-8.4565 0,0 0.3395,8.3349 -2.871875,13.1811 -0.200875,0.3767 -0.411,0.7278 -0.645125,1.0159 0,0 4.365625,-0.3696 5.6065,-0.3586 1.24125,-0.011 5.60625,0.3586 5.60625,0.3586 -0.23275,-0.2881 -0.442875,-0.6392 -0.6445,-1.0159 -3.210625,-4.8462 -2.8705,-13.1811 -2.8705,-13.1811 0.19175,4.8774 2.11675,7.2744 4.009625,8.4565 1.656875,0.6816 3.080625,0.5899 3.928875,0.5899 1.876125,0 4.5535,-1.6072 6.962875,-4.2849 2.410875,-2.6773 2.008375,-7.3647 1.18425,-9.8029"
         style="fill:#171717;fill-opacity:1;fill-rule:evenodd;stroke:none"
         id="path11544"
         inkscape:connector-curvature="0" />
      <path
         d="m -87.942725,3244.4147 c 0.781,2.3089 16.425,25.0321 18.0985,27.461 l 0,0.2243 c 0.0037,0 0.033,-0.046 0.07837,-0.1127 0.04425,0.067 0.07475,0.1096 0.07725,0.1127 l 0,-0.2243 c 1.6745,-2.4289 17.3175,-25.1521 18.099875,-27.461 0.823125,-2.4381 1.225,-7.1255 -1.1845,-9.8029 -2.410125,-2.6776 -5.0885,-4.2848 -6.963,-4.2848 -0.848875,0 -2.271875,-0.092 -3.9305,0.5898 -1.892125,1.1822 -3.815875,3.5792 -4.009625,8.4565 0,0 -0.3395,-8.3348 2.871875,-13.1811 0.200875,-0.3766 0.411,-0.7277 0.64525,-1.0159 0,0 -4.36575,0.3697 -5.606625,0.3587 -1.24125,0.011 -5.60625,-0.3587 -5.60625,-0.3587 0.232875,0.2882 0.442875,0.6393 0.6445,1.0159 3.210625,4.8463 2.8705,13.1811 2.8705,13.1811 -0.19175,-4.8773 -2.11675,-7.2743 -4.009625,-8.4565 -1.656875,-0.6817 -3.0805,-0.5898 -3.928875,-0.5898 -1.876125,0 -4.5535,1.6072 -6.962875,4.2848 -2.410875,2.6774 -2.008375,7.3648 -1.18425,9.8029"
         style="fill:#171717;fill-opacity:1;fill-rule:evenodd;stroke:none"
         id="path11546"
         inkscape:connector-curvature="0" />
      <path
         d="m 2.52215,3244.4147 c 0.781,2.3089 16.425,25.0321 18.098625,27.461 l 0,0.2243 c 0.0025,0 0.03288,-0.046 0.07825,-0.1127 0.04425,0.067 0.07475,0.1096 0.07725,0.1127 l 0,-0.2243 c 1.6745,-2.4289 17.3175,-25.1521 18.099875,-27.461 0.823125,-2.4381 1.225,-7.1255 -1.1845,-9.8029 -2.410125,-2.6776 -5.0885,-4.2848 -6.963,-4.2848 -0.848875,0 -2.271875,-0.092 -3.9305,0.5898 -1.892125,1.1822 -3.815875,3.5792 -4.009625,8.4565 0,0 -0.3395,-8.3348 2.871875,-13.1811 0.200875,-0.3766 0.411,-0.7277 0.64525,-1.0159 0,0 -4.36575,0.3697 -5.606625,0.3587 -1.24125,0.011 -5.60625,-0.3587 -5.60625,-0.3587 0.232875,0.2882 0.443,0.6393 0.6445,1.0159 3.210625,4.8463 2.8705,13.1811 2.8705,13.1811 -0.19175,-4.8773 -2.11675,-7.2743 -4.009625,-8.4565 -1.656875,-0.6817 -3.0805,-0.5898 -3.928875,-0.5898 -1.876125,0 -4.5535,1.6072 -6.962875,4.2848 -2.410875,2.6774 -2.008375,7.3648 -1.18425,9.8029"
         style="fill:#171717;fill-opacity:1;fill-rule:evenodd;stroke:none"
         id="path11548"
         inkscape:connector-curvature="0" />
      <path
         d="m -116.54998,3039.2931 -0.82162,0 -2.85525,0 8.54575,-27.6937 2.74925,0 -7.19325,24.4278 4.21762,-4e-4 0,-5.3453 2.67125,0 0,5.3513 4.589,0 0,3.2603 -0.007,0 -2.67125,0 -1.911,0 0,4.4812 -2.67125,0 0,-4.4812 -4.6425,0 z"
         style="fill:#1f1917;fill-opacity:1;fill-rule:evenodd;stroke:none"
         id="path11550"
         inkscape:connector-curvature="0" />
      <path
         d="m 69.37165,3261.7397 0.82175,0 2.855125,0 -8.54575,27.6939 -2.74925,0 7.19325,-24.428 -4.2175,4e-4 0,5.3455 -2.671375,0 0,-5.3515 -4.588875,0 0,-3.2603 0.0063,0 2.67125,0 1.910875,0 0,-4.4811 2.671375,0 0,4.4811 4.642375,0 z"
         style="fill:#1f1917;fill-opacity:1;fill-rule:evenodd;stroke:none"
         id="path11552"
         inkscape:connector-curvature="0" />
    </g>
  </g>
</svg>
