<?xml version="1.0" encoding="UTF-8" standalone="no"?>
<svg
   xmlns:dc="http://purl.org/dc/elements/1.1/"
   xmlns:cc="http://creativecommons.org/ns#"
   xmlns:rdf="http://www.w3.org/1999/02/22-rdf-syntax-ns#"
   xmlns:svg="http://www.w3.org/2000/svg"
   xmlns="http://www.w3.org/2000/svg"
   xmlns:sodipodi="http://sodipodi.sourceforge.net/DTD/sodipodi-0.dtd"
   xmlns:inkscape="http://www.inkscape.org/namespaces/inkscape"
   version="1.1"
   id="svg2"
   viewBox="0 0 213.32188 318.51639"
   height="89.892403mm"
   width="60.204174mm"
   inkscape:version="0.91 r13725"
   sodipodi:docname="layer40.svg">
  <sodipodi:namedview
     pagecolor="#ffffff"
     bordercolor="#666666"
     borderopacity="1"
     objecttolerance="10"
     gridtolerance="10"
     guidetolerance="10"
     inkscape:pageopacity="0"
     inkscape:pageshadow="2"
     inkscape:window-width="448"
     inkscape:window-height="428"
     id="namedview17"
     showgrid="false"
     inkscape:zoom="0.74093519"
     inkscape:cx="106.66093"
     inkscape:cy="159.25821"
     inkscape:window-x="0"
     inkscape:window-y="0"
     inkscape:window-maximized="0"
     inkscape:current-layer="svg2" />
  <defs
     id="defs4" />
  <metadata
     id="metadata7">
    <rdf:RDF>
      <cc:Work
         rdf:about="">
        <dc:format>image/svg+xml</dc:format>
        <dc:type
           rdf:resource="http://purl.org/dc/dcmitype/StillImage" />
        <dc:title />
      </cc:Work>
    </rdf:RDF>
  </metadata>
  <g
     transform="translate(-265.3863,-366.9229)"
     id="layer40">
    <g
       id="g28529"
       transform="translate(-61.994846,-2282.4062)">
      <path
         d="m 337.5029,2649.4641 193.07837,0 c 5.49288,0 9.98676,4.494 9.98676,9.9867 l 0,298.2728 c 0,5.4929 -4.49388,9.9869 -9.98676,9.9869 l -193.07837,0 c -5.49288,0 -9.98675,-4.494 -9.98675,-9.9869 l 0,-298.2728 c 0,-5.4927 4.49387,-9.9867 9.98675,-9.9867 z"
         style="fill:#ffffff;fill-opacity:1;fill-rule:evenodd;stroke:#1f1917;stroke-width:0.27000001;stroke-linecap:butt;stroke-linejoin:miter;stroke-miterlimit:10;stroke-dasharray:none;stroke-opacity:1"
         id="path11496"
         inkscape:connector-curvature="0" />
      <path
         d="m 342.05965,2709.2829 c 0.36425,-2.5257 1.53425,-3.6262 3.32388,-4.2403 3.26062,-1.1169 7.3315,0.7009 8.10187,3.6011 0.68238,2.5707 -0.747,4.3055 -2.40138,6.6015 1.84325,-0.5531 2.55163,-1.6026 4.80125,-1.2011 1.9945,0.3579 3.36925,2.561 3.60101,3.601 0.87874,3.959 -1.84213,7.5621 -5.10126,7.5013 -1.46625,-0.028 -2.019,-0.6447 -2.70037,-1.1999 -1.3535,-1.1048 -1.6405,-2.0374 -2.7,-3.3009 -0.46875,0.6594 -0.13175,1.4698 0,2.1009 0.17187,0.8266 0.659,1.4197 0.89962,2.0997 0.26863,0.7579 0.326,1.682 0.60063,2.4009 0.23562,0.619 1.18662,1.1392 0.59912,1.7994 -2.10324,-0.1964 -4.996,0.3967 -6.60012,-0.2988 0.62262,-2.3804 2.47437,-5.1236 1.50025,-8.1021 -0.55413,4.8096 -6.43,5.445 -8.82038,2.5179 -1.73262,-2.1225 -2.448,-8.4378 3.41863,-9.1194 1.12325,-0.1305 2.22312,0.5346 3.301,0.901 -0.56413,-1.8361 -1.83125,-2.6543 -1.82375,-5.063 0,-0.2003 0,-0.4004 0,-0.5993"
         style="fill:#171717;fill-opacity:1;fill-rule:evenodd;stroke:none"
         id="path11498"
         inkscape:connector-curvature="0" />
      <path
         d="m 528.58852,2907.1306 c -0.36424,2.5256 -1.53425,3.6261 -3.324,4.2402 -3.2605,1.1169 -7.33149,-0.7008 -8.10175,-3.6011 -0.6825,-2.5706 0.74688,-4.3053 2.40125,-6.6015 -1.84325,0.5531 -2.5515,1.6026 -4.80112,1.2012 -1.9945,-0.3579 -3.36938,-2.5611 -3.60113,-3.6011 -0.87875,-3.9589 1.84225,-7.5621 5.10138,-7.5011 1.46612,0.027 2.019,0.6445 2.70037,1.1998 1.3535,1.1047 1.6405,2.0374 2.7,3.3009 0.46875,-0.6594 0.13175,-1.4698 0,-2.1008 -0.17187,-0.8267 -0.65912,-1.4199 -0.89975,-2.0999 -0.2685,-0.7578 -0.32587,-1.682 -0.6005,-2.4008 -0.23562,-0.6191 -1.18675,-1.1392 -0.59925,-1.7993 2.10338,0.1963 4.99613,-0.3969 6.60013,0.2986 -0.6225,2.3804 -2.47425,5.1237 -1.50025,8.1022 0.55425,-4.8097 6.43012,-5.445 8.82037,-2.5179 1.73275,2.1225 2.44813,8.4377 -3.4185,9.1194 -1.12325,0.1305 -2.22312,-0.5347 -3.301,-0.9011 0.56413,1.8362 1.83113,2.6543 1.82375,5.063 0,0.2003 0,0.4004 0,0.5993"
         style="fill:#171717;fill-opacity:1;fill-rule:evenodd;stroke:none"
         id="path11500"
         inkscape:connector-curvature="0" />
      <path
         d="m 377.8094,2695.2355 c 0.71337,-4.9461 3.00475,-7.1012 6.5095,-8.3038 6.38537,-2.1872 14.3575,1.3726 15.86587,7.0523 1.33651,5.034 -1.46275,8.4312 -4.70237,12.9277 3.60962,-1.0831 4.99675,-3.1382 9.40212,-2.3523 3.90625,0.7008 6.59838,5.0155 7.05225,7.0522 1.72063,7.7527 -3.60774,14.8093 -9.99,14.6899 -2.8715,-0.053 -3.95387,-1.2621 -5.28837,-2.3496 -2.65075,-2.1636 -3.21263,-3.9902 -5.28725,-6.4644 -0.91813,1.2915 -0.25838,2.8782 0,4.1141 0.33625,1.6189 1.29037,2.7804 1.76175,4.112 0.52575,1.4843 0.6385,3.2939 1.176,4.702 0.46162,1.2121 2.324,2.2309 1.1735,3.5234 -4.11913,-0.3844 -9.78412,0.7771 -12.92525,-0.585 1.21925,-4.6615 4.8455,-10.0335 2.93813,-15.8665 -1.08538,9.4187 -12.59225,10.6632 -17.27325,4.9309 -3.39313,-4.1564 -4.79413,-16.5239 6.69462,-17.859 2.19975,-0.2552 4.35338,1.0473 6.4645,1.7645 -1.10487,-3.5958 -3.58625,-5.1977 -3.57175,-9.9149 0,-0.3923 0,-0.7841 0,-1.1735"
         style="fill:#171717;fill-opacity:1;fill-rule:evenodd;stroke:none"
         id="path11502"
         inkscape:connector-curvature="0" />
      <path
         d="m 467.43665,2694.3978 c 0.71337,-4.9461 3.00475,-7.1011 6.5095,-8.3037 6.38537,-2.1873 14.35737,1.3726 15.86587,7.0523 1.3365,5.0339 -1.46275,8.4312 -4.70237,12.9277 3.60962,-1.0832 4.99675,-3.1384 9.40212,-2.3524 3.90613,0.7009 6.59838,5.0155 7.05225,7.0523 1.72063,7.7527 -3.60775,14.8092 -9.99,14.6897 -2.8715,-0.052 -3.954,-1.2621 -5.28837,-2.3495 -2.65075,-2.1635 -3.21275,-3.9901 -5.28725,-6.4644 -0.91813,1.2916 -0.25837,2.8782 0,4.1142 0.33625,1.6189 1.29037,2.7804 1.76163,4.112 0.52587,1.4842 0.6385,3.2939 1.17612,4.7019 0.46163,1.2122 2.324,2.2308 1.1735,3.5235 -4.11912,-0.3844 -9.78412,0.7771 -12.92525,-0.585 1.21925,-4.6615 4.8455,-10.0335 2.93813,-15.8665 -1.08538,9.4187 -12.59225,10.6631 -17.27325,4.9308 -3.39313,-4.1563 -4.79413,-16.5238 6.69462,-17.859 2.19975,-0.2551 4.35338,1.0474 6.4645,1.7645 -1.10487,-3.5957 -3.58625,-5.1976 -3.57175,-9.9148 0,-0.3923 0,-0.7842 0,-1.1735"
         style="fill:#171717;fill-opacity:1;fill-rule:evenodd;stroke:none"
         id="path11504"
         inkscape:connector-curvature="0" />
      <path
         d="m 424.2984,2794.2469 c 0.71325,-4.9462 3.00462,-7.1012 6.50937,-8.3038 6.38538,-2.1874 14.3575,1.3726 15.86588,7.0523 1.3365,5.0339 -1.46275,8.4312 -4.70238,12.9277 3.60963,-1.0833 4.99675,-3.1384 9.40225,-2.3524 3.90613,0.7008 6.59825,5.0155 7.05225,7.0521 1.72063,7.7529 -3.60787,14.8094 -9.99,14.6899 -2.8715,-0.052 -3.95399,-1.2621 -5.2885,-2.3495 -2.65075,-2.1636 -3.21262,-3.9901 -5.28725,-6.4645 -0.91812,1.2917 -0.25837,2.8783 0,4.1142 0.33625,1.619 1.29051,2.7805 1.76175,4.1121 0.52576,1.4842 0.6385,3.2937 1.176,4.7018 0.46163,1.2123 2.324,2.2309 1.1735,3.5236 -4.11912,-0.3845 -9.78412,0.777 -12.92525,-0.585 1.21926,-4.6617 4.8455,-10.0337 2.93813,-15.8667 -1.08538,9.4189 -12.59225,10.6633 -17.27325,4.9309 -3.39312,-4.1562 -4.79413,-16.5239 6.69475,-17.8589 2.19962,-0.2551 4.35325,1.0474 6.46437,1.7645 -1.10487,-3.5957 -3.58625,-5.1976 -3.57162,-9.9148 0,-0.3923 0,-0.7842 0,-1.1735"
         style="fill:#171717;fill-opacity:1;fill-rule:evenodd;stroke:none"
         id="path11506"
         inkscape:connector-curvature="0" />
      <path
         d="m 490.72265,2921.093 c -0.71337,4.9461 -3.00475,7.1011 -6.5095,8.3037 -6.38537,2.1873 -14.35737,-1.3727 -15.86587,-7.0522 -1.3365,-5.034 1.46275,-8.4314 4.70237,-12.9278 -3.60962,1.0832 -4.99675,3.1383 -9.40212,2.3524 -3.90613,-0.7009 -6.59838,-5.0155 -7.05225,-7.0523 -1.72063,-7.7527 3.60775,-14.8092 9.99,-14.6898 2.8715,0.053 3.954,1.2621 5.28837,2.3496 2.65075,2.1635 3.21275,3.9901 5.28725,6.4644 0.91812,-1.2915 0.25837,-2.8783 0,-4.1141 -0.33625,-1.6191 -1.29038,-2.7804 -1.76163,-4.112 -0.52587,-1.4843 -0.6385,-3.2939 -1.17612,-4.7021 -0.46163,-1.2121 -2.324,-2.2308 -1.1735,-3.5234 4.11912,0.3844 9.78412,-0.7771 12.92525,0.585 -1.21925,4.6616 -4.8455,10.0336 -2.93813,15.8666 1.08538,-9.4188 12.59225,-10.6633 17.27325,-4.9309 3.39313,4.1564 4.79413,16.5239 -6.69462,17.859 -2.19975,0.2551 -4.35338,-1.0474 -6.4645,-1.7646 1.10487,3.5957 3.58625,5.1977 3.57175,9.9149 0,0.3922 0,0.7842 0,1.1736"
         style="fill:#171717;fill-opacity:1;fill-rule:evenodd;stroke:none"
         id="path11508"
         inkscape:connector-curvature="0" />
      <path
         d="m 401.0954,2921.9306 c -0.71325,4.9461 -3.00475,7.1011 -6.5095,8.3037 -6.38537,2.1873 -14.35737,-1.3727 -15.86587,-7.0522 -1.3365,-5.034 1.46275,-8.4314 4.70237,-12.9278 -3.6095,1.0832 -4.99675,3.1383 -9.40212,2.3524 -3.90613,-0.7009 -6.59838,-5.0155 -7.05225,-7.0522 -1.72063,-7.7528 3.60774,-14.8093 9.99,-14.6899 2.8715,0.053 3.954,1.2621 5.28837,2.3496 2.65075,2.1635 3.21275,3.9902 5.28725,6.4644 0.91813,-1.2915 0.25838,-2.8783 0,-4.1141 -0.33625,-1.6189 -1.29037,-2.7804 -1.76162,-4.112 -0.52588,-1.4843 -0.6385,-3.2939 -1.17613,-4.702 -0.46162,-1.2122 -2.324,-2.2309 -1.1735,-3.5234 4.11913,0.3844 9.78413,-0.7771 12.92525,0.585 -1.21925,4.6615 -4.8455,10.0335 -2.93812,15.8665 1.08537,-9.4187 12.59225,-10.6633 17.27337,-4.9309 3.393,4.1564 4.794,16.5239 -6.69475,17.859 -2.19975,0.2551 -4.35337,-1.0474 -6.4645,-1.7645 1.10488,3.5956 3.58625,5.1976 3.57175,9.9149 0,0.3922 0,0.7841 0,1.1735"
         style="fill:#171717;fill-opacity:1;fill-rule:evenodd;stroke:none"
         id="path11510"
         inkscape:connector-curvature="0" />
      <path
         d="m 347.3809,2700.7471 0,0 c -3.7715,0 -6.85588,-3.087 -6.85662,-6.8566 l 0,-0.012 2.70037,0 c 0.4305,1.896 2.13412,3.3243 4.15663,3.3243 l 0,0 c 2.34387,0 4.26187,-1.9176 4.26187,-4.2622 l 0,-5.8921 c 0,-2.3436 -1.91763,-4.2623 -4.26225,-4.2623 l 0,0 c -2.07813,0 -3.81925,1.5098 -4.1885,3.4834 l -2.66663,0 c 10e-4,-0.1188 0.006,-0.2366 0.0127,-0.354 l -0.0139,0 0,-17.1989 11.03525,-0.065 2.67137,0 0.006,0 0,3.2662 -0.006,0 0,3.8286 -2.67137,0 0,-3.8286 -8.364,-3e-4 -2.5e-4,9.0074 c 1.15962,-0.8993 2.61237,-1.4375 4.18525,-1.4371 l 0,0 c 3.7715,0 6.857,3.0858 6.857,6.8566 l -2.5e-4,7.5437 c 0,3.7708 -3.08525,6.8567 -6.85675,6.8567"
         style="fill:#1f1917;fill-opacity:1;fill-rule:evenodd;stroke:none"
         id="path11512"
         inkscape:connector-curvature="0" />
      <path
         d="m 523.2849,2914.9195 0,0 c 3.7715,0 6.85588,3.0868 6.85662,6.8566 l 0,0.01 -2.70037,0 c -0.4305,-1.896 -2.13412,-3.3243 -4.15662,-3.3243 l 0,0 c -2.34388,0 -4.26188,1.9177 -4.26188,4.2623 l 0,5.8921 c 0,2.3435 1.91763,4.2623 4.26225,4.2623 l 0,0 c 2.07813,0 3.81938,-1.5098 4.1885,-3.4834 l 2.66675,0 c -10e-4,0.1186 -0.006,0.2366 -0.0127,0.3539 l 0.0138,0 0,17.1989 -11.03525,0.065 -2.67125,0 -0.006,0 0,-3.2662 0.006,0 0,-3.8285 2.67125,0 0,3.8285 8.364,4e-4 3.8e-4,-9.0074 c -1.15975,0.8992 -2.6125,1.4375 -4.18538,1.4371 l 0,0 c -3.7715,0 -6.857,-3.0859 -6.857,-6.8566 l 3.8e-4,-7.5438 c 0,-3.7707 3.08512,-6.8566 6.85662,-6.8566"
         style="fill:#1f1917;fill-opacity:1;fill-rule:evenodd;stroke:none"
         id="path11514"
         inkscape:connector-curvature="0" />
    </g>
  </g>
</svg>
