<?xml version="1.0" encoding="UTF-8" standalone="no"?>
<svg
   xmlns:dc="http://purl.org/dc/elements/1.1/"
   xmlns:cc="http://creativecommons.org/ns#"
   xmlns:rdf="http://www.w3.org/1999/02/22-rdf-syntax-ns#"
   xmlns:svg="http://www.w3.org/2000/svg"
   xmlns="http://www.w3.org/2000/svg"
   xmlns:sodipodi="http://sodipodi.sourceforge.net/DTD/sodipodi-0.dtd"
   xmlns:inkscape="http://www.inkscape.org/namespaces/inkscape"
   version="1.1"
   id="svg2"
   viewBox="0 0 213.32188 318.5163"
   height="89.89238mm"
   width="60.204174mm"
   inkscape:version="0.91 r13725"
   sodipodi:docname="layer38.svg">
  <sodipodi:namedview
     pagecolor="#ffffff"
     bordercolor="#666666"
     borderopacity="1"
     objecttolerance="10"
     gridtolerance="10"
     guidetolerance="10"
     inkscape:pageopacity="0"
     inkscape:pageshadow="2"
     inkscape:window-width="640"
     inkscape:window-height="480"
     id="namedview17"
     showgrid="false"
     inkscape:zoom="0.74093538"
     inkscape:cx="106.66094"
     inkscape:cy="159.25825"
     inkscape:window-x="0"
     inkscape:window-y="0"
     inkscape:window-maximized="0"
     inkscape:current-layer="svg2" />
  <defs
     id="defs4" />
  <metadata
     id="metadata7">
    <rdf:RDF>
      <cc:Work
         rdf:about="">
        <dc:format>image/svg+xml</dc:format>
        <dc:type
           rdf:resource="http://purl.org/dc/dcmitype/StillImage" />
        <dc:title />
      </cc:Work>
    </rdf:RDF>
  </metadata>
  <g
     transform="translate(-265.38631,-366.923)"
     id="layer38">
    <g
       id="g28382"
       transform="translate(397.03066,-2285.9965)">
      <path
         d="m -121.5226,2653.0545 193.078375,0 c 5.49275,0 9.98675,4.494 9.98675,9.9868 l 0,298.2728 c 0,5.4929 -4.494,9.9867 -9.98675,9.9867 l -193.078375,0 c -5.49288,0 -9.98675,-4.4938 -9.98675,-9.9867 l 0,-298.2728 c 0,-5.4928 4.49387,-9.9868 9.98675,-9.9868 z"
         style="fill:#ffffff;fill-opacity:1;fill-rule:evenodd;stroke:#1f1917;stroke-width:0.27000001;stroke-linecap:butt;stroke-linejoin:miter;stroke-miterlimit:10;stroke-dasharray:none;stroke-opacity:1"
         id="path11434"
         inkscape:connector-curvature="0" />
      <path
         d="m -68.2971,2688.3814 c 0,0 -4.931625,18.8145 -17.90125,25.7548 0,0 15.5265,9.8635 18.083375,24.6593 0,0 4.9315,-18.2654 18.266375,-24.8408 0,0 -13.334875,-7.1241 -18.4485,-25.5733"
         style="fill:#b32621;fill-opacity:1;fill-rule:evenodd;stroke:none"
         id="path11436"
         inkscape:connector-curvature="0" />
      <path
         d="m 20.16365,2687.3761 c 0,0 -4.931625,18.8146 -17.901125,25.7549 0,0 15.526375,9.8635 18.08325,24.6592 0,0 4.9315,-18.2654 18.266375,-24.8407 0,0 -13.334875,-7.1241 -18.4485,-25.5734"
         style="fill:#b32621;fill-opacity:1;fill-rule:evenodd;stroke:none"
         id="path11438"
         inkscape:connector-curvature="0" />
      <path
         d="m -25.326475,2789.6586 c 0,0 -4.9315,18.8146 -17.901125,25.7549 0,0 15.5265,9.8635 18.083375,24.6592 0,0 4.9315,-18.2653 18.266375,-24.8406 0,0 -13.334875,-7.1242 -18.448625,-25.5735"
         style="fill:#b32621;fill-opacity:1;fill-rule:evenodd;stroke:none"
         id="path11440"
         inkscape:connector-curvature="0" />
      <path
         d="m 20.16365,2887.4181 c 0,0 -4.931625,18.8146 -17.901125,25.7549 0,0 15.526375,9.8635 18.08325,24.6592 0,0 4.9315,-18.2653 18.266375,-24.8407 0,0 -13.334875,-7.1242 -18.4485,-25.5734"
         style="fill:#b32621;fill-opacity:1;fill-rule:evenodd;stroke:none"
         id="path11442"
         inkscape:connector-curvature="0" />
      <path
         d="m -69.30235,2887.4181 c 0,0 -4.931625,18.8146 -17.90125,25.7549 0,0 15.5265,9.8635 18.083375,24.6592 0,0 4.9315,-18.2653 18.266375,-24.8407 0,0 -13.334875,-7.1242 -18.4485,-25.5734"
         style="fill:#b32621;fill-opacity:1;fill-rule:evenodd;stroke:none"
         id="path11444"
         inkscape:connector-curvature="0" />
      <path
         d="m -109.9711,2706.4756 c 0,0 -2.8665,10.9364 -10.40525,14.9704 0,0 9.02512,5.7335 10.51125,14.3337 0,0 2.8665,-10.6171 10.617875,-14.4392 0,0 -7.751375,-4.1412 -10.723875,-14.8649"
         style="fill:#b32621;fill-opacity:1;fill-rule:evenodd;stroke:none"
         id="path11446"
         inkscape:connector-curvature="0" />
      <path
         d="m 63.934775,2885.4076 c 0,0 -2.8665,10.9364 -10.40525,14.9705 0,0 9.025125,5.7334 10.51125,14.3337 0,0 2.8665,-10.6172 10.617875,-14.4393 0,0 -7.751375,-4.141 -10.723875,-14.8649"
         style="fill:#b32621;fill-opacity:1;fill-rule:evenodd;stroke:none"
         id="path11448"
         inkscape:connector-curvature="0" />
      <path
         d="m -112.48223,2704.1281 0,0 c -3.7715,0 -6.85587,-3.0869 -6.85662,-6.8566 l 0,-0.012 2.70037,0 c 0.4305,1.8961 2.13413,3.3243 4.15663,3.3243 l 0,0 c 2.34388,0 4.26187,-1.9176 4.26187,-4.2622 l 0,-5.8921 c 0,-2.3437 -1.91762,-4.2623 -4.26225,-4.2623 l 0,0 c -2.07812,0 -3.81925,1.5098 -4.1885,3.4834 l -2.66675,0 c 0.001,-0.1187 0.006,-0.2366 0.0127,-0.354 l -0.0138,0 0,-17.1987 11.03525,-0.065 2.67125,0 0.007,0 0,3.2662 -0.007,0 0,3.8285 -2.67125,0 0,-3.8285 -8.364,-4e-4 -3.7e-4,9.0074 c 1.15975,-0.8992 2.6125,-1.4375 4.18537,-1.4371 l 0,0 c 3.77151,0 6.857,3.0859 6.857,6.8566 l -3.7e-4,7.5438 c 0,3.7707 -3.08512,6.8566 -6.85662,6.8566"
         style="fill:#b32621;fill-opacity:1;fill-rule:evenodd;stroke:none"
         id="path11450"
         inkscape:connector-curvature="0" />
      <path
         d="m 64.050025,2919.557 0,0 c 3.771375,0 6.855875,3.0869 6.856625,6.8566 l 0,0.01 -2.700375,0 c -0.4305,-1.896 -2.134125,-3.3242 -4.156625,-3.3242 l 0,0 c -2.343875,0 -4.261875,1.9176 -4.261875,4.2622 l 0,5.8921 c 0,2.3435 1.917625,4.2623 4.26225,4.2623 l 0,0 c 2.078125,0 3.81925,-1.5099 4.1885,-3.4835 l 2.666625,0 c -0.0013,0.1187 -0.0063,0.2367 -0.01275,0.354 l 0.01387,0 0,17.1989 -11.03525,0.065 -2.671375,0 -0.0063,0 0,-3.2662 0.0063,0 0,-3.8285 2.671375,0 0,3.8285 8.364,4e-4 2.5e-4,-9.0075 c -1.159625,0.8993 -2.612375,1.4376 -4.18525,1.4372 l 0,0 c -3.7715,0 -6.857125,-3.0859 -6.857125,-6.8567 l 3.75e-4,-7.5437 c 0,-3.7707 3.08525,-6.8566 6.85675,-6.8566"
         style="fill:#b32621;fill-opacity:1;fill-rule:evenodd;stroke:none"
         id="path11452"
         inkscape:connector-curvature="0" />
    </g>
  </g>
</svg>
