<?xml version="1.0" encoding="UTF-8" standalone="no"?>
<svg
   xmlns:dc="http://purl.org/dc/elements/1.1/"
   xmlns:cc="http://creativecommons.org/ns#"
   xmlns:rdf="http://www.w3.org/1999/02/22-rdf-syntax-ns#"
   xmlns:svg="http://www.w3.org/2000/svg"
   xmlns="http://www.w3.org/2000/svg"
   xmlns:sodipodi="http://sodipodi.sourceforge.net/DTD/sodipodi-0.dtd"
   xmlns:inkscape="http://www.inkscape.org/namespaces/inkscape"
   version="1.1"
   id="svg2"
   viewBox="0 0 213.32188 318.5163"
   height="89.89238mm"
   width="60.204174mm"
   inkscape:version="0.91 r13725"
   sodipodi:docname="layer41.svg">
  <sodipodi:namedview
     pagecolor="#ffffff"
     bordercolor="#666666"
     borderopacity="1"
     objecttolerance="10"
     gridtolerance="10"
     guidetolerance="10"
     inkscape:pageopacity="0"
     inkscape:pageshadow="2"
     inkscape:window-width="448"
     inkscape:window-height="428"
     id="namedview17"
     showgrid="false"
     inkscape:zoom="0.74093538"
     inkscape:cx="106.66094"
     inkscape:cy="159.25825"
     inkscape:window-x="0"
     inkscape:window-y="0"
     inkscape:window-maximized="0"
     inkscape:current-layer="svg2" />
  <defs
     id="defs4" />
  <metadata
     id="metadata7">
    <rdf:RDF>
      <cc:Work
         rdf:about="">
        <dc:format>image/svg+xml</dc:format>
        <dc:type
           rdf:resource="http://purl.org/dc/dcmitype/StillImage" />
        <dc:title />
      </cc:Work>
    </rdf:RDF>
  </metadata>
  <g
     transform="translate(-265.3863,-366.923)"
     id="layer41">
    <g
       id="g28553"
       transform="translate(-291.5076,-2278.816)">
      <path
         d="m 567.01565,2645.874 193.07838,0 c 5.49287,0 9.98675,4.494 9.98675,9.9869 l 0,298.2727 c 0,5.4929 -4.49388,9.9867 -9.98675,9.9867 l -193.07838,0 c -5.49275,0 -9.98675,-4.4938 -9.98675,-9.9867 l 0,-298.2727 c 0,-5.4929 4.494,-9.9869 9.98675,-9.9869 z"
         style="fill:#ffffff;fill-opacity:1;fill-rule:evenodd;stroke:#1f1917;stroke-width:0.27000001;stroke-linecap:butt;stroke-linejoin:miter;stroke-miterlimit:10;stroke-dasharray:none;stroke-opacity:1"
         id="path11516"
         inkscape:connector-curvature="0" />
      <path
         d="m 588.02502,2715.1021 c -0.45175,-1.3351 -9.49862,-14.4759 -10.46625,-15.8804 l 0,-0.1297 c -10e-4,0 -0.0191,0.026 -0.0454,0.065 -0.0255,-0.039 -0.0433,-0.064 -0.0446,-0.065 l 0,0.1297 c -0.96838,1.4045 -10.01451,14.5453 -10.46688,15.8804 -0.47588,1.4099 -0.70837,4.1205 0.68487,5.6689 1.394,1.5485 2.94275,2.4779 4.02663,2.4779 0.49113,0 1.31387,0.054 2.273,-0.3413 1.09425,-0.6835 2.20675,-2.0696 2.31875,-4.8901 0,0 0.19625,4.82 -1.66075,7.6223 -0.11625,0.218 -0.23775,0.421 -0.37312,0.5876 0,0 2.52462,-0.2137 3.24212,-0.2073 0.71787,-0.013 3.24213,0.2073 3.24213,0.2073 -0.13463,-0.1666 -0.25613,-0.3696 -0.37275,-0.5876 -1.85663,-2.8023 -1.66,-7.6223 -1.66,-7.6223 0.11087,2.8205 1.22425,4.2066 2.31875,4.8901 0.95812,0.3944 1.7815,0.3413 2.272,0.3413 1.08487,0 2.63337,-0.9294 4.02649,-2.4779 1.39438,-1.5484 1.16151,-4.259 0.685,-5.6689"
         style="fill:#171717;fill-opacity:1;fill-rule:evenodd;stroke:none"
         id="path11518"
         inkscape:connector-curvature="0" />
      <path
         d="m 740.90777,2895.1807 c 0.45176,1.3351 9.49851,14.4759 10.46613,15.8804 l 0,0.1298 c 0.002,0 0.0191,-0.027 0.0454,-0.065 0.0255,0.039 0.0433,0.064 0.0446,0.065 l 0,-0.1298 c 0.96838,-1.4045 10.0145,-14.5453 10.467,-15.8804 0.47587,-1.4099 0.70825,-4.1205 -0.685,-5.6689 -1.39388,-1.5484 -2.94263,-2.4778 -4.02663,-2.4778 -0.491,0 -1.31375,-0.053 -2.27299,0.3412 -1.09413,0.6835 -2.20676,2.0696 -2.31876,4.8901 0,0 -0.19625,-4.8199 1.66075,-7.6223 0.11625,-0.218 0.23775,-0.421 0.37313,-0.5875 0,0 -2.52463,0.2136 -3.24213,0.2072 -0.71787,0.01 -3.24212,-0.2072 -3.24212,-0.2072 0.13462,0.1665 0.25625,0.3695 0.37275,0.5875 1.85675,2.8024 1.66012,7.6223 1.66012,7.6223 -0.111,-2.8205 -1.22425,-4.2066 -2.31875,-4.8901 -0.95812,-0.3943 -1.78162,-0.3412 -2.272,-0.3412 -1.085,0 -2.63337,0.9294 -4.02662,2.4778 -1.39425,1.5484 -1.1615,4.259 -0.68488,5.6689"
         style="fill:#171717;fill-opacity:1;fill-rule:evenodd;stroke:none"
         id="path11520"
         inkscape:connector-curvature="0" />
      <path
         d="m 682.18127,2810.4443 c -0.78087,-2.3088 -16.425,-25.0321 -18.0985,-27.4609 l 0,-0.2243 c -0.002,0 -0.0329,0.046 -0.0782,0.1125 -0.0444,-0.066 -0.0747,-0.11 -0.0773,-0.1125 l 0,0.2243 c -1.67462,2.4288 -17.31762,25.1521 -18.09999,27.4609 -0.82301,2.4382 -1.22488,7.1257 1.18462,9.8029 2.41013,2.6778 5.0885,4.285 6.96288,4.285 0.849,0 2.272,0.091 3.93062,-0.59 1.89212,-1.1821 3.81575,-3.5791 4.00963,-8.4565 0,0 0.33937,8.335 -2.87188,13.1812 -0.20088,0.3766 -0.411,0.7277 -0.64525,1.0158 0,0 4.36575,-0.3696 5.60663,-0.3586 1.24125,-0.012 5.60625,0.3586 5.60625,0.3586 -0.23288,-0.2881 -0.443,-0.6392 -0.64463,-1.0158 -3.2105,-4.8462 -2.87037,-13.1812 -2.87037,-13.1812 0.19162,4.8774 2.11675,7.2744 4.00962,8.4565 1.65675,0.6818 3.0805,0.59 3.92875,0.59 1.87625,0 4.5535,-1.6072 6.963,-4.285 2.41088,-2.6772 2.00838,-7.3647 1.18413,-9.8029"
         style="fill:#171717;fill-opacity:1;fill-rule:evenodd;stroke:none"
         id="path11522"
         inkscape:connector-curvature="0" />
      <path
         d="m 726.57615,2711.0142 c -0.781,-2.3088 -16.425,-25.0321 -18.0985,-27.461 l 0,-0.2244 c -0.004,0 -0.033,0.046 -0.0784,0.1125 -0.0442,-0.066 -0.0747,-0.11 -0.0772,-0.1125 l 0,0.2244 c -1.6745,2.4289 -17.3175,25.1521 -18.09988,27.461 -0.82313,2.4381 -1.225,7.1255 1.1845,9.8029 2.41012,2.6776 5.0885,4.2849 6.963,4.2849 0.84887,0 2.27187,0.091 3.9305,-0.5899 1.89212,-1.1821 3.81587,-3.5791 4.00962,-8.4565 0,0 0.3395,8.3349 -2.87187,13.1811 -0.20088,0.3767 -0.411,0.7278 -0.64513,1.0159 0,0 4.36563,-0.3696 5.6065,-0.3586 1.24126,-0.012 5.60625,0.3586 5.60625,0.3586 -0.23275,-0.2881 -0.44287,-0.6393 -0.6445,-1.0159 -3.21062,-4.8462 -2.8705,-13.1811 -2.8705,-13.1811 0.19176,4.8774 2.11676,7.2744 4.00963,8.4565 1.65688,0.6816 3.08063,0.5899 3.92888,0.5899 1.87612,0 4.5535,-1.6073 6.96287,-4.2849 2.41088,-2.6774 2.00838,-7.3648 1.18425,-9.8029"
         style="fill:#171717;fill-opacity:1;fill-rule:evenodd;stroke:none"
         id="path11524"
         inkscape:connector-curvature="0" />
      <path
         d="m 637.78652,2711.0142 c -0.781,-2.3088 -16.42499,-25.0321 -18.0985,-27.461 l 0,-0.2244 c -0.004,0 -0.033,0.046 -0.0784,0.1125 -0.0443,-0.066 -0.0747,-0.11 -0.0772,-0.1125 l 0,0.2244 c -1.6745,2.4289 -17.3175,25.1521 -18.09988,27.461 -0.82312,2.4381 -1.22487,7.1255 1.1845,9.8029 2.41013,2.6776 5.08863,4.2849 6.963,4.2849 0.849,0 2.272,0.091 3.93063,-0.5899 1.89212,-1.1821 3.81575,-3.5791 4.0095,-8.4565 0,0 0.3395,8.3349 -2.87175,13.1811 -0.201,0.3767 -0.41113,0.7278 -0.64525,1.0159 0,0 4.36562,-0.3696 5.6065,-0.3586 1.24125,-0.012 5.60625,0.3586 5.60625,0.3586 -0.23275,-0.2881 -0.44288,-0.6393 -0.6445,-1.0159 -3.21063,-4.8462 -2.8705,-13.1811 -2.8705,-13.1811 0.19175,4.8774 2.11687,7.2744 4.00962,8.4565 1.65688,0.6816 3.08063,0.5899 3.92888,0.5899 1.87613,0 4.5535,-1.6073 6.96287,-4.2849 2.41088,-2.6774 2.00838,-7.3648 1.18425,-9.8029"
         style="fill:#171717;fill-opacity:1;fill-rule:evenodd;stroke:none"
         id="path11526"
         inkscape:connector-curvature="0" />
      <path
         d="m 600.59565,2899.2006 c 0.78087,2.3089 16.425,25.0321 18.0985,27.461 l 0,0.2242 c 0.002,0 0.0329,-0.046 0.0782,-0.1126 0.0443,0.067 0.0748,0.1095 0.0773,0.1126 l 0,-0.2242 c 1.67462,-2.4289 17.3175,-25.1521 18.09987,-27.461 0.82313,-2.4381 1.225,-7.1256 -1.1845,-9.8029 -2.41012,-2.6777 -5.08849,-4.2849 -6.96287,-4.2849 -0.849,0 -2.272,-0.092 -3.93062,0.5899 -1.89213,1.1821 -3.81575,3.5791 -4.00963,8.4565 0,0 -0.3395,-8.3349 2.87187,-13.1811 0.20088,-0.3766 0.411,-0.7277 0.64525,-1.0159 0,0 -4.36574,0.3697 -5.60662,0.3587 -1.24125,0.011 -5.60625,-0.3587 -5.60625,-0.3587 0.23287,0.2882 0.443,0.6393 0.64462,1.0159 3.21051,4.8462 2.87038,13.1811 2.87038,13.1811 -0.19175,-4.8774 -2.11675,-7.2743 -4.00963,-8.4565 -1.65687,-0.6817 -3.0805,-0.5899 -3.92875,-0.5899 -1.87625,0 -4.5535,1.6072 -6.963,4.2849 -2.41087,2.6773 -2.00837,7.3648 -1.18412,9.8029"
         style="fill:#171717;fill-opacity:1;fill-rule:evenodd;stroke:none"
         id="path11528"
         inkscape:connector-curvature="0" />
      <path
         d="m 691.06053,2899.2006 c 0.78087,2.3089 16.425,25.0321 18.09849,27.461 l 0,0.2242 c 0.002,0 0.0329,-0.046 0.0782,-0.1126 0.0443,0.067 0.0747,0.1095 0.0773,0.1126 l 0,-0.2242 c 1.67463,-2.4289 17.31763,-25.1521 18.09988,-27.461 0.82312,-2.4381 1.225,-7.1256 -1.1845,-9.8029 -2.41013,-2.6777 -5.0885,-4.2849 -6.96287,-4.2849 -0.84901,0 -2.272,-0.092 -3.93063,0.5899 -1.89212,1.1821 -3.81575,3.5791 -4.00963,8.4565 0,0 -0.3395,-8.3349 2.87188,-13.1811 0.20088,-0.3766 0.411,-0.7277 0.64525,-1.0159 0,0 -4.36575,0.3697 -5.60663,0.3587 -1.24125,0.011 -5.60625,-0.3587 -5.60625,-0.3587 0.23288,0.2882 0.44301,0.6393 0.64463,1.0159 3.2105,4.8462 2.87037,13.1811 2.87037,13.1811 -0.19175,-4.8774 -2.11675,-7.2743 -4.00962,-8.4565 -1.65688,-0.6817 -3.0805,-0.5899 -3.92875,-0.5899 -1.87625,0 -4.5535,1.6072 -6.963,4.2849 -2.41088,2.6773 -2.00838,7.3648 -1.18413,9.8029"
         style="fill:#171717;fill-opacity:1;fill-rule:evenodd;stroke:none"
         id="path11530"
         inkscape:connector-curvature="0" />
      <path
         d="m 578.15015,2695.9006 0,0 c -3.7715,0 -6.85588,-3.087 -6.85662,-6.8567 l 0,-0.013 2.70037,0 c 0.4305,1.896 2.13412,3.3243 4.15663,3.3243 l 0,0 c 2.34387,0 4.26187,-1.9176 4.26187,-4.2622 l 0,-5.8923 c 0,-2.3435 -1.91763,-4.2622 -4.26225,-4.2622 l 0,0 c -2.07813,0 -3.81938,1.5099 -4.1885,3.4835 l -2.66675,0 c 10e-4,-0.1188 0.006,-0.2368 0.0127,-0.354 l -0.0137,0 0,-17.1989 11.03525,-0.065 2.67125,0 0.006,0 0,3.2663 -0.006,0 0,3.8286 -2.67125,0 0,-3.8286 -8.364,-4e-4 -3.8e-4,9.0075 c 1.15975,-0.8993 2.6125,-1.4375 4.18538,-1.4371 l 0,0 c 3.7715,0 6.857,3.0857 6.857,6.8566 l -3.8e-4,7.5436 c 0,3.7709 -3.08512,6.8568 -6.85662,6.8568"
         style="fill:#1f1917;fill-opacity:1;fill-rule:evenodd;stroke:none"
         id="path11532"
         inkscape:connector-curvature="0" />
      <path
         d="m 751.54115,2911.3294 0,0 c 3.7715,0 6.856,3.0869 6.85675,6.8566 l 0,0.01 -2.70037,0 c -0.4305,-1.896 -2.13413,-3.3244 -4.15675,-3.3244 l 0,0 c -2.34388,0 -4.26188,1.9176 -4.26188,4.2623 l 0,5.8921 c 0,2.3436 1.91763,4.2622 4.26225,4.2622 l 0,0 c 2.07813,0 3.81938,-1.5097 4.18863,-3.4833 l 2.66662,0 c -10e-4,0.1187 -0.006,0.2366 -0.0127,0.3539 l 0.0139,0 0,17.1989 -11.03538,0.065 -2.67125,0 -0.006,0 0,-3.2661 0.006,0 0,-3.8287 2.67125,0 0,3.8287 8.364,2e-4 3.8e-4,-9.0074 c -1.15976,0.8993 -2.6125,1.4375 -4.18538,1.4371 l 0,0 c -3.7715,0 -6.857,-3.0858 -6.857,-6.8566 l 3.8e-4,-7.5437 c 0,-3.7708 3.08512,-6.8566 6.85662,-6.8566"
         style="fill:#1f1917;fill-opacity:1;fill-rule:evenodd;stroke:none"
         id="path11534"
         inkscape:connector-curvature="0" />
    </g>
  </g>
</svg>
