<?xml version="1.0" encoding="UTF-8" standalone="no"?>
<svg
   xmlns:dc="http://purl.org/dc/elements/1.1/"
   xmlns:cc="http://creativecommons.org/ns#"
   xmlns:rdf="http://www.w3.org/1999/02/22-rdf-syntax-ns#"
   xmlns:svg="http://www.w3.org/2000/svg"
   xmlns="http://www.w3.org/2000/svg"
   xmlns:sodipodi="http://sodipodi.sourceforge.net/DTD/sodipodi-0.dtd"
   xmlns:inkscape="http://www.inkscape.org/namespaces/inkscape"
   version="1.1"
   id="svg2"
   viewBox="0 0 213.32188 318.5163"
   height="89.89238mm"
   width="60.204174mm"
   inkscape:version="0.91 r13725"
   sodipodi:docname="layer37.svg">
  <sodipodi:namedview
     pagecolor="#ffffff"
     bordercolor="#666666"
     borderopacity="1"
     objecttolerance="10"
     gridtolerance="10"
     guidetolerance="10"
     inkscape:pageopacity="0"
     inkscape:pageshadow="2"
     inkscape:window-width="448"
     inkscape:window-height="428"
     id="namedview18"
     showgrid="false"
     inkscape:zoom="0.74093538"
     inkscape:cx="106.66094"
     inkscape:cy="159.25825"
     inkscape:window-x="0"
     inkscape:window-y="0"
     inkscape:window-maximized="0"
     inkscape:current-layer="svg2" />
  <defs
     id="defs4" />
  <metadata
     id="metadata7">
    <rdf:RDF>
      <cc:Work
         rdf:about="">
        <dc:format>image/svg+xml</dc:format>
        <dc:type
           rdf:resource="http://purl.org/dc/dcmitype/StillImage" />
        <dc:title />
      </cc:Work>
    </rdf:RDF>
  </metadata>
  <g
     transform="translate(-265.3863,-366.923)"
     id="layer37">
    <g
       id="g28591"
       transform="translate(-291.5076,-1941.58)">
      <path
         d="m 567.01565,2308.638 193.07838,0 c 5.49287,0 9.98675,4.494 9.98675,9.9868 l 0,298.2728 c 0,5.4927 -4.49388,9.9867 -9.98675,9.9867 l -193.07838,0 c -5.49275,0 -9.98675,-4.494 -9.98675,-9.9867 l 0,-298.2728 c 0,-5.4928 4.494,-9.9868 9.98675,-9.9868 z"
         style="fill:#ffffff;fill-opacity:1;fill-rule:evenodd;stroke:#1f1917;stroke-width:0.27000001;stroke-linecap:butt;stroke-linejoin:miter;stroke-miterlimit:10;stroke-dasharray:none;stroke-opacity:1"
         id="path11454"
         inkscape:connector-curvature="0" />
      <path
         d="m 620.24115,2343.9647 c 0,0 -4.93163,18.8146 -17.90113,25.7549 0,0 15.52638,9.8635 18.08325,24.6594 0,0 4.9315,-18.2654 18.26638,-24.8408 0,0 -13.33488,-7.1241 -18.4485,-25.5735"
         style="fill:#b32621;fill-opacity:1;fill-rule:evenodd;stroke:none"
         id="path11456"
         inkscape:connector-curvature="0" />
      <path
         d="m 708.7019,2342.9595 c 0,0 -4.93163,18.8146 -17.90113,25.7549 0,0 15.52638,9.8634 18.08325,24.6593 0,0 4.93163,-18.2653 18.2665,-24.8407 0,0 -13.33487,-7.1242 -18.44862,-25.5735"
         style="fill:#b32621;fill-opacity:1;fill-rule:evenodd;stroke:none"
         id="path11458"
         inkscape:connector-curvature="0" />
      <path
         d="m 708.7019,2543.0015 c 0,0 -4.93163,18.8146 -17.90113,25.755 0,0 15.52638,9.8635 18.08325,24.6592 0,0 4.93163,-18.2654 18.2665,-24.8407 0,0 -13.33487,-7.1241 -18.44862,-25.5735"
         style="fill:#b32621;fill-opacity:1;fill-rule:evenodd;stroke:none"
         id="path11460"
         inkscape:connector-curvature="0" />
      <path
         d="m 619.2359,2543.0015 c 0,0 -4.93163,18.8146 -17.90112,25.755 0,0 15.52637,9.8635 18.08324,24.6592 0,0 4.9315,-18.2654 18.26638,-24.8407 0,0 -13.33488,-7.1241 -18.4485,-25.5735"
         style="fill:#b32621;fill-opacity:1;fill-rule:evenodd;stroke:none"
         id="path11462"
         inkscape:connector-curvature="0" />
      <path
         d="m 578.56715,2362.059 c 0,0 -2.8665,10.9365 -10.40525,14.9705 0,0 9.02525,5.7334 10.51125,14.3337 0,0 2.8665,-10.6171 10.61787,-14.4393 0,0 -7.75137,-4.141 -10.72387,-14.8649"
         style="fill:#b32621;fill-opacity:1;fill-rule:evenodd;stroke:none"
         id="path11464"
         inkscape:connector-curvature="0" />
      <path
         d="m 752.47302,2540.9911 c 0,0 -2.86649,10.9364 -10.40525,14.9704 0,0 9.02513,5.7335 10.51125,14.3337 0,0 2.8665,-10.6171 10.61788,-14.4392 0,0 -7.75138,-4.1412 -10.72388,-14.8649"
         style="fill:#b32621;fill-opacity:1;fill-rule:evenodd;stroke:none"
         id="path11466"
         inkscape:connector-curvature="0" />
      <path
         d="m 578.20502,2360.7416 0,0 c -3.7715,0 -6.85662,-3.0869 -6.85662,-6.8566 l 0,-4.2134 c 0,-0.1443 0.006,-0.2866 0.0149,-0.4288 l -0.0149,0 0,-12.0132 0,-0.9949 0,-0.9529 c 0,-3.7696 3.08512,-6.8566 6.85662,-6.8566 l 0,0 c 3.77151,0 6.85676,3.0851 6.85676,6.8566 l 0,1.9478 -2.59451,0 0,-1.2436 c 0,-2.3439 -1.91762,-4.2623 -4.26225,-4.2623 l 0,0 c -2.34449,0 -4.26212,1.9208 -4.26212,4.2623 l 0,0.2487 0.0769,0 0,8.0178 c 1.15963,-0.8993 2.61238,-1.4375 4.18525,-1.4375 l 0,0 c 3.77151,0 6.85676,3.0851 6.85676,6.8566 l 0,4.2134 c 0,3.7715 -3.08525,6.8566 -6.85676,6.8566 z m 0,-3.5423 0,0 c -2.34449,0 -4.26212,-1.9205 -4.26212,-4.2622 l 0,-2.5614 c 0,-2.3415 1.91762,-4.2622 4.26212,-4.2622 l 0,0 c 2.34463,0 4.26225,1.9182 4.26225,4.2622 l 0,2.5614 c 0,2.3442 -1.91762,4.2622 -4.26225,4.2622"
         style="fill:#b32621;fill-opacity:1;fill-rule:evenodd;stroke:none"
         id="path11468"
         inkscape:connector-curvature="0" />
      <path
         d="m 753.2714,2573.8531 0,0 c 3.7715,0 6.85662,3.0869 6.85662,6.8566 l 0,4.2134 c 0,0.1442 -0.006,0.2866 -0.0149,0.4288 l 0.0149,0 0,12.0132 0,0.9949 0,0.9529 c 0,3.7697 -3.08512,6.8566 -6.85662,6.8566 l 0,0 c -3.7715,0 -6.85663,-3.0851 -6.85663,-6.8566 l 0,-1.9478 2.59438,0 0,1.2436 c 0,2.344 1.91762,4.2623 4.26225,4.2623 l 0,0 c 2.34463,0 4.26225,-1.9208 4.26225,-4.2623 l 0,-0.2487 -0.0769,0 0,-8.0178 c -1.15975,0.8993 -2.6125,1.4375 -4.18537,1.4375 l 0,0 c -3.7715,0 -6.85663,-3.0851 -6.85663,-6.8566 l 0,-4.2134 c 0,-3.7715 3.08513,-6.8566 6.85663,-6.8566 z m 0,3.5422 0,0 c 2.34463,0 4.26225,1.9206 4.26225,4.2623 l 0,2.5615 c 0,2.3414 -1.91762,4.2622 -4.26225,4.2622 l 0,0 c -2.34463,0 -4.26225,-1.9183 -4.26225,-4.2622 l 0,-2.5615 c 0,-2.3442 1.91762,-4.2623 4.26225,-4.2623"
         style="fill:#b32621;fill-opacity:1;fill-rule:evenodd;stroke:none"
         id="path11470"
         inkscape:connector-curvature="0" />
      <path
         d="m 620.24115,2443.5667 c 0,0 -4.93163,18.8146 -17.90113,25.7549 0,0 15.52638,9.8635 18.08325,24.6594 0,0 4.9315,-18.2654 18.26638,-24.8408 0,0 -13.33488,-7.1241 -18.4485,-25.5735"
         style="fill:#b32621;fill-opacity:1;fill-rule:evenodd;stroke:none"
         id="path11472"
         inkscape:connector-curvature="0" />
      <path
         d="m 708.7019,2443.5667 c 0,0 -4.93163,18.8146 -17.90113,25.7549 0,0 15.52638,9.8635 18.08325,24.6594 0,0 4.93163,-18.2654 18.2665,-24.8408 0,0 -13.33487,-7.1241 -18.44862,-25.5735"
         style="fill:#b32621;fill-opacity:1;fill-rule:evenodd;stroke:none"
         id="path11474"
         inkscape:connector-curvature="0" />
    </g>
  </g>
</svg>
