<?xml version="1.0" encoding="UTF-8" standalone="no"?>
<svg
   xmlns:dc="http://purl.org/dc/elements/1.1/"
   xmlns:cc="http://creativecommons.org/ns#"
   xmlns:rdf="http://www.w3.org/1999/02/22-rdf-syntax-ns#"
   xmlns:svg="http://www.w3.org/2000/svg"
   xmlns="http://www.w3.org/2000/svg"
   xmlns:sodipodi="http://sodipodi.sourceforge.net/DTD/sodipodi-0.dtd"
   xmlns:inkscape="http://www.inkscape.org/namespaces/inkscape"
   version="1.1"
   id="svg2"
   viewBox="0 0 213.32188 318.5163"
   height="89.89238mm"
   width="60.204174mm"
   inkscape:version="0.91 r13725"
   sodipodi:docname="layer36.svg">
  <sodipodi:namedview
     pagecolor="#ffffff"
     bordercolor="#666666"
     borderopacity="1"
     objecttolerance="10"
     gridtolerance="10"
     guidetolerance="10"
     inkscape:pageopacity="0"
     inkscape:pageshadow="2"
     inkscape:window-width="448"
     inkscape:window-height="428"
     id="namedview18"
     showgrid="false"
     inkscape:zoom="0.74093538"
     inkscape:cx="106.66093"
     inkscape:cy="159.25825"
     inkscape:window-x="0"
     inkscape:window-y="0"
     inkscape:window-maximized="0"
     inkscape:current-layer="svg2" />
  <defs
     id="defs4" />
  <metadata
     id="metadata7">
    <rdf:RDF>
      <cc:Work
         rdf:about="">
        <dc:format>image/svg+xml</dc:format>
        <dc:type
           rdf:resource="http://purl.org/dc/dcmitype/StillImage" />
        <dc:title />
      </cc:Work>
    </rdf:RDF>
  </metadata>
  <g
     transform="translate(-265.3863,-366.923)"
     id="layer36">
    <g
       id="g28578"
       transform="translate(-61.994846,-1944.7715)">
      <path
         d="m 337.5029,2311.8295 193.07837,0 c 5.49288,0 9.98676,4.494 9.98676,9.9867 l 0,298.2728 c 0,5.4928 -4.49388,9.9868 -9.98676,9.9868 l -193.07837,0 c -5.49288,0 -9.98675,-4.494 -9.98675,-9.9868 l 0,-298.2728 c 0,-5.4927 4.49387,-9.9867 9.98675,-9.9867 z"
         style="fill:#ffffff;fill-opacity:1;fill-rule:evenodd;stroke:#1f1917;stroke-width:0.27000001;stroke-linecap:butt;stroke-linejoin:miter;stroke-miterlimit:10;stroke-dasharray:none;stroke-opacity:1"
         id="path11412"
         inkscape:connector-curvature="0" />
      <path
         d="m 357.97865,2370.9392 c -1.40637,-1.5626 -2.969,-2.4997 -4.06238,-2.4997 -1.06274,0 -3.65987,-0.2573 -5.85537,4.2331 -2.18625,-4.4061 -4.75825,-4.1552 -5.8145,-4.1552 -1.09387,0 -2.6565,0.9376 -4.06288,2.5002 -1.40587,1.5623 -1.17175,4.2966 -0.69087,5.7196 0.48112,1.4227 10.525,16.077 10.525,16.077 0,0 10.17113,-14.7327 10.65188,-16.1554 0.48087,-1.4226 0.7155,-4.1569 -0.69088,-5.7196"
         style="fill:#b32621;fill-opacity:1;fill-rule:evenodd;stroke:none"
         id="path11414"
         inkscape:connector-curvature="0" />
      <path
         d="m 513.09465,2572.259 c 1.40638,1.5626 2.969,2.4997 4.0625,2.4997 1.06263,0 3.65988,0.2573 5.85525,-4.2331 2.18625,4.4061 4.75837,4.1552 5.81463,4.1552 1.09375,0 2.65637,-0.9376 4.06275,-2.5001 1.406,-1.5622 1.17175,-4.2966 0.69087,-5.7196 -0.48113,-1.4226 -10.525,-16.0771 -10.525,-16.0771 0,0 -10.17113,14.7327 -10.65188,16.1553 -0.48087,1.4227 -0.71537,4.157 0.69088,5.7197"
         style="fill:#b32621;fill-opacity:1;fill-rule:evenodd;stroke:none"
         id="path11416"
         inkscape:connector-curvature="0" />
      <path
         d="m 410.03227,2353.1001 c -2.67237,-2.9692 -5.64162,-4.7501 -7.71937,-4.7501 -2.019,0 -6.9545,-0.4887 -11.126,8.0436 -4.15425,-8.3721 -9.0415,-7.8955 -11.04875,-7.8955 -2.07813,0 -5.0475,1.7815 -7.71987,4.7509 -2.67163,2.9685 -2.22663,8.1641 -1.31276,10.868 0.91413,2.7031 19.99913,30.549 19.99913,30.549 0,0 19.32662,-27.9946 20.24037,-30.6979 0.9135,-2.7031 1.35925,-7.8987 -1.31275,-10.868"
         style="fill:#b32621;fill-opacity:1;fill-rule:evenodd;stroke:none"
         id="path11418"
         inkscape:connector-curvature="0" />
      <path
         d="m 498.24853,2353.1001 c -2.67225,-2.9692 -5.64163,-4.7501 -7.71938,-4.7501 -2.019,0 -6.9545,-0.4887 -11.126,8.0436 -4.15413,-8.3721 -9.0415,-7.8955 -11.04875,-7.8955 -2.07813,0 -5.04738,1.7815 -7.71975,4.7509 -2.67175,2.9685 -2.22663,8.1641 -1.31288,10.868 0.91425,2.7031 19.99913,30.549 19.99913,30.549 0,0 19.32662,-27.9946 20.2405,-30.6979 0.9135,-2.7031 1.35925,-7.8987 -1.31288,-10.868"
         style="fill:#b32621;fill-opacity:1;fill-rule:evenodd;stroke:none"
         id="path11420"
         inkscape:connector-curvature="0" />
      <path
         d="m 459.3789,2590.4762 c 2.67237,2.9693 5.64162,4.7502 7.71937,4.7502 2.019,0 6.9545,0.4886 11.12601,-8.0437 4.15425,8.3721 9.0415,7.8955 11.04875,7.8955 2.07812,0 5.0475,-1.7816 7.71987,-4.7509 2.67162,-2.9686 2.2265,-8.1641 1.31275,-10.868 -0.91425,-2.7032 -19.99912,-30.549 -19.99912,-30.549 0,0 -19.32663,27.9947 -20.2405,30.6978 -0.91338,2.7033 -1.35913,7.8987 1.31287,10.8681"
         style="fill:#b32621;fill-opacity:1;fill-rule:evenodd;stroke:none"
         id="path11422"
         inkscape:connector-curvature="0" />
      <path
         d="m 371.16253,2590.4762 c 2.67237,2.9693 5.64175,4.7502 7.71949,4.7502 2.019,0 6.95438,0.4886 11.12601,-8.0437 4.15412,8.3721 9.04137,7.8955 11.04874,7.8955 2.07813,0 5.04738,-1.7816 7.71975,-4.7509 2.67163,-2.9686 2.22663,-8.1641 1.31275,-10.868 -0.91412,-2.7032 -19.99912,-30.549 -19.99912,-30.549 0,0 -19.32662,27.9947 -20.24038,30.6978 -0.9135,2.7033 -1.35925,7.8987 1.31276,10.8681"
         style="fill:#b32621;fill-opacity:1;fill-rule:evenodd;stroke:none"
         id="path11424"
         inkscape:connector-curvature="0" />
      <path
         d="m 460.63528,2452.941 c 2.67237,-2.9694 5.64175,-4.7503 7.7195,-4.7503 2.019,0 6.9545,-0.4885 11.126,8.0438 4.15412,-8.3721 9.04137,-7.8956 11.04875,-7.8956 2.07812,0 5.04737,1.7816 7.71975,4.7508 2.67162,2.9687 2.22662,8.1642 1.31287,10.8682 -0.91425,2.7031 -19.99925,30.5488 -19.99925,30.5488 0,0 -19.3265,-27.9945 -20.24037,-30.6977 -0.91351,-2.7033 -1.35926,-7.8988 1.31275,-10.868"
         style="fill:#b32621;fill-opacity:1;fill-rule:evenodd;stroke:none"
         id="path11426"
         inkscape:connector-curvature="0" />
      <path
         d="m 371.16253,2452.941 c 2.67237,-2.9694 5.64175,-4.7503 7.71949,-4.7503 2.019,0 6.95438,-0.4885 11.12601,8.0438 4.15412,-8.3721 9.04137,-7.8956 11.04874,-7.8956 2.07813,0 5.04738,1.7816 7.71975,4.7508 2.67163,2.9687 2.22663,8.1642 1.31275,10.8682 -0.91412,2.7031 -19.99912,30.5488 -19.99912,30.5488 0,0 -19.32662,-27.9945 -20.24038,-30.6977 -0.9135,-2.7033 -1.35925,-7.8988 1.31276,-10.868"
         style="fill:#b32621;fill-opacity:1;fill-rule:evenodd;stroke:none"
         id="path11428"
         inkscape:connector-curvature="0" />
      <path
         d="m 346.01852,2364.0195 0,0 c -3.7715,0 -6.85662,-3.0869 -6.85662,-6.8567 l 0,-4.2133 c 0,-0.1442 0.006,-0.2867 0.0149,-0.4288 l -0.0149,0 0,-12.0131 0,-0.995 0,-0.9528 c 0,-3.7697 3.08512,-6.8567 6.85662,-6.8567 l 0,0 c 3.7715,0 6.85663,3.0852 6.85663,6.8567 l 0,1.9478 -2.59438,0 0,-1.2438 c 0,-2.3438 -1.91762,-4.2622 -4.26225,-4.2622 l 0,0 c -2.34462,0 -4.26224,1.9209 -4.26224,4.2622 l 0,0.2488 0.0769,0 0,8.0178 c 1.15975,-0.8993 2.6125,-1.4375 4.18537,-1.4375 l 0,0 c 3.7715,0 6.85663,3.0851 6.85663,6.8566 l 0,4.2133 c 0,3.7715 -3.08513,6.8567 -6.85663,6.8567 z m 0,-3.5423 0,0 c -2.34462,0 -4.26224,-1.9203 -4.26224,-4.2622 l 0,-2.5614 c 0,-2.3414 1.91762,-4.2623 4.26224,-4.2623 l 0,0 c 2.34463,0 4.26225,1.9184 4.26225,4.2623 l 0,2.5614 c 0,2.3444 -1.91762,4.2622 -4.26225,4.2622"
         style="fill:#b32621;fill-opacity:1;fill-rule:evenodd;stroke:none"
         id="path11430"
         inkscape:connector-curvature="0" />
      <path
         d="m 522.94015,2576.9807 0,0 c 3.7715,0 6.85663,3.087 6.85663,6.8568 l 0,4.2132 c 0,0.1443 -0.006,0.2868 -0.0149,0.4288 l 0.0149,0 0,12.0132 0,0.995 0,0.9528 c 0,3.7697 -3.08513,6.8567 -6.85663,6.8567 l 0,0 c -3.7715,0 -6.85663,-3.0852 -6.85663,-6.8567 l 0,-1.9478 2.59438,0 0,1.2438 c 0,2.3438 1.91762,4.2622 4.26225,4.2622 l 0,0 c 2.34463,0 4.26225,-1.9209 4.26225,-4.2622 l 0,-0.2488 -0.0769,0 0,-8.0177 c -1.15975,0.8992 -2.6125,1.4375 -4.18537,1.4375 l 0,0 c -3.7715,0 -6.85663,-3.0853 -6.85663,-6.8568 l 0,-4.2132 c 0,-3.7715 3.08513,-6.8568 6.85663,-6.8568 z m 0,3.5423 0,0 c 2.34463,0 4.26225,1.9205 4.26225,4.2622 l 0,2.5615 c 0,2.3414 -1.91762,4.2623 -4.26225,4.2623 l 0,0 c -2.34463,0 -4.26225,-1.9184 -4.26225,-4.2623 l 0,-2.5615 c 0,-2.3442 1.91762,-4.2622 4.26225,-4.2622"
         style="fill:#b32621;fill-opacity:1;fill-rule:evenodd;stroke:none"
         id="path11432"
         inkscape:connector-curvature="0" />
    </g>
  </g>
</svg>
