<?xml version="1.0" encoding="UTF-8" standalone="no"?>
<svg
   xmlns:dc="http://purl.org/dc/elements/1.1/"
   xmlns:cc="http://creativecommons.org/ns#"
   xmlns:rdf="http://www.w3.org/1999/02/22-rdf-syntax-ns#"
   xmlns:svg="http://www.w3.org/2000/svg"
   xmlns="http://www.w3.org/2000/svg"
   xmlns:sodipodi="http://sodipodi.sourceforge.net/DTD/sodipodi-0.dtd"
   xmlns:inkscape="http://www.inkscape.org/namespaces/inkscape"
   version="1.1"
   id="svg2"
   viewBox="0 0 213.32188 318.51639"
   height="89.892403mm"
   width="60.204174mm"
   inkscape:version="0.91 r13725"
   sodipodi:docname="layer34.svg">
  <sodipodi:namedview
     pagecolor="#ffffff"
     bordercolor="#666666"
     borderopacity="1"
     objecttolerance="10"
     gridtolerance="10"
     guidetolerance="10"
     inkscape:pageopacity="0"
     inkscape:pageshadow="2"
     inkscape:window-width="640"
     inkscape:window-height="480"
     id="namedview18"
     showgrid="false"
     inkscape:zoom="0.74093519"
     inkscape:cx="106.66094"
     inkscape:cy="159.25821"
     inkscape:window-x="0"
     inkscape:window-y="0"
     inkscape:window-maximized="0"
     inkscape:current-layer="svg2" />
  <defs
     id="defs4" />
  <metadata
     id="metadata7">
    <rdf:RDF>
      <cc:Work
         rdf:about="">
        <dc:format>image/svg+xml</dc:format>
        <dc:type
           rdf:resource="http://purl.org/dc/dcmitype/StillImage" />
        <dc:title />
      </cc:Work>
    </rdf:RDF>
  </metadata>
  <g
     transform="translate(-265.38631,-366.9229)"
     id="layer34">
    <g
       id="g28369"
       transform="translate(397.03066,-1947.9629)">
      <path
         d="m -121.5226,2315.0208 193.078375,0 c 5.49275,0 9.98675,4.4941 9.98675,9.9869 l 0,298.2728 c 0,5.4929 -4.494,9.9867 -9.98675,9.9867 l -193.078375,0 c -5.49288,0 -9.98675,-4.4938 -9.98675,-9.9867 l 0,-298.2728 c 0,-5.4928 4.49387,-9.9868 9.98675,-9.9868 z"
         style="fill:#ffffff;fill-opacity:1;fill-rule:evenodd;stroke:#1f1917;stroke-width:0.27000001;stroke-linecap:butt;stroke-linejoin:miter;stroke-miterlimit:10;stroke-dasharray:none;stroke-opacity:1"
         id="path11344"
         inkscape:connector-curvature="0" />
      <path
         d="m -100.51323,2384.249 c -0.45175,-1.3351 -9.49862,-14.4759 -10.46625,-15.8804 l 0,-0.1298 c -0.002,0 -0.0191,0.026 -0.0454,0.065 -0.0255,-0.039 -0.0433,-0.064 -0.0446,-0.065 l 0,0.1298 c -0.96837,1.4045 -10.0145,14.5453 -10.467,15.8804 -0.47575,1.4098 -0.70825,4.1205 0.685,5.6688 1.39388,1.5486 2.94275,2.4779 4.02663,2.4779 0.49112,0 1.31387,0.054 2.273,-0.3412 1.09412,-0.6835 2.20675,-2.0697 2.31875,-4.8901 0,0 0.19625,4.8199 -1.66075,7.6223 -0.11625,0.218 -0.23775,0.421 -0.37313,0.5875 0,0 2.52463,-0.2136 3.24213,-0.2072 0.71787,-0.012 3.24212,0.2072 3.24212,0.2072 -0.13462,-0.1665 -0.25612,-0.3695 -0.37275,-0.5875 -1.85662,-2.8024 -1.66,-7.6223 -1.66,-7.6223 0.11088,2.8204 1.22413,4.2066 2.31875,4.8901 0.95813,0.3943 1.7815,0.3412 2.27188,0.3412 1.085,0 2.63337,-0.9294 4.02662,-2.4779 1.39438,-1.5483 1.1615,-4.259 0.685,-5.6688"
         style="fill:#171717;fill-opacity:1;fill-rule:evenodd;stroke:none"
         id="path11346"
         inkscape:connector-curvature="0" />
      <path
         d="m 52.3694,2564.3276 c 0.451875,1.3351 9.498625,14.4759 10.46625,15.8804 l 0,0.1297 c 0.0012,0 0.01912,-0.026 0.04537,-0.065 0.0255,0.039 0.04325,0.064 0.04462,0.065 l 0,-0.1297 c 0.968375,-1.4045 10.0145,-14.5453 10.467,-15.8804 0.475875,-1.4099 0.70825,-4.1205 -0.685,-5.6689 -1.393875,-1.5485 -2.942625,-2.4779 -4.026625,-2.4779 -0.491,0 -1.313875,-0.054 -2.273,0.3413 -1.094125,0.6835 -2.20675,2.0696 -2.31875,4.8901 0,0 -0.19625,-4.82 1.66075,-7.6224 0.11625,-0.2178 0.23775,-0.421 0.373125,-0.5875 0,0 -2.524625,0.2137 -3.242125,0.2073 -0.717875,0.012 -3.242125,-0.2073 -3.242125,-0.2073 0.134625,0.1665 0.256125,0.3697 0.37275,0.5875 1.85675,2.8024 1.66,7.6224 1.66,7.6224 -0.110875,-2.8205 -1.224125,-4.2066 -2.31875,-4.8901 -0.958,-0.3944 -1.7815,-0.3413 -2.271875,-0.3413 -1.085,0 -2.633375,0.9294 -4.026625,2.4779 -1.394375,1.5484 -1.1615,4.259 -0.685,5.6689"
         style="fill:#171717;fill-opacity:1;fill-rule:evenodd;stroke:none"
         id="path11348"
         inkscape:connector-curvature="0" />
      <path
         d="m -51.58935,2478.3347 c -0.781,-2.3087 -16.425,-25.032 -18.0985,-27.461 l 0,-0.2242 c -0.0037,0 -0.033,0.046 -0.07838,0.1125 -0.04425,-0.066 -0.07475,-0.11 -0.07725,-0.1125 l 0,0.2242 c -1.6745,2.429 -17.3175,25.1523 -18.099875,27.461 -0.823125,2.4381 -1.225,7.1256 1.1845,9.803 2.410125,2.6776 5.0885,4.2849 6.963,4.2849 0.848875,0 2.271875,0.091 3.9305,-0.59 1.892125,-1.182 3.815875,-3.579 4.009625,-8.4564 0,0 0.3395,8.3349 -2.871875,13.181 -0.200875,0.3768 -0.411,0.7279 -0.64525,1.0159 0,0 4.36575,-0.3695 5.606625,-0.3585 1.24125,-0.012 5.60625,0.3585 5.60625,0.3585 -0.232875,-0.288 -0.442875,-0.6391 -0.6445,-1.0159 -3.210625,-4.8461 -2.8705,-13.181 -2.8705,-13.181 0.19175,4.8774 2.11675,7.2744 4.009625,8.4564 1.656875,0.6817 3.0805,0.59 3.928875,0.59 1.876125,0 4.5535,-1.6073 6.962875,-4.2849 2.410875,-2.6774 2.008375,-7.3649 1.18425,-9.803"
         style="fill:#171717;fill-opacity:1;fill-rule:evenodd;stroke:none"
         id="path11350"
         inkscape:connector-curvature="0" />
      <path
         d="m 38.875525,2480.01 c -0.781,-2.3088 -16.425,-25.032 -18.0985,-27.4609 l 0,-0.2244 c -0.0037,0 -0.033,0.046 -0.07837,0.1125 -0.04425,-0.066 -0.07475,-0.11 -0.07725,-0.1125 l 0,0.2244 c -1.6745,2.4289 -17.3175,25.1521 -18.099875,27.4609 -0.823125,2.4382 -1.225,7.1256 1.1845,9.803 2.410125,2.6776 5.0885,4.2848 6.963,4.2848 0.848875,0 2.271875,0.091 3.9305,-0.5899 1.892125,-1.1821 3.815875,-3.5791 4.009625,-8.4564 0,0 0.3395,8.3348 -2.871875,13.1811 -0.200875,0.3766 -0.411,0.7277 -0.645125,1.0159 0,0 4.365625,-0.3696 5.6065,-0.3587 1.24125,-0.012 5.60625,0.3587 5.60625,0.3587 -0.23275,-0.2882 -0.442875,-0.6393 -0.6445,-1.0159 -3.210625,-4.8463 -2.8705,-13.1811 -2.8705,-13.1811 0.19175,4.8773 2.11675,7.2743 4.009625,8.4564 1.656875,0.6817 3.0805,0.5899 3.928875,0.5899 1.876125,0 4.5535,-1.6072 6.962875,-4.2848 2.410875,-2.6774 2.008375,-7.3648 1.18425,-9.803"
         style="fill:#171717;fill-opacity:1;fill-rule:evenodd;stroke:none"
         id="path11352"
         inkscape:connector-curvature="0" />
      <path
         d="m 38.0379,2380.1611 c -0.781,-2.3089 -16.425,-25.0321 -18.098625,-27.461 l 0,-0.2244 c -0.0025,0 -0.03287,0.046 -0.07825,0.1125 -0.04425,-0.066 -0.07475,-0.11 -0.07725,-0.1125 l 0,0.2244 c -1.6745,2.4289 -17.3175,25.1521 -18.099875,27.461 -0.823125,2.4381 -1.225,7.1255 1.1845,9.8029 2.410125,2.6776 5.0885,4.2849 6.963,4.2849 0.848875,0 2.271875,0.091 3.9305,-0.5899 1.892125,-1.1822 3.815875,-3.5792 4.009625,-8.4565 0,0 0.3395,8.3348 -2.871875,13.1811 -0.200875,0.3766 -0.411,0.7277 -0.64525,1.0159 0,0 4.36575,-0.3697 5.606625,-0.3587 1.24125,-0.013 5.60625,0.3587 5.60625,0.3587 -0.232875,-0.2882 -0.443,-0.6393 -0.6445,-1.0159 -3.210625,-4.8463 -2.8705,-13.1811 -2.8705,-13.1811 0.19175,4.8773 2.11675,7.2743 4.009625,8.4565 1.656875,0.6817 3.0805,0.5899 3.928875,0.5899 1.876125,0 4.5535,-1.6073 6.962875,-4.2849 2.410875,-2.6774 2.008375,-7.3648 1.18425,-9.8029"
         style="fill:#171717;fill-opacity:1;fill-rule:evenodd;stroke:none"
         id="path11354"
         inkscape:connector-curvature="0" />
      <path
         d="m -50.751725,2380.1611 c -0.781,-2.3089 -16.425,-25.0321 -18.0985,-27.461 l 0,-0.2244 c -0.0038,0 -0.033,0.046 -0.07838,0.1125 -0.04425,-0.066 -0.07475,-0.11 -0.07725,-0.1125 l 0,0.2244 c -1.6745,2.4289 -17.3175,25.1521 -18.099875,27.461 -0.823125,2.4381 -1.225,7.1255 1.1845,9.8029 2.410125,2.6776 5.0885,4.2849 6.963,4.2849 0.849,0 2.271875,0.091 3.9305,-0.5899 1.892125,-1.1822 3.815875,-3.5792 4.009625,-8.4565 0,0 0.3395,8.3348 -2.871875,13.1811 -0.200875,0.3766 -0.411,0.7277 -0.645125,1.0159 0,0 4.365625,-0.3697 5.6065,-0.3587 1.24125,-0.013 5.60625,0.3587 5.60625,0.3587 -0.23275,-0.2882 -0.442875,-0.6393 -0.6445,-1.0159 -3.210625,-4.8463 -2.8705,-13.1811 -2.8705,-13.1811 0.19175,4.8773 2.11675,7.2743 4.009625,8.4565 1.656875,0.6817 3.080625,0.5899 3.928875,0.5899 1.876125,0 4.5535,-1.6073 6.962875,-4.2849 2.410875,-2.6774 2.008375,-7.3648 1.18425,-9.8029"
         style="fill:#171717;fill-opacity:1;fill-rule:evenodd;stroke:none"
         id="path11356"
         inkscape:connector-curvature="0" />
      <path
         d="m -87.942725,2568.3475 c 0.781,2.3089 16.425,25.0321 18.0985,27.461 l 0,0.2244 c 0.0037,0 0.033,-0.046 0.07837,-0.1125 0.04425,0.066 0.07475,0.11 0.07725,0.1125 l 0,-0.2244 c 1.6745,-2.4289 17.3175,-25.1521 18.099875,-27.461 0.823125,-2.4381 1.225,-7.1255 -1.1845,-9.8029 -2.410125,-2.6776 -5.0885,-4.2849 -6.963,-4.2849 -0.848875,0 -2.271875,-0.091 -3.9305,0.5899 -1.892125,1.1821 -3.815875,3.5791 -4.009625,8.4565 0,0 -0.3395,-8.3349 2.871875,-13.1811 0.200875,-0.3767 0.411,-0.7278 0.64525,-1.0159 0,0 -4.36575,0.3696 -5.606625,0.3586 -1.24125,0.012 -5.60625,-0.3586 -5.60625,-0.3586 0.232875,0.2881 0.442875,0.6393 0.6445,1.0159 3.210625,4.8462 2.8705,13.1811 2.8705,13.1811 -0.19175,-4.8774 -2.11675,-7.2744 -4.009625,-8.4565 -1.656875,-0.6818 -3.0805,-0.5899 -3.928875,-0.5899 -1.876125,0 -4.5535,1.6073 -6.962875,4.2849 -2.410875,2.6774 -2.008375,7.3648 -1.18425,9.8029"
         style="fill:#171717;fill-opacity:1;fill-rule:evenodd;stroke:none"
         id="path11358"
         inkscape:connector-curvature="0" />
      <path
         d="m 2.52215,2568.3475 c 0.781,2.3089 16.425,25.0321 18.098625,27.461 l 0,0.2244 c 0.0025,0 0.03288,-0.046 0.07825,-0.1125 0.04425,0.066 0.07475,0.11 0.07725,0.1125 l 0,-0.2244 c 1.6745,-2.4289 17.3175,-25.1521 18.099875,-27.461 0.823125,-2.4381 1.225,-7.1255 -1.1845,-9.8029 -2.410125,-2.6776 -5.0885,-4.2849 -6.963,-4.2849 -0.848875,0 -2.271875,-0.091 -3.9305,0.5899 -1.892125,1.1821 -3.815875,3.5791 -4.009625,8.4565 0,0 -0.3395,-8.3349 2.871875,-13.1811 0.200875,-0.3767 0.411,-0.7278 0.64525,-1.0159 0,0 -4.36575,0.3696 -5.606625,0.3586 -1.24125,0.012 -5.60625,-0.3586 -5.60625,-0.3586 0.232875,0.2881 0.443,0.6393 0.6445,1.0159 3.210625,4.8462 2.8705,13.1811 2.8705,13.1811 -0.19175,-4.8774 -2.11675,-7.2744 -4.009625,-8.4565 -1.656875,-0.6818 -3.0805,-0.5899 -3.928875,-0.5899 -1.876125,0 -4.5535,1.6073 -6.962875,4.2849 -2.410875,2.6774 -2.008375,7.3648 -1.18425,9.8029"
         style="fill:#171717;fill-opacity:1;fill-rule:evenodd;stroke:none"
         id="path11360"
         inkscape:connector-curvature="0" />
      <path
         d="m -110.99648,2366.2057 0,0 c -3.7715,0 -6.85662,-3.0869 -6.85662,-6.8566 l 0,-4.2134 c 0,-0.1442 0.006,-0.2866 0.0149,-0.4287 l -0.0149,0 0,-12.0133 0,-0.9949 0,-0.9528 c 0,-3.7696 3.08513,-6.8567 6.85662,-6.8567 l 0,0 c 3.7715,0 6.85663,3.0852 6.85663,6.8567 l 0,1.9477 -2.59438,0 0,-1.2436 c 0,-2.3439 -1.91762,-4.2623 -4.26225,-4.2623 l 0,0 c -2.34462,0 -4.26225,1.9208 -4.26225,4.2623 l 0,0.2487 0.0769,0 0,8.0178 c 1.15975,-0.8993 2.6125,-1.4375 4.18537,-1.4375 l 0,0 c 3.7715,0 6.85663,3.0851 6.85663,6.8566 l 0,4.2134 c 0,3.7715 -3.08513,6.8566 -6.85663,6.8566 z m 0,-3.5422 0,0 c -2.34462,0 -4.26224,-1.9205 -4.26224,-4.2623 l 0,-2.5614 c 0,-2.3415 1.91762,-4.2622 4.26224,-4.2622 l 0,0 c 2.34463,0 4.26226,1.9183 4.26226,4.2622 l 0,2.5614 c 0,2.3443 -1.91763,4.2623 -4.26226,4.2623"
         style="fill:#1f1917;fill-opacity:1;fill-rule:evenodd;stroke:none"
         id="path11362"
         inkscape:connector-curvature="0" />
      <path
         d="m 64.9199,2582.1827 0,0 c 3.7715,0 6.856625,3.0869 6.856625,6.8567 l 0,4.2133 c 0,0.1443 -0.0063,0.2867 -0.01488,0.4288 l 0.01488,0 0,12.0132 0,0.9949 0,0.9529 c 0,3.7697 -3.085125,6.8566 -6.856625,6.8566 l 0,0 c -3.7715,0 -6.85675,-3.0851 -6.85675,-6.8566 l 0,-1.9478 2.5945,0 0,1.2437 c 0,2.3438 1.917625,4.2622 4.26225,4.2622 l 0,0 c 2.3445,0 4.26225,-1.9208 4.26225,-4.2622 l 0,-0.2488 -0.077,0 0,-8.0177 c -1.159625,0.8992 -2.612375,1.4375 -4.18525,1.4375 l 0,0 c -3.7715,0 -6.85675,-3.0852 -6.85675,-6.8567 l 0,-4.2133 c 0,-3.7715 3.08525,-6.8567 6.85675,-6.8567 z m 0,3.5423 0,0 c 2.3445,0 4.26225,1.9205 4.26225,4.2622 l 0,2.5614 c 0,2.3415 -1.91775,4.2622 -4.26225,4.2622 l 0,0 c -2.344625,0 -4.26225,-1.9182 -4.26225,-4.2622 l 0,-2.5614 c 0,-2.3442 1.917625,-4.2622 4.26225,-4.2622"
         style="fill:#1f1917;fill-opacity:1;fill-rule:evenodd;stroke:none"
         id="path11364"
         inkscape:connector-curvature="0" />
    </g>
  </g>
</svg>
