<?xml version="1.0" encoding="UTF-8" standalone="no"?>
<svg
   xmlns:dc="http://purl.org/dc/elements/1.1/"
   xmlns:cc="http://creativecommons.org/ns#"
   xmlns:rdf="http://www.w3.org/1999/02/22-rdf-syntax-ns#"
   xmlns:svg="http://www.w3.org/2000/svg"
   xmlns="http://www.w3.org/2000/svg"
   xmlns:sodipodi="http://sodipodi.sourceforge.net/DTD/sodipodi-0.dtd"
   xmlns:inkscape="http://www.inkscape.org/namespaces/inkscape"
   version="1.1"
   id="svg2"
   viewBox="0 0 213.32188 318.51639"
   height="89.892403mm"
   width="60.204174mm"
   inkscape:version="0.91 r13725"
   sodipodi:docname="layer30.svg">
  <sodipodi:namedview
     pagecolor="#ffffff"
     bordercolor="#666666"
     borderopacity="1"
     objecttolerance="10"
     gridtolerance="10"
     guidetolerance="10"
     inkscape:pageopacity="0"
     inkscape:pageshadow="2"
     inkscape:window-width="640"
     inkscape:window-height="480"
     id="namedview19"
     showgrid="false"
     inkscape:zoom="0.74093519"
     inkscape:cx="106.66094"
     inkscape:cy="159.25821"
     inkscape:window-x="0"
     inkscape:window-y="0"
     inkscape:window-maximized="0"
     inkscape:current-layer="svg2" />
  <defs
     id="defs4" />
  <metadata
     id="metadata7">
    <rdf:RDF>
      <cc:Work
         rdf:about="">
        <dc:format>image/svg+xml</dc:format>
        <dc:type
           rdf:resource="http://purl.org/dc/dcmitype/StillImage" />
        <dc:title />
      </cc:Work>
    </rdf:RDF>
  </metadata>
  <g
     transform="translate(-265.38631,-366.9229)"
     id="layer30">
    <g
       id="g28355"
       transform="translate(397.03066,-1609.9293)">
      <path
         d="m -121.5226,1976.9872 193.078375,0 c 5.49275,0 9.98675,4.494 9.98675,9.9869 l 0,298.2727 c 0,5.4929 -4.494,9.9868 -9.98675,9.9868 l -193.078375,0 c -5.49288,0 -9.98675,-4.4939 -9.98675,-9.9868 l 0,-298.2727 c 0,-5.4929 4.49387,-9.9869 9.98675,-9.9869 z"
         style="fill:#ffffff;fill-opacity:1;fill-rule:evenodd;stroke:#1f1917;stroke-width:0.27000001;stroke-linecap:butt;stroke-linejoin:miter;stroke-miterlimit:10;stroke-dasharray:none;stroke-opacity:1"
         id="path11272"
         inkscape:connector-curvature="0" />
      <path
         d="m -68.2971,2012.3141 c 0,0 -4.931625,18.8145 -17.90125,25.7549 0,0 15.5265,9.8635 18.083375,24.6592 0,0 4.9315,-18.2654 18.266375,-24.8407 0,0 -13.334875,-7.1241 -18.4485,-25.5734"
         style="fill:#b32621;fill-opacity:1;fill-rule:evenodd;stroke:none"
         id="path11274"
         inkscape:connector-curvature="0" />
      <path
         d="m 20.16365,2011.3088 c 0,0 -4.931625,18.8147 -17.901125,25.7549 0,0 15.526375,9.8635 18.08325,24.6593 0,0 4.9315,-18.2654 18.266375,-24.8408 0,0 -13.334875,-7.1241 -18.4485,-25.5733"
         style="fill:#b32621;fill-opacity:1;fill-rule:evenodd;stroke:none"
         id="path11276"
         inkscape:connector-curvature="0" />
      <path
         d="m 20.16365,2109.822 c 0,0 -4.931625,18.8146 -17.901125,25.7549 0,0 15.526375,9.8634 18.08325,24.6592 0,0 4.9315,-18.2654 18.266375,-24.8406 0,0 -13.334875,-7.1243 -18.4485,-25.5735"
         style="fill:#b32621;fill-opacity:1;fill-rule:evenodd;stroke:none"
         id="path11278"
         inkscape:connector-curvature="0" />
      <path
         d="m -69.30235,2109.822 c 0,0 -4.931625,18.8146 -17.90125,25.7549 0,0 15.5265,9.8634 18.083375,24.6592 0,0 4.9315,-18.2654 18.266375,-24.8406 0,0 -13.334875,-7.1243 -18.4485,-25.5735"
         style="fill:#b32621;fill-opacity:1;fill-rule:evenodd;stroke:none"
         id="path11280"
         inkscape:connector-curvature="0" />
      <path
         d="m 20.16365,2211.3508 c 0,0 -4.931625,18.8147 -17.901125,25.7549 0,0 15.526375,9.8635 18.08325,24.6593 0,0 4.9315,-18.2654 18.266375,-24.8406 0,0 -13.334875,-7.1243 -18.4485,-25.5736"
         style="fill:#b32621;fill-opacity:1;fill-rule:evenodd;stroke:none"
         id="path11282"
         inkscape:connector-curvature="0" />
      <path
         d="m -69.30235,2211.3508 c 0,0 -4.931625,18.8147 -17.90125,25.7549 0,0 15.5265,9.8635 18.083375,24.6593 0,0 4.9315,-18.2654 18.266375,-24.8406 0,0 -13.334875,-7.1243 -18.4485,-25.5736"
         style="fill:#b32621;fill-opacity:1;fill-rule:evenodd;stroke:none"
         id="path11284"
         inkscape:connector-curvature="0" />
      <path
         d="m -109.9711,2030.4083 c 0,0 -2.8665,10.9364 -10.40525,14.9704 0,0 9.02512,5.7335 10.51125,14.3338 0,0 2.8665,-10.6171 10.617875,-14.4393 0,0 -7.751375,-4.1411 -10.723875,-14.8649"
         style="fill:#b32621;fill-opacity:1;fill-rule:evenodd;stroke:none"
         id="path11286"
         inkscape:connector-curvature="0" />
      <path
         d="m 63.934775,2209.3404 c 0,0 -2.8665,10.9363 -10.40525,14.9704 0,0 9.025125,5.7334 10.51125,14.3338 0,0 2.8665,-10.6172 10.617875,-14.4394 0,0 -7.751375,-4.141 -10.723875,-14.8648"
         style="fill:#b32621;fill-opacity:1;fill-rule:evenodd;stroke:none"
         id="path11288"
         inkscape:connector-curvature="0" />
      <path
         d="m -23.061475,2060.5653 c 0,0 -4.931625,18.8147 -17.90125,25.7549 0,0 15.5265,9.8635 18.083375,24.6594 0,0 4.9315,-18.2654 18.266375,-24.8408 0,0 -13.334875,-7.1241 -18.4485,-25.5735"
         style="fill:#b32621;fill-opacity:1;fill-rule:evenodd;stroke:none"
         id="path11290"
         inkscape:connector-curvature="0" />
      <path
         d="m -106.08473,1996.6165 0.82163,0 2.10263,0 -7.881,33.0016 -2.92425,0 6.75174,-29.7358 -8.09537,4e-4 0,3.8285 -2.67138,0 0,-3.8285 -0.007,0 0,-3.2662 0.007,0 2.67138,0 9.22463,0 z"
         style="fill:#b32621;fill-opacity:1;fill-rule:evenodd;stroke:none"
         id="path11292"
         inkscape:connector-curvature="0" />
      <path
         d="m 58.327525,2275.8836 -0.82175,0 -2.1025,0 7.881,-33.0016 2.92425,0 -6.75175,29.7359 8.095375,-4e-4 0,-3.8286 2.671375,0 0,3.8286 0.0063,0 0,3.2661 -0.0063,0 -2.671375,0 -9.224625,0 z"
         style="fill:#b32621;fill-opacity:1;fill-rule:evenodd;stroke:none"
         id="path11294"
         inkscape:connector-curvature="0" />
    </g>
  </g>
</svg>
