<?xml version="1.0" encoding="UTF-8" standalone="no"?>
<svg
   xmlns:dc="http://purl.org/dc/elements/1.1/"
   xmlns:cc="http://creativecommons.org/ns#"
   xmlns:rdf="http://www.w3.org/1999/02/22-rdf-syntax-ns#"
   xmlns:svg="http://www.w3.org/2000/svg"
   xmlns="http://www.w3.org/2000/svg"
   xmlns:sodipodi="http://sodipodi.sourceforge.net/DTD/sodipodi-0.dtd"
   xmlns:inkscape="http://www.inkscape.org/namespaces/inkscape"
   version="1.1"
   id="svg2"
   viewBox="0 0 213.32188 318.5163"
   height="89.89238mm"
   width="60.204174mm"
   inkscape:version="0.91 r13725"
   sodipodi:docname="layer31.svg">
  <sodipodi:namedview
     pagecolor="#ffffff"
     bordercolor="#666666"
     borderopacity="1"
     objecttolerance="10"
     gridtolerance="10"
     guidetolerance="10"
     inkscape:pageopacity="0"
     inkscape:pageshadow="2"
     inkscape:window-width="448"
     inkscape:window-height="428"
     id="namedview19"
     showgrid="false"
     inkscape:zoom="0.74093538"
     inkscape:cx="106.66094"
     inkscape:cy="159.25825"
     inkscape:window-x="0"
     inkscape:window-y="0"
     inkscape:window-maximized="0"
     inkscape:current-layer="svg2" />
  <defs
     id="defs4" />
  <metadata
     id="metadata7">
    <rdf:RDF>
      <cc:Work
         rdf:about="">
        <dc:format>image/svg+xml</dc:format>
        <dc:type
           rdf:resource="http://purl.org/dc/dcmitype/StillImage" />
        <dc:title />
      </cc:Work>
    </rdf:RDF>
  </metadata>
  <g
     transform="translate(-265.38631,-366.923)"
     id="layer31">
    <g
       id="g28632"
       transform="translate(167.51791,-1605.7404)">
      <path
         d="m 107.99015,1972.7984 193.07837,0 c 5.49288,0 9.98675,4.4939 9.98675,9.9868 l 0,298.2728 c 0,5.4927 -4.49387,9.9867 -9.98675,9.9867 l -193.07837,0 c -5.49287,0 -9.98675,-4.494 -9.98675,-9.9867 l 0,-298.2728 c 0,-5.4929 4.49388,-9.9868 9.98675,-9.9868 z"
         style="fill:#ffffff;fill-opacity:1;fill-rule:evenodd;stroke:#1f1917;stroke-width:0.27000001;stroke-linecap:butt;stroke-linejoin:miter;stroke-miterlimit:10;stroke-dasharray:none;stroke-opacity:1"
         id="path11296"
         inkscape:connector-curvature="0" />
      <path
         d="m 128.4659,2031.9082 c -1.40637,-1.5626 -2.969,-2.4999 -4.06238,-2.4999 -1.06274,0 -3.66,-0.2572 -5.85537,4.2333 -2.18625,-4.4061 -4.75825,-4.1553 -5.81463,-4.1553 -1.09375,0 -2.65637,0.9375 -4.06275,2.5002 -1.40587,1.5622 -1.17175,4.2966 -0.69087,5.7196 0.48112,1.4226 10.525,16.077 10.525,16.077 0,0 10.17112,-14.7326 10.65187,-16.1553 0.48088,-1.4227 0.71538,-4.1571 -0.69087,-5.7196"
         style="fill:#b32621;fill-opacity:1;fill-rule:evenodd;stroke:none"
         id="path11298"
         inkscape:connector-curvature="0" />
      <path
         d="m 283.5819,2233.2278 c 1.40637,1.5627 2.969,2.4999 4.06238,2.4999 1.06274,0 3.66,0.2573 5.85537,-4.2332 2.18625,4.4061 4.75825,4.1552 5.81463,4.1552 1.09374,0 2.65637,-0.9375 4.06275,-2.5001 1.40587,-1.5623 1.17175,-4.2966 0.69087,-5.7196 -0.48112,-1.4227 -10.525,-16.077 -10.525,-16.077 0,0 -10.17112,14.7327 -10.65187,16.1553 -0.48088,1.4227 -0.71538,4.157 0.69087,5.7195"
         style="fill:#b32621;fill-opacity:1;fill-rule:evenodd;stroke:none"
         id="path11300"
         inkscape:connector-curvature="0" />
      <path
         d="m 180.51952,2014.0691 c -2.67237,-2.9694 -5.64162,-4.7502 -7.7195,-4.7502 -2.01887,0 -6.95437,-0.4887 -11.12587,8.0437 -4.15425,-8.3721 -9.0415,-7.8956 -11.04875,-7.8956 -2.07825,0 -5.0475,1.7816 -7.71987,4.7509 -2.67163,2.9686 -2.22663,8.1641 -1.31275,10.868 0.91412,2.7032 19.99912,30.549 19.99912,30.549 0,0 19.32662,-27.9947 20.24038,-30.6978 0.91349,-2.7032 1.35925,-7.8987 -1.31276,-10.868"
         style="fill:#b32621;fill-opacity:1;fill-rule:evenodd;stroke:none"
         id="path11302"
         inkscape:connector-curvature="0" />
      <path
         d="m 268.73577,2014.0691 c -2.67225,-2.9694 -5.64162,-4.7502 -7.71937,-4.7502 -2.019,0 -6.9545,-0.4887 -11.126,8.0437 -4.15413,-8.3721 -9.0415,-7.8956 -11.04875,-7.8956 -2.07813,0 -5.04738,1.7816 -7.71975,4.7509 -2.67175,2.9686 -2.22662,8.1641 -1.31288,10.868 0.91425,2.7032 19.99913,30.549 19.99913,30.549 0,0 19.32662,-27.9947 20.2405,-30.6978 0.9135,-2.7032 1.35925,-7.8987 -1.31287,-10.868"
         style="fill:#b32621;fill-opacity:1;fill-rule:evenodd;stroke:none"
         id="path11304"
         inkscape:connector-curvature="0" />
      <path
         d="m 229.86615,2251.4451 c 2.67237,2.9692 5.64163,4.7501 7.71938,4.7501 2.019,0 6.9545,0.4886 11.12599,-8.0436 4.15425,8.3721 9.04151,7.8956 11.04876,7.8956 2.07812,0 5.0475,-1.7816 7.71974,-4.7509 2.67175,-2.9686 2.22663,-8.1641 1.31288,-10.8681 -0.91425,-2.7031 -19.99913,-30.5489 -19.99913,-30.5489 0,0 -19.32662,27.9945 -20.2405,30.6978 -0.91337,2.7031 -1.35912,7.8987 1.31288,10.868"
         style="fill:#b32621;fill-opacity:1;fill-rule:evenodd;stroke:none"
         id="path11306"
         inkscape:connector-curvature="0" />
      <path
         d="m 141.64977,2251.4451 c 2.67238,2.9692 5.64163,4.7501 7.7195,4.7501 2.019,0 6.95438,0.4886 11.126,-8.0436 4.15413,8.3721 9.04138,7.8956 11.04875,7.8956 2.07813,0 5.04738,-1.7816 7.71975,-4.7509 2.67163,-2.9686 2.22663,-8.1641 1.31275,-10.8681 -0.91412,-2.7031 -19.99912,-30.5489 -19.99912,-30.5489 0,0 -19.32663,27.9945 -20.24038,30.6978 -0.9135,2.7031 -1.35925,7.8987 1.31275,10.868"
         style="fill:#b32621;fill-opacity:1;fill-rule:evenodd;stroke:none"
         id="path11308"
         inkscape:connector-curvature="0" />
      <path
         d="m 231.12252,2113.9099 c 2.67238,-2.9693 5.64175,-4.7502 7.7195,-4.7502 2.019,0 6.95438,-0.4886 11.126,8.0436 4.15413,-8.3721 9.04138,-7.8954 11.04875,-7.8954 2.07813,0 5.04738,1.7814 7.71975,4.7508 2.67163,2.9685 2.22663,8.1642 1.31275,10.868 -0.91412,2.7033 -19.99912,30.549 -19.99912,30.549 0,0 -19.32663,-27.9946 -20.24038,-30.6978 -0.9135,-2.7032 -1.35925,-7.8987 1.31275,-10.868"
         style="fill:#b32621;fill-opacity:1;fill-rule:evenodd;stroke:none"
         id="path11310"
         inkscape:connector-curvature="0" />
      <path
         d="m 141.64977,2113.9099 c 2.67238,-2.9693 5.64163,-4.7502 7.7195,-4.7502 2.019,0 6.95438,-0.4886 11.126,8.0436 4.15413,-8.3721 9.04138,-7.8954 11.04875,-7.8954 2.07813,0 5.04738,1.7814 7.71975,4.7508 2.67163,2.9685 2.22663,8.1642 1.31275,10.868 -0.91412,2.7033 -19.99912,30.549 -19.99912,30.549 0,0 -19.32663,-27.9946 -20.24038,-30.6978 -0.9135,-2.7032 -1.35925,-7.8987 1.31275,-10.868"
         style="fill:#b32621;fill-opacity:1;fill-rule:evenodd;stroke:none"
         id="path11312"
         inkscape:connector-curvature="0" />
      <path
         d="m 185.8869,2063.6481 c 2.67238,-2.9694 5.64162,-4.7503 7.7195,-4.7503 2.019,0 6.95437,-0.4884 11.126,8.0438 4.15412,-8.3721 9.04137,-7.8956 11.04875,-7.8956 2.07812,0 5.04737,1.7816 7.71975,4.7508 2.67162,2.9687 2.22662,8.1642 1.31275,10.8682 -0.91413,2.7031 -19.99913,30.5489 -19.99913,30.5489 0,0 -19.32662,-27.9945 -20.24037,-30.6978 -0.9135,-2.7032 -1.35925,-7.8987 1.31275,-10.868"
         style="fill:#b32621;fill-opacity:1;fill-rule:evenodd;stroke:none"
         id="path11314"
         inkscape:connector-curvature="0" />
      <path
         d="m 123.57115,1992.4867 0.82175,0 2.85513,0 -10.89138,31.4965 -3.67687,0 9.76212,-28.2306 -8.09537,4e-4 0,3.8285 -2.67138,0 0,-3.8285 -0.006,0 0,-3.2663 0.006,0 2.67138,0 9.22462,0 z"
         style="fill:#b32621;fill-opacity:1;fill-rule:evenodd;stroke:none"
         id="path11316"
         inkscape:connector-curvature="0" />
      <path
         d="m 286.23515,2270.2661 -0.82163,0 -2.85525,0 10.89138,-31.4965 3.67687,0 -9.76212,28.2306 8.09537,-4e-4 0,-3.8285 2.67138,0 0,3.8285 0.006,0 0,3.2663 -0.006,0 -2.67138,0 -9.22462,0 z"
         style="fill:#b32621;fill-opacity:1;fill-rule:evenodd;stroke:none"
         id="path11318"
         inkscape:connector-curvature="0" />
    </g>
  </g>
</svg>
