<?xml version="1.0" encoding="UTF-8" standalone="no"?>
<svg
   xmlns:dc="http://purl.org/dc/elements/1.1/"
   xmlns:cc="http://creativecommons.org/ns#"
   xmlns:rdf="http://www.w3.org/1999/02/22-rdf-syntax-ns#"
   xmlns:svg="http://www.w3.org/2000/svg"
   xmlns="http://www.w3.org/2000/svg"
   xmlns:sodipodi="http://sodipodi.sourceforge.net/DTD/sodipodi-0.dtd"
   xmlns:inkscape="http://www.inkscape.org/namespaces/inkscape"
   version="1.1"
   id="svg2"
   viewBox="0 0 213.32188 318.51639"
   height="89.892403mm"
   width="60.204174mm"
   inkscape:version="0.91 r13725"
   sodipodi:docname="layer33.svg">
  <sodipodi:namedview
     pagecolor="#ffffff"
     bordercolor="#666666"
     borderopacity="1"
     objecttolerance="10"
     gridtolerance="10"
     guidetolerance="10"
     inkscape:pageopacity="0"
     inkscape:pageshadow="2"
     inkscape:window-width="640"
     inkscape:window-height="480"
     id="namedview19"
     showgrid="false"
     inkscape:zoom="0.74093519"
     inkscape:cx="106.66094"
     inkscape:cy="159.25821"
     inkscape:window-x="0"
     inkscape:window-y="0"
     inkscape:window-maximized="0"
     inkscape:current-layer="svg2" />
  <defs
     id="defs4" />
  <metadata
     id="metadata7">
    <rdf:RDF>
      <cc:Work
         rdf:about="">
        <dc:format>image/svg+xml</dc:format>
        <dc:type
           rdf:resource="http://purl.org/dc/dcmitype/StillImage" />
        <dc:title />
      </cc:Work>
    </rdf:RDF>
  </metadata>
  <g
     transform="translate(-265.3863,-366.9229)"
     id="layer33">
    <g
       id="g28604"
       transform="translate(-291.5076,-1604.3444)">
      <path
         d="m 567.01565,1971.4023 193.07838,0 c 5.49287,0 9.98675,4.4941 9.98675,9.9868 l 0,298.2727 c 0,5.4929 -4.49388,9.9869 -9.98675,9.9869 l -193.07838,0 c -5.49275,0 -9.98675,-4.494 -9.98675,-9.9869 l 0,-298.2727 c 0,-5.4927 4.494,-9.9868 9.98675,-9.9868 z"
         style="fill:#ffffff;fill-opacity:1;fill-rule:evenodd;stroke:#1f1917;stroke-width:0.27000001;stroke-linecap:butt;stroke-linejoin:miter;stroke-miterlimit:10;stroke-dasharray:none;stroke-opacity:1"
         id="path11366"
         inkscape:connector-curvature="0" />
      <path
         d="m 588.02502,2040.6304 c -0.45175,-1.3352 -9.49862,-14.4758 -10.46625,-15.8804 l 0,-0.1296 c -10e-4,0 -0.0191,0.026 -0.0454,0.065 -0.0255,-0.039 -0.0433,-0.064 -0.0446,-0.065 l 0,0.1296 c -0.96838,1.4046 -10.01451,14.5452 -10.46688,15.8804 -0.47588,1.4098 -0.70837,4.1205 0.68487,5.6689 1.394,1.5484 2.94275,2.4779 4.02663,2.4779 0.49113,0 1.31387,0.054 2.273,-0.3412 1.09425,-0.6835 2.20675,-2.0697 2.31875,-4.8901 0,0 0.19625,4.8198 -1.66075,7.6223 -0.11625,0.2179 -0.23775,0.4209 -0.37312,0.5875 0,0 2.52462,-0.2137 3.24212,-0.2073 0.71787,-0.013 3.24213,0.2073 3.24213,0.2073 -0.13463,-0.1666 -0.25613,-0.3696 -0.37275,-0.5875 -1.85663,-2.8025 -1.66,-7.6223 -1.66,-7.6223 0.11087,2.8204 1.22425,4.2066 2.31875,4.8901 0.95812,0.3943 1.7815,0.3412 2.272,0.3412 1.08487,0 2.63337,-0.9295 4.02649,-2.4779 1.39438,-1.5484 1.16151,-4.2591 0.685,-5.6689"
         style="fill:#171717;fill-opacity:1;fill-rule:evenodd;stroke:none"
         id="path11368"
         inkscape:connector-curvature="0" />
      <path
         d="m 740.90777,2220.7091 c 0.45176,1.3351 9.49851,14.4757 10.46613,15.8804 l 0,0.1296 c 0.002,0 0.0191,-0.026 0.0454,-0.065 0.0255,0.039 0.0433,0.064 0.0446,0.065 l 0,-0.1296 c 0.96838,-1.4047 10.0145,-14.5453 10.467,-15.8804 0.47587,-1.4099 0.70825,-4.1205 -0.685,-5.669 -1.39388,-1.5484 -2.94263,-2.4779 -4.02663,-2.4779 -0.491,0 -1.31375,-0.054 -2.27299,0.3413 -1.09413,0.6835 -2.20676,2.0696 -2.31876,4.8901 0,0 -0.19625,-4.82 1.66075,-7.6224 0.11625,-0.2179 0.23775,-0.4209 0.37313,-0.5875 0,0 -2.52463,0.2138 -3.24213,0.2074 -0.71787,0.013 -3.24212,-0.2074 -3.24212,-0.2074 0.13462,0.1666 0.25625,0.3696 0.37275,0.5875 1.85675,2.8024 1.66012,7.6224 1.66012,7.6224 -0.111,-2.8205 -1.22425,-4.2066 -2.31875,-4.8901 -0.95812,-0.3944 -1.78162,-0.3413 -2.272,-0.3413 -1.085,0 -2.63337,0.9295 -4.02662,2.4779 -1.39425,1.5485 -1.1615,4.2591 -0.68488,5.669"
         style="fill:#171717;fill-opacity:1;fill-rule:evenodd;stroke:none"
         id="path11370"
         inkscape:connector-curvature="0" />
      <path
         d="m 636.9489,2134.7162 c -0.781,-2.3089 -16.425,-25.0321 -18.0985,-27.461 l 0,-0.2244 c -0.004,0 -0.033,0.046 -0.0784,0.1125 -0.0442,-0.066 -0.0747,-0.11 -0.0772,-0.1125 l 0,0.2244 c -1.6745,2.4289 -17.3175,25.1521 -18.09988,27.461 -0.82312,2.4381 -1.22488,7.1255 1.1845,9.8029 2.41012,2.6776 5.0885,4.2849 6.963,4.2849 0.849,0 2.27187,0.091 3.9305,-0.5899 1.89212,-1.1821 3.81588,-3.5791 4.00963,-8.4565 0,0 0.3395,8.3349 -2.87176,13.1811 -0.20099,0.3766 -0.41112,0.7278 -0.64525,1.0159 0,0 4.36563,-0.3696 5.6065,-0.3586 1.24126,-0.012 5.60626,0.3586 5.60626,0.3586 -0.23276,-0.2881 -0.44288,-0.6393 -0.64451,-1.0159 -3.21062,-4.8462 -2.87049,-13.1811 -2.87049,-13.1811 0.19175,4.8774 2.11675,7.2744 4.00962,8.4565 1.65688,0.6816 3.08063,0.5899 3.92888,0.5899 1.87612,0 4.5535,-1.6073 6.96287,-4.2849 2.41088,-2.6774 2.00838,-7.3648 1.18425,-9.8029"
         style="fill:#171717;fill-opacity:1;fill-rule:evenodd;stroke:none"
         id="path11372"
         inkscape:connector-curvature="0" />
      <path
         d="m 727.41377,2136.3915 c -0.781,-2.3089 -16.42499,-25.0322 -18.0985,-27.461 l 0,-0.2243 c -0.004,0 -0.033,0.046 -0.0784,0.1125 -0.0443,-0.066 -0.0747,-0.11 -0.0772,-0.1125 l 0,0.2243 c -1.6745,2.4288 -17.3175,25.1521 -18.09987,27.461 -0.82313,2.4381 -1.22488,7.1256 1.1845,9.8028 2.41012,2.6778 5.08862,4.2851 6.96299,4.2851 0.849,0 2.272,0.091 3.93063,-0.59 1.89213,-1.1822 3.81575,-3.5792 4.0095,-8.4565 0,0 0.3395,8.3349 -2.87175,13.1811 -0.201,0.3766 -0.41113,0.7277 -0.64525,1.0159 0,0 4.36562,-0.3697 5.6065,-0.3587 1.24125,-0.013 5.60625,0.3587 5.60625,0.3587 -0.23275,-0.2882 -0.44288,-0.6393 -0.6445,-1.0159 -3.21063,-4.8461 -2.8705,-13.1811 -2.8705,-13.1811 0.19175,4.8773 2.11687,7.2743 4.00962,8.4565 1.65688,0.6817 3.08063,0.59 3.92888,0.59 1.87613,0 4.5535,-1.6073 6.96287,-4.2851 2.41088,-2.6772 2.00838,-7.3647 1.18425,-9.8028"
         style="fill:#171717;fill-opacity:1;fill-rule:evenodd;stroke:none"
         id="path11374"
         inkscape:connector-curvature="0" />
      <path
         d="m 726.57615,2036.5425 c -0.781,-2.3089 -16.425,-25.032 -18.0985,-27.461 l 0,-0.2243 c -0.004,0 -0.033,0.046 -0.0784,0.1125 -0.0442,-0.066 -0.0747,-0.11 -0.0772,-0.1125 l 0,0.2243 c -1.6745,2.429 -17.3175,25.1521 -18.09988,27.461 -0.82313,2.4381 -1.225,7.1256 1.1845,9.8028 2.41012,2.6778 5.0885,4.2851 6.963,4.2851 0.84887,0 2.27187,0.091 3.9305,-0.5901 1.89212,-1.1819 3.81587,-3.5791 4.00962,-8.4564 0,0 0.3395,8.3349 -2.87187,13.1811 -0.20088,0.3766 -0.411,0.7279 -0.64513,1.0159 0,0 4.36563,-0.3695 5.6065,-0.3587 1.24126,-0.012 5.60625,0.3587 5.60625,0.3587 -0.23275,-0.288 -0.44287,-0.6393 -0.6445,-1.0159 -3.21062,-4.8461 -2.8705,-13.1811 -2.8705,-13.1811 0.19176,4.8773 2.11676,7.2745 4.00963,8.4564 1.65688,0.6818 3.08063,0.5901 3.92888,0.5901 1.87612,0 4.5535,-1.6073 6.96287,-4.2851 2.41088,-2.6772 2.00838,-7.3647 1.18425,-9.8028"
         style="fill:#171717;fill-opacity:1;fill-rule:evenodd;stroke:none"
         id="path11376"
         inkscape:connector-curvature="0" />
      <path
         d="m 637.78652,2036.5425 c -0.781,-2.3089 -16.42499,-25.032 -18.0985,-27.461 l 0,-0.2243 c -0.004,0 -0.033,0.046 -0.0784,0.1125 -0.0443,-0.066 -0.0747,-0.11 -0.0772,-0.1125 l 0,0.2243 c -1.6745,2.429 -17.3175,25.1521 -18.09988,27.461 -0.82312,2.4381 -1.22487,7.1256 1.1845,9.8028 2.41013,2.6778 5.08863,4.2851 6.963,4.2851 0.849,0 2.272,0.091 3.93063,-0.5901 1.89212,-1.1819 3.81575,-3.5791 4.0095,-8.4564 0,0 0.3395,8.3349 -2.87175,13.1811 -0.201,0.3766 -0.41113,0.7279 -0.64525,1.0159 0,0 4.36562,-0.3695 5.6065,-0.3587 1.24125,-0.012 5.60625,0.3587 5.60625,0.3587 -0.23275,-0.288 -0.44288,-0.6393 -0.6445,-1.0159 -3.21063,-4.8461 -2.8705,-13.1811 -2.8705,-13.1811 0.19175,4.8773 2.11687,7.2745 4.00962,8.4564 1.65688,0.6818 3.08063,0.5901 3.92888,0.5901 1.87613,0 4.5535,-1.6073 6.96287,-4.2851 2.41088,-2.6772 2.00838,-7.3647 1.18425,-9.8028"
         style="fill:#171717;fill-opacity:1;fill-rule:evenodd;stroke:none"
         id="path11378"
         inkscape:connector-curvature="0" />
      <path
         d="m 600.59565,2224.729 c 0.78087,2.3087 16.425,25.032 18.0985,27.461 l 0,0.2242 c 0.002,0 0.0329,-0.046 0.0782,-0.1125 0.0443,0.066 0.0748,0.11 0.0773,0.1125 l 0,-0.2242 c 1.67462,-2.429 17.3175,-25.1523 18.09987,-27.461 0.82313,-2.4383 1.225,-7.1256 -1.1845,-9.803 -2.41012,-2.6777 -5.08849,-4.2849 -6.96287,-4.2849 -0.849,0 -2.272,-0.091 -3.93062,0.59 -1.89213,1.182 -3.81575,3.579 -4.00963,8.4564 0,0 -0.3395,-8.3349 2.87187,-13.181 0.20088,-0.3768 0.411,-0.7279 0.64525,-1.0159 0,0 -4.36574,0.3695 -5.60662,0.3585 -1.24125,0.013 -5.60625,-0.3585 -5.60625,-0.3585 0.23287,0.288 0.443,0.6391 0.64462,1.0159 3.21051,4.8461 2.87038,13.181 2.87038,13.181 -0.19175,-4.8774 -2.11675,-7.2744 -4.00963,-8.4564 -1.65687,-0.6817 -3.0805,-0.59 -3.92875,-0.59 -1.87625,0 -4.5535,1.6073 -6.963,4.2849 -2.41087,2.6774 -2.00837,7.3647 -1.18412,9.803"
         style="fill:#171717;fill-opacity:1;fill-rule:evenodd;stroke:none"
         id="path11380"
         inkscape:connector-curvature="0" />
      <path
         d="m 691.06053,2224.729 c 0.78087,2.3087 16.425,25.032 18.09849,27.461 l 0,0.2242 c 0.002,0 0.0329,-0.046 0.0782,-0.1125 0.0443,0.066 0.0747,0.11 0.0773,0.1125 l 0,-0.2242 c 1.67463,-2.429 17.31763,-25.1523 18.09988,-27.461 0.82312,-2.4383 1.225,-7.1256 -1.1845,-9.803 -2.41013,-2.6777 -5.0885,-4.2849 -6.96287,-4.2849 -0.84901,0 -2.272,-0.091 -3.93063,0.59 -1.89212,1.182 -3.81575,3.579 -4.00963,8.4564 0,0 -0.3395,-8.3349 2.87188,-13.181 0.20088,-0.3768 0.411,-0.7279 0.64525,-1.0159 0,0 -4.36575,0.3695 -5.60663,0.3585 -1.24125,0.013 -5.60625,-0.3585 -5.60625,-0.3585 0.23288,0.288 0.44301,0.6391 0.64463,1.0159 3.2105,4.8461 2.87037,13.181 2.87037,13.181 -0.19175,-4.8774 -2.11675,-7.2744 -4.00962,-8.4564 -1.65688,-0.6817 -3.0805,-0.59 -3.92875,-0.59 -1.87625,0 -4.5535,1.6073 -6.963,4.2849 -2.41088,2.6774 -2.00838,7.3647 -1.18413,9.803"
         style="fill:#171717;fill-opacity:1;fill-rule:evenodd;stroke:none"
         id="path11382"
         inkscape:connector-curvature="0" />
      <path
         d="m 745.88002,2268.3336 -0.82162,0 -2.85525,0 10.89137,-31.4965 3.67688,0 -9.76212,28.2306 8.09537,-4e-4 0,-3.8285 2.67138,0 0,3.8285 0.006,0 0,3.2663 -0.006,0 -2.67138,0 -9.22462,0 z"
         style="fill:#1f1917;fill-opacity:1;fill-rule:evenodd;stroke:none"
         id="path11384"
         inkscape:connector-curvature="0" />
      <path
         d="m 582.06727,1991.8798 0.82175,0 2.85513,0 -10.89138,31.4964 -3.67687,0 9.76212,-28.2305 -8.09537,3e-4 0,3.8286 -2.67125,0 0,-3.8286 -0.006,0 0,-3.2662 0.006,0 2.67125,0 9.22462,0 z"
         style="fill:#1f1917;fill-opacity:1;fill-rule:evenodd;stroke:none"
         id="path11386"
         inkscape:connector-curvature="0" />
      <path
         d="m 681.34052,2081.7781 c -0.781,-2.3087 -16.425,-25.032 -18.0985,-27.461 l 0,-0.2242 c -0.004,0 -0.033,0.046 -0.0784,0.1124 -0.0442,-0.066 -0.0747,-0.11 -0.0772,-0.1124 l 0,0.2242 c -1.6745,2.429 -17.3175,25.1522 -18.09987,27.461 -0.82313,2.4381 -1.225,7.1256 1.1845,9.8029 2.41012,2.6777 5.08849,4.285 6.96299,4.285 0.84888,0 2.27188,0.091 3.9305,-0.59 1.89213,-1.182 3.81588,-3.5791 4.00963,-8.4565 0,0 0.3395,8.335 -2.87187,13.1811 -0.20088,0.3766 -0.411,0.7279 -0.64513,1.0159 0,0 4.36562,-0.3695 5.6065,-0.3586 1.24125,-0.013 5.60625,0.3586 5.60625,0.3586 -0.23275,-0.288 -0.44287,-0.6393 -0.6445,-1.0159 -3.21063,-4.8461 -2.8705,-13.1811 -2.8705,-13.1811 0.19175,4.8774 2.11675,7.2745 4.00963,8.4565 1.65687,0.6817 3.0805,0.59 3.92887,0.59 1.87613,0 4.5535,-1.6073 6.96288,-4.285 2.41087,-2.6773 2.00837,-7.3648 1.18425,-9.8029"
         style="fill:#171717;fill-opacity:1;fill-rule:evenodd;stroke:none"
         id="path11388"
         inkscape:connector-curvature="0" />
    </g>
  </g>
</svg>
