<?xml version="1.0" encoding="UTF-8" standalone="no"?>
<svg
   xmlns:dc="http://purl.org/dc/elements/1.1/"
   xmlns:cc="http://creativecommons.org/ns#"
   xmlns:rdf="http://www.w3.org/1999/02/22-rdf-syntax-ns#"
   xmlns:svg="http://www.w3.org/2000/svg"
   xmlns="http://www.w3.org/2000/svg"
   xmlns:sodipodi="http://sodipodi.sourceforge.net/DTD/sodipodi-0.dtd"
   xmlns:inkscape="http://www.inkscape.org/namespaces/inkscape"
   version="1.1"
   id="svg2"
   viewBox="0 0 213.32188 318.51639"
   height="89.892403mm"
   width="60.204174mm"
   inkscape:version="0.91 r13725"
   sodipodi:docname="layer27.svg">
  <sodipodi:namedview
     pagecolor="#ffffff"
     bordercolor="#666666"
     borderopacity="1"
     objecttolerance="10"
     gridtolerance="10"
     guidetolerance="10"
     inkscape:pageopacity="0"
     inkscape:pageshadow="2"
     inkscape:window-width="448"
     inkscape:window-height="428"
     id="namedview20"
     showgrid="false"
     inkscape:zoom="0.74093519"
     inkscape:cx="106.66094"
     inkscape:cy="159.25821"
     inkscape:window-x="0"
     inkscape:window-y="0"
     inkscape:window-maximized="0"
     inkscape:current-layer="svg2" />
  <defs
     id="defs4" />
  <metadata
     id="metadata7">
    <rdf:RDF>
      <cc:Work
         rdf:about="">
        <dc:format>image/svg+xml</dc:format>
        <dc:type
           rdf:resource="http://purl.org/dc/dcmitype/StillImage" />
        <dc:title />
      </cc:Work>
    </rdf:RDF>
  </metadata>
  <g
     transform="translate(-265.38631,-366.9229)"
     id="layer27">
    <g
       transform="translate(167.51791,-1268.3053)"
       id="g28646">
      <path
         d="m 107.99015,1635.3632 193.07837,0 c 5.49288,0 9.98675,4.494 9.98675,9.9868 l 0,298.2728 c 0,5.4928 -4.49387,9.9868 -9.98675,9.9868 l -193.07837,0 c -5.49287,0 -9.98675,-4.494 -9.98675,-9.9868 l 0,-298.2728 c 0,-5.4928 4.49388,-9.9868 9.98675,-9.9868 z"
         style="fill:#ffffff;fill-opacity:1;fill-rule:evenodd;stroke:#1f1917;stroke-width:0.27000001;stroke-linecap:butt;stroke-linejoin:miter;stroke-miterlimit:10;stroke-dasharray:none;stroke-opacity:1"
         id="path11194"
         inkscape:connector-curvature="0" />
      <path
         d="m 112.5469,1695.1821 c 0.36425,-2.5258 1.53425,-3.6263 3.32387,-4.2404 3.26063,-1.1167 7.33151,0.7009 8.10188,3.6011 0.68237,2.5707 -0.747,4.3056 -2.40138,6.6016 1.84325,-0.5532 2.55163,-1.6027 4.80125,-1.2012 1.9945,0.3579 3.36925,2.5611 3.601,3.601 0.87875,3.959 -1.84212,7.5622 -5.10125,7.5013 -1.46625,-0.027 -2.019,-0.6446 -2.70037,-1.1998 -1.3535,-1.1049 -1.6405,-2.0375 -2.7,-3.301 -0.46875,0.6594 -0.13188,1.4698 0,2.1009 0.17187,0.8266 0.659,1.4197 0.89962,2.0997 0.26863,0.7579 0.326,1.682 0.60063,2.4009 0.23562,0.619 1.18662,1.1393 0.59912,1.7994 -2.10325,-0.1964 -4.996,0.3967 -6.60012,-0.2988 0.62262,-2.3803 2.47437,-5.1236 1.50025,-8.1021 -0.55413,4.8096 -6.43,5.445 -8.82038,2.5179 -1.73262,-2.1225 -2.448,-8.4376 3.41863,-9.1194 1.12325,-0.1304 2.22312,0.5346 3.301,0.901 -0.56413,-1.8361 -1.83125,-2.6542 -1.82375,-5.063 0,-0.2002 0,-0.4004 0,-0.5991"
         style="fill:#171717;fill-opacity:1;fill-rule:evenodd;stroke:none"
         id="path11196"
         inkscape:connector-curvature="0" />
      <path
         d="m 299.07578,1893.0297 c -0.36426,2.5257 -1.53425,3.6262 -3.32401,4.2403 -3.26049,1.1168 -7.3315,-0.7009 -8.10174,-3.6012 -0.6825,-2.5706 0.74687,-4.3053 2.40124,-6.6015 -1.84325,0.5532 -2.5515,1.6027 -4.80112,1.2013 -1.9945,-0.3579 -3.36937,-2.5611 -3.60112,-3.6011 -0.87875,-3.9589 1.84225,-7.5622 5.10137,-7.5012 1.46613,0.027 2.01887,0.6445 2.70038,1.1998 1.3535,1.1047 1.6405,2.0374 2.7,3.3009 0.46875,-0.6594 0.13175,-1.4698 0,-2.1008 -0.17188,-0.8267 -0.65913,-1.4198 -0.89975,-2.0997 -0.26851,-0.758 -0.32601,-1.6821 -0.6005,-2.401 -0.23563,-0.619 -1.18675,-1.1392 -0.59925,-1.7993 2.10337,0.1963 4.99612,-0.3968 6.60012,0.2986 -0.6225,2.3804 -2.47425,5.1237 -1.50025,8.1022 0.55425,-4.8096 6.43013,-5.445 8.82038,-2.5179 1.73275,2.1225 2.44812,8.4377 -3.41863,9.1195 -1.12312,0.1304 -2.223,-0.5347 -3.30087,-0.9011 0.56412,1.8361 1.83112,2.6542 1.82375,5.063 0,0.2002 0,0.4004 0,0.5992"
         style="fill:#171717;fill-opacity:1;fill-rule:evenodd;stroke:none"
         id="path11198"
         inkscape:connector-curvature="0" />
      <path
         d="m 148.29665,1681.1346 c 0.71337,-4.9461 3.00475,-7.1011 6.5095,-8.3038 6.38538,-2.1872 14.35737,1.3728 15.86588,7.0523 1.3365,5.034 -1.46276,8.4312 -4.70238,12.9277 3.60962,-1.0831 4.99675,-3.1382 9.40213,-2.3523 3.90612,0.7009 6.59837,5.0155 7.05224,7.0522 1.72063,7.7528 -3.60774,14.8093 -9.99,14.6899 -2.8715,-0.052 -3.954,-1.2621 -5.28837,-2.3496 -2.65075,-2.1635 -3.21275,-3.9901 -5.28725,-6.4644 -0.91813,1.2915 -0.25838,2.8783 0,4.1141 0.33625,1.6189 1.29037,2.7804 1.76162,4.112 0.52588,1.4843 0.6385,3.2939 1.17613,4.702 0.46162,1.2122 2.324,2.2309 1.1735,3.5234 -4.11913,-0.3844 -9.78413,0.7771 -12.92525,-0.585 1.21925,-4.6615 4.8455,-10.0335 2.93812,-15.8665 -1.08537,9.4188 -12.59225,10.6633 -17.27325,4.9309 -3.39312,-4.1564 -4.79412,-16.5239 6.69463,-17.859 2.19975,-0.2551 4.35337,1.0474 6.4645,1.7645 -1.10487,-3.5958 -3.58625,-5.1976 -3.57175,-9.9149 0,-0.3922 0,-0.7841 0,-1.1735"
         style="fill:#171717;fill-opacity:1;fill-rule:evenodd;stroke:none"
         id="path11200"
         inkscape:connector-curvature="0" />
      <path
         d="m 237.9239,1680.297 c 0.71325,-4.9462 3.00475,-7.1012 6.5095,-8.3038 6.38537,-2.1872 14.35737,1.3726 15.86588,7.0523 1.3365,5.034 -1.46276,8.4312 -4.70238,12.9277 3.6095,-1.0832 4.99675,-3.1382 9.40212,-2.3524 3.90613,0.7009 6.59838,5.0155 7.05225,7.0523 1.72063,7.7527 -3.60775,14.8093 -9.99,14.6898 -2.8715,-0.053 -3.954,-1.2622 -5.28837,-2.3495 -2.65075,-2.1635 -3.21275,-3.9902 -5.28725,-6.4644 -0.91813,1.2915 -0.25838,2.8782 0,4.1141 0.33625,1.6189 1.29037,2.7804 1.76162,4.112 0.52588,1.4843 0.6385,3.2939 1.17613,4.702 0.46162,1.2121 2.324,2.2308 1.1735,3.5234 -4.11913,-0.3844 -9.78413,0.7771 -12.92525,-0.585 1.21925,-4.6615 4.8455,-10.0335 2.93812,-15.8665 -1.08537,9.4187 -12.59225,10.6632 -17.27337,4.9309 -3.393,-4.1564 -4.794,-16.5239 6.69475,-17.859 2.19975,-0.2552 4.35337,1.0473 6.4645,1.7645 -1.10488,-3.5958 -3.58625,-5.1977 -3.57175,-9.9149 0,-0.3923 0,-0.7841 0,-1.1735"
         style="fill:#171717;fill-opacity:1;fill-rule:evenodd;stroke:none"
         id="path11202"
         inkscape:connector-curvature="0" />
      <path
         d="m 148.29665,1779.3083 c 0.71337,-4.9461 3.00475,-7.1011 6.5095,-8.3037 6.38538,-2.1874 14.35737,1.3726 15.86588,7.0523 1.3365,5.0338 -1.46276,8.4312 -4.70238,12.9277 3.60962,-1.0832 4.99675,-3.1384 9.40213,-2.3524 3.90612,0.7008 6.59837,5.0155 7.05224,7.0521 1.72063,7.7529 -3.60774,14.8093 -9.99,14.6899 -2.8715,-0.053 -3.954,-1.2621 -5.28837,-2.3495 -2.65075,-2.1636 -3.21275,-3.9901 -5.28725,-6.4645 -0.91813,1.2917 -0.25838,2.8783 0,4.1141 0.33625,1.6191 1.29037,2.7806 1.76162,4.1122 0.52588,1.4842 0.6385,3.2937 1.17613,4.7019 0.46162,1.2122 2.324,2.2308 1.1735,3.5234 -4.11913,-0.3845 -9.78413,0.7771 -12.92525,-0.585 1.21925,-4.6616 4.8455,-10.0336 2.93812,-15.8666 -1.08537,9.4189 -12.59225,10.6633 -17.27325,4.9309 -3.39312,-4.1562 -4.79412,-16.5239 6.69463,-17.8589 2.19975,-0.2551 4.35337,1.0474 6.4645,1.7645 -1.10487,-3.5957 -3.58625,-5.1976 -3.57175,-9.9148 0,-0.3923 0,-0.7842 0,-1.1735"
         style="fill:#171717;fill-opacity:1;fill-rule:evenodd;stroke:none"
         id="path11204"
         inkscape:connector-curvature="0" />
      <path
         d="m 238.76152,1780.146 c 0.71338,-4.9461 3.00475,-7.1012 6.5095,-8.3038 6.38538,-2.1872 14.3575,1.3726 15.86588,7.0523 1.3365,5.034 -1.46275,8.4312 -4.70238,12.9277 3.60963,-1.0832 4.99675,-3.1384 9.40213,-2.3523 3.90625,0.7008 6.59837,5.0155 7.05225,7.0522 1.72062,7.7527 -3.60775,14.8093 -9.99,14.6898 -2.8715,-0.053 -3.95388,-1.2622 -5.28838,-2.3496 -2.65075,-2.1636 -3.21262,-3.9901 -5.28725,-6.4644 -0.91812,1.2916 -0.25837,2.8782 0,4.1142 0.33625,1.6189 1.29038,2.7804 1.76175,4.112 0.52575,1.4843 0.6385,3.2938 1.176,4.7019 0.46163,1.2122 2.324,2.2309 1.1735,3.5235 -4.11912,-0.3845 -9.78412,0.777 -12.92525,-0.585 1.21925,-4.6616 4.8455,-10.0336 2.93813,-15.8666 -1.08537,9.4188 -12.59225,10.6632 -17.27325,4.9308 -3.39313,-4.1562 -4.79413,-16.5237 6.69462,-17.8588 2.19975,-0.2552 4.35338,1.0473 6.46451,1.7645 -1.10488,-3.5958 -3.58626,-5.1977 -3.57175,-9.9149 0,-0.3923 0,-0.7841 0,-1.1735"
         style="fill:#171717;fill-opacity:1;fill-rule:evenodd;stroke:none"
         id="path11206"
         inkscape:connector-curvature="0" />
      <path
         d="m 261.2099,1906.9921 c -0.71337,4.9461 -3.00475,7.1011 -6.5095,8.3038 -6.38538,2.1872 -14.3575,-1.3728 -15.86588,-7.0523 -1.3365,-5.034 1.46276,-8.4314 4.70238,-12.9277 -3.60963,1.0831 -4.99675,3.1382 -9.40213,2.3523 -3.90625,-0.7009 -6.59837,-5.0155 -7.05225,-7.0522 -1.72062,-7.7528 3.60775,-14.8093 9.99001,-14.6899 2.87149,0.053 3.95387,1.2621 5.28837,2.3496 2.65075,2.1635 3.21263,3.9901 5.28725,6.4644 0.91813,-1.2915 0.25838,-2.8783 0,-4.1141 -0.33625,-1.6189 -1.29038,-2.7804 -1.76175,-4.112 -0.52575,-1.4843 -0.6385,-3.2939 -1.176,-4.702 -0.46162,-1.2122 -2.324,-2.2309 -1.1735,-3.5234 4.11912,0.3844 9.78412,-0.7771 12.92525,0.585 -1.21925,4.6615 -4.8455,10.0335 -2.93813,15.8665 1.08538,-9.4188 12.59225,-10.6633 17.27325,-4.9309 3.39313,4.1564 4.79413,16.5239 -6.69462,17.859 -2.19975,0.2551 -4.35338,-1.0474 -6.4645,-1.7646 1.10487,3.5957 3.58625,5.1977 3.57175,9.915 0,0.3921 0,0.7841 0,1.1735"
         style="fill:#171717;fill-opacity:1;fill-rule:evenodd;stroke:none"
         id="path11208"
         inkscape:connector-curvature="0" />
      <path
         d="m 171.58265,1907.8297 c -0.71337,4.9461 -3.00475,7.1011 -6.5095,8.3038 -6.38538,2.1872 -14.35738,-1.3728 -15.86588,-7.0523 -1.3365,-5.034 1.46275,-8.4312 4.70238,-12.9277 -3.60963,1.0831 -4.99675,3.1382 -9.40213,2.3523 -3.90612,-0.7008 -6.59837,-5.0155 -7.05224,-7.0522 -1.72063,-7.7528 3.60774,-14.8093 9.99,-14.6899 2.87149,0.053 3.954,1.2621 5.28837,2.3496 2.65075,2.1635 3.21275,3.9902 5.28725,6.4644 0.91813,-1.2915 0.25838,-2.8782 0,-4.1141 -0.33625,-1.6189 -1.29037,-2.7804 -1.76162,-4.112 -0.52588,-1.4843 -0.6385,-3.2939 -1.17613,-4.702 -0.46162,-1.2121 -2.324,-2.2309 -1.1735,-3.5234 4.11913,0.3844 9.78413,-0.7771 12.92525,0.585 -1.21925,4.6615 -4.8455,10.0335 -2.93812,15.8665 1.08537,-9.4187 12.59225,-10.6632 17.27325,-4.9309 3.39312,4.1564 4.79412,16.5239 -6.69463,17.859 -2.19975,0.2552 -4.35338,-1.0473 -6.4645,-1.7645 1.10487,3.5958 3.58625,5.1977 3.57175,9.9149 0,0.3923 0,0.7841 0,1.1735"
         style="fill:#171717;fill-opacity:1;fill-rule:evenodd;stroke:none"
         id="path11210"
         inkscape:connector-curvature="0" />
      <path
         d="m 121.6294,1671.0992 c 1.91587,1.3359 3.17587,3.5562 3.17587,6.0545 l 0,3.3208 c 0,4.0553 -3.31862,7.3757 -7.37574,7.3757 l 0,0 c -4.05713,0 -7.37575,-3.3186 -7.37575,-7.3757 l 0,-3.3208 c 0,-2.4991 1.26,-4.7186 3.17549,-6.0545 -1.61325,-1.2571 -2.65637,-3.2158 -2.65637,-5.4077 l 0,-3.087 c 0,-3.7715 3.08513,-6.8567 6.85663,-6.8567 l 0,0 c 3.7715,0 6.85662,3.0867 6.85662,6.8567 l 0,3.087 c 0,2.1911 -1.04312,4.1502 -2.65675,5.4077 z m -4.19987,-11.8091 0,0 c 2.34462,0 4.26225,1.9201 4.26225,4.2623 l 0,1.4349 c 0,2.3419 -1.91763,4.2623 -4.26225,4.2623 l 0,0 c -2.34463,0 -4.26226,-1.9183 -4.26226,-4.2623 l 0,-1.4349 c 0,-2.3443 1.91763,-4.2623 4.26226,-4.2623 z m 0,14.2984 0,0 c 2.52212,0 4.58499,2.0653 4.58499,4.5853 l 0,1.5432 c 0,2.5192 -2.06287,4.585 -4.58499,4.585 l 0,0 c -2.52213,0 -4.585,-2.0637 -4.585,-4.585 l 0,-1.5432 c 0,-2.5221 2.06287,-4.5853 4.585,-4.5853"
         style="fill:#1f1917;fill-opacity:1;fill-rule:evenodd;stroke:none"
         id="path11212"
         inkscape:connector-curvature="0" />
      <path
         d="m 289.14602,1917.7765 c -1.91587,-1.3358 -3.17587,-3.556 -3.17587,-6.0544 l 0,-3.3209 c 0,-4.0552 3.31862,-7.3757 7.37575,-7.3757 l 0,0 c 4.057,0 7.37575,3.3187 7.37575,7.3757 l 0,3.3209 c 0,2.499 -1.26,4.7186 -3.1755,6.0544 1.61325,1.2571 2.65637,3.2158 2.65637,5.4078 l 0,3.0869 c 0,3.7715 -3.08512,6.8566 -6.85662,6.8566 l 0,0 c -3.7715,0 -6.85663,-3.0865 -6.85663,-6.8566 l 0,-3.0869 c 0,-2.1912 1.04313,-4.1503 2.65675,-5.4078 z m 4.19988,11.8091 0,0 c -2.34462,0 -4.26225,-1.9201 -4.26225,-4.2622 l 0,-1.435 c 0,-2.3418 1.91763,-4.2623 4.26225,-4.2623 l 0,0 c 2.34462,0 4.26225,1.9184 4.26225,4.2623 l 0,1.435 c 0,2.3442 -1.91763,4.2622 -4.26225,4.2622 z m 0,-14.2982 0,0 c -2.52213,0 -4.58512,-2.0654 -4.58512,-4.5854 l 0,-1.5432 c 0,-2.5193 2.06299,-4.5851 4.58512,-4.5851 l 0,0 c 2.52212,0 4.585,2.0637 4.585,4.5851 l 0,1.5432 c 0,2.5221 -2.06288,4.5854 -4.585,4.5854"
         style="fill:#1f1917;fill-opacity:1;fill-rule:evenodd;stroke:none"
         id="path11214"
         inkscape:connector-curvature="0" />
      <path
         d="m 193.53228,1728.0412 c 0.71337,-4.9461 3.00475,-7.1011 6.5095,-8.3037 6.38537,-2.1873 14.3575,1.3727 15.86587,7.0522 1.3365,5.034 -1.46275,8.4314 -4.70237,12.9278 3.60962,-1.0832 4.99675,-3.1383 9.40212,-2.3524 3.90613,0.7009 6.59838,5.0156 7.05225,7.0523 1.72063,7.7527 -3.60775,14.8092 -9.99,14.6898 -2.8715,-0.053 -3.95388,-1.2621 -5.28838,-2.3496 -2.65075,-2.1635 -3.21275,-3.9901 -5.28725,-6.4644 -0.91812,1.2915 -0.25837,2.8783 0,4.1142 0.33625,1.619 1.29038,2.7805 1.76175,4.112 0.52575,1.4842 0.6385,3.2938 1.176,4.702 0.46163,1.2121 2.324,2.2308 1.17351,3.5235 -4.11913,-0.3845 -9.78413,0.777 -12.92525,-0.585 1.21924,-4.6617 4.8455,-10.0337 2.93812,-15.8667 -1.08537,9.4189 -12.59225,10.6633 -17.27325,4.9309 -3.39312,-4.1562 -4.79413,-16.5239 6.69463,-17.859 2.19975,-0.2551 4.35337,1.0474 6.4645,1.7646 -1.10488,-3.5957 -3.58625,-5.1977 -3.57175,-9.9148 0,-0.3923 0,-0.7842 0,-1.1737"
         style="fill:#171717;fill-opacity:1;fill-rule:evenodd;stroke:none"
         id="path11216"
         inkscape:connector-curvature="0" />
      <path
         d="m 215.98065,1860.4248 c -0.71338,4.9462 -3.00475,7.1012 -6.5095,8.3038 -6.38538,2.1872 -14.3575,-1.3726 -15.86588,-7.0523 -1.3365,-5.034 1.46275,-8.4312 4.70238,-12.9277 -3.60963,1.0832 -4.99675,3.1384 -9.40213,2.3524 -3.90625,-0.7009 -6.59837,-5.0155 -7.05225,-7.0523 -1.72062,-7.7527 3.60775,-14.8092 9.99,-14.6897 2.8715,0.053 3.95388,1.2621 5.28838,2.3495 2.65075,2.1636 3.21263,3.9901 5.28725,6.4643 0.91813,-1.2915 0.25838,-2.8781 0,-4.1141 -0.33625,-1.6189 -1.29037,-2.7804 -1.76175,-4.112 -0.52575,-1.4842 -0.6385,-3.2939 -1.176,-4.7019 -0.46163,-1.2122 -2.324,-2.2308 -1.1735,-3.5235 4.11912,0.3844 9.78412,-0.777 12.92525,0.585 -1.21925,4.6615 -4.8455,10.0337 -2.93813,15.8665 1.08538,-9.4187 12.59225,-10.6631 17.27325,-4.9307 3.39313,4.1562 4.79413,16.5237 -6.69462,17.8589 -2.19975,0.2551 -4.35338,-1.0474 -6.4645,-1.7645 1.10487,3.5957 3.58625,5.1976 3.57175,9.9148 0,0.3923 0,0.7842 0,1.1735"
         style="fill:#171717;fill-opacity:1;fill-rule:evenodd;stroke:none"
         id="path11218"
         inkscape:connector-curvature="0" />
    </g>
  </g>
</svg>
