<?xml version="1.0" encoding="UTF-8" standalone="no"?>
<svg
   xmlns:dc="http://purl.org/dc/elements/1.1/"
   xmlns:cc="http://creativecommons.org/ns#"
   xmlns:rdf="http://www.w3.org/1999/02/22-rdf-syntax-ns#"
   xmlns:svg="http://www.w3.org/2000/svg"
   xmlns="http://www.w3.org/2000/svg"
   xmlns:sodipodi="http://sodipodi.sourceforge.net/DTD/sodipodi-0.dtd"
   xmlns:inkscape="http://www.inkscape.org/namespaces/inkscape"
   version="1.1"
   id="svg2"
   viewBox="0 0 213.32188 318.5163"
   height="89.89238mm"
   width="60.204174mm"
   inkscape:version="0.91 r13725"
   sodipodi:docname="layer29.svg">
  <sodipodi:namedview
     pagecolor="#ffffff"
     bordercolor="#666666"
     borderopacity="1"
     objecttolerance="10"
     gridtolerance="10"
     guidetolerance="10"
     inkscape:pageopacity="0"
     inkscape:pageshadow="2"
     inkscape:window-width="640"
     inkscape:window-height="480"
     id="namedview20"
     showgrid="false"
     inkscape:zoom="0.74093538"
     inkscape:cx="106.66094"
     inkscape:cy="159.25825"
     inkscape:window-x="0"
     inkscape:window-y="0"
     inkscape:window-maximized="0"
     inkscape:current-layer="svg2" />
  <defs
     id="defs4" />
  <metadata
     id="metadata7">
    <rdf:RDF>
      <cc:Work
         rdf:about="">
        <dc:format>image/svg+xml</dc:format>
        <dc:type
           rdf:resource="http://purl.org/dc/dcmitype/StillImage" />
        <dc:title />
      </cc:Work>
    </rdf:RDF>
  </metadata>
  <g
     transform="translate(-265.3863,-366.923)"
     id="layer29">
    <g
       id="g28676"
       transform="translate(-291.5076,-1267.1084)">
      <path
         d="m 567.01565,1634.1664 193.07838,0 c 5.49287,0 9.98675,4.4938 9.98675,9.9867 l 0,298.2728 c 0,5.4928 -4.49388,9.9868 -9.98675,9.9868 l -193.07838,0 c -5.49275,0 -9.98675,-4.494 -9.98675,-9.9868 l 0,-298.2728 c 0,-5.4929 4.494,-9.9867 9.98675,-9.9867 z"
         style="fill:#ffffff;fill-opacity:1;fill-rule:evenodd;stroke:#1f1917;stroke-width:0.27000001;stroke-linecap:butt;stroke-linejoin:miter;stroke-miterlimit:10;stroke-dasharray:none;stroke-opacity:1"
         id="path11246"
         inkscape:connector-curvature="0" />
      <path
         d="m 620.24115,1669.4931 c 0,0 -4.93163,18.8146 -17.90113,25.7549 0,0 15.52638,9.8635 18.08325,24.6592 0,0 4.9315,-18.2653 18.26638,-24.8407 0,0 -13.33488,-7.1242 -18.4485,-25.5734"
         style="fill:#b32621;fill-opacity:1;fill-rule:evenodd;stroke:none"
         id="path11248"
         inkscape:connector-curvature="0" />
      <path
         d="m 708.7019,1668.4879 c 0,0 -4.93163,18.8146 -17.90113,25.7548 0,0 15.52638,9.8635 18.08325,24.6593 0,0 4.93163,-18.2654 18.2665,-24.8406 0,0 -13.33487,-7.1243 -18.44862,-25.5735"
         style="fill:#b32621;fill-opacity:1;fill-rule:evenodd;stroke:none"
         id="path11250"
         inkscape:connector-curvature="0" />
      <path
         d="m 708.7019,1767.001 c 0,0 -4.93163,18.8146 -17.90113,25.7549 0,0 15.52638,9.8635 18.08325,24.6592 0,0 4.93163,-18.2654 18.2665,-24.8406 0,0 -13.33487,-7.1243 -18.44862,-25.5735"
         style="fill:#b32621;fill-opacity:1;fill-rule:evenodd;stroke:none"
         id="path11252"
         inkscape:connector-curvature="0" />
      <path
         d="m 619.2359,1767.001 c 0,0 -4.93163,18.8146 -17.90112,25.7549 0,0 15.52637,9.8635 18.08324,24.6592 0,0 4.9315,-18.2654 18.26638,-24.8406 0,0 -13.33488,-7.1243 -18.4485,-25.5735"
         style="fill:#b32621;fill-opacity:1;fill-rule:evenodd;stroke:none"
         id="path11254"
         inkscape:connector-curvature="0" />
      <path
         d="m 708.7019,1868.5298 c 0,0 -4.93163,18.8147 -17.90113,25.7549 0,0 15.52638,9.8635 18.08325,24.6593 0,0 4.93163,-18.2654 18.2665,-24.8406 0,0 -13.33487,-7.1243 -18.44862,-25.5736"
         style="fill:#b32621;fill-opacity:1;fill-rule:evenodd;stroke:none"
         id="path11256"
         inkscape:connector-curvature="0" />
      <path
         d="m 619.2359,1868.5298 c 0,0 -4.93163,18.8147 -17.90112,25.7549 0,0 15.52637,9.8635 18.08324,24.6593 0,0 4.9315,-18.2654 18.26638,-24.8406 0,0 -13.33488,-7.1243 -18.4485,-25.5736"
         style="fill:#b32621;fill-opacity:1;fill-rule:evenodd;stroke:none"
         id="path11258"
         inkscape:connector-curvature="0" />
      <path
         d="m 578.56715,1687.5873 c 0,0 -2.8665,10.9364 -10.40525,14.9705 0,0 9.02525,5.7334 10.51125,14.3337 0,0 2.8665,-10.6172 10.61787,-14.4393 0,0 -7.75137,-4.1411 -10.72387,-14.8649"
         style="fill:#b32621;fill-opacity:1;fill-rule:evenodd;stroke:none"
         id="path11260"
         inkscape:connector-curvature="0" />
      <path
         d="m 752.47302,1866.5194 c 0,0 -2.86649,10.9363 -10.40525,14.9705 0,0 9.02513,5.7333 10.51125,14.3337 0,0 2.8665,-10.6171 10.61788,-14.4394 0,0 -7.75138,-4.141 -10.72388,-14.8648"
         style="fill:#b32621;fill-opacity:1;fill-rule:evenodd;stroke:none"
         id="path11262"
         inkscape:connector-curvature="0" />
      <path
         d="m 581.66015,1668.8971 c 1.91588,1.3357 3.17588,3.556 3.17588,6.0544 l 0,3.3208 c 0,4.0553 -3.31863,7.3758 -7.37576,7.3758 l 0,0 c -4.05712,0 -7.37575,-3.3187 -7.37575,-7.3758 l 0,-3.3208 c 0,-2.499 1.26,-4.7187 3.1755,-6.0544 -1.61325,-1.2571 -2.65637,-3.2159 -2.65637,-5.4078 l 0,-3.087 c 0,-3.7714 3.08512,-6.8566 6.85662,-6.8566 l 0,0 c 3.7715,0 6.85663,3.0865 6.85663,6.8566 l 0,3.087 c 0,2.1912 -1.04313,4.1503 -2.65675,5.4078 z m -4.19988,-11.8091 0,0 c 2.34463,0 4.26225,1.9201 4.26225,4.2622 l 0,1.435 c 0,2.3418 -1.91762,4.2623 -4.26225,4.2623 l 0,0 c -2.34462,0 -4.26225,-1.9184 -4.26225,-4.2623 l 0,-1.435 c 0,-2.3442 1.91763,-4.2622 4.26225,-4.2622 z m 0,14.2982 0,0 c 2.52213,0 4.585,2.0654 4.585,4.5854 l 0,1.5431 c 0,2.5194 -2.06287,4.5852 -4.585,4.5852 l 0,0 c -2.52212,0 -4.585,-2.0637 -4.585,-4.5852 l 0,-1.5431 c 0,-2.5221 2.06288,-4.5854 4.585,-4.5854"
         style="fill:#b32621;fill-opacity:1;fill-rule:evenodd;stroke:none"
         id="path11264"
         inkscape:connector-curvature="0" />
      <path
         d="m 748.17152,1916.5796 c -1.91587,-1.3359 -3.17587,-3.5561 -3.17587,-6.0545 l 0,-3.3207 c 0,-4.0554 3.31862,-7.3758 7.37575,-7.3758 l 0,0 c 4.05713,0 7.37575,3.3186 7.37575,7.3758 l 0,3.3207 c 0,2.4991 -1.26,4.7186 -3.1755,6.0545 1.61325,1.2571 2.65638,3.2159 2.65638,5.4077 l 0,3.087 c 0,3.7714 -3.08513,6.8567 -6.85663,6.8567 l 0,0 c -3.7715,0 -6.85662,-3.0867 -6.85662,-6.8567 l 0,-3.087 c 0,-2.1911 1.04312,-4.1502 2.65674,-5.4077 z m 4.19988,11.8091 0,0 c -2.34462,0 -4.26225,-1.9201 -4.26225,-4.2622 l 0,-1.435 c 0,-2.3419 1.91763,-4.2623 4.26225,-4.2623 l 0,0 c 2.34463,0 4.26225,1.9183 4.26225,4.2623 l 0,1.435 c 0,2.3442 -1.91762,4.2622 -4.26225,4.2622 z m 0,-14.2983 0,0 c -2.52212,0 -4.585,-2.0654 -4.585,-4.5854 l 0,-1.5432 c 0,-2.5192 2.06288,-4.5849 4.585,-4.5849 l 0,0 c 2.52213,0 4.585,2.0636 4.585,4.5849 l 0,1.5432 c 0,2.5221 -2.06287,4.5854 -4.585,4.5854"
         style="fill:#b32621;fill-opacity:1;fill-rule:evenodd;stroke:none"
         id="path11266"
         inkscape:connector-curvature="0" />
      <path
         d="m 665.47678,1717.7444 c 0,0 -4.93163,18.8146 -17.90113,25.755 0,0 15.52637,9.8635 18.08325,24.6592 0,0 4.9315,-18.2654 18.26638,-24.8407 0,0 -13.33488,-7.1242 -18.4485,-25.5735"
         style="fill:#b32621;fill-opacity:1;fill-rule:evenodd;stroke:none"
         id="path11268"
         inkscape:connector-curvature="0" />
      <path
         d="m 664.47152,1821.2837 c 0,0 -4.93162,18.8146 -17.90112,25.7549 0,0 15.52637,9.8635 18.08325,24.6593 0,0 4.9315,-18.2654 18.26637,-24.8407 0,0 -13.33487,-7.1242 -18.4485,-25.5735"
         style="fill:#b32621;fill-opacity:1;fill-rule:evenodd;stroke:none"
         id="path11270"
         inkscape:connector-curvature="0" />
    </g>
  </g>
</svg>
