<?xml version="1.0" encoding="UTF-8" standalone="no"?>
<svg
   xmlns:dc="http://purl.org/dc/elements/1.1/"
   xmlns:cc="http://creativecommons.org/ns#"
   xmlns:rdf="http://www.w3.org/1999/02/22-rdf-syntax-ns#"
   xmlns:svg="http://www.w3.org/2000/svg"
   xmlns="http://www.w3.org/2000/svg"
   xmlns:sodipodi="http://sodipodi.sourceforge.net/DTD/sodipodi-0.dtd"
   xmlns:inkscape="http://www.inkscape.org/namespaces/inkscape"
   version="1.1"
   id="svg2"
   viewBox="0 0 213.32188 318.5163"
   height="89.89238mm"
   width="60.204174mm"
   inkscape:version="0.91 r13725"
   sodipodi:docname="layer28.svg">
  <sodipodi:namedview
     pagecolor="#ffffff"
     bordercolor="#666666"
     borderopacity="1"
     objecttolerance="10"
     gridtolerance="10"
     guidetolerance="10"
     inkscape:pageopacity="0"
     inkscape:pageshadow="2"
     inkscape:window-width="640"
     inkscape:window-height="480"
     id="namedview20"
     showgrid="false"
     inkscape:zoom="0.74093538"
     inkscape:cx="106.66093"
     inkscape:cy="159.25825"
     inkscape:window-x="0"
     inkscape:window-y="0"
     inkscape:window-maximized="0"
     inkscape:current-layer="svg2" />
  <defs
     id="defs4" />
  <metadata
     id="metadata7">
    <rdf:RDF>
      <cc:Work
         rdf:about="">
        <dc:format>image/svg+xml</dc:format>
        <dc:type
           rdf:resource="http://purl.org/dc/dcmitype/StillImage" />
        <dc:title />
      </cc:Work>
    </rdf:RDF>
  </metadata>
  <g
     transform="translate(-265.3863,-366.923)"
     id="layer28">
    <g
       id="g28661"
       transform="translate(-61.994846,-1269.5019)">
      <path
         d="m 337.5029,1636.5599 193.07837,0 c 5.49288,0 9.98676,4.4938 9.98676,9.9867 l 0,298.2727 c 0,5.4929 -4.49388,9.9869 -9.98676,9.9869 l -193.07837,0 c -5.49288,0 -9.98675,-4.494 -9.98675,-9.9869 l 0,-298.2727 c 0,-5.4929 4.49387,-9.9867 9.98675,-9.9867 z"
         style="fill:#ffffff;fill-opacity:1;fill-rule:evenodd;stroke:#1f1917;stroke-width:0.27000001;stroke-linecap:butt;stroke-linejoin:miter;stroke-miterlimit:10;stroke-dasharray:none;stroke-opacity:1"
         id="path11220"
         inkscape:connector-curvature="0" />
      <path
         d="m 357.97865,1695.6696 c -1.40637,-1.5626 -2.969,-2.4998 -4.06238,-2.4998 -1.06274,0 -3.65987,-0.2572 -5.85537,4.2332 -2.18625,-4.4061 -4.75825,-4.1553 -5.8145,-4.1553 -1.09387,0 -2.6565,0.9376 -4.06288,2.5001 -1.40587,1.5623 -1.17175,4.2967 -0.69087,5.7197 0.48112,1.4226 10.525,16.0771 10.525,16.0771 0,0 10.17113,-14.7328 10.65188,-16.1554 0.48087,-1.4226 0.7155,-4.157 -0.69088,-5.7196"
         style="fill:#b32621;fill-opacity:1;fill-rule:evenodd;stroke:none"
         id="path11222"
         inkscape:connector-curvature="0" />
      <path
         d="m 513.09465,1896.9893 c 1.40638,1.5627 2.969,2.4998 4.0625,2.4998 1.06263,0 3.65988,0.2572 5.85525,-4.2331 2.18625,4.4061 4.75837,4.1552 5.81463,4.1552 1.09375,0 2.65637,-0.9376 4.06275,-2.5002 1.406,-1.5623 1.17175,-4.2967 0.69087,-5.7195 -0.48113,-1.4228 -10.525,-16.0771 -10.525,-16.0771 0,0 -10.17113,14.7327 -10.65188,16.1553 -0.48087,1.4226 -0.71537,4.157 0.69088,5.7197"
         style="fill:#b32621;fill-opacity:1;fill-rule:evenodd;stroke:none"
         id="path11224"
         inkscape:connector-curvature="0" />
      <path
         d="m 410.03227,1677.8305 c -2.67237,-2.9693 -5.64162,-4.7501 -7.71937,-4.7501 -2.019,0 -6.9545,-0.4887 -11.126,8.0436 -4.15425,-8.3721 -9.0415,-7.8955 -11.04875,-7.8955 -2.07813,0 -5.0475,1.7815 -7.71987,4.7509 -2.67163,2.9685 -2.22663,8.1641 -1.31276,10.868 0.91413,2.7031 19.99913,30.549 19.99913,30.549 0,0 19.32662,-27.9947 20.24037,-30.6979 0.9135,-2.7031 1.35925,-7.8988 -1.31275,-10.868"
         style="fill:#b32621;fill-opacity:1;fill-rule:evenodd;stroke:none"
         id="path11226"
         inkscape:connector-curvature="0" />
      <path
         d="m 498.24853,1677.8305 c -2.67225,-2.9693 -5.64163,-4.7501 -7.71938,-4.7501 -2.019,0 -6.9545,-0.4887 -11.126,8.0436 -4.15413,-8.3721 -9.0415,-7.8955 -11.04875,-7.8955 -2.07813,0 -5.04738,1.7815 -7.71975,4.7509 -2.67175,2.9685 -2.22663,8.1641 -1.31288,10.868 0.91425,2.7031 19.99913,30.549 19.99913,30.549 0,0 19.32662,-27.9947 20.2405,-30.6979 0.9135,-2.7031 1.35925,-7.8988 -1.31288,-10.868"
         style="fill:#b32621;fill-opacity:1;fill-rule:evenodd;stroke:none"
         id="path11228"
         inkscape:connector-curvature="0" />
      <path
         d="m 459.3789,1915.2065 c 2.67237,2.9693 5.64162,4.7502 7.71937,4.7502 2.019,0 6.9545,0.4887 11.12601,-8.0437 4.15425,8.3721 9.0415,7.8956 11.04875,7.8956 2.07812,0 5.0475,-1.7816 7.71987,-4.7509 2.67162,-2.9686 2.2265,-8.1641 1.31275,-10.868 -0.91425,-2.7032 -19.99912,-30.549 -19.99912,-30.549 0,0 -19.32663,27.9946 -20.2405,30.6978 -0.91338,2.7032 -1.35913,7.8987 1.31287,10.868"
         style="fill:#b32621;fill-opacity:1;fill-rule:evenodd;stroke:none"
         id="path11230"
         inkscape:connector-curvature="0" />
      <path
         d="m 371.16253,1915.2065 c 2.67237,2.9693 5.64175,4.7502 7.71949,4.7502 2.019,0 6.95438,0.4887 11.12601,-8.0437 4.15412,8.3721 9.04137,7.8956 11.04874,7.8956 2.07813,0 5.04738,-1.7816 7.71975,-4.7509 2.67163,-2.9686 2.22663,-8.1641 1.31275,-10.868 -0.91412,-2.7032 -19.99912,-30.549 -19.99912,-30.549 0,0 -19.32662,27.9946 -20.24038,30.6978 -0.9135,2.7032 -1.35925,7.8987 1.31276,10.868"
         style="fill:#b32621;fill-opacity:1;fill-rule:evenodd;stroke:none"
         id="path11232"
         inkscape:connector-curvature="0" />
      <path
         d="m 460.63528,1777.6713 c 2.67237,-2.9693 5.64175,-4.7502 7.7195,-4.7502 2.019,0 6.9545,-0.4886 11.126,8.0437 4.15412,-8.3721 9.04137,-7.8956 11.04875,-7.8956 2.07812,0 5.04737,1.7816 7.71975,4.7509 2.67162,2.9686 2.22662,8.1641 1.31287,10.868 -0.91425,2.7033 -19.99925,30.549 -19.99925,30.549 0,0 -19.3265,-27.9946 -20.24037,-30.6977 -0.91351,-2.7033 -1.35926,-7.8988 1.31275,-10.868"
         style="fill:#b32621;fill-opacity:1;fill-rule:evenodd;stroke:none"
         id="path11234"
         inkscape:connector-curvature="0" />
      <path
         d="m 371.16253,1777.6713 c 2.67237,-2.9693 5.64175,-4.7502 7.71949,-4.7502 2.019,0 6.95438,-0.4886 11.12601,8.0437 4.15412,-8.3721 9.04137,-7.8956 11.04874,-7.8956 2.07813,0 5.04738,1.7816 7.71975,4.7509 2.67163,2.9686 2.22663,8.1641 1.31275,10.868 -0.91412,2.7033 -19.99912,30.549 -19.99912,30.549 0,0 -19.32662,-27.9946 -20.24038,-30.6977 -0.9135,-2.7033 -1.35925,-7.8988 1.31276,-10.868"
         style="fill:#b32621;fill-opacity:1;fill-rule:evenodd;stroke:none"
         id="path11236"
         inkscape:connector-curvature="0" />
      <path
         d="m 352.1474,1671.2906 c 1.91587,1.3359 3.17588,3.556 3.17588,6.0544 l 0,3.3208 c 0,4.0553 -3.31863,7.3758 -7.37576,7.3758 l 0,0 c -4.05712,0 -7.37574,-3.3188 -7.37574,-7.3758 l 0,-3.3208 c 0,-2.499 1.25999,-4.7185 3.17549,-6.0544 -1.61325,-1.2571 -2.65637,-3.2159 -2.65637,-5.4077 l 0,-3.087 c 0,-3.7715 3.08513,-6.8567 6.85662,-6.8567 l 0,0 c 3.77151,0 6.85663,3.0865 6.85663,6.8567 l 0,3.087 c 0,2.1911 -1.04312,4.1502 -2.65675,5.4077 z m -4.19988,-11.8091 0,0 c 2.34463,0 4.26226,1.9201 4.26226,4.2622 l 0,1.435 c 0,2.3418 -1.91763,4.2623 -4.26226,4.2623 l 0,0 c -2.34462,0 -4.26225,-1.9184 -4.26225,-4.2623 l 0,-1.435 c 0,-2.3442 1.91763,-4.2622 4.26225,-4.2622 z m 0,14.2982 0,0 c 2.52213,0 4.58501,2.0654 4.58501,4.5854 l 0,1.5431 c 0,2.5194 -2.06288,4.5851 -4.58501,4.5851 l 0,0 c -2.52212,0 -4.58499,-2.0636 -4.58499,-4.5851 l 0,-1.5431 c 0,-2.5221 2.06287,-4.5854 4.58499,-4.5854"
         style="fill:#b32621;fill-opacity:1;fill-rule:evenodd;stroke:none"
         id="path11238"
         inkscape:connector-curvature="0" />
      <path
         d="m 518.65877,1918.9731 c -1.91587,-1.3359 -3.17587,-3.5561 -3.17587,-6.0545 l 0,-3.3207 c 0,-4.0554 3.31862,-7.3758 7.37575,-7.3758 l 0,0 c 4.05713,0 7.37575,3.3186 7.37575,7.3758 l 0,3.3207 c 0,2.4991 -1.26,4.7186 -3.1755,6.0545 1.61325,1.2571 2.65638,3.2159 2.65638,5.4077 l 0,3.087 c 0,3.7715 -3.08513,6.8567 -6.85663,6.8567 l 0,0 c -3.7715,0 -6.85663,-3.0867 -6.85663,-6.8567 l 0,-3.087 c 0,-2.1911 1.04313,-4.1502 2.65675,-5.4077 z m 4.19988,11.8091 0,0 c -2.34463,0 -4.26225,-1.9201 -4.26225,-4.2622 l 0,-1.435 c 0,-2.3419 1.91762,-4.2623 4.26225,-4.2623 l 0,0 c 2.34463,0 4.26225,1.9183 4.26225,4.2623 l 0,1.435 c 0,2.3442 -1.91762,4.2622 -4.26225,4.2622 z m 0,-14.2983 0,0 c -2.52213,0 -4.58512,-2.0654 -4.58512,-4.5854 l 0,-1.5432 c 0,-2.5192 2.06299,-4.585 4.58512,-4.585 l 0,0 c 2.52213,0 4.585,2.0637 4.585,4.585 l 0,1.5432 c 0,2.5221 -2.06287,4.5854 -4.585,4.5854"
         style="fill:#b32621;fill-opacity:1;fill-rule:evenodd;stroke:none"
         id="path11240"
         inkscape:connector-curvature="0" />
      <path
         d="m 415.39965,1727.4095 c 2.67237,-2.9693 5.64175,-4.7501 7.7195,-4.7501 2.019,0 6.95437,-0.4887 11.126,8.0436 4.15413,-8.3722 9.04138,-7.8955 11.04875,-7.8955 2.07813,0 5.04738,1.7815 7.71975,4.7508 2.67162,2.9686 2.22663,8.1642 1.31275,10.8681 -0.91413,2.7031 -19.99912,30.549 -19.99912,30.549 0,0 -19.3265,-27.9947 -20.24038,-30.6979 -0.9135,-2.7031 -1.35925,-7.8988 1.31275,-10.868"
         style="fill:#b32621;fill-opacity:1;fill-rule:evenodd;stroke:none"
         id="path11242"
         inkscape:connector-curvature="0" />
      <path
         d="m 452.00878,1863.7386 c -2.67238,2.9692 -5.64163,4.7501 -7.7195,4.7501 -2.01888,0 -6.95438,0.4887 -11.12588,-8.0436 -4.15425,8.3721 -9.0415,7.8955 -11.04875,7.8955 -2.07825,0 -5.0475,-1.7815 -7.71988,-4.7509 -2.67162,-2.9685 -2.22662,-8.1641 -1.31275,-10.868 0.91413,-2.7031 19.99913,-30.549 19.99913,-30.549 0,0 19.32662,27.9946 20.24037,30.6979 0.9135,2.7031 1.35925,7.8987 -1.31275,10.868"
         style="fill:#b32621;fill-opacity:1;fill-rule:evenodd;stroke:none"
         id="path11244"
         inkscape:connector-curvature="0" />
    </g>
  </g>
</svg>
