<?xml version="1.0" encoding="UTF-8" standalone="no"?>
<svg
   xmlns:dc="http://purl.org/dc/elements/1.1/"
   xmlns:cc="http://creativecommons.org/ns#"
   xmlns:rdf="http://www.w3.org/1999/02/22-rdf-syntax-ns#"
   xmlns:svg="http://www.w3.org/2000/svg"
   xmlns="http://www.w3.org/2000/svg"
   xmlns:sodipodi="http://sodipodi.sourceforge.net/DTD/sodipodi-0.dtd"
   xmlns:inkscape="http://www.inkscape.org/namespaces/inkscape"
   version="1.1"
   id="svg2"
   viewBox="0 0 213.32188 318.51639"
   height="89.892403mm"
   width="60.204174mm"
   inkscape:version="0.91 r13725"
   sodipodi:docname="layer26.svg">
  <sodipodi:namedview
     pagecolor="#ffffff"
     bordercolor="#666666"
     borderopacity="1"
     objecttolerance="10"
     gridtolerance="10"
     guidetolerance="10"
     inkscape:pageopacity="0"
     inkscape:pageshadow="2"
     inkscape:window-width="448"
     inkscape:window-height="428"
     id="namedview20"
     showgrid="false"
     inkscape:zoom="0.74093519"
     inkscape:cx="106.66094"
     inkscape:cy="159.25821"
     inkscape:window-x="0"
     inkscape:window-y="0"
     inkscape:window-maximized="0"
     inkscape:current-layer="svg2" />
  <defs
     id="defs4" />
  <metadata
     id="metadata7">
    <rdf:RDF>
      <cc:Work
         rdf:about="">
        <dc:format>image/svg+xml</dc:format>
        <dc:type
           rdf:resource="http://purl.org/dc/dcmitype/StillImage" />
        <dc:title />
      </cc:Work>
    </rdf:RDF>
  </metadata>
  <g
     transform="translate(-265.38631,-366.9229)"
     id="layer26">
    <g
       id="g28340"
       transform="translate(397.03066,-1271.8954)">
      <path
         d="m -121.5226,1638.9533 193.078375,0 c 5.49275,0 9.98675,4.4939 9.98675,9.9868 l 0,298.2727 c 0,5.4929 -4.494,9.9869 -9.98675,9.9869 l -193.078375,0 c -5.49288,0 -9.98675,-4.494 -9.98675,-9.9869 l 0,-298.2727 c 0,-5.4929 4.49387,-9.9867 9.98675,-9.9867 z"
         style="fill:#ffffff;fill-opacity:1;fill-rule:evenodd;stroke:#1f1917;stroke-width:0.27000001;stroke-linecap:butt;stroke-linejoin:miter;stroke-miterlimit:10;stroke-dasharray:none;stroke-opacity:1"
         id="path11168"
         inkscape:connector-curvature="0" />
      <path
         d="m -107.25798,1674.3162 c 2.06613,1.4404 3.425,3.8345 3.425,6.5289 l 0,3.5812 c 0,4.3732 -3.57875,7.9541 -7.954,7.9541 l 0,0 c -4.37525,0 -7.954,-3.5788 -7.954,-7.9541 l 0,-3.5812 c 0,-2.695 1.35888,-5.0885 3.4245,-6.5289 -1.73975,-1.356 -2.86475,-3.4682 -2.86475,-5.8319 l 0,-3.3289 c 0,-4.067 3.32688,-7.3942 7.39425,-7.3942 l 0,0 c 4.067,0 7.39413,3.3285 7.39413,7.3942 l 0,3.3289 c 0,2.363 -1.125,4.4755 -2.86513,5.8319 z m -4.52899,-12.735 0,0 c 2.52849,0 4.59637,2.0708 4.59637,4.5964 l 0,1.5474 c 0,2.5252 -2.06788,4.5964 -4.59637,4.5964 l 0,0 c -2.52851,0 -4.59638,-2.0687 -4.59638,-4.5964 l 0,-1.5474 c 0,-2.5281 2.06788,-4.5964 4.59638,-4.5964 z m 0,15.419 0,0 c 2.71987,0 4.94424,2.2274 4.94424,4.9452 l 0,1.6638 c 0,2.717 -2.22437,4.9448 -4.94424,4.9448 l 0,0 c -2.71988,0 -4.94475,-2.2257 -4.94475,-4.9448 l 0,-1.6638 c 0,-2.7199 2.22487,-4.9452 4.94475,-4.9452"
         style="fill:#1f1917;fill-opacity:1;fill-rule:evenodd;stroke:none"
         id="path11170"
         inkscape:connector-curvature="0" />
      <path
         d="m 58.595025,1921.1026 c -2.066125,-1.4404 -3.425,-3.8346 -3.425,-6.5289 l 0,-3.5812 c 0,-4.3731 3.57875,-7.954 7.954125,-7.954 l 0,0 c 4.37525,0 7.954,3.5787 7.954,7.954 l 0,3.5812 c 0,2.695 -1.358875,5.0885 -3.424625,6.5289 1.73975,1.356 2.86475,3.4681 2.86475,5.8319 l 0,3.329 c 0,4.067 -3.326875,7.3941 -7.394125,7.3941 l 0,0 c -4.067,0 -7.39425,-3.3285 -7.39425,-7.3941 l 0,-3.329 c 0,-2.363 1.125,-4.4755 2.865125,-5.8319 z m 4.529125,12.735 0,0 c -2.5285,0 -4.596375,-2.0707 -4.596375,-4.5964 l 0,-1.5474 c 0,-2.5252 2.067875,-4.5963 4.596375,-4.5963 l 0,0 c 2.5285,0 4.596375,2.0686 4.596375,4.5963 l 0,1.5474 c 0,2.5282 -2.067875,4.5964 -4.596375,4.5964 z m 0,-15.419 0,0 c -2.719875,0 -4.944375,-2.2274 -4.944375,-4.9451 l 0,-1.6639 c 0,-2.717 2.2245,-4.9447 4.944375,-4.9447 l 0,0 c 2.71975,0 4.944625,2.2256 4.944625,4.9447 l 0,1.6639 c 0,2.7199 -2.224875,4.9451 -4.944625,4.9451"
         style="fill:#1f1917;fill-opacity:1;fill-rule:evenodd;stroke:none"
         id="path11172"
         inkscape:connector-curvature="0" />
      <path
         d="m -100.51323,1708.1813 c -0.45175,-1.3351 -9.49862,-14.4757 -10.46625,-15.8803 l 0,-0.1296 c -0.002,0 -0.0191,0.026 -0.0454,0.065 -0.0255,-0.039 -0.0433,-0.064 -0.0446,-0.065 l 0,0.1296 c -0.96837,1.4046 -10.0145,14.5452 -10.467,15.8803 -0.47575,1.4099 -0.70825,4.1205 0.685,5.669 1.39388,1.5484 2.94275,2.4778 4.02663,2.4778 0.49112,0 1.31387,0.054 2.273,-0.3411 1.09412,-0.6835 2.20675,-2.0698 2.31875,-4.8901 0,0 0.19625,4.8198 -1.66075,7.6223 -0.11625,0.2179 -0.23775,0.4209 -0.37313,0.5874 0,0 2.52463,-0.2136 3.24213,-0.2072 0.71787,-0.013 3.24212,0.2072 3.24212,0.2072 -0.13462,-0.1665 -0.25612,-0.3695 -0.37275,-0.5874 -1.85662,-2.8025 -1.66,-7.6223 -1.66,-7.6223 0.11088,2.8203 1.22413,4.2066 2.31875,4.8901 0.95813,0.3943 1.7815,0.3411 2.27188,0.3411 1.085,0 2.63337,-0.9294 4.02662,-2.4778 1.39438,-1.5485 1.1615,-4.2591 0.685,-5.669"
         style="fill:#171717;fill-opacity:1;fill-rule:evenodd;stroke:none"
         id="path11174"
         inkscape:connector-curvature="0" />
      <path
         d="m 52.3694,1888.26 c 0.451875,1.3351 9.498625,14.4758 10.46625,15.8805 l 0,0.1296 c 0.0012,0 0.01912,-0.026 0.04537,-0.065 0.0255,0.039 0.04325,0.064 0.04462,0.065 l 0,-0.1296 c 0.968375,-1.4047 10.0145,-14.5454 10.467,-15.8805 0.475875,-1.4099 0.70825,-4.1205 -0.685,-5.6689 -1.393875,-1.5484 -2.942625,-2.4779 -4.026625,-2.4779 -0.491,0 -1.313875,-0.054 -2.273,0.3413 -1.094125,0.6835 -2.20675,2.0696 -2.31875,4.8901 0,0 -0.19625,-4.82 1.66075,-7.6224 0.11625,-0.2179 0.23775,-0.4209 0.373125,-0.5875 0,0 -2.524625,0.2138 -3.242125,0.2074 -0.717875,0.012 -3.242125,-0.2074 -3.242125,-0.2074 0.134625,0.1666 0.256125,0.3696 0.37275,0.5875 1.85675,2.8024 1.66,7.6224 1.66,7.6224 -0.110875,-2.8205 -1.224125,-4.2066 -2.31875,-4.8901 -0.958,-0.3944 -1.7815,-0.3413 -2.271875,-0.3413 -1.085,0 -2.633375,0.9295 -4.026625,2.4779 -1.394375,1.5484 -1.1615,4.259 -0.685,5.6689"
         style="fill:#171717;fill-opacity:1;fill-rule:evenodd;stroke:none"
         id="path11176"
         inkscape:connector-curvature="0" />
      <path
         d="m -51.58935,1802.2672 c -0.781,-2.3089 -16.425,-25.0321 -18.0985,-27.461 l 0,-0.2243 c -0.0037,0 -0.033,0.046 -0.07838,0.1124 -0.04425,-0.066 -0.07475,-0.1099 -0.07725,-0.1124 l 0,0.2243 c -1.6745,2.4289 -17.3175,25.1521 -18.099875,27.461 -0.823125,2.4381 -1.225,7.1255 1.1845,9.8029 2.410125,2.6776 5.0885,4.2849 6.963,4.2849 0.848875,0 2.271875,0.091 3.9305,-0.59 1.892125,-1.182 3.815875,-3.579 4.009625,-8.4564 0,0 0.3395,8.3349 -2.871875,13.1811 -0.200875,0.3767 -0.411,0.7278 -0.64525,1.0159 0,0 4.36575,-0.3696 5.606625,-0.3586 1.24125,-0.013 5.60625,0.3586 5.60625,0.3586 -0.232875,-0.2881 -0.442875,-0.6393 -0.6445,-1.0159 -3.210625,-4.8462 -2.8705,-13.1811 -2.8705,-13.1811 0.19175,4.8774 2.11675,7.2744 4.009625,8.4564 1.656875,0.6817 3.0805,0.59 3.928875,0.59 1.876125,0 4.5535,-1.6073 6.962875,-4.2849 2.410875,-2.6774 2.008375,-7.3648 1.18425,-9.8029"
         style="fill:#171717;fill-opacity:1;fill-rule:evenodd;stroke:none"
         id="path11178"
         inkscape:connector-curvature="0" />
      <path
         d="m 38.875525,1803.9425 c -0.781,-2.3089 -16.425,-25.0321 -18.0985,-27.461 l 0,-0.2243 c -0.0037,0 -0.033,0.046 -0.07837,0.1125 -0.04425,-0.066 -0.07475,-0.11 -0.07725,-0.1125 l 0,0.2243 c -1.6745,2.4288 -17.3175,25.1521 -18.099875,27.461 -0.823125,2.4381 -1.225,7.1255 1.1845,9.8028 2.410125,2.6777 5.0885,4.2849 6.963,4.2849 0.848875,0 2.271875,0.092 3.9305,-0.5899 1.892125,-1.1821 3.815875,-3.5791 4.009625,-8.4565 0,0 0.3395,8.3349 -2.871875,13.1812 -0.200875,0.3766 -0.411,0.7277 -0.645125,1.0158 0,0 4.365625,-0.3696 5.6065,-0.3586 1.24125,-0.013 5.60625,0.3586 5.60625,0.3586 -0.23275,-0.2881 -0.442875,-0.6392 -0.6445,-1.0158 -3.210625,-4.8463 -2.8705,-13.1812 -2.8705,-13.1812 0.19175,4.8774 2.11675,7.2744 4.009625,8.4565 1.656875,0.6818 3.0805,0.5899 3.928875,0.5899 1.876125,0 4.5535,-1.6072 6.962875,-4.2849 2.410875,-2.6773 2.008375,-7.3647 1.18425,-9.8028"
         style="fill:#171717;fill-opacity:1;fill-rule:evenodd;stroke:none"
         id="path11180"
         inkscape:connector-curvature="0" />
      <path
         d="m 38.0379,1704.0935 c -0.781,-2.3089 -16.425,-25.032 -18.098625,-27.461 l 0,-0.2243 c -0.0025,0 -0.03287,0.046 -0.07825,0.1125 -0.04425,-0.066 -0.07475,-0.11 -0.07725,-0.1125 l 0,0.2243 c -1.6745,2.429 -17.3175,25.1521 -18.099875,27.461 -0.823125,2.4381 -1.225,7.1256 1.1845,9.8029 2.410125,2.6777 5.0885,4.2849 6.963,4.2849 0.848875,0 2.271875,0.091 3.9305,-0.59 1.892125,-1.1819 3.815875,-3.5791 4.009625,-8.4564 0,0 0.3395,8.3349 -2.871875,13.1811 -0.200875,0.3766 -0.411,0.7277 -0.64525,1.0159 0,0 4.36575,-0.3697 5.606625,-0.3587 1.24125,-0.012 5.60625,0.3587 5.60625,0.3587 -0.232875,-0.2882 -0.443,-0.6393 -0.6445,-1.0159 -3.210625,-4.8461 -2.8705,-13.1811 -2.8705,-13.1811 0.19175,4.8773 2.11675,7.2745 4.009625,8.4564 1.656875,0.6818 3.0805,0.59 3.928875,0.59 1.876125,0 4.5535,-1.6072 6.962875,-4.2849 2.410875,-2.6773 2.008375,-7.3648 1.18425,-9.8029"
         style="fill:#171717;fill-opacity:1;fill-rule:evenodd;stroke:none"
         id="path11182"
         inkscape:connector-curvature="0" />
      <path
         d="m -50.751725,1704.0935 c -0.781,-2.3089 -16.425,-25.032 -18.0985,-27.461 l 0,-0.2243 c -0.0038,0 -0.033,0.046 -0.07838,0.1125 -0.04425,-0.066 -0.07475,-0.11 -0.07725,-0.1125 l 0,0.2243 c -1.6745,2.429 -17.3175,25.1521 -18.099875,27.461 -0.823125,2.4381 -1.225,7.1256 1.1845,9.8029 2.410125,2.6777 5.0885,4.2849 6.963,4.2849 0.849,0 2.271875,0.091 3.9305,-0.59 1.892125,-1.1819 3.815875,-3.5791 4.009625,-8.4564 0,0 0.3395,8.3349 -2.871875,13.1811 -0.200875,0.3766 -0.411,0.7277 -0.645125,1.0159 0,0 4.365625,-0.3697 5.6065,-0.3587 1.24125,-0.012 5.60625,0.3587 5.60625,0.3587 -0.23275,-0.2882 -0.442875,-0.6393 -0.6445,-1.0159 -3.210625,-4.8461 -2.8705,-13.1811 -2.8705,-13.1811 0.19175,4.8773 2.11675,7.2745 4.009625,8.4564 1.656875,0.6818 3.080625,0.59 3.928875,0.59 1.876125,0 4.5535,-1.6072 6.962875,-4.2849 2.410875,-2.6773 2.008375,-7.3648 1.18425,-9.8029"
         style="fill:#171717;fill-opacity:1;fill-rule:evenodd;stroke:none"
         id="path11184"
         inkscape:connector-curvature="0" />
      <path
         d="m -87.942725,1892.28 c 0.781,2.3087 16.425,25.032 18.0985,27.4608 l 0,0.2244 c 0.0037,0 0.033,-0.046 0.07837,-0.1125 0.04425,0.066 0.07475,0.11 0.07725,0.1125 l 0,-0.2244 c 1.6745,-2.4288 17.3175,-25.1521 18.099875,-27.4608 0.823125,-2.4383 1.225,-7.1257 -1.1845,-9.803 -2.410125,-2.6777 -5.0885,-4.2849 -6.963,-4.2849 -0.848875,0 -2.271875,-0.091 -3.9305,0.59 -1.892125,1.182 -3.815875,3.579 -4.009625,8.4564 0,0 -0.3395,-8.3349 2.871875,-13.1811 0.200875,-0.3767 0.411,-0.7278 0.64525,-1.0159 0,0 -4.36575,0.3696 -5.606625,0.3586 -1.24125,0.013 -5.60625,-0.3586 -5.60625,-0.3586 0.232875,0.2881 0.442875,0.6392 0.6445,1.0159 3.210625,4.8462 2.8705,13.1811 2.8705,13.1811 -0.19175,-4.8774 -2.11675,-7.2744 -4.009625,-8.4564 -1.656875,-0.6817 -3.0805,-0.59 -3.928875,-0.59 -1.876125,0 -4.5535,1.6073 -6.962875,4.2849 -2.410875,2.6773 -2.008375,7.3647 -1.18425,9.803"
         style="fill:#171717;fill-opacity:1;fill-rule:evenodd;stroke:none"
         id="path11186"
         inkscape:connector-curvature="0" />
      <path
         d="m 2.52215,1892.28 c 0.781,2.3087 16.425,25.032 18.098625,27.4608 l 0,0.2244 c 0.0025,0 0.03288,-0.046 0.07825,-0.1125 0.04425,0.066 0.07475,0.11 0.07725,0.1125 l 0,-0.2244 c 1.6745,-2.4288 17.3175,-25.1521 18.099875,-27.4608 0.823125,-2.4383 1.225,-7.1257 -1.1845,-9.803 -2.410125,-2.6777 -5.0885,-4.2849 -6.963,-4.2849 -0.848875,0 -2.271875,-0.091 -3.9305,0.59 -1.892125,1.182 -3.815875,3.579 -4.009625,8.4564 0,0 -0.3395,-8.3349 2.871875,-13.1811 0.200875,-0.3767 0.411,-0.7278 0.64525,-1.0159 0,0 -4.36575,0.3696 -5.606625,0.3586 -1.24125,0.013 -5.60625,-0.3586 -5.60625,-0.3586 0.232875,0.2881 0.443,0.6392 0.6445,1.0159 3.210625,4.8462 2.8705,13.1811 2.8705,13.1811 -0.19175,-4.8774 -2.11675,-7.2744 -4.009625,-8.4564 -1.656875,-0.6817 -3.0805,-0.59 -3.928875,-0.59 -1.876125,0 -4.5535,1.6073 -6.962875,4.2849 -2.410875,2.6773 -2.008375,7.3647 -1.18425,9.803"
         style="fill:#171717;fill-opacity:1;fill-rule:evenodd;stroke:none"
         id="path11188"
         inkscape:connector-curvature="0" />
      <path
         d="m -5.18735,1752.3449 c -0.780875,-2.3089 -16.425,-25.0322 -18.0985,-27.4611 l 0,-0.2243 c -0.0025,0 -0.03288,0.046 -0.07825,0.1125 -0.04437,-0.066 -0.07475,-0.11 -0.07725,-0.1125 l 0,0.2243 c -1.674625,2.4289 -17.317625,25.1522 -18.1,27.4611 -0.823,2.4381 -1.224875,7.1254 1.184625,9.8028 2.410125,2.6777 5.0885,4.2849 6.962875,4.2849 0.849,0 2.272,0.091 3.930625,-0.5899 1.892125,-1.1821 3.81575,-3.5791 4.009625,-8.4565 0,0 0.339375,8.3349 -2.871875,13.1811 -0.200875,0.3767 -0.411,0.7278 -0.64525,1.0159 0,0 4.36575,-0.3696 5.606625,-0.3586 1.24125,-0.013 5.60625,0.3586 5.60625,0.3586 -0.232875,-0.2881 -0.443,-0.6392 -0.644625,-1.0159 -3.2105,-4.8462 -2.870375,-13.1811 -2.870375,-13.1811 0.191625,4.8774 2.11675,7.2744 4.009625,8.4565 1.65675,0.6816 3.0805,0.5899 3.92875,0.5899 1.87625,0 4.5535,-1.6073 6.963,-4.2849 2.410875,-2.6774 2.008375,-7.3647 1.184125,-9.8028"
         style="fill:#171717;fill-opacity:1;fill-rule:evenodd;stroke:none"
         id="path11190"
         inkscape:connector-curvature="0" />
      <path
         d="m -7.19785,1845.1043 c -0.780875,2.3088 -16.425,25.032 -18.0985,27.461 l 0,0.2243 c -0.0038,0 -0.03288,-0.046 -0.07825,-0.1125 -0.04425,0.066 -0.07475,0.11 -0.07725,0.1125 l 0,-0.2243 c -1.674625,-2.429 -17.3175,-25.1522 -18.099875,-27.461 -0.823125,-2.4381 -1.225,-7.1256 1.1845,-9.8028 2.410125,-2.6778 5.0885,-4.285 6.963,-4.285 0.848875,0 2.271875,-0.091 3.9305,0.59 1.892125,1.182 3.815875,3.5791 4.009625,8.4563 0,0 0.3395,-8.3348 -2.871875,-13.181 -0.200875,-0.3767 -0.411,-0.7278 -0.64525,-1.0158 0,0 4.36575,0.3695 5.606625,0.3585 1.24125,0.013 5.60625,-0.3585 5.60625,-0.3585 -0.232875,0.288 -0.443,0.6391 -0.6445,1.0158 -3.210625,4.8462 -2.8705,13.181 -2.8705,13.181 0.19175,-4.8772 2.11675,-7.2743 4.009625,-8.4563 1.656875,-0.6818 3.0805,-0.59 3.92875,-0.59 1.87625,0 4.5535,1.6072 6.963,4.285 2.410875,2.6772 2.008375,7.3647 1.184125,9.8028"
         style="fill:#171717;fill-opacity:1;fill-rule:evenodd;stroke:none"
         id="path11192"
         inkscape:connector-curvature="0" />
    </g>
  </g>
</svg>
