<?xml version="1.0" encoding="UTF-8" standalone="no"?>
<svg
   xmlns:dc="http://purl.org/dc/elements/1.1/"
   xmlns:cc="http://creativecommons.org/ns#"
   xmlns:rdf="http://www.w3.org/1999/02/22-rdf-syntax-ns#"
   xmlns:svg="http://www.w3.org/2000/svg"
   xmlns="http://www.w3.org/2000/svg"
   xmlns:sodipodi="http://sodipodi.sourceforge.net/DTD/sodipodi-0.dtd"
   xmlns:inkscape="http://www.inkscape.org/namespaces/inkscape"
   version="1.1"
   id="svg2"
   viewBox="0 0 213.32188 318.51639"
   height="89.892403mm"
   width="60.204174mm"
   inkscape:version="0.91 r13725"
   sodipodi:docname="layer22.svg">
  <sodipodi:namedview
     pagecolor="#ffffff"
     bordercolor="#666666"
     borderopacity="1"
     objecttolerance="10"
     gridtolerance="10"
     guidetolerance="10"
     inkscape:pageopacity="0"
     inkscape:pageshadow="2"
     inkscape:window-width="640"
     inkscape:window-height="480"
     id="namedview21"
     showgrid="false"
     inkscape:zoom="0.74093519"
     inkscape:cx="106.66094"
     inkscape:cy="159.25821"
     inkscape:window-x="0"
     inkscape:window-y="0"
     inkscape:window-maximized="0"
     inkscape:current-layer="svg2" />
  <defs
     id="defs4" />
  <metadata
     id="metadata7">
    <rdf:RDF>
      <cc:Work
         rdf:about="">
        <dc:format>image/svg+xml</dc:format>
        <dc:type
           rdf:resource="http://purl.org/dc/dcmitype/StillImage" />
        <dc:title />
      </cc:Work>
    </rdf:RDF>
  </metadata>
  <g
     transform="translate(-265.38631,-366.9229)"
     id="layer22">
    <g
       id="g28324"
       transform="translate(397.03066,-933.8618)">
      <path
         d="m -121.5226,1300.9197 193.078375,0 c 5.49275,0 9.98675,4.4939 9.98675,9.9868 l 0,298.2727 c 0,5.4929 -4.494,9.9869 -9.98675,9.9869 l -193.078375,0 c -5.49288,0 -9.98675,-4.494 -9.98675,-9.9869 l 0,-298.2727 c 0,-5.4929 4.49387,-9.9868 9.98675,-9.9868 z"
         style="fill:#ffffff;fill-opacity:1;fill-rule:evenodd;stroke:#1f1917;stroke-width:0.27000001;stroke-linecap:butt;stroke-linejoin:miter;stroke-miterlimit:10;stroke-dasharray:none;stroke-opacity:1"
         id="path11056"
         inkscape:connector-curvature="0" />
      <path
         d="m -112.00173,1320.7934 0,0 c 3.7715,0 6.85663,3.087 6.85663,6.8566 l 0,4.2133 c 0,0.1443 -0.006,0.2867 -0.0149,0.4288 l 0.0149,0 0,12.0132 0,0.995 0,0.9528 c 0,3.7697 -3.08513,6.8566 -6.85663,6.8566 l 0,0 c -3.7715,0 -6.85662,-3.0851 -6.85662,-6.8566 l 0,-1.9478 2.59438,0 0,1.2438 c 0,2.3439 1.91762,4.2622 4.26225,4.2622 l 0,0 c 2.34462,0 4.26225,-1.9208 4.26225,-4.2622 l 0,-0.2488 -0.0769,0 0,-8.0178 c -1.15975,0.8993 -2.6125,1.4375 -4.18537,1.4375 l 0,0 c -3.7715,0 -6.85663,-3.0852 -6.85663,-6.8567 l 0,-4.2133 c 0,-3.7714 3.08513,-6.8566 6.85663,-6.8566 z m 0,3.5422 0,0 c 2.34463,0 4.26225,1.9205 4.26225,4.2622 l 0,2.5615 c 0,2.3414 -1.91762,4.2623 -4.26225,4.2623 l 0,0 c -2.34462,0 -4.26225,-1.9184 -4.26225,-4.2623 l 0,-2.5615 c 0,-2.3442 1.91763,-4.2622 4.26225,-4.2622"
         style="fill:#b32621;fill-opacity:1;fill-rule:evenodd;stroke:none"
         id="path11058"
         inkscape:connector-curvature="0" />
      <path
         d="m -68.2971,1336.2465 c 0,0 -4.931625,18.8146 -17.90125,25.7548 0,0 15.5265,9.8636 18.083375,24.6593 0,0 4.9315,-18.2654 18.266375,-24.8406 0,0 -13.334875,-7.1243 -18.4485,-25.5735"
         style="fill:#b32621;fill-opacity:1;fill-rule:evenodd;stroke:none"
         id="path11060"
         inkscape:connector-curvature="0" />
      <path
         d="m -26.077225,1433.1705 c 0,0 -4.931625,18.8145 -17.901125,25.7549 0,0 15.526375,9.8635 18.08325,24.6592 0,0 4.9315,-18.2654 18.2665,-24.8408 0,0 -13.335,-7.1241 -18.448625,-25.5733"
         style="fill:#b32621;fill-opacity:1;fill-rule:evenodd;stroke:none"
         id="path11062"
         inkscape:connector-curvature="0" />
      <path
         d="m 20.16365,1335.2412 c 0,0 -4.931625,18.8147 -17.901125,25.7549 0,0 15.526375,9.8635 18.08325,24.6593 0,0 4.9315,-18.2654 18.266375,-24.8407 0,0 -13.334875,-7.1242 -18.4485,-25.5735"
         style="fill:#b32621;fill-opacity:1;fill-rule:evenodd;stroke:none"
         id="path11064"
         inkscape:connector-curvature="0" />
      <path
         d="m 20.16365,1402.5921 c 0,0 -4.931625,18.8145 -17.901125,25.7549 0,0 15.526375,9.8635 18.08325,24.6592 0,0 4.9315,-18.2653 18.266375,-24.8407 0,0 -13.334875,-7.1242 -18.4485,-25.5734"
         style="fill:#b32621;fill-opacity:1;fill-rule:evenodd;stroke:none"
         id="path11066"
         inkscape:connector-curvature="0" />
      <path
         d="m -69.30235,1402.5921 c 0,0 -4.931625,18.8145 -17.90125,25.7549 0,0 15.5265,9.8635 18.083375,24.6592 0,0 4.9315,-18.2653 18.266375,-24.8407 0,0 -13.334875,-7.1242 -18.4485,-25.5734"
         style="fill:#b32621;fill-opacity:1;fill-rule:evenodd;stroke:none"
         id="path11068"
         inkscape:connector-curvature="0" />
      <path
         d="m -68.2971,1468.9376 c 0,0 -4.931625,18.8146 -17.90125,25.7549 0,0 15.5265,9.8635 18.083375,24.6593 0,0 4.9315,-18.2653 18.266375,-24.8407 0,0 -13.334875,-7.1241 -18.4485,-25.5735"
         style="fill:#b32621;fill-opacity:1;fill-rule:evenodd;stroke:none"
         id="path11070"
         inkscape:connector-curvature="0" />
      <path
         d="m 20.16365,1467.9323 c 0,0 -4.931625,18.8147 -17.901125,25.7549 0,0 15.526375,9.8635 18.08325,24.6594 0,0 4.9315,-18.2654 18.266375,-24.8408 0,0 -13.334875,-7.1241 -18.4485,-25.5735"
         style="fill:#b32621;fill-opacity:1;fill-rule:evenodd;stroke:none"
         id="path11072"
         inkscape:connector-curvature="0" />
      <path
         d="m 20.16365,1535.2832 c 0,0 -4.931625,18.8146 -17.901125,25.7549 0,0 15.526375,9.8635 18.08325,24.6593 0,0 4.9315,-18.2654 18.266375,-24.8407 0,0 -13.334875,-7.1242 -18.4485,-25.5735"
         style="fill:#b32621;fill-opacity:1;fill-rule:evenodd;stroke:none"
         id="path11074"
         inkscape:connector-curvature="0" />
      <path
         d="m -69.30235,1535.2832 c 0,0 -4.931625,18.8146 -17.90125,25.7549 0,0 15.5265,9.8635 18.083375,24.6593 0,0 4.9315,-18.2654 18.266375,-24.8407 0,0 -13.334875,-7.1242 -18.4485,-25.5735"
         style="fill:#b32621;fill-opacity:1;fill-rule:evenodd;stroke:none"
         id="path11076"
         inkscape:connector-curvature="0" />
      <path
         d="m -109.9711,1354.3407 c 0,0 -2.8665,10.9364 -10.40525,14.9705 0,0 9.02512,5.7334 10.51125,14.3338 0,0 2.8665,-10.6173 10.617875,-14.4394 0,0 -7.751375,-4.1411 -10.723875,-14.8649"
         style="fill:#b32621;fill-opacity:1;fill-rule:evenodd;stroke:none"
         id="path11078"
         inkscape:connector-curvature="0" />
      <path
         d="m 63.934775,1533.2727 c 0,0 -2.8665,10.9365 -10.40525,14.9705 0,0 9.025125,5.7334 10.51125,14.3338 0,0 2.8665,-10.6172 10.617875,-14.4394 0,0 -7.751375,-4.141 -10.723875,-14.8649"
         style="fill:#b32621;fill-opacity:1;fill-rule:evenodd;stroke:none"
         id="path11080"
         inkscape:connector-curvature="0" />
      <path
         d="m 63.90215,1598.1188 0,0 c -3.771375,0 -6.856625,-3.0869 -6.856625,-6.8566 l 0,-4.2133 c 0,-0.1443 0.0063,-0.2867 0.01488,-0.4288 l -0.01488,0 0,-12.0132 0,-0.9951 0,-0.9527 c 0,-3.7697 3.08525,-6.8566 6.856625,-6.8566 l 0,0 c 3.7715,0 6.85675,3.0851 6.85675,6.8566 l 0,1.9478 -2.5945,0 0,-1.2438 c 0,-2.3439 -1.917625,-4.2622 -4.26225,-4.2622 l 0,0 c -2.3445,0 -4.262125,1.9208 -4.262125,4.2622 l 0,0.2488 0.07688,0 0,8.0178 c 1.159625,-0.8993 2.612375,-1.4375 4.18525,-1.4375 l 0,0 c 3.7715,0 6.85675,3.0851 6.85675,6.8567 l 0,4.2133 c 0,3.7714 -3.08525,6.8566 -6.85675,6.8566 z m 0,-3.5422 0,0 c -2.3445,0 -4.262125,-1.9205 -4.262125,-4.2622 l 0,-2.5616 c 0,-2.3413 1.917625,-4.2622 4.262125,-4.2622 l 0,0 c 2.344625,0 4.26225,1.9184 4.26225,4.2622 l 0,2.5616 c 0,2.3442 -1.917625,4.2622 -4.26225,4.2622"
         style="fill:#b32621;fill-opacity:1;fill-rule:evenodd;stroke:none"
         id="path11082"
         inkscape:connector-curvature="0" />
    </g>
  </g>
</svg>
