<?xml version="1.0" encoding="UTF-8" standalone="no"?>
<svg
   xmlns:dc="http://purl.org/dc/elements/1.1/"
   xmlns:cc="http://creativecommons.org/ns#"
   xmlns:rdf="http://www.w3.org/1999/02/22-rdf-syntax-ns#"
   xmlns:svg="http://www.w3.org/2000/svg"
   xmlns="http://www.w3.org/2000/svg"
   xmlns:sodipodi="http://sodipodi.sourceforge.net/DTD/sodipodi-0.dtd"
   xmlns:inkscape="http://www.inkscape.org/namespaces/inkscape"
   version="1.1"
   id="svg2"
   viewBox="0 0 213.32188 318.51639"
   height="89.892403mm"
   width="60.204174mm"
   inkscape:version="0.91 r13725"
   sodipodi:docname="layer23.svg">
  <sodipodi:namedview
     pagecolor="#ffffff"
     bordercolor="#666666"
     borderopacity="1"
     objecttolerance="10"
     gridtolerance="10"
     guidetolerance="10"
     inkscape:pageopacity="0"
     inkscape:pageshadow="2"
     inkscape:window-width="448"
     inkscape:window-height="428"
     id="namedview21"
     showgrid="false"
     inkscape:zoom="0.74093519"
     inkscape:cx="106.66094"
     inkscape:cy="159.25821"
     inkscape:window-x="0"
     inkscape:window-y="0"
     inkscape:window-maximized="0"
     inkscape:current-layer="svg2" />
  <defs
     id="defs4" />
  <metadata
     id="metadata7">
    <rdf:RDF>
      <cc:Work
         rdf:about="">
        <dc:format>image/svg+xml</dc:format>
        <dc:type
           rdf:resource="http://purl.org/dc/dcmitype/StillImage" />
        <dc:title />
      </cc:Work>
    </rdf:RDF>
  </metadata>
  <g
     transform="translate(-265.38631,-366.9229)"
     id="layer23">
    <g
       id="g28723"
       transform="translate(167.51791,-930.8702)">
      <path
         d="m 107.99015,1297.9281 193.07837,0 c 5.49288,0 9.98675,4.494 9.98675,9.9868 l 0,298.2727 c 0,5.4929 -4.49387,9.9869 -9.98675,9.9869 l -193.07837,0 c -5.49287,0 -9.98675,-4.494 -9.98675,-9.9869 l 0,-298.2727 c 0,-5.4928 4.49388,-9.9868 9.98675,-9.9868 z"
         style="fill:#ffffff;fill-opacity:1;fill-rule:evenodd;stroke:#1f1917;stroke-width:0.27000001;stroke-linecap:butt;stroke-linejoin:miter;stroke-miterlimit:10;stroke-dasharray:none;stroke-opacity:1"
         id="path11084"
         inkscape:connector-curvature="0" />
      <path
         d="m 117.51103,1317.8017 0,0 c 3.7715,0 6.85662,3.087 6.85662,6.8568 l 0,4.2132 c 0,0.1443 -0.006,0.2868 -0.0149,0.4288 l 0.0149,0 0,12.0132 0,0.995 0,0.9528 c 0,3.7697 -3.08512,6.8566 -6.85662,6.8566 l 0,0 c -3.7715,0 -6.85663,-3.0851 -6.85663,-6.8566 l 0,-1.9478 2.59437,0 0,1.2438 c 0,2.3439 1.91763,4.2622 4.26226,4.2622 l 0,0 c 2.34462,0 4.26225,-1.9209 4.26225,-4.2622 l 0,-0.2488 -0.0769,0 0,-8.0179 c -1.15975,0.8994 -2.6125,1.4377 -4.18537,1.4377 l 0,0 c -3.7715,0 -6.85663,-3.0853 -6.85663,-6.8568 l 0,-4.2132 c 0,-3.7715 3.08513,-6.8568 6.85663,-6.8568 z m 0,3.5423 0,0 c 2.34462,0 4.26225,1.9205 4.26225,4.2622 l 0,2.5615 c 0,2.3414 -1.91763,4.2623 -4.26225,4.2623 l 0,0 c -2.34463,0 -4.26226,-1.9184 -4.26226,-4.2623 l 0,-2.5615 c 0,-2.3442 1.91763,-4.2622 4.26226,-4.2622"
         style="fill:#b32621;fill-opacity:1;fill-rule:evenodd;stroke:none"
         id="path11086"
         inkscape:connector-curvature="0" />
      <path
         d="m 293.41502,1595.1272 0,0 c -3.7715,0 -6.85675,-3.087 -6.85675,-6.8566 l 0,-4.2134 c 0,-0.1442 0.006,-0.2866 0.0149,-0.4287 l -0.0149,0 0,-12.0133 0,-0.995 0,-0.9527 c 0,-3.7698 3.08525,-6.8567 6.85675,-6.8567 l 0,0 c 3.77138,0 6.85663,3.0852 6.85663,6.8567 l 0,1.9477 -2.5945,0 0,-1.2437 c 0,-2.3439 -1.91763,-4.2622 -4.26213,-4.2622 l 0,0 c -2.34462,0 -4.26225,1.9208 -4.26225,4.2622 l 0,0.2487 0.0769,0 0,8.0179 c 1.15962,-0.8994 2.6125,-1.4375 4.18537,-1.4375 l 0,0 c 3.77138,0 6.85663,3.0851 6.85663,6.8566 l 0,4.2134 c 0,3.7715 -3.08525,6.8566 -6.85663,6.8566 z m 0,-3.5422 0,0 c -2.34462,0 -4.26225,-1.9205 -4.26225,-4.2623 l 0,-2.5615 c 0,-2.3414 1.91763,-4.2622 4.26225,-4.2622 l 0,0 c 2.3445,0 4.26213,1.9183 4.26213,4.2622 l 0,2.5615 c 0,2.3443 -1.91763,4.2623 -4.26213,4.2623"
         style="fill:#b32621;fill-opacity:1;fill-rule:evenodd;stroke:none"
         id="path11088"
         inkscape:connector-curvature="0" />
      <path
         d="m 128.4659,1357.0378 c -1.40637,-1.5626 -2.969,-2.4997 -4.06238,-2.4997 -1.06274,0 -3.66,-0.2573 -5.85537,4.2331 -2.18625,-4.4061 -4.75825,-4.1552 -5.81463,-4.1552 -1.09375,0 -2.65637,0.9376 -4.06275,2.5002 -1.40587,1.5623 -1.17175,4.2966 -0.69087,5.7195 0.48112,1.4228 10.525,16.0771 10.525,16.0771 0,0 10.17112,-14.7327 10.65187,-16.1553 0.48088,-1.4227 0.71538,-4.157 -0.69087,-5.7197"
         style="fill:#b32621;fill-opacity:1;fill-rule:evenodd;stroke:none"
         id="path11090"
         inkscape:connector-curvature="0" />
      <path
         d="m 283.5819,1558.3576 c 1.40637,1.5626 2.969,2.4998 4.06238,2.4998 1.06274,0 3.66,0.2572 5.85537,-4.2332 2.18625,4.4062 4.75825,4.1553 5.81463,4.1553 1.09374,0 2.65637,-0.9377 4.06275,-2.5002 1.40587,-1.5622 1.17175,-4.2966 0.69087,-5.7196 -0.48112,-1.4226 -10.525,-16.0771 -10.525,-16.0771 0,0 -10.17112,14.7327 -10.65187,16.1554 -0.48088,1.4226 -0.71538,4.157 0.69087,5.7196"
         style="fill:#b32621;fill-opacity:1;fill-rule:evenodd;stroke:none"
         id="path11092"
         inkscape:connector-curvature="0" />
      <path
         d="m 180.51952,1339.1987 c -2.67237,-2.9692 -5.64162,-4.7501 -7.7195,-4.7501 -2.01887,0 -6.95437,-0.4886 -11.12587,8.0436 -4.15425,-8.3721 -9.0415,-7.8955 -11.04875,-7.8955 -2.07825,0 -5.0475,1.7815 -7.71987,4.7509 -2.67163,2.9685 -2.22663,8.1641 -1.31275,10.868 0.91412,2.7031 19.99912,30.549 19.99912,30.549 0,0 19.32662,-27.9946 20.24038,-30.6979 0.91349,-2.7031 1.35925,-7.8987 -1.31276,-10.868"
         style="fill:#b32621;fill-opacity:1;fill-rule:evenodd;stroke:none"
         id="path11094"
         inkscape:connector-curvature="0" />
      <path
         d="m 268.73577,1339.1987 c -2.67225,-2.9692 -5.64162,-4.7501 -7.71937,-4.7501 -2.019,0 -6.9545,-0.4886 -11.126,8.0436 -4.15413,-8.3721 -9.0415,-7.8955 -11.04875,-7.8955 -2.07813,0 -5.04738,1.7815 -7.71975,4.7509 -2.67175,2.9685 -2.22662,8.1641 -1.31288,10.868 0.91425,2.7031 19.99913,30.549 19.99913,30.549 0,0 19.32662,-27.9946 20.2405,-30.6979 0.9135,-2.7031 1.35925,-7.8987 -1.31287,-10.868"
         style="fill:#b32621;fill-opacity:1;fill-rule:evenodd;stroke:none"
         id="path11096"
         inkscape:connector-curvature="0" />
      <path
         d="m 179.26302,1407.6756 c -2.67225,-2.9692 -5.64162,-4.7501 -7.71937,-4.7501 -2.019,0 -6.9545,-0.4886 -11.126,8.0436 -4.15413,-8.3721 -9.0415,-7.8955 -11.04875,-7.8955 -2.07813,0 -5.0475,1.7815 -7.71975,4.7509 -2.67175,2.9685 -2.22663,8.1641 -1.31288,10.868 0.91426,2.7032 19.99913,30.549 19.99913,30.549 0,0 19.32663,-27.9947 20.2405,-30.6979 0.91338,-2.7031 1.35913,-7.8986 -1.31287,-10.868"
         style="fill:#b32621;fill-opacity:1;fill-rule:evenodd;stroke:none"
         id="path11098"
         inkscape:connector-curvature="0" />
      <path
         d="m 268.73577,1407.6756 c -2.67225,-2.9692 -5.64162,-4.7501 -7.71937,-4.7501 -2.019,0 -6.9545,-0.4886 -11.126,8.0436 -4.15413,-8.3721 -9.0415,-7.8955 -11.04875,-7.8955 -2.07813,0 -5.04738,1.7815 -7.71975,4.7509 -2.67175,2.9685 -2.22662,8.1641 -1.31288,10.868 0.91425,2.7032 19.99913,30.549 19.99913,30.549 0,0 19.32662,-27.9947 20.2405,-30.6979 0.9135,-2.7031 1.35925,-7.8986 -1.31287,-10.868"
         style="fill:#b32621;fill-opacity:1;fill-rule:evenodd;stroke:none"
         id="path11100"
         inkscape:connector-curvature="0" />
      <path
         d="m 222.66577,1438.2493 c -2.67237,-2.9692 -5.64162,-4.7501 -7.71949,-4.7501 -2.01901,0 -6.95438,-0.4886 -11.12601,8.0436 -4.15412,-8.3721 -9.04137,-7.8955 -11.04875,-7.8955 -2.07812,0 -5.04737,1.7817 -7.71974,4.7509 -2.67163,2.9686 -2.22663,8.1641 -1.31275,10.868 0.91412,2.7033 19.99912,30.549 19.99912,30.549 0,0 19.32662,-27.9946 20.24037,-30.6977 0.9135,-2.7033 1.35926,-7.8988 -1.31275,-10.8682"
         style="fill:#b32621;fill-opacity:1;fill-rule:evenodd;stroke:none"
         id="path11102"
         inkscape:connector-curvature="0" />
      <path
         d="m 229.86615,1576.5749 c 2.67237,2.9692 5.64163,4.7501 7.71938,4.7501 2.019,0 6.9545,0.4886 11.12599,-8.0437 4.15425,8.3722 9.04151,7.8955 11.04876,7.8955 2.07812,0 5.0475,-1.7816 7.71974,-4.7508 2.67175,-2.9687 2.22663,-8.1642 1.31288,-10.868 -0.91425,-2.7033 -19.99913,-30.549 -19.99913,-30.549 0,0 -19.32662,27.9946 -20.2405,30.6977 -0.91337,2.7033 -1.35912,7.8988 1.31288,10.8682"
         style="fill:#b32621;fill-opacity:1;fill-rule:evenodd;stroke:none"
         id="path11104"
         inkscape:connector-curvature="0" />
      <path
         d="m 141.64977,1576.5749 c 2.67238,2.9692 5.64163,4.7501 7.7195,4.7501 2.019,0 6.95438,0.4886 11.126,-8.0437 4.15413,8.3722 9.04138,7.8955 11.04875,7.8955 2.07813,0 5.04738,-1.7816 7.71975,-4.7508 2.67163,-2.9687 2.22663,-8.1642 1.31275,-10.868 -0.91412,-2.7033 -19.99912,-30.549 -19.99912,-30.549 0,0 -19.32663,27.9946 -20.24038,30.6977 -0.9135,2.7033 -1.35925,7.8988 1.31275,10.8682"
         style="fill:#b32621;fill-opacity:1;fill-rule:evenodd;stroke:none"
         id="path11106"
         inkscape:connector-curvature="0" />
      <path
         d="m 231.12252,1508.0979 c 2.67238,2.9693 5.64175,4.7502 7.7195,4.7502 2.019,0 6.95438,0.4886 11.126,-8.0437 4.15413,8.3721 9.04138,7.8956 11.04875,7.8956 2.07813,0 5.04738,-1.7816 7.71975,-4.7509 2.67163,-2.9686 2.22663,-8.1641 1.31275,-10.868 -0.91412,-2.7032 -19.99912,-30.549 -19.99912,-30.549 0,0 -19.32663,27.9946 -20.24038,30.6978 -0.9135,2.7032 -1.35925,7.8987 1.31275,10.868"
         style="fill:#b32621;fill-opacity:1;fill-rule:evenodd;stroke:none"
         id="path11108"
         inkscape:connector-curvature="0" />
      <path
         d="m 141.64977,1508.0979 c 2.67238,2.9693 5.64163,4.7502 7.7195,4.7502 2.019,0 6.95438,0.4886 11.126,-8.0437 4.15413,8.3721 9.04138,7.8956 11.04875,7.8956 2.07813,0 5.04738,-1.7816 7.71975,-4.7509 2.67163,-2.9686 2.22663,-8.1641 1.31275,-10.868 -0.91412,-2.7032 -19.99912,-30.549 -19.99912,-30.549 0,0 -19.32663,27.9946 -20.24038,30.6978 -0.9135,2.7032 -1.35925,7.8987 1.31275,10.868"
         style="fill:#b32621;fill-opacity:1;fill-rule:evenodd;stroke:none"
         id="path11110"
         inkscape:connector-curvature="0" />
    </g>
  </g>
</svg>
