<?xml version="1.0" encoding="UTF-8" standalone="no"?>
<svg
   xmlns:dc="http://purl.org/dc/elements/1.1/"
   xmlns:cc="http://creativecommons.org/ns#"
   xmlns:rdf="http://www.w3.org/1999/02/22-rdf-syntax-ns#"
   xmlns:svg="http://www.w3.org/2000/svg"
   xmlns="http://www.w3.org/2000/svg"
   xmlns:sodipodi="http://sodipodi.sourceforge.net/DTD/sodipodi-0.dtd"
   xmlns:inkscape="http://www.inkscape.org/namespaces/inkscape"
   version="1.1"
   id="svg2"
   viewBox="0 0 213.32188 318.51639"
   height="89.892403mm"
   width="60.204174mm"
   inkscape:version="0.91 r13725"
   sodipodi:docname="layer25.svg">
  <sodipodi:namedview
     pagecolor="#ffffff"
     bordercolor="#666666"
     borderopacity="1"
     objecttolerance="10"
     gridtolerance="10"
     guidetolerance="10"
     inkscape:pageopacity="0"
     inkscape:pageshadow="2"
     inkscape:window-width="448"
     inkscape:window-height="428"
     id="namedview21"
     showgrid="false"
     inkscape:zoom="0.74093519"
     inkscape:cx="106.66094"
     inkscape:cy="159.25821"
     inkscape:window-x="0"
     inkscape:window-y="0"
     inkscape:window-maximized="0"
     inkscape:current-layer="svg2" />
  <defs
     id="defs4" />
  <metadata
     id="metadata7">
    <rdf:RDF>
      <cc:Work
         rdf:about="">
        <dc:format>image/svg+xml</dc:format>
        <dc:type
           rdf:resource="http://purl.org/dc/dcmitype/StillImage" />
        <dc:title />
      </cc:Work>
    </rdf:RDF>
  </metadata>
  <g
     transform="translate(-265.3863,-366.9229)"
     id="layer25">
    <g
       id="g28691"
       transform="translate(-291.5076,-929.8727)">
      <path
         d="m 567.01565,1296.9306 193.07838,0 c 5.49287,0 9.98675,4.494 9.98675,9.9869 l 0,298.2727 c 0,5.4928 -4.49388,9.9868 -9.98675,9.9868 l -193.07838,0 c -5.49275,0 -9.98675,-4.494 -9.98675,-9.9868 l 0,-298.2727 c 0,-5.4929 4.494,-9.9869 9.98675,-9.9869 z"
         style="fill:#ffffff;fill-opacity:1;fill-rule:evenodd;stroke:#1f1917;stroke-width:0.27000001;stroke-linecap:butt;stroke-linejoin:miter;stroke-miterlimit:10;stroke-dasharray:none;stroke-opacity:1"
         id="path11140"
         inkscape:connector-curvature="0" />
      <path
         d="m 576.53652,1316.8043 0,0 c 3.7715,0 6.85663,3.0869 6.85663,6.8567 l 0,4.2133 c 0,0.1443 -0.006,0.2867 -0.0149,0.4288 l 0.0149,0 0,12.0132 0,0.9949 0,0.9529 c 0,3.7696 -3.08513,6.8566 -6.85663,6.8566 l 0,0 c -3.7715,0 -6.85662,-3.0851 -6.85662,-6.8566 l 0,-1.9478 2.59437,0 0,1.2437 c 0,2.3438 1.91763,4.2622 4.26225,4.2622 l 0,0 c 2.34463,0 4.26225,-1.9207 4.26225,-4.2622 l 0,-0.2488 -0.0769,0 0,-8.0177 c -1.15975,0.8992 -2.6125,1.4375 -4.18538,1.4375 l 0,0 c -3.7715,0 -6.85662,-3.0852 -6.85662,-6.8567 l 0,-4.2133 c 0,-3.7715 3.08512,-6.8567 6.85662,-6.8567 z m 0,3.5423 0,0 c 2.34463,0 4.26225,1.9205 4.26225,4.2622 l 0,2.5614 c 0,2.3415 -1.91762,4.2623 -4.26225,4.2623 l 0,0 c -2.34462,0 -4.26225,-1.9183 -4.26225,-4.2623 l 0,-2.5614 c 0,-2.3442 1.91763,-4.2622 4.26225,-4.2622"
         style="fill:#1f1917;fill-opacity:1;fill-rule:evenodd;stroke:none"
         id="path11142"
         inkscape:connector-curvature="0" />
      <path
         d="m 752.44052,1594.1297 0,0 c -3.7715,0 -6.85675,-3.0869 -6.85675,-6.8566 l 0,-4.2134 c 0,-0.1441 0.006,-0.2866 0.0149,-0.4287 l -0.0149,0 0,-12.0132 0,-0.995 0,-0.9528 c 0,-3.7697 3.08525,-6.8567 6.85675,-6.8567 l 0,0 c 3.77151,0 6.85663,3.0853 6.85663,6.8567 l 0,1.9478 -2.59438,0 0,-1.2437 c 0,-2.3439 -1.91775,-4.2623 -4.26225,-4.2623 l 0,0 c -2.34462,0 -4.26225,1.9209 -4.26225,4.2623 l 0,0.2487 0.0769,0 0,8.0178 c 1.15975,-0.8993 2.6125,-1.4375 4.18537,-1.4375 l 0,0 c 3.77151,0 6.85663,3.0851 6.85663,6.8566 l 0,4.2134 c 0,3.7715 -3.08512,6.8566 -6.85663,6.8566 z m 0,-3.5422 0,0 c -2.34462,0 -4.26225,-1.9204 -4.26225,-4.2623 l 0,-2.5614 c 0,-2.3415 1.91763,-4.2622 4.26225,-4.2622 l 0,0 c 2.3445,0 4.26225,1.9184 4.26225,4.2622 l 0,2.5614 c 0,2.3443 -1.91775,4.2623 -4.26225,4.2623"
         style="fill:#1f1917;fill-opacity:1;fill-rule:evenodd;stroke:none"
         id="path11144"
         inkscape:connector-curvature="0" />
      <path
         d="m 587.00627,1366.3107 c -0.45175,-1.3351 -9.49849,-14.4758 -10.46625,-15.8803 l 0,-0.1298 c -10e-4,0 -0.0191,0.026 -0.0453,0.065 -0.0255,-0.039 -0.0433,-0.064 -0.0448,-0.065 l 0,0.1298 c -0.96837,1.4045 -10.01437,14.5452 -10.46687,15.8803 -0.47588,1.4099 -0.70825,4.1205 0.68487,5.6689 1.394,1.5485 2.94275,2.4779 4.02663,2.4779 0.49112,0 1.31387,0.054 2.27312,-0.3413 1.09413,-0.6835 2.20675,-2.0696 2.31863,-4.8901 0,0 0.19637,4.82 -1.66063,7.6224 -0.11625,0.218 -0.23787,0.421 -0.37312,0.5875 0,0 2.5245,-0.2136 3.24213,-0.2073 0.71787,-0.012 3.24212,0.2073 3.24212,0.2073 -0.13475,-0.1665 -0.25625,-0.3695 -0.37275,-0.5875 -1.85675,-2.8024 -1.66012,-7.6224 -1.66012,-7.6224 0.111,2.8205 1.22425,4.2066 2.31875,4.8901 0.95812,0.3944 1.78162,0.3413 2.272,0.3413 1.085,0 2.63337,-0.9294 4.02662,-2.4779 1.39425,-1.5484 1.1615,-4.259 0.68488,-5.6689"
         style="fill:#171717;fill-opacity:1;fill-rule:evenodd;stroke:none"
         id="path11146"
         inkscape:connector-curvature="0" />
      <path
         d="m 680.50602,1461.7497 c -0.781,-2.3088 -16.425,-25.0321 -18.09849,-27.461 l 0,-0.2244 c -0.004,0 -0.033,0.046 -0.0782,0.1125 -0.0444,-0.066 -0.0749,-0.11 -0.0773,-0.1125 l 0,0.2244 c -1.67462,2.4289 -17.31762,25.1522 -18.09999,27.461 -0.82313,2.4381 -1.22488,7.1255 1.18449,9.8029 2.41025,2.6776 5.08863,4.2849 6.963,4.2849 0.84901,0 2.272,0.091 3.93063,-0.5899 1.89212,-1.1821 3.81575,-3.5791 4.00962,-8.4565 0,0 0.33938,8.3349 -2.87187,13.1811 -0.20088,0.3767 -0.411,0.7278 -0.64525,1.0159 0,0 4.36575,-0.3696 5.60663,-0.3586 1.24112,-0.013 5.60612,0.3586 5.60612,0.3586 -0.23275,-0.2881 -0.44287,-0.6392 -0.6445,-1.0159 -3.21062,-4.8462 -2.87037,-13.1811 -2.87037,-13.1811 0.19162,4.8774 2.11675,7.2744 4.0095,8.4565 1.65687,0.6817 3.08062,0.5899 3.92887,0.5899 1.87613,0 4.5535,-1.6073 6.963,-4.2849 2.41088,-2.6774 2.00825,-7.3648 1.18413,-9.8029"
         style="fill:#171717;fill-opacity:1;fill-rule:evenodd;stroke:none"
         id="path11148"
         inkscape:connector-curvature="0" />
      <path
         d="m 741.88715,1544.031 c 0.45175,1.3351 9.4985,14.4757 10.46612,15.8803 l 0,0.1297 c 0.001,0 0.0191,-0.026 0.0454,-0.065 0.0255,0.039 0.0433,0.064 0.0446,0.065 l 0,-0.1297 c 0.96838,-1.4046 10.01451,-14.5452 10.467,-15.8803 0.47588,-1.4099 0.70825,-4.1205 -0.685,-5.669 -1.39387,-1.5484 -2.94262,-2.4778 -4.02662,-2.4778 -0.491,0 -1.31375,-0.054 -2.273,0.3412 -1.09413,0.6835 -2.20675,2.0696 -2.31875,4.8901 0,0 -0.19625,-4.8199 1.66075,-7.6224 0.11625,-0.2179 0.23775,-0.4209 0.37312,-0.5874 0,0 -2.52462,0.2137 -3.24212,0.2073 -0.71787,0.013 -3.24213,-0.2073 -3.24213,-0.2073 0.13463,0.1665 0.25625,0.3695 0.37275,0.5874 1.85675,2.8025 1.66,7.6224 1.66,7.6224 -0.11087,-2.8205 -1.22412,-4.2066 -2.31862,-4.8901 -0.95813,-0.3944 -1.78163,-0.3412 -2.272,-0.3412 -1.085,0 -2.63338,0.9294 -4.02663,2.4778 -1.39425,1.5485 -1.1615,4.2591 -0.68487,5.669"
         style="fill:#171717;fill-opacity:1;fill-rule:evenodd;stroke:none"
         id="path11150"
         inkscape:connector-curvature="0" />
      <path
         d="m 636.9489,1424.056 c -0.781,-2.3088 -16.425,-25.032 -18.0985,-27.461 l 0,-0.2243 c -0.004,0 -0.033,0.046 -0.0784,0.1125 -0.0442,-0.066 -0.0747,-0.11 -0.0772,-0.1125 l 0,0.2243 c -1.6745,2.429 -17.3175,25.1522 -18.09988,27.461 -0.82312,2.4381 -1.22488,7.1256 1.1845,9.8028 2.41012,2.6778 5.0885,4.285 6.963,4.285 0.849,0 2.27187,0.091 3.9305,-0.59 1.89212,-1.182 3.81588,-3.5791 4.00963,-8.4565 0,0 0.3395,8.335 -2.87176,13.1812 -0.20099,0.3766 -0.41112,0.7278 -0.64525,1.0158 0,0 4.36563,-0.3695 5.6065,-0.3586 1.24126,-0.013 5.60626,0.3586 5.60626,0.3586 -0.23276,-0.288 -0.44288,-0.6392 -0.64451,-1.0158 -3.21062,-4.8462 -2.87049,-13.1812 -2.87049,-13.1812 0.19175,4.8774 2.11675,7.2745 4.00962,8.4565 1.65688,0.6818 3.08063,0.59 3.92888,0.59 1.87612,0 4.5535,-1.6072 6.96287,-4.285 2.41088,-2.6772 2.00838,-7.3647 1.18425,-9.8028"
         style="fill:#171717;fill-opacity:1;fill-rule:evenodd;stroke:none"
         id="path11152"
         inkscape:connector-curvature="0" />
      <path
         d="m 727.41377,1425.7312 c -0.781,-2.3087 -16.42499,-25.032 -18.0985,-27.461 l 0,-0.2242 c -0.004,0 -0.033,0.046 -0.0784,0.1125 -0.0443,-0.066 -0.0747,-0.1088 -0.0772,-0.1125 l 0,0.2242 c -1.6745,2.429 -17.3175,25.1523 -18.09987,27.461 -0.82313,2.4381 -1.22488,7.1256 1.1845,9.803 2.41012,2.6776 5.08862,4.2849 6.96299,4.2849 0.849,0 2.272,0.091 3.93063,-0.59 1.89213,-1.182 3.81575,-3.5791 4.0095,-8.4564 0,0 0.3395,8.3349 -2.87175,13.181 -0.201,0.3768 -0.41113,0.7279 -0.64525,1.0159 0,0 4.36562,-0.3695 5.6065,-0.3585 1.24125,-0.013 5.60625,0.3585 5.60625,0.3585 -0.23275,-0.288 -0.44288,-0.6391 -0.6445,-1.0159 -3.21063,-4.8461 -2.8705,-13.181 -2.8705,-13.181 0.19175,4.8773 2.11687,7.2744 4.00962,8.4564 1.65688,0.6817 3.08063,0.59 3.92888,0.59 1.87613,0 4.5535,-1.6073 6.96287,-4.2849 2.41088,-2.6774 2.00838,-7.3649 1.18425,-9.803"
         style="fill:#171717;fill-opacity:1;fill-rule:evenodd;stroke:none"
         id="path11154"
         inkscape:connector-curvature="0" />
      <path
         d="m 726.57615,1362.0707 c -0.781,-2.3087 -16.425,-25.032 -18.0985,-27.4609 l 0,-0.2243 c -0.004,0 -0.033,0.046 -0.0784,0.1125 -0.0442,-0.066 -0.0747,-0.11 -0.0772,-0.1125 l 0,0.2243 c -1.6745,2.4289 -17.3175,25.1522 -18.09988,27.4609 -0.82313,2.4383 -1.225,7.1256 1.1845,9.803 2.41012,2.6776 5.0885,4.2849 6.963,4.2849 0.84887,0 2.27187,0.091 3.9305,-0.59 1.89212,-1.182 3.81587,-3.579 4.00962,-8.4564 0,0 0.3395,8.3349 -2.87187,13.1811 -0.20088,0.3767 -0.411,0.7278 -0.64513,1.0159 0,0 4.36563,-0.3696 5.6065,-0.3586 1.24126,-0.012 5.60625,0.3586 5.60625,0.3586 -0.23275,-0.2881 -0.44287,-0.6392 -0.6445,-1.0159 -3.21062,-4.8462 -2.8705,-13.1811 -2.8705,-13.1811 0.19176,4.8774 2.11676,7.2744 4.00963,8.4564 1.65688,0.6817 3.08063,0.59 3.92888,0.59 1.87612,0 4.5535,-1.6073 6.96287,-4.2849 2.41088,-2.6774 2.00838,-7.3647 1.18425,-9.803"
         style="fill:#171717;fill-opacity:1;fill-rule:evenodd;stroke:none"
         id="path11156"
         inkscape:connector-curvature="0" />
      <path
         d="m 637.78652,1362.0707 c -0.781,-2.3087 -16.42499,-25.032 -18.0985,-27.4609 l 0,-0.2243 c -0.004,0 -0.033,0.046 -0.0784,0.1125 -0.0443,-0.066 -0.0747,-0.11 -0.0772,-0.1125 l 0,0.2243 c -1.6745,2.4289 -17.3175,25.1522 -18.09988,27.4609 -0.82312,2.4383 -1.22487,7.1256 1.1845,9.803 2.41013,2.6776 5.08863,4.2849 6.963,4.2849 0.849,0 2.272,0.091 3.93063,-0.59 1.89212,-1.182 3.81575,-3.579 4.0095,-8.4564 0,0 0.3395,8.3349 -2.87175,13.1811 -0.201,0.3767 -0.41113,0.7278 -0.64525,1.0159 0,0 4.36562,-0.3696 5.6065,-0.3586 1.24125,-0.012 5.60625,0.3586 5.60625,0.3586 -0.23275,-0.2881 -0.44288,-0.6392 -0.6445,-1.0159 -3.21063,-4.8462 -2.8705,-13.1811 -2.8705,-13.1811 0.19175,4.8774 2.11687,7.2744 4.00962,8.4564 1.65688,0.6817 3.08063,0.59 3.92888,0.59 1.87613,0 4.5535,-1.6073 6.96287,-4.2849 2.41088,-2.6774 2.00838,-7.3647 1.18425,-9.803"
         style="fill:#171717;fill-opacity:1;fill-rule:evenodd;stroke:none"
         id="path11158"
         inkscape:connector-curvature="0" />
      <path
         d="m 691.06053,1488.2721 c 0.78087,2.3088 16.425,25.032 18.09849,27.4609 l 0,0.2244 c 0.002,0 0.0329,-0.046 0.0782,-0.1125 0.0443,0.066 0.0747,0.11 0.0773,0.1125 l 0,-0.2244 c 1.67463,-2.4289 17.31763,-25.1522 18.09988,-27.4609 0.82312,-2.4382 1.225,-7.1256 -1.1845,-9.803 -2.41013,-2.6776 -5.0885,-4.2849 -6.96287,-4.2849 -0.84901,0 -2.272,-0.091 -3.93063,0.59 -1.89212,1.182 -3.81575,3.579 -4.00963,8.4564 0,0 -0.3395,-8.3349 2.87188,-13.1811 0.20088,-0.3766 0.411,-0.7278 0.64525,-1.0159 0,0 -4.36575,0.3696 -5.60663,0.3586 -1.24125,0.013 -5.60625,-0.3586 -5.60625,-0.3586 0.23288,0.2881 0.44301,0.6393 0.64463,1.0159 3.2105,4.8462 2.87037,13.1811 2.87037,13.1811 -0.19175,-4.8774 -2.11675,-7.2744 -4.00962,-8.4564 -1.65688,-0.6817 -3.0805,-0.59 -3.92875,-0.59 -1.87625,0 -4.5535,1.6073 -6.963,4.2849 -2.41088,2.6774 -2.00838,7.3648 -1.18413,9.803"
         style="fill:#171717;fill-opacity:1;fill-rule:evenodd;stroke:none"
         id="path11160"
         inkscape:connector-curvature="0" />
      <path
         d="m 600.59565,1486.5967 c 0.78087,2.3089 16.425,25.0322 18.0985,27.461 l 0,0.2244 c 0.002,0 0.0329,-0.046 0.0782,-0.1125 0.0443,0.066 0.0748,0.11 0.0773,0.1125 l 0,-0.2244 c 1.67462,-2.4288 17.3175,-25.1521 18.09987,-27.461 0.82313,-2.4381 1.225,-7.1255 -1.1845,-9.8028 -2.41012,-2.6777 -5.08849,-4.2849 -6.96287,-4.2849 -0.849,0 -2.272,-0.091 -3.93062,0.5898 -1.89213,1.1822 -3.81575,3.5792 -4.00963,8.4565 0,0 -0.3395,-8.3348 2.87187,-13.1811 0.20088,-0.3766 0.411,-0.7277 0.64525,-1.0158 0,0 -4.36574,0.3696 -5.60662,0.3586 -1.24125,0.012 -5.60625,-0.3586 -5.60625,-0.3586 0.23287,0.2881 0.443,0.6392 0.64462,1.0158 3.21051,4.8463 2.87038,13.1811 2.87038,13.1811 -0.19175,-4.8773 -2.11675,-7.2743 -4.00963,-8.4565 -1.65687,-0.6816 -3.0805,-0.5898 -3.92875,-0.5898 -1.87625,0 -4.5535,1.6072 -6.963,4.2849 -2.41087,2.6773 -2.00837,7.3647 -1.18412,9.8028"
         style="fill:#171717;fill-opacity:1;fill-rule:evenodd;stroke:none"
         id="path11162"
         inkscape:connector-curvature="0" />
      <path
         d="m 600.59565,1550.2572 c 0.78087,2.3089 16.425,25.0321 18.0985,27.461 l 0,0.2243 c 0.002,0 0.0329,-0.046 0.0782,-0.1125 0.0443,0.066 0.0748,0.11 0.0773,0.1125 l 0,-0.2243 c 1.67462,-2.4288 17.3175,-25.1521 18.09987,-27.461 0.82313,-2.4381 1.225,-7.1256 -1.1845,-9.8028 -2.41012,-2.6778 -5.08849,-4.285 -6.96287,-4.285 -0.849,0 -2.272,-0.091 -3.93062,0.59 -1.89213,1.1821 -3.81575,3.5791 -4.00963,8.4565 0,0 -0.3395,-8.335 2.87187,-13.1812 0.20088,-0.3766 0.411,-0.7277 0.64525,-1.0158 0,0 -4.36574,0.3696 -5.60662,0.3586 -1.24125,0.013 -5.60625,-0.3586 -5.60625,-0.3586 0.23287,0.2881 0.443,0.6392 0.64462,1.0158 3.21051,4.8462 2.87038,13.1812 2.87038,13.1812 -0.19175,-4.8774 -2.11675,-7.2744 -4.00963,-8.4565 -1.65687,-0.6818 -3.0805,-0.59 -3.92875,-0.59 -1.87625,0 -4.5535,1.6072 -6.963,4.285 -2.41087,2.6772 -2.00837,7.3647 -1.18412,9.8028"
         style="fill:#171717;fill-opacity:1;fill-rule:evenodd;stroke:none"
         id="path11164"
         inkscape:connector-curvature="0" />
      <path
         d="m 691.06053,1550.2572 c 0.78087,2.3089 16.425,25.0321 18.09849,27.461 l 0,0.2243 c 0.002,0 0.0329,-0.046 0.0782,-0.1125 0.0443,0.066 0.0747,0.11 0.0773,0.1125 l 0,-0.2243 c 1.67463,-2.4288 17.31763,-25.1521 18.09988,-27.461 0.82312,-2.4381 1.225,-7.1256 -1.1845,-9.8028 -2.41013,-2.6778 -5.0885,-4.285 -6.96287,-4.285 -0.84901,0 -2.272,-0.091 -3.93063,0.59 -1.89212,1.1821 -3.81575,3.5791 -4.00963,8.4565 0,0 -0.3395,-8.335 2.87188,-13.1812 0.20088,-0.3766 0.411,-0.7277 0.64525,-1.0158 0,0 -4.36575,0.3696 -5.60663,0.3586 -1.24125,0.013 -5.60625,-0.3586 -5.60625,-0.3586 0.23288,0.2881 0.44301,0.6392 0.64463,1.0158 3.2105,4.8462 2.87037,13.1812 2.87037,13.1812 -0.19175,-4.8774 -2.11675,-7.2744 -4.00962,-8.4565 -1.65688,-0.6818 -3.0805,-0.59 -3.92875,-0.59 -1.87625,0 -4.5535,1.6072 -6.963,4.285 -2.41088,2.6772 -2.00838,7.3647 -1.18413,9.8028"
         style="fill:#171717;fill-opacity:1;fill-rule:evenodd;stroke:none"
         id="path11166"
         inkscape:connector-curvature="0" />
    </g>
  </g>
</svg>
