<?xml version="1.0" encoding="UTF-8" standalone="no"?>
<svg
   xmlns:dc="http://purl.org/dc/elements/1.1/"
   xmlns:cc="http://creativecommons.org/ns#"
   xmlns:rdf="http://www.w3.org/1999/02/22-rdf-syntax-ns#"
   xmlns:svg="http://www.w3.org/2000/svg"
   xmlns="http://www.w3.org/2000/svg"
   xmlns:sodipodi="http://sodipodi.sourceforge.net/DTD/sodipodi-0.dtd"
   xmlns:inkscape="http://www.inkscape.org/namespaces/inkscape"
   version="1.1"
   id="svg2"
   viewBox="0 0 213.32188 318.51636"
   height="89.892395mm"
   width="60.204174mm"
   inkscape:version="0.91 r13725"
   sodipodi:docname="layer15.svg">
  <sodipodi:namedview
     pagecolor="#ffffff"
     bordercolor="#666666"
     borderopacity="1"
     objecttolerance="10"
     gridtolerance="10"
     guidetolerance="10"
     inkscape:pageopacity="0"
     inkscape:pageshadow="2"
     inkscape:window-width="640"
     inkscape:window-height="480"
     id="namedview13"
     showgrid="false"
     inkscape:zoom="0.74093525"
     inkscape:cx="106.66094"
     inkscape:cy="159.2582"
     inkscape:window-x="0"
     inkscape:window-y="0"
     inkscape:window-maximized="0"
     inkscape:current-layer="svg2" />
  <defs
     id="defs4" />
  <metadata
     id="metadata7">
    <rdf:RDF>
      <cc:Work
         rdf:about="">
        <dc:format>image/svg+xml</dc:format>
        <dc:type
           rdf:resource="http://purl.org/dc/dcmitype/StillImage" />
        <dc:title />
      </cc:Work>
    </rdf:RDF>
  </metadata>
  <g
     transform="translate(-265.38631,-366.92292)"
     id="layer15">
    <g
       id="g28796"
       transform="translate(167.51791,-255.99943)">
      <path
         d="m 107.99015,623.05735 193.07837,0 c 5.49288,0 9.98675,4.494 9.98675,9.98688 l 0,298.27275 c 0,5.49287 -4.49387,9.98674 -9.98675,9.98674 l -193.07837,0 c -5.49287,0 -9.98675,-4.49387 -9.98675,-9.98674 l 0,-298.27275 c 0,-5.49288 4.49388,-9.98688 9.98675,-9.98688 z"
         style="fill:#ffffff;fill-opacity:1;fill-rule:evenodd;stroke:#1f1917;stroke-width:0.27000001;stroke-linecap:butt;stroke-linejoin:miter;stroke-miterlimit:10;stroke-dasharray:none;stroke-opacity:1"
         id="path10918"
         inkscape:connector-curvature="0" />
      <path
         d="m 106.7489,670.50472 1.73975,0 c 2.61887,-8.57187 5.40887,-17.72 7.98275,-26.14962 l 2.47112,0 c 2.63088,8.60812 5.3065,17.37 7.948,26.016 l 1.80775,0.0138 0,2.92325 c -2.9005,0 -5.81387,-0.0512 -8.77462,-0.0512 l 0,-2.88575 3.95112,0 -1.88887,-6.18337 -8.55038,0 -1.93112,6.3205 3.47887,0 0,2.88574 -8.23437,0 0,-2.88574 z m 10.96162,-20.31512 -3.39374,11.109 6.78749,0 -3.39374,-11.109 z"
         style="fill:#1f1917;fill-opacity:1;fill-rule:evenodd;stroke:none"
         id="path10920"
         inkscape:connector-curvature="0" />
      <path
         d="m 111.99415,682.73272 c 0.36425,-2.52562 1.53425,-3.62624 3.32388,-4.24024 3.26062,-1.11688 7.3315,0.70087 8.10187,3.601 0.68238,2.57074 -0.747,4.3055 -2.40137,6.60149 1.84325,-0.553 2.55149,-1.60262 4.80124,-1.20112 1.99451,0.35788 3.36926,2.56112 3.60101,3.60112 0.87875,3.95888 -1.84213,7.56213 -5.10125,7.50113 -1.46626,-0.0275 -2.01901,-0.6445 -2.70038,-1.19975 -1.3535,-1.10488 -1.64063,-2.03737 -2.7,-3.301 -0.46875,0.6595 -0.13188,1.46975 0,2.10087 0.17187,0.82663 0.659,1.41975 0.89962,2.09975 0.26863,0.75788 0.326,1.682 0.60063,2.401 0.23562,0.619 1.18662,1.13913 0.59913,1.79925 -2.10325,-0.19625 -4.99601,0.39688 -6.60013,-0.29875 0.62263,-2.38037 2.47437,-5.12362 1.50025,-8.10212 -0.55413,4.80975 -6.43,5.445 -8.82037,2.51787 -1.73263,-2.12237 -2.44801,-8.43762 3.41862,-9.11937 1.12325,-0.13038 2.22313,0.53475 3.301,0.90112 -0.56412,-1.83625 -1.83125,-2.65437 -1.82375,-5.06312 0,-0.20013 0,-0.40038 0,-0.59913"
         style="fill:#171717;fill-opacity:1;fill-rule:evenodd;stroke:none"
         id="path10922"
         inkscape:connector-curvature="0" />
      <path
         d="m 303.6129,893.5241 -1.73975,0 c -2.61888,8.57188 -5.40888,17.72 -7.98263,26.1495 l -2.47112,0 c -2.63088,-8.60812 -5.3065,-17.37 -7.948,-26.016 l -1.80788,-0.0137 0,-2.92325 c 2.90063,0 5.81388,0.0512 8.77475,0.0512 l 0,2.88575 -3.95112,0 1.88887,6.18338 8.55038,0 1.93112,-6.3205 -3.47887,0 0,-2.88575 8.23425,0 0,2.88575 z m -10.9615,20.31513 3.39375,-11.109 -6.7875,0 3.39375,11.109 z"
         style="fill:#1f1917;fill-opacity:1;fill-rule:evenodd;stroke:none"
         id="path10924"
         inkscape:connector-curvature="0" />
      <path
         d="m 298.36777,881.2961 c -0.36425,2.52562 -1.53425,3.62625 -3.324,4.24025 -3.2605,1.11688 -7.33137,-0.70088 -8.10175,-3.601 -0.68237,-2.57075 0.747,-4.3055 2.40138,-6.60163 -1.84325,0.55313 -2.55162,1.60275 -4.80125,1.20125 -1.9945,-0.35787 -3.36925,-2.56112 -3.601,-3.60112 -0.87875,-3.95888 1.84212,-7.56213 5.10125,-7.50113 1.46625,0.0275 2.019,0.6445 2.70037,1.19975 1.3535,1.10475 1.64051,2.03738 2.70001,3.301 0.46875,-0.6595 0.13174,-1.46987 0,-2.10087 -0.17188,-0.82663 -0.65913,-1.41975 -0.89963,-2.09975 -0.26862,-0.75787 -0.326,-1.682 -0.60063,-2.401 -0.23562,-0.619 -1.18662,-1.13913 -0.59912,-1.79925 2.10325,0.19625 4.996,-0.39688 6.60012,0.29875 -0.62262,2.38038 -2.47437,5.12362 -1.50024,8.10212 0.55412,-4.80975 6.42999,-5.445 8.82025,-2.51787 1.73274,2.12237 2.44812,8.43762 -3.4185,9.11938 -1.12326,0.13037 -2.22313,-0.53476 -3.30101,-0.90113 0.56413,1.83612 1.83125,2.65438 1.82375,5.06312 0,0.20013 0,0.40038 0,0.59913"
         style="fill:#171717;fill-opacity:1;fill-rule:evenodd;stroke:none"
         id="path10926"
         inkscape:connector-curvature="0" />
      <path
         d="m 194.02727,766.15097 c 0.725,-5.02862 3.05475,-7.21975 6.61788,-8.44225 6.49175,-2.22375 14.597,1.39538 16.13062,7.1695 1.35875,5.11838 -1.48725,8.57238 -4.781,13.14363 3.66975,-1.10125 5.08001,-3.19075 9.55913,-2.39138 3.971,0.7125 6.7085,5.09913 7.16987,7.1695 1.74925,7.88238 -3.668,15.05625 -10.15687,14.93463 -2.919,-0.0538 -4.01963,-1.283 -5.37625,-2.3885 -2.69512,-2.19963 -3.26625,-4.05638 -5.37562,-6.57213 -0.93326,1.31275 -0.2625,2.92638 0,4.1825 0.342,1.64588 1.31212,2.82688 1.79112,4.18075 0.53475,1.50913 0.64887,3.34875 1.19588,4.78025 0.46912,1.23238 2.36237,2.26813 1.19275,3.58238 -4.1875,-0.39088 -9.94713,0.79012 -13.14075,-0.59463 1.2395,-4.7395 4.92625,-10.20112 2.98699,-16.13125 -1.10337,9.57613 -12.80237,10.84075 -17.56137,5.01313 -3.44975,-4.22575 -4.87413,-16.79963 6.80637,-18.15663 2.23651,-0.25975 4.42626,1.06438 6.57213,1.79388 -1.12287,-3.65588 -3.64575,-5.28475 -3.63087,-10.08025 0,-0.39863 0,-0.79725 0,-1.19313"
         style="fill:#171717;fill-opacity:1;fill-rule:evenodd;stroke:none"
         id="path10928"
         inkscape:connector-curvature="0" />
    </g>
  </g>
</svg>
