<?xml version="1.0" encoding="UTF-8" standalone="no"?>
<svg
   xmlns:dc="http://purl.org/dc/elements/1.1/"
   xmlns:cc="http://creativecommons.org/ns#"
   xmlns:rdf="http://www.w3.org/1999/02/22-rdf-syntax-ns#"
   xmlns:svg="http://www.w3.org/2000/svg"
   xmlns="http://www.w3.org/2000/svg"
   xmlns:sodipodi="http://sodipodi.sourceforge.net/DTD/sodipodi-0.dtd"
   xmlns:inkscape="http://www.inkscape.org/namespaces/inkscape"
   version="1.1"
   id="svg2"
   viewBox="0 0 213.32188 318.51639"
   height="89.892403mm"
   width="60.204174mm"
   inkscape:version="0.91 r13725"
   sodipodi:docname="layer17.svg">
  <sodipodi:namedview
     pagecolor="#ffffff"
     bordercolor="#666666"
     borderopacity="1"
     objecttolerance="10"
     gridtolerance="10"
     guidetolerance="10"
     inkscape:pageopacity="0"
     inkscape:pageshadow="2"
     inkscape:window-width="640"
     inkscape:window-height="480"
     id="namedview13"
     showgrid="false"
     inkscape:zoom="0.74093519"
     inkscape:cx="106.66094"
     inkscape:cy="159.25819"
     inkscape:window-x="0"
     inkscape:window-y="0"
     inkscape:window-maximized="0"
     inkscape:current-layer="svg2" />
  <defs
     id="defs4" />
  <metadata
     id="metadata7">
    <rdf:RDF>
      <cc:Work
         rdf:about="">
        <dc:format>image/svg+xml</dc:format>
        <dc:type
           rdf:resource="http://purl.org/dc/dcmitype/StillImage" />
        <dc:title />
      </cc:Work>
    </rdf:RDF>
  </metadata>
  <g
     transform="translate(-265.3863,-366.92291)"
     id="layer17">
    <g
       id="g28812"
       transform="translate(-291.5076,-255.40106)">
      <path
         d="m 567.01565,622.45897 193.07838,0 c 5.49287,0 9.98675,4.49388 9.98675,9.98675 l 0,298.27275 c 0,5.49288 -4.49388,9.98688 -9.98675,9.98688 l -193.07838,0 c -5.49275,0 -9.98675,-4.494 -9.98675,-9.98688 l 0,-298.27275 c 0,-5.49287 4.494,-9.98675 9.98675,-9.98675 z"
         style="fill:#ffffff;fill-opacity:1;fill-rule:evenodd;stroke:#1f1917;stroke-width:0.27000001;stroke-linecap:butt;stroke-linejoin:miter;stroke-miterlimit:10;stroke-dasharray:none;stroke-opacity:1"
         id="path10942"
         inkscape:connector-curvature="0" />
      <path
         d="m 565.7744,669.90635 1.73987,0 c 2.61875,-8.572 5.40875,-17.72013 7.98263,-26.14963 l 2.47112,0 c 2.63088,8.60813 5.3065,17.37001 7.948,26.01613 l 1.80775,0.0138 0,2.92325 c -2.9005,0 -5.81375,-0.0512 -8.77462,-0.0512 l 0,-2.88563 3.95112,0 -1.88887,-6.1835 -8.55038,0 -1.93112,6.32063 3.47888,0 0,2.88562 -8.23438,0 0,-2.88562 z m 10.96162,-20.31525 -3.39375,11.109 6.7875,0 -3.39375,-11.109 z"
         style="fill:#1f1917;fill-opacity:1;fill-rule:evenodd;stroke:none"
         id="path10944"
         inkscape:connector-curvature="0" />
      <path
         d="m 762.63853,892.9256 -1.73988,0 c -2.61875,8.572 -5.40875,17.72012 -7.98263,26.14962 l -2.47112,0 c -2.63088,-8.60812 -5.3065,-17.37 -7.948,-26.016 l -1.80775,-0.0137 0,-2.92312 c 2.9005,0 5.81375,0.0512 8.77463,0.0512 l 0,2.88562 -3.95113,0 1.88888,6.18338 8.55037,0 1.93113,-6.3205 -3.47888,0 0,-2.88563 8.23438,0 0,2.88563 z m -10.96163,20.31512 3.39375,-11.10887 -6.7875,0 3.39375,11.10887 z"
         style="fill:#1f1917;fill-opacity:1;fill-rule:evenodd;stroke:none"
         id="path10946"
         inkscape:connector-curvature="0" />
      <path
         d="m 588.30565,691.43085 c -0.45175,-1.33513 -9.4985,-14.47588 -10.46625,-15.88038 l 0,-0.12975 c -10e-4,0 -0.0191,0.0263 -0.0454,0.065 -0.0255,-0.0387 -0.0433,-0.0637 -0.0446,-0.065 l 0,0.12975 c -0.96838,1.4045 -10.01438,14.54525 -10.46688,15.88038 -0.47587,1.40987 -0.70837,4.1205 0.68488,5.66887 1.394,1.5485 2.94275,2.47788 4.02662,2.47788 0.49113,0 1.31388,0.0538 2.273,-0.34125 1.09425,-0.6835 2.20675,-2.06962 2.31875,-4.89013 0,0 0.19638,4.82 -1.66075,7.62238 -0.11625,0.21787 -0.23775,0.421 -0.37312,0.5875 0,0 2.52462,-0.21363 3.24212,-0.20725 0.71788,-0.0125 3.24213,0.20725 3.24213,0.20725 -0.13463,-0.1665 -0.25612,-0.36963 -0.37275,-0.5875 -1.85663,-2.80238 -1.66,-7.62238 -1.66,-7.62238 0.11087,2.82051 1.22425,4.20663 2.31875,4.89013 0.95812,0.39437 1.7815,0.34125 2.272,0.34125 1.08487,0 2.63338,-0.92938 4.02663,-2.47788 1.39425,-1.54837 1.16137,-4.259 0.68487,-5.66887"
         style="fill:#171717;fill-opacity:1;fill-rule:evenodd;stroke:none"
         id="path10948"
         inkscape:connector-curvature="0" />
      <path
         d="M 681.75252,785.81035 C 680.97015,783.4991 665.3084,760.7496 663.63315,758.31822 l 0,-0.22462 c -0.004,0 -0.0332,0.0462 -0.0786,0.1125 -0.044,-0.0675 -0.0747,-0.11 -0.0773,-0.1125 l 0,0.22462 c -1.67637,2.43138 -17.33712,25.18088 -18.1205,27.49213 -0.82387,2.441 -1.22637,7.13375 1.18563,9.81425 2.41337,2.6805 5.0945,4.2895 6.97113,4.2895 0.84999,0 2.27437,0.0925 3.93512,-0.59063 1.89425,-1.18312 3.82038,-3.583 4.01425,-8.46562 0,0 0.33975,8.34412 -2.875,13.19587 -0.20137,0.377 -0.41175,0.7285 -0.646,1.017 0,0 4.37063,-0.37 5.61262,-0.359 1.24301,-0.0125 5.61288,0.359 5.61288,0.359 -0.23312,-0.2885 -0.44362,-0.64 -0.64525,-1.017 -3.21437,-4.85175 -2.87387,-13.19587 -2.87387,-13.19587 0.192,4.88262 2.11925,7.2825 4.01412,8.46562 1.65863,0.68276 3.0845,0.59063 3.9335,0.59063 1.87825,0 4.55875,-1.609 6.97075,-4.2895 2.41363,-2.6805 2.01075,-7.37325 1.18588,-9.81425"
         style="fill:#171717;fill-opacity:1;fill-rule:evenodd;stroke:none"
         id="path10950"
         inkscape:connector-curvature="0" />
      <path
         d="m 741.93003,871.2451 c 0.45175,1.33512 9.4985,14.47587 10.46612,15.8805 l 0,0.12962 c 10e-4,0 0.0191,-0.0263 0.0454,-0.065 0.0255,0.0388 0.0433,0.0638 0.0446,0.065 l 0,-0.12962 c 0.96838,-1.40463 10.0145,-14.54538 10.467,-15.8805 0.47588,-1.40988 0.70825,-4.1205 -0.685,-5.66888 -1.39387,-1.54837 -2.94263,-2.47787 -4.02663,-2.47787 -0.491,0 -1.31375,-0.0538 -2.273,0.34125 -1.09412,0.6835 -2.20675,2.06962 -2.31875,4.89012 0,0 -0.19625,-4.82 1.66076,-7.62237 0.11624,-0.21788 0.23775,-0.42088 0.37312,-0.5875 0,0 -2.52462,0.21375 -3.24213,0.20737 -0.71787,0.0125 -3.24212,-0.20737 -3.24212,-0.20737 0.13462,0.16662 0.25625,0.36962 0.37275,0.5875 1.85675,2.80237 1.66,7.62237 1.66,7.62237 -0.11088,-2.8205 -1.22413,-4.20662 -2.31863,-4.89012 -0.95812,-0.39438 -1.78162,-0.34125 -2.272,-0.34125 -1.085,0 -2.63337,0.9295 -4.02662,2.47787 -1.39425,1.54838 -1.1615,4.259 -0.68488,5.66888"
         style="fill:#171717;fill-opacity:1;fill-rule:evenodd;stroke:none"
         id="path10952"
         inkscape:connector-curvature="0" />
    </g>
  </g>
</svg>
