<?xml version="1.0" encoding="UTF-8" standalone="no"?>
<svg
   xmlns:dc="http://purl.org/dc/elements/1.1/"
   xmlns:cc="http://creativecommons.org/ns#"
   xmlns:rdf="http://www.w3.org/1999/02/22-rdf-syntax-ns#"
   xmlns:svg="http://www.w3.org/2000/svg"
   xmlns="http://www.w3.org/2000/svg"
   xmlns:sodipodi="http://sodipodi.sourceforge.net/DTD/sodipodi-0.dtd"
   xmlns:inkscape="http://www.inkscape.org/namespaces/inkscape"
   version="1.1"
   id="svg2"
   viewBox="0 0 213.32188 318.51639"
   height="89.892403mm"
   width="60.204174mm"
   inkscape:version="0.91 r13725"
   sodipodi:docname="layer21.svg">
  <sodipodi:namedview
     pagecolor="#ffffff"
     bordercolor="#666666"
     borderopacity="1"
     objecttolerance="10"
     gridtolerance="10"
     guidetolerance="10"
     inkscape:pageopacity="0"
     inkscape:pageshadow="2"
     inkscape:window-width="640"
     inkscape:window-height="480"
     id="namedview24"
     showgrid="false"
     inkscape:zoom="0.74093519"
     inkscape:cx="106.66094"
     inkscape:cy="159.25821"
     inkscape:window-x="0"
     inkscape:window-y="0"
     inkscape:window-maximized="0"
     inkscape:current-layer="svg2" />
  <defs
     id="defs4" />
  <metadata
     id="metadata7">
    <rdf:RDF>
      <cc:Work
         rdf:about="">
        <dc:format>image/svg+xml</dc:format>
        <dc:type
           rdf:resource="http://purl.org/dc/dcmitype/StillImage" />
        <dc:title />
      </cc:Work>
    </rdf:RDF>
  </metadata>
  <g
     transform="translate(-265.3863,-366.9229)"
     id="layer21">
    <g
       id="g28739"
       transform="translate(-291.5076,-592.6367)">
      <path
         d="m 567.01565,959.6946 193.07838,0 c 5.49287,0 9.98675,4.494 9.98675,9.98688 l 0,298.27272 c 0,5.4928 -4.49388,9.9868 -9.98675,9.9868 l -193.07838,0 c -5.49275,0 -9.98675,-4.494 -9.98675,-9.9868 l 0,-298.27272 c 0,-5.49288 4.494,-9.98688 9.98675,-9.98688 z"
         style="fill:#ffffff;fill-opacity:1;fill-rule:evenodd;stroke:#1f1917;stroke-width:0.27000001;stroke-linecap:butt;stroke-linejoin:miter;stroke-miterlimit:10;stroke-dasharray:none;stroke-opacity:1"
         id="path4146"
         inkscape:connector-curvature="0" />
      <path
         d="m 581.08965,977.23722 0,0 c 3.7715,0 6.85675,3.08513 6.85675,6.85663 l 0,18.71675 c 0,3.7715 -3.08525,6.8566 -6.85675,6.8566 l 0,0 c -3.7715,0 -6.85663,-3.0851 -6.85663,-6.8566 l 0,-18.71675 c 0,-3.7715 3.08513,-6.85663 6.85663,-6.85663 z m 0,3.54213 0,0 c 2.34463,0 4.26225,1.91913 4.26225,4.26225 l 0,17.065 c 0,2.3428 -1.91762,4.2622 -4.26225,4.2622 l 0,0 c -2.34463,0 -4.26225,-1.918 -4.26225,-4.2622 l 0,-17.065 c 0,-2.3445 1.91762,-4.26225 4.26225,-4.26225"
         style="fill:#1f1917;fill-opacity:1;fill-rule:evenodd;stroke:none"
         id="path4148"
         inkscape:connector-curvature="0" />
      <path
         d="m 567.30977,977.22585 2.67125,0 0,32.41945 -2.67125,0 0,-32.41945 z"
         style="fill:#1f1917;fill-opacity:1;fill-rule:evenodd;stroke:none"
         id="path4150"
         inkscape:connector-curvature="0" />
      <path
         d="m 747.55715,1256.5494 0,0 c -3.7715,0 -6.85675,-3.0852 -6.85675,-6.8567 l 0,-18.7168 c 0,-3.7715 3.08525,-6.8567 6.85675,-6.8567 l 0,0 c 3.77137,0 6.85662,3.0852 6.85662,6.8567 l 0,18.7168 c 0,3.7715 -3.08525,6.8567 -6.85662,6.8567 z m 0,-3.5423 0,0 c -2.34463,0 -4.26225,-1.9191 -4.26225,-4.2622 l 0,-17.0649 c 0,-2.3429 1.91762,-4.2623 4.26225,-4.2623 l 0,0 c 2.3445,0 4.26213,1.918 4.26213,4.2623 l 0,17.0649 c 0,2.3446 -1.91763,4.2622 -4.26213,4.2622"
         style="fill:#1f1917;fill-opacity:1;fill-rule:evenodd;stroke:none"
         id="path4152"
         inkscape:connector-curvature="0" />
      <path
         d="m 761.33703,1256.5607 -2.67126,0 0,-32.4195 2.67126,0 0,32.4195 z"
         style="fill:#1f1917;fill-opacity:1;fill-rule:evenodd;stroke:none"
         id="path4154"
         inkscape:connector-curvature="0" />
      <path
         d="m 572.03402,1019.1052 c 0.36425,-2.5256 1.53425,-3.6262 3.324,-4.2402 3.2605,-1.1169 7.3315,0.7008 8.10176,3.601 0.6825,2.5707 -0.74688,4.3055 -2.40126,6.6016 1.84326,-0.5531 2.5515,-1.6026 4.80113,-1.2012 1.99462,0.3578 3.36938,2.5611 3.60112,3.6011 0.87875,3.9589 -1.84224,7.5621 -5.10137,7.5011 -1.46613,-0.027 -2.01887,-0.6445 -2.70025,-1.1997 -1.35363,-1.1048 -1.64063,-2.0374 -2.7,-3.301 -0.46887,0.6595 -0.13187,1.4698 0,2.1008 0.17175,0.8267 0.659,1.4199 0.89962,2.0998 0.26851,0.758 0.326,1.682 0.6005,2.401 0.23575,0.619 1.18675,1.1391 0.59926,1.7992 -2.10338,-0.1962 -4.99613,0.3969 -6.60013,-0.2987 0.6225,-2.3804 2.47425,-5.1235 1.50025,-8.1021 -0.55425,4.8097 -6.43012,5.445 -8.82037,2.5178 -1.73263,-2.1223 -2.44813,-8.4376 3.41862,-9.1194 1.12313,-0.1303 2.223,0.5348 3.30088,0.9012 -0.56413,-1.8362 -1.83113,-2.6544 -1.82375,-5.0632 0,-0.2001 0,-0.4003 0,-0.5991"
         style="fill:#171717;fill-opacity:1;fill-rule:evenodd;stroke:none"
         id="path4156"
         inkscape:connector-curvature="0" />
      <path
         d="m 757.5159,1217.7905 c -0.36425,2.5257 -1.53425,3.6262 -3.324,4.2402 -3.2605,1.1169 -7.33138,-0.7007 -8.10175,-3.601 -0.68238,-2.5706 0.747,-4.3055 2.40125,-6.6015 -1.84313,0.5531 -2.5515,1.6026 -4.80113,1.2011 -1.9945,-0.3578 -3.36937,-2.5611 -3.601,-3.601 -0.87875,-3.959 1.84213,-7.5621 5.10125,-7.5012 1.46625,0.027 2.019,0.6445 2.70038,1.1997 1.3535,1.1049 1.6405,2.0376 2.7,3.3011 0.46875,-0.6594 0.13175,-1.4698 0,-2.1009 -0.17188,-0.8267 -0.65913,-1.4198 -0.89963,-2.0998 -0.26862,-0.7578 -0.326,-1.682 -0.60062,-2.4009 -0.23563,-0.6191 -1.18663,-1.1392 -0.59925,-1.7993 2.10337,0.1963 4.99612,-0.3969 6.60012,0.2987 -0.6225,2.3804 -2.47425,5.1236 -1.50012,8.1022 0.55412,-4.8098 6.43,-5.4451 8.82025,-2.5179 1.73275,2.1224 2.44812,8.4376 -3.4185,9.1194 -1.12325,0.1303 -2.22313,-0.5347 -3.301,-0.901 0.56412,1.8361 1.83125,2.6542 1.82375,5.063 0,0.2001 0,0.4003 0,0.5991"
         style="fill:#171717;fill-opacity:1;fill-rule:evenodd;stroke:none"
         id="path4158"
         inkscape:connector-curvature="0" />
      <path
         d="m 606.42078,1004.1907 c 0.72749,-5.04522 3.06499,-7.24385 6.64012,-8.4706 6.51337,-2.23125 14.646,1.4 16.18487,7.1936 1.363,5.1354 -1.49249,8.601 -4.79737,13.1879 3.68225,-1.1051 5.09738,-3.2018 9.59137,-2.3995 3.9845,0.7146 6.73088,5.1161 7.19363,7.1936 1.75538,7.9086 -3.68,15.1065 -10.1905,14.985 -2.92925,-0.054 -4.03338,-1.2877 -5.39475,-2.3967 -2.70387,-2.2072 -3.27713,-4.0703 -5.39362,-6.5945 -0.9365,1.3175 -0.26325,2.9363 0,4.1967 0.34337,1.6515 1.31675,2.8364 1.79725,4.1949 0.53637,1.5141 0.65125,3.3601 1.19974,4.7962 0.47088,1.2367 2.3705,2.2755 1.19688,3.5944 -4.20163,-0.3922 -9.98037,0.7926 -13.18462,-0.5967 1.24374,-4.7552 4.94262,-10.2352 2.99699,-16.1855 -1.107,9.6083 -12.84524,10.8772 -17.62024,5.0301 -3.46138,-4.2399 -4.8905,-16.8559 6.829,-18.2175 2.244,-0.2609 4.44125,1.0679 6.5945,1.8 -1.12713,-3.6681 -3.65813,-5.3026 -3.64325,-10.1144 0,-0.4001 0,-0.7997 0,-1.197"
         style="fill:#171717;fill-opacity:1;fill-rule:evenodd;stroke:none"
         id="path4160"
         inkscape:connector-curvature="0" />
      <path
         d="m 650.39677,1035.6022 c 0.7275,-5.0454 3.065,-7.244 6.64013,-8.4707 6.51337,-2.2312 14.646,1.4 16.18475,7.1936 1.36313,5.1354 -1.49238,8.6011 -4.79725,13.1879 3.68225,-1.1052 5.09737,-3.2018 9.59137,-2.3995 3.9845,0.7146 6.73088,5.1161 7.19363,7.1936 1.75537,7.9086 -3.68013,15.1065 -10.1905,14.985 -2.92925,-0.054 -4.03337,-1.2876 -5.39475,-2.3968 -2.70387,-2.2071 -3.27712,-4.0701 -5.39362,-6.5943 -0.9365,1.3173 -0.26325,2.9362 0,4.1966 0.34337,1.6516 1.31675,2.8365 1.79725,4.195 0.53637,1.514 0.65125,3.3601 1.19975,4.7961 0.47087,1.2366 2.37037,2.2756 1.19687,3.5944 -4.20163,-0.3923 -9.98037,0.7926 -13.18462,-0.5966 1.24375,-4.7552 4.9425,-10.2353 2.99687,-16.1855 -1.10687,9.6083 -12.84512,10.8772 -17.62012,5.03 -3.4615,-4.2399 -4.8905,-16.8559 6.829,-18.2175 2.244,-0.2608 4.44125,1.068 6.5945,1.8 -1.12713,-3.668 -3.65813,-5.3027 -3.64325,-10.1144 0,-0.4 0,-0.7998 0,-1.1969"
         style="fill:#171717;fill-opacity:1;fill-rule:evenodd;stroke:none"
         id="path4162"
         inkscape:connector-curvature="0" />
      <path
         d="m 694.37277,1004.1907 c 0.72738,-5.04522 3.065,-7.24385 6.64013,-8.4706 6.51337,-2.23125 14.64587,1.4 16.18475,7.1936 1.36312,5.1354 -1.49237,8.601 -4.79725,13.1879 3.68225,-1.1051 5.09737,-3.2018 9.59137,-2.3995 3.9845,0.7146 6.73088,5.1161 7.19363,7.1936 1.75538,7.9086 -3.68013,15.1065 -10.1905,14.985 -2.92925,-0.054 -4.03338,-1.2877 -5.39475,-2.3967 -2.70388,-2.2072 -3.27725,-4.0703 -5.39363,-6.5945 -0.93649,1.3175 -0.26325,2.9363 0,4.1967 0.34338,1.6515 1.31675,2.8364 1.79713,4.1949 0.5365,1.5141 0.65138,3.3601 1.19987,4.7962 0.47088,1.2367 2.37038,2.2755 1.19688,3.5944 -4.20163,-0.3922 -9.98038,0.7926 -13.18463,-0.5967 1.24363,-4.7552 4.9425,-10.2352 2.99688,-16.1855 -1.10688,9.6083 -12.84513,10.8772 -17.62013,5.0301 -3.4615,-4.2399 -4.8905,-16.8559 6.829,-18.2175 2.244,-0.2609 4.44125,1.0679 6.5945,1.8 -1.12712,-3.6681 -3.65812,-5.3026 -3.64324,-10.1144 0,-0.4001 0,-0.7997 0,-1.197"
         style="fill:#171717;fill-opacity:1;fill-rule:evenodd;stroke:none"
         id="path4164"
         inkscape:connector-curvature="0" />
      <path
         d="m 694.37277,1068.8982 c 0.72738,-5.0452 3.065,-7.2438 6.64013,-8.4706 6.51337,-2.2311 14.64587,1.4 16.18475,7.1936 1.36312,5.1354 -1.49237,8.601 -4.79725,13.1879 3.68225,-1.1051 5.09737,-3.2018 9.59137,-2.3995 3.9845,0.7146 6.73088,5.1161 7.19363,7.1936 1.75538,7.9086 -3.68013,15.1065 -10.1905,14.985 -2.92925,-0.054 -4.03338,-1.2876 -5.39475,-2.3967 -2.70388,-2.2072 -3.27725,-4.0702 -5.39363,-6.5944 -0.93649,1.3174 -0.26325,2.9362 0,4.1966 0.34338,1.6515 1.31675,2.8364 1.79713,4.1949 0.5365,1.5141 0.65138,3.3601 1.19987,4.7962 0.47088,1.2367 2.37038,2.2755 1.19688,3.5944 -4.20163,-0.3922 -9.98038,0.7926 -13.18463,-0.5967 1.24363,-4.7552 4.9425,-10.2352 2.99688,-16.1854 -1.10688,9.6084 -12.84513,10.8772 -17.62013,5.03 -3.4615,-4.2399 -4.8905,-16.8559 6.829,-18.2175 2.244,-0.2609 4.44125,1.0679 6.5945,1.8 -1.12712,-3.6681 -3.65812,-5.3026 -3.64324,-10.1144 0,-0.4001 0,-0.7997 0,-1.197"
         style="fill:#171717;fill-opacity:1;fill-rule:evenodd;stroke:none"
         id="path4166"
         inkscape:connector-curvature="0" />
      <path
         d="m 606.42078,1069.5265 c 0.72749,-5.0453 3.06499,-7.2439 6.64012,-8.4707 6.51337,-2.2312 14.646,1.4 16.18487,7.1937 1.363,5.1353 -1.49249,8.601 -4.79737,13.1878 3.68225,-1.1051 5.09738,-3.2017 9.59137,-2.3995 3.9845,0.7147 6.73088,5.1162 7.19363,7.1937 1.75538,7.9086 -3.68,15.1065 -10.1905,14.985 -2.92925,-0.054 -4.03338,-1.2878 -5.39475,-2.3968 -2.70387,-2.2071 -3.27713,-4.0702 -5.39362,-6.5945 -0.9365,1.3175 -0.26325,2.9364 0,4.1968 0.34337,1.6515 1.31675,2.8363 1.79725,4.1948 0.53637,1.5142 0.65125,3.3602 1.19974,4.7963 0.47088,1.2366 2.3705,2.2755 1.19688,3.5944 -4.20163,-0.3923 -9.98037,0.7926 -13.18462,-0.5968 1.24374,-4.7551 4.94262,-10.2351 2.99699,-16.1855 -1.107,9.6084 -12.84524,10.8773 -17.62024,5.0301 -3.46138,-4.2398 -4.8905,-16.8558 6.829,-18.2175 2.244,-0.2608 4.44125,1.0679 6.5945,1.8 -1.12713,-3.6681 -3.65813,-5.3026 -3.64325,-10.1143 0,-0.4002 0,-0.7998 0,-1.197"
         style="fill:#171717;fill-opacity:1;fill-rule:evenodd;stroke:none"
         id="path4168"
         inkscape:connector-curvature="0" />
      <path
         d="m 717.2714,1232.5321 c -0.7275,5.0453 -3.065,7.2439 -6.64013,8.4706 -6.51337,2.2313 -14.646,-1.4 -16.18487,-7.1936 -1.363,-5.1354 1.4925,-8.601 4.79738,-13.1879 -3.68225,1.1053 -5.09738,3.2018 -9.59138,2.3995 -3.9845,-0.7146 -6.73087,-5.1161 -7.19362,-7.1935 -1.75538,-7.9087 3.67999,-15.1066 10.19049,-14.985 2.92925,0.054 4.03338,1.2877 5.39475,2.3967 2.70388,2.2071 3.27713,4.0702 5.39363,6.5945 0.9365,-1.3175 0.26325,-2.9364 0,-4.1968 -0.34338,-1.6515 -1.31675,-2.8364 -1.79725,-4.1949 -0.53638,-1.5141 -0.65125,-3.3601 -1.19975,-4.7962 -0.47088,-1.2366 -2.3705,-2.2755 -1.19688,-3.5944 4.20163,0.3923 9.98038,-0.7926 13.18463,0.5968 -1.24375,4.7551 -4.94263,10.2351 -2.997,16.1855 1.107,-9.6084 12.84525,-10.8773 17.62025,-5.0302 3.46137,4.2399 4.8905,16.8559 -6.829,18.2175 -2.244,0.2609 -4.44125,-1.0678 -6.5945,-1.8 1.12712,3.6682 3.65812,5.3027 3.64325,10.1144 0,0.4001 0,0.7998 0,1.197"
         style="fill:#171717;fill-opacity:1;fill-rule:evenodd;stroke:none"
         id="path4170"
         inkscape:connector-curvature="0" />
      <path
         d="m 673.2954,1201.1207 c -0.7275,5.0453 -3.065,7.2439 -6.64013,8.4706 -6.51337,2.2312 -14.646,-1.3999 -16.18475,-7.1936 -1.36312,-5.1353 1.49238,-8.6011 4.79726,-13.1878 -3.68226,1.1051 -5.09738,3.2017 -9.59138,2.3995 -3.9845,-0.7147 -6.73087,-5.1162 -7.19363,-7.1937 -1.75537,-7.9086 3.68013,-15.1065 10.1905,-14.985 2.92925,0.054 4.03338,1.2877 5.39475,2.3968 2.70388,2.2071 3.27713,4.0701 5.39363,6.5944 0.9365,-1.3174 0.26325,-2.9363 0,-4.1967 -0.34338,-1.6516 -1.31675,-2.8365 -1.79725,-4.195 -0.53638,-1.514 -0.65125,-3.3601 -1.19975,-4.7961 -0.47088,-1.2366 -2.37038,-2.2755 -1.19688,-3.5944 4.20163,0.3923 9.98038,-0.7926 13.18463,0.5968 -1.24375,4.755 -4.9425,10.2351 -2.99688,16.1854 1.10688,-9.6084 12.84513,-10.8773 17.62013,-5.03 3.4615,4.2398 4.8905,16.8558 -6.829,18.2175 -2.244,0.2607 -4.44125,-1.0679 -6.5945,-1.8 1.12712,3.668 3.65812,5.3026 3.64325,10.1143 0,0.4 0,0.7998 0,1.197"
         style="fill:#171717;fill-opacity:1;fill-rule:evenodd;stroke:none"
         id="path4172"
         inkscape:connector-curvature="0" />
      <path
         d="m 629.3194,1232.5325 c -0.72738,5.0452 -3.065,7.2438 -6.64013,8.4706 -6.51337,2.2312 -14.64587,-1.4 -16.18475,-7.1936 -1.36312,-5.1354 1.49238,-8.601 4.79725,-13.1879 -3.68224,1.1051 -5.09737,3.2017 -9.59137,2.3995 -3.9845,-0.7146 -6.73088,-5.1161 -7.19362,-7.1936 -1.75538,-7.9086 3.68012,-15.1065 10.19049,-14.985 2.92925,0.054 4.03338,1.2876 5.39475,2.3967 2.70388,2.2072 3.27726,4.0702 5.39363,6.5944 0.9365,-1.3174 0.26325,-2.9362 0,-4.1966 -0.34338,-1.6515 -1.31675,-2.8364 -1.79712,-4.1949 -0.53651,-1.5141 -0.65138,-3.3601 -1.19988,-4.7962 -0.47087,-1.2367 -2.37037,-2.2755 -1.19687,-3.5944 4.20162,0.3922 9.98037,-0.7927 13.18462,0.5967 -1.24363,4.7552 -4.9425,10.2352 -2.99688,16.1854 1.10688,-9.6084 12.84513,-10.8771 17.62013,-5.03 3.4615,4.2399 4.8905,16.8559 -6.829,18.2175 -2.244,0.2609 -4.44125,-1.0679 -6.5945,-1.8 1.12712,3.6681 3.65812,5.3026 3.64325,10.1144 0,0.4001 0,0.7997 0,1.197"
         style="fill:#171717;fill-opacity:1;fill-rule:evenodd;stroke:none"
         id="path4174"
         inkscape:connector-curvature="0" />
      <path
         d="m 629.3194,1167.8246 c -0.72738,5.0453 -3.065,7.2439 -6.64013,8.4706 -6.51337,2.2313 -14.64587,-1.4 -16.18475,-7.1936 -1.36312,-5.1354 1.49238,-8.601 4.79725,-13.1879 -3.68224,1.1052 -5.09737,3.2018 -9.59137,2.3995 -3.9845,-0.7146 -6.73088,-5.1161 -7.19362,-7.1936 -1.75538,-7.9086 3.68012,-15.1065 10.19049,-14.985 2.92925,0.054 4.03338,1.2876 5.39475,2.3968 2.70388,2.2071 3.27726,4.0701 5.39363,6.5943 0.9365,-1.3173 0.26325,-2.9362 0,-4.1966 -0.34338,-1.6515 -1.31675,-2.8364 -1.79712,-4.1949 -0.53651,-1.5141 -0.65138,-3.3601 -1.19988,-4.7962 -0.47087,-1.2366 -2.37037,-2.2755 -1.19687,-3.5944 4.20162,0.3923 9.98037,-0.7926 13.18462,0.5968 -1.24363,4.7551 -4.9425,10.2351 -2.99688,16.1853 1.10688,-9.6083 12.84513,-10.8771 17.62013,-5.03 3.4615,4.2399 4.8905,16.8559 -6.829,18.2175 -2.244,0.2609 -4.44125,-1.0678 -6.5945,-1.8 1.12712,3.6682 3.65812,5.3027 3.64325,10.1144 0,0.4001 0,0.7998 0,1.197"
         style="fill:#171717;fill-opacity:1;fill-rule:evenodd;stroke:none"
         id="path4176"
         inkscape:connector-curvature="0" />
      <path
         d="m 717.2714,1167.1963 c -0.7275,5.0453 -3.065,7.2439 -6.64013,8.4707 -6.51337,2.2312 -14.646,-1.4 -16.18487,-7.1937 -1.363,-5.1353 1.4925,-8.601 4.79738,-13.1878 -3.68225,1.1052 -5.09738,3.2017 -9.59138,2.3995 -3.9845,-0.7146 -6.73087,-5.1162 -7.19362,-7.1935 -1.75538,-7.9088 3.67999,-15.1067 10.19049,-14.985 2.92925,0.054 4.03338,1.2876 5.39475,2.3966 2.70388,2.2071 3.27713,4.0702 5.39363,6.5945 0.9365,-1.3175 0.26325,-2.9364 0,-4.1967 -0.34338,-1.6515 -1.31675,-2.8364 -1.79725,-4.1949 -0.53638,-1.5141 -0.65125,-3.3601 -1.19975,-4.7963 -0.47088,-1.2366 -2.3705,-2.2755 -1.19688,-3.5943 4.20163,0.3922 9.98038,-0.7927 13.18463,0.5967 -1.24375,4.7551 -4.94263,10.2351 -2.997,16.1855 1.107,-9.6084 12.84525,-10.8772 17.62025,-5.0301 3.46137,4.2399 4.8905,16.8559 -6.829,18.2175 -2.244,0.2609 -4.44125,-1.0679 -6.5945,-1.8 1.12712,3.6681 3.65812,5.3026 3.64325,10.1144 0,0.4001 0,0.7997 0,1.197"
         style="fill:#171717;fill-opacity:1;fill-rule:evenodd;stroke:none"
         id="path4178"
         inkscape:connector-curvature="0" />
    </g>
  </g>
</svg>
