<?xml version="1.0" encoding="UTF-8" standalone="no"?>
<svg
   xmlns:dc="http://purl.org/dc/elements/1.1/"
   xmlns:cc="http://creativecommons.org/ns#"
   xmlns:rdf="http://www.w3.org/1999/02/22-rdf-syntax-ns#"
   xmlns:svg="http://www.w3.org/2000/svg"
   xmlns="http://www.w3.org/2000/svg"
   xmlns:sodipodi="http://sodipodi.sourceforge.net/DTD/sodipodi-0.dtd"
   xmlns:inkscape="http://www.inkscape.org/namespaces/inkscape"
   version="1.1"
   id="svg2"
   viewBox="0 0 213.32188 318.51639"
   height="89.892403mm"
   width="60.204174mm"
   inkscape:version="0.91 r13725"
   sodipodi:docname="layer18.svg">
  <sodipodi:namedview
     pagecolor="#ffffff"
     bordercolor="#666666"
     borderopacity="1"
     objecttolerance="10"
     gridtolerance="10"
     guidetolerance="10"
     inkscape:pageopacity="0"
     inkscape:pageshadow="2"
     inkscape:window-width="640"
     inkscape:window-height="480"
     id="namedview24"
     showgrid="false"
     inkscape:zoom="0.74093519"
     inkscape:cx="106.66094"
     inkscape:cy="159.25821"
     inkscape:window-x="0"
     inkscape:window-y="0"
     inkscape:window-maximized="0"
     inkscape:current-layer="svg2" />
  <defs
     id="defs4" />
  <metadata
     id="metadata7">
    <rdf:RDF>
      <cc:Work
         rdf:about="">
        <dc:format>image/svg+xml</dc:format>
        <dc:type
           rdf:resource="http://purl.org/dc/dcmitype/StillImage" />
        <dc:title />
      </cc:Work>
    </rdf:RDF>
  </metadata>
  <g
     transform="translate(-265.38631,-366.9229)"
     id="layer18">
    <g
       id="g28305"
       transform="translate(397.03066,-595.8282)">
      <path
         d="m -121.5226,962.8861 193.078375,0 c 5.49275,0 9.98675,4.49387 9.98675,9.98675 l 0,298.27275 c 0,5.4929 -4.494,9.9869 -9.98675,9.9869 l -193.078375,0 c -5.49288,0 -9.98675,-4.494 -9.98675,-9.9869 l 0,-298.27275 c 0,-5.49288 4.49387,-9.98675 9.98675,-9.98675 z"
         style="fill:#ffffff;fill-opacity:1;fill-rule:evenodd;stroke:#1f1917;stroke-width:0.27000001;stroke-linecap:butt;stroke-linejoin:miter;stroke-miterlimit:10;stroke-dasharray:none;stroke-opacity:1"
         id="path10954"
         inkscape:connector-curvature="0" />
      <path
         d="m -107.4486,980.4286 0,0 c 3.7715,0 6.85662,3.08512 6.85662,6.85662 l 0,18.71688 c 0,3.7715 -3.08512,6.8566 -6.85662,6.8566 l 0,0 c -3.7715,0 -6.85663,-3.0851 -6.85663,-6.8566 l 0,-18.71688 c 0,-3.7715 3.08513,-6.85662 6.85663,-6.85662 z m 0,3.54225 0,0 c 2.34462,0 4.26225,1.91913 4.26225,4.26225 l 0,17.0649 c 0,2.3428 -1.91762,4.2622 -4.26225,4.2622 l 0,0 c -2.34463,0 -4.26225,-1.918 -4.26225,-4.2622 l 0,-17.0649 c 0,-2.34463 1.91762,-4.26225 4.26225,-4.26225"
         style="fill:#b32621;fill-opacity:1;fill-rule:evenodd;stroke:none"
         id="path10956"
         inkscape:connector-curvature="0" />
      <path
         d="m -121.22848,980.41722 2.67125,0 0,32.41948 -2.67125,0 0,-32.41948 z"
         style="fill:#b32621;fill-opacity:1;fill-rule:evenodd;stroke:none"
         id="path10958"
         inkscape:connector-curvature="0" />
      <path
         d="m 59.018775,1259.7407 0,0 c -3.7715,0 -6.856625,-3.0851 -6.856625,-6.8566 l 0,-18.7167 c 0,-3.7715 3.085125,-6.8567 6.856625,-6.8567 l 0,0 c 3.7715,0 6.85675,3.0852 6.85675,6.8567 l 0,18.7167 c 0,3.7715 -3.08525,6.8566 -6.85675,6.8566 z m 0,-3.5421 0,0 c -2.3445,0 -4.26225,-1.9191 -4.26225,-4.2622 l 0,-17.0651 c 0,-2.3427 1.91775,-4.2622 4.26225,-4.2622 l 0,0 c 2.344625,0 4.26225,1.918 4.26225,4.2622 l 0,17.0651 c 0,2.3445 -1.917625,4.2622 -4.26225,4.2622"
         style="fill:#b32621;fill-opacity:1;fill-rule:evenodd;stroke:none"
         id="path10960"
         inkscape:connector-curvature="0" />
      <path
         d="m 72.798775,1259.7521 -2.671375,0 0,-32.4195 2.671375,0 0,32.4195 z"
         style="fill:#b32621;fill-opacity:1;fill-rule:evenodd;stroke:none"
         id="path10962"
         inkscape:connector-curvature="0" />
      <path
         d="m -68.2971,998.21285 c 0,0 -4.931625,18.81465 -17.90125,25.75485 0,0 15.5265,9.8635 18.083375,24.6593 0,0 4.9315,-18.2654 18.266375,-24.8406 0,0 -13.334875,-7.1243 -18.4485,-25.57355"
         style="fill:#b32621;fill-opacity:1;fill-rule:evenodd;stroke:none"
         id="path10964"
         inkscape:connector-curvature="0" />
      <path
         d="m -26.077225,1031.3856 c 0,0 -4.931625,18.8146 -17.901125,25.7549 0,0 15.526375,9.8635 18.08325,24.6593 0,0 4.9315,-18.2654 18.2665,-24.8407 0,0 -13.335,-7.1241 -18.448625,-25.5735"
         style="fill:#b32621;fill-opacity:1;fill-rule:evenodd;stroke:none"
         id="path10966"
         inkscape:connector-curvature="0" />
      <path
         d="m 20.16365,997.2076 c 0,0 -4.931625,18.8146 -17.901125,25.7549 0,0 15.526375,9.8635 18.08325,24.6592 0,0 4.9315,-18.2653 18.266375,-24.8406 0,0 -13.334875,-7.1242 -18.4485,-25.5735"
         style="fill:#b32621;fill-opacity:1;fill-rule:evenodd;stroke:none"
         id="path10968"
         inkscape:connector-curvature="0" />
      <path
         d="m 20.16365,1064.5585 c 0,0 -4.931625,18.8145 -17.901125,25.7549 0,0 15.526375,9.8634 18.08325,24.6592 0,0 4.9315,-18.2654 18.266375,-24.8408 0,0 -13.334875,-7.1241 -18.4485,-25.5733"
         style="fill:#b32621;fill-opacity:1;fill-rule:evenodd;stroke:none"
         id="path10970"
         inkscape:connector-curvature="0" />
      <path
         d="m -69.30235,1064.5585 c 0,0 -4.931625,18.8145 -17.90125,25.7549 0,0 15.5265,9.8634 18.083375,24.6592 0,0 4.9315,-18.2654 18.266375,-24.8408 0,0 -13.334875,-7.1241 -18.4485,-25.5733"
         style="fill:#b32621;fill-opacity:1;fill-rule:evenodd;stroke:none"
         id="path10972"
         inkscape:connector-curvature="0" />
      <path
         d="m -68.2971,1130.904 c 0,0 -4.931625,18.8146 -17.90125,25.7548 0,0 15.5265,9.8636 18.083375,24.6594 0,0 4.9315,-18.2653 18.266375,-24.8407 0,0 -13.334875,-7.1242 -18.4485,-25.5735"
         style="fill:#b32621;fill-opacity:1;fill-rule:evenodd;stroke:none"
         id="path10974"
         inkscape:connector-curvature="0" />
      <path
         d="m -26.077225,1164.0769 c 0,0 -4.931625,18.8146 -17.901125,25.7548 0,0 15.526375,9.8635 18.08325,24.6593 0,0 4.9315,-18.2654 18.2665,-24.8408 0,0 -13.335,-7.1241 -18.448625,-25.5733"
         style="fill:#b32621;fill-opacity:1;fill-rule:evenodd;stroke:none"
         id="path10976"
         inkscape:connector-curvature="0" />
      <path
         d="m 20.16365,1129.8987 c 0,0 -4.931625,18.8146 -17.901125,25.7549 0,0 15.526375,9.8636 18.08325,24.6594 0,0 4.9315,-18.2654 18.266375,-24.8408 0,0 -13.334875,-7.1241 -18.4485,-25.5735"
         style="fill:#b32621;fill-opacity:1;fill-rule:evenodd;stroke:none"
         id="path10978"
         inkscape:connector-curvature="0" />
      <path
         d="m 20.16365,1197.2496 c 0,0 -4.931625,18.8146 -17.901125,25.7549 0,0 15.526375,9.8635 18.08325,24.6592 0,0 4.9315,-18.2653 18.266375,-24.8406 0,0 -13.334875,-7.1242 -18.4485,-25.5735"
         style="fill:#b32621;fill-opacity:1;fill-rule:evenodd;stroke:none"
         id="path10980"
         inkscape:connector-curvature="0" />
      <path
         d="m -69.30235,1197.2496 c 0,0 -4.931625,18.8146 -17.90125,25.7549 0,0 15.5265,9.8635 18.083375,24.6592 0,0 4.9315,-18.2653 18.266375,-24.8406 0,0 -13.334875,-7.1242 -18.4485,-25.5735"
         style="fill:#b32621;fill-opacity:1;fill-rule:evenodd;stroke:none"
         id="path10982"
         inkscape:connector-curvature="0" />
      <path
         d="m -109.9711,1016.3071 c 0,0 -2.8665,10.9364 -10.40525,14.9705 0,0 9.02512,5.7334 10.51125,14.3338 0,0 2.8665,-10.6173 10.617875,-14.4394 0,0 -7.751375,-4.1411 -10.723875,-14.8649"
         style="fill:#b32621;fill-opacity:1;fill-rule:evenodd;stroke:none"
         id="path10984"
         inkscape:connector-curvature="0" />
      <path
         d="m 63.934775,1195.2391 c 0,0 -2.8665,10.9365 -10.40525,14.9705 0,0 9.025125,5.7334 10.51125,14.3338 0,0 2.8665,-10.6172 10.617875,-14.4394 0,0 -7.751375,-4.141 -10.723875,-14.8649"
         style="fill:#b32621;fill-opacity:1;fill-rule:evenodd;stroke:none"
         id="path10986"
         inkscape:connector-curvature="0" />
    </g>
  </g>
</svg>
