<?xml version="1.0" encoding="UTF-8" standalone="no"?>
<svg
   xmlns:dc="http://purl.org/dc/elements/1.1/"
   xmlns:cc="http://creativecommons.org/ns#"
   xmlns:rdf="http://www.w3.org/1999/02/22-rdf-syntax-ns#"
   xmlns:svg="http://www.w3.org/2000/svg"
   xmlns="http://www.w3.org/2000/svg"
   xmlns:sodipodi="http://sodipodi.sourceforge.net/DTD/sodipodi-0.dtd"
   xmlns:inkscape="http://www.inkscape.org/namespaces/inkscape"
   version="1.1"
   id="svg2"
   viewBox="0 0 213.32188 318.51644"
   height="89.892418mm"
   width="60.204174mm"
   inkscape:version="0.91 r13725"
   sodipodi:docname="layer20.svg">
  <sodipodi:namedview
     pagecolor="#ffffff"
     bordercolor="#666666"
     borderopacity="1"
     objecttolerance="10"
     gridtolerance="10"
     guidetolerance="10"
     inkscape:pageopacity="0"
     inkscape:pageshadow="2"
     inkscape:window-width="640"
     inkscape:window-height="480"
     id="namedview24"
     showgrid="false"
     inkscape:zoom="0.74093506"
     inkscape:cx="106.66093"
     inkscape:cy="159.25822"
     inkscape:window-x="0"
     inkscape:window-y="0"
     inkscape:window-maximized="0"
     inkscape:current-layer="svg2" />
  <defs
     id="defs4" />
  <metadata
     id="metadata7">
    <rdf:RDF>
      <cc:Work
         rdf:about="">
        <dc:format>image/svg+xml</dc:format>
        <dc:type
           rdf:resource="http://purl.org/dc/dcmitype/StillImage" />
        <dc:title />
      </cc:Work>
    </rdf:RDF>
  </metadata>
  <g
     transform="translate(-265.3863,-366.92289)"
     id="layer20">
    <g
       id="g28758"
       transform="translate(-61.994846,-594.23258)">
      <path
         d="m 337.5029,961.29047 193.07837,0 c 5.49288,0 9.98676,4.49401 9.98676,9.98688 l 0,298.27275 c 0,5.4928 -4.49388,9.9868 -9.98676,9.9868 l -193.07837,0 c -5.49288,0 -9.98675,-4.4941 -9.98675,-9.9868 l 0,-298.27275 c 0,-5.49287 4.49387,-9.98688 9.98675,-9.98688 z"
         style="fill:#ffffff;fill-opacity:1;fill-rule:evenodd;stroke:#1f1917;stroke-width:0.27000001;stroke-linecap:butt;stroke-linejoin:miter;stroke-miterlimit:10;stroke-dasharray:none;stroke-opacity:1"
         id="path11022"
         inkscape:connector-curvature="0" />
      <path
         d="m 351.5769,978.8331 0,0 c 3.7715,0 6.85662,3.08512 6.85662,6.85662 l 0,18.71678 c 0,3.7715 -3.08512,6.8567 -6.85662,6.8567 l 0,0 c -3.7715,0 -6.85662,-3.0852 -6.85662,-6.8567 l 0,-18.71678 c 0,-3.7715 3.08512,-6.85662 6.85662,-6.85662 z m 0,3.54225 0,0 c 2.34463,0 4.26225,1.919 4.26225,4.26225 l 0,17.0649 c 0,2.3428 -1.91762,4.2622 -4.26225,4.2622 l 0,0 c -2.34462,0 -4.26225,-1.918 -4.26225,-4.2622 l 0,-17.0649 c 0,-2.34463 1.91763,-4.26225 4.26225,-4.26225"
         style="fill:#b32621;fill-opacity:1;fill-rule:evenodd;stroke:none"
         id="path11024"
         inkscape:connector-curvature="0" />
      <path
         d="m 337.79703,978.82172 2.67124,0 0,32.41948 -2.67124,0 0,-32.41948 z"
         style="fill:#b32621;fill-opacity:1;fill-rule:evenodd;stroke:none"
         id="path11026"
         inkscape:connector-curvature="0" />
      <path
         d="m 518.04427,1258.1452 0,0 c -3.77137,0 -6.85662,-3.0851 -6.85662,-6.8566 l 0,-18.7169 c 0,-3.7715 3.08525,-6.8566 6.85662,-6.8566 l 0,0 c 3.77151,0 6.85676,3.0851 6.85676,6.8566 l 0,18.7169 c 0,3.7715 -3.08525,6.8566 -6.85676,6.8566 z m 0,-3.5422 0,0 c -2.34449,0 -4.26212,-1.919 -4.26212,-4.2623 l 0,-17.0648 c 0,-2.3429 1.91762,-4.2623 4.26212,-4.2623 l 0,0 c 2.34463,0 4.26225,1.918 4.26225,4.2623 l 0,17.0648 c 0,2.3447 -1.91762,4.2623 -4.26225,4.2623"
         style="fill:#b32621;fill-opacity:1;fill-rule:evenodd;stroke:none"
         id="path11028"
         inkscape:connector-curvature="0" />
      <path
         d="m 531.82427,1258.1566 -2.67137,0 0,-32.4195 2.67137,0 0,32.4195 z"
         style="fill:#b32621;fill-opacity:1;fill-rule:evenodd;stroke:none"
         id="path11030"
         inkscape:connector-curvature="0" />
      <path
         d="m 407.7964,1002.2157 c -2.58338,-2.87047 -5.45412,-4.5921 -7.46288,-4.5921 -1.952,0 -6.72337,-0.47275 -10.75674,7.7765 -4.01601,-8.09437 -8.74138,-7.63337 -10.68163,-7.63337 -2.00937,0 -4.88025,1.72237 -7.46362,4.59287 -2.58313,2.87 -2.15263,7.8934 -1.26926,10.5073 0.88375,2.6136 19.33513,29.5348 19.33513,29.5348 0,0 18.68487,-27.0651 19.56825,-29.6787 0.88338,-2.6131 1.31425,-7.6365 -1.26925,-10.5073"
         style="fill:#b32621;fill-opacity:1;fill-rule:evenodd;stroke:none"
         id="path11032"
         inkscape:connector-curvature="0" />
      <path
         d="m 497.42365,1002.2157 c -2.58338,-2.87047 -5.45413,-4.5921 -7.46288,-4.5921 -1.952,0 -6.72337,-0.47275 -10.75675,7.7765 -4.016,-8.09437 -8.74137,-7.63337 -10.68162,-7.63337 -2.0095,0 -4.88025,1.72237 -7.46363,4.59287 -2.58312,2.87 -2.15262,7.8934 -1.26925,10.5073 0.88375,2.6136 19.33513,29.5348 19.33513,29.5348 0,0 18.68487,-27.0651 19.56825,-29.6787 0.88337,-2.6131 1.31425,-7.6365 -1.26925,-10.5073"
         style="fill:#b32621;fill-opacity:1;fill-rule:evenodd;stroke:none"
         id="path11034"
         inkscape:connector-curvature="0" />
      <path
         d="m 451.35365,1036.5588 c -2.5835,-2.8703 -5.45425,-4.5921 -7.46287,-4.5921 -1.95213,0 -6.7235,-0.4726 -10.75688,7.7765 -4.016,-8.0943 -8.74125,-7.6333 -10.68163,-7.6333 -2.00937,0 -4.88012,1.7223 -7.46362,4.5928 -2.583,2.8702 -2.1525,7.8934 -1.26925,10.5073 0.88375,2.6136 19.33513,29.535 19.33513,29.535 0,0 18.685,-27.0653 19.56837,-29.6788 0.88325,-2.6132 1.31412,-7.6366 -1.26925,-10.5073"
         style="fill:#b32621;fill-opacity:1;fill-rule:evenodd;stroke:none"
         id="path11036"
         inkscape:connector-curvature="0" />
      <path
         d="m 407.7964,1069.2267 c -2.58338,-2.8703 -5.45412,-4.5921 -7.46288,-4.5921 -1.952,0 -6.72337,-0.4726 -10.75674,7.7765 -4.01601,-8.0944 -8.74138,-7.6334 -10.68163,-7.6334 -2.00937,0 -4.88025,1.7224 -7.46362,4.5929 -2.58313,2.8701 -2.15263,7.8934 -1.26926,10.5073 0.88375,2.6136 19.33513,29.535 19.33513,29.535 0,0 18.68487,-27.0653 19.56825,-29.6788 0.88338,-2.6132 1.31425,-7.6366 -1.26925,-10.5074"
         style="fill:#b32621;fill-opacity:1;fill-rule:evenodd;stroke:none"
         id="path11038"
         inkscape:connector-curvature="0" />
      <path
         d="m 497.42365,1070.0643 c -2.58338,-2.8703 -5.45413,-4.5921 -7.46288,-4.5921 -1.952,0 -6.72337,-0.4726 -10.75675,7.7765 -4.016,-8.0944 -8.74137,-7.6333 -10.68162,-7.6333 -2.0095,0 -4.88025,1.7225 -7.46363,4.5928 -2.58312,2.8702 -2.15262,7.8934 -1.26925,10.5074 0.88375,2.6135 19.33513,29.5349 19.33513,29.5349 0,0 18.68487,-27.0653 19.56825,-29.6788 0.88337,-2.6132 1.31425,-7.6366 -1.26925,-10.5073"
         style="fill:#b32621;fill-opacity:1;fill-rule:evenodd;stroke:none"
         id="path11040"
         inkscape:connector-curvature="0" />
      <path
         d="m 461.05878,1237.9994 c 2.58337,2.8705 5.45412,4.5921 7.46287,4.5921 1.952,0 6.72337,0.4727 10.75675,-7.7765 4.016,8.0944 8.74138,7.6333 10.68163,7.6333 2.0095,0 4.88024,-1.7223 7.46362,-4.5927 2.58313,-2.8701 2.15262,-7.8935 1.26925,-10.5074 -0.88362,-2.6135 -19.33513,-29.5349 -19.33513,-29.5349 0,0 -18.68487,27.0653 -19.56824,29.6788 -0.88338,2.6131 -1.31425,7.6365 1.26925,10.5072"
         style="fill:#b32621;fill-opacity:1;fill-rule:evenodd;stroke:none"
         id="path11042"
         inkscape:connector-curvature="0" />
      <path
         d="m 371.43153,1237.9994 c 2.58337,2.8705 5.45425,4.5921 7.46287,4.5921 1.952,0 6.7235,0.4727 10.75675,-7.7765 4.016,8.0944 8.74138,7.6333 10.68175,7.6333 2.00937,0 4.88012,-1.7223 7.4635,-4.5927 2.58312,-2.8701 2.15262,-7.8935 1.26925,-10.5074 -0.88363,-2.6135 -19.33513,-29.5349 -19.33513,-29.5349 0,0 -18.68487,27.0653 -19.56825,29.6788 -0.88337,2.6131 -1.31425,7.6365 1.26925,10.5072"
         style="fill:#b32621;fill-opacity:1;fill-rule:evenodd;stroke:none"
         id="path11044"
         inkscape:connector-curvature="0" />
      <path
         d="m 417.50152,1203.6562 c 2.58351,2.8705 5.45425,4.5921 7.463,4.5921 1.952,0 6.72338,0.4728 10.75675,-7.7764 4.016,8.0943 8.74138,7.6333 10.68163,7.6333 2.00937,0 4.88025,-1.7223 7.46362,-4.5929 2.58313,-2.87 2.15263,-7.8933 1.26926,-10.5072 -0.88376,-2.6136 -19.33513,-29.5349 -19.33513,-29.5349 0,0 -18.68488,27.0651 -19.56825,29.6788 -0.88338,2.6131 -1.31425,7.6365 1.26912,10.5072"
         style="fill:#b32621;fill-opacity:1;fill-rule:evenodd;stroke:none"
         id="path11046"
         inkscape:connector-curvature="0" />
      <path
         d="m 461.05878,1170.9883 c 2.58337,2.8706 5.45412,4.5922 7.46287,4.5922 1.952,0 6.72337,0.4727 10.75675,-7.7765 4.016,8.0943 8.74138,7.6333 10.68163,7.6333 2.0095,0 4.88024,-1.7223 7.46362,-4.5928 2.58313,-2.87 2.15262,-7.8934 1.26925,-10.5073 -0.88362,-2.6136 -19.33513,-29.5349 -19.33513,-29.5349 0,0 -18.68487,27.0652 -19.56824,29.6788 -0.88338,2.6131 -1.31425,7.6365 1.26925,10.5072"
         style="fill:#b32621;fill-opacity:1;fill-rule:evenodd;stroke:none"
         id="path11048"
         inkscape:connector-curvature="0" />
      <path
         d="m 371.43153,1170.1507 c 2.58337,2.8705 5.45425,4.5921 7.46287,4.5921 1.952,0 6.7235,0.4728 10.75675,-7.7765 4.016,8.0944 8.74138,7.6334 10.68175,7.6334 2.00937,0 4.88012,-1.7224 7.4635,-4.5929 2.58312,-2.87 2.15262,-7.8933 1.26925,-10.5072 -0.88363,-2.6136 -19.33513,-29.5349 -19.33513,-29.5349 0,0 -18.68487,27.0651 -19.56825,29.6788 -0.88337,2.6131 -1.31425,7.6365 1.26925,10.5072"
         style="fill:#b32621;fill-opacity:1;fill-rule:evenodd;stroke:none"
         id="path11050"
         inkscape:connector-curvature="0" />
      <path
         d="m 357.66827,1018.549 c -1.40637,-1.5627 -2.969,-2.4999 -4.0625,-2.4999 -1.06262,0 -3.65987,-0.2573 -5.85525,4.2332 -2.18625,-4.4061 -4.75837,-4.1552 -5.81462,-4.1552 -1.09375,0 -2.65638,0.9375 -4.06275,2.5001 -1.406,1.5623 -1.17175,4.2967 -0.69088,5.7197 0.48113,1.4226 10.52501,16.077 10.52501,16.077 0,0 10.17112,-14.7327 10.65187,-16.1553 0.48088,-1.4227 0.71537,-4.1571 -0.69088,-5.7196"
         style="fill:#b32621;fill-opacity:1;fill-rule:evenodd;stroke:none"
         id="path11052"
         inkscape:connector-curvature="0" />
      <path
         d="m 512.1019,1221.3636 c 1.40625,1.5626 2.96887,2.4998 4.06238,2.4998 1.06262,0 3.65987,0.2572 5.85524,-4.2332 2.18626,4.4061 4.75838,4.1553 5.81463,4.1553 1.09375,0 2.65637,-0.9377 4.06275,-2.5003 1.406,-1.5622 1.17175,-4.2966 0.691,-5.7195 -0.48125,-1.4227 -10.52513,-16.0771 -10.52513,-16.0771 0,0 -10.171,14.7327 -10.65187,16.1554 -0.48087,1.4226 -0.71537,4.157 0.691,5.7196"
         style="fill:#b32621;fill-opacity:1;fill-rule:evenodd;stroke:none"
         id="path11054"
         inkscape:connector-curvature="0" />
    </g>
  </g>
</svg>
