<?xml version="1.0" encoding="UTF-8" standalone="no"?>
<svg
   xmlns:dc="http://purl.org/dc/elements/1.1/"
   xmlns:cc="http://creativecommons.org/ns#"
   xmlns:rdf="http://www.w3.org/1999/02/22-rdf-syntax-ns#"
   xmlns:svg="http://www.w3.org/2000/svg"
   xmlns="http://www.w3.org/2000/svg"
   xmlns:sodipodi="http://sodipodi.sourceforge.net/DTD/sodipodi-0.dtd"
   xmlns:inkscape="http://www.inkscape.org/namespaces/inkscape"
   version="1.1"
   id="svg2"
   viewBox="0 0 213.32188 318.51639"
   height="89.892403mm"
   width="60.204174mm"
   inkscape:version="0.91 r13725"
   sodipodi:docname="layer19.svg">
  <sodipodi:namedview
     pagecolor="#ffffff"
     bordercolor="#666666"
     borderopacity="1"
     objecttolerance="10"
     gridtolerance="10"
     guidetolerance="10"
     inkscape:pageopacity="0"
     inkscape:pageshadow="2"
     inkscape:window-width="640"
     inkscape:window-height="480"
     id="namedview24"
     showgrid="false"
     inkscape:zoom="0.74093519"
     inkscape:cx="106.66094"
     inkscape:cy="159.25821"
     inkscape:window-x="0"
     inkscape:window-y="0"
     inkscape:window-maximized="0"
     inkscape:current-layer="svg2" />
  <defs
     id="defs4" />
  <metadata
     id="metadata7">
    <rdf:RDF>
      <cc:Work
         rdf:about="">
        <dc:format>image/svg+xml</dc:format>
        <dc:type
           rdf:resource="http://purl.org/dc/dcmitype/StillImage" />
        <dc:title />
      </cc:Work>
    </rdf:RDF>
  </metadata>
  <g
     transform="translate(-265.38631,-366.9229)"
     id="layer19">
    <g
       id="g28777"
       transform="translate(167.51791,-593.4347)">
      <path
         d="m 107.99015,960.4926 193.07837,0 c 5.49288,0 9.98675,4.49387 9.98675,9.98675 l 0,298.27275 c 0,5.4929 -4.49387,9.9869 -9.98675,9.9869 l -193.07837,0 c -5.49287,0 -9.98675,-4.494 -9.98675,-9.9869 l 0,-298.27275 c 0,-5.49288 4.49388,-9.98675 9.98675,-9.98675 z"
         style="fill:#ffffff;fill-opacity:1;fill-rule:evenodd;stroke:#1f1917;stroke-width:0.27000001;stroke-linecap:butt;stroke-linejoin:miter;stroke-miterlimit:10;stroke-dasharray:none;stroke-opacity:1"
         id="path10988"
         inkscape:connector-curvature="0" />
      <path
         d="m 122.06415,978.0351 0,0 c 3.7715,0 6.85662,3.08513 6.85662,6.85662 l 0,18.71688 c 0,3.7715 -3.08512,6.8566 -6.85662,6.8566 l 0,0 c -3.7715,0 -6.85663,-3.0851 -6.85663,-6.8566 l 0,-18.71688 c 0,-3.77149 3.08513,-6.85662 6.85663,-6.85662 z m 0,3.54225 0,0 c 2.34462,0 4.26225,1.91912 4.26225,4.26225 l 0,17.0649 c 0,2.3428 -1.91763,4.2622 -4.26225,4.2622 l 0,0 c -2.34462,0 -4.26225,-1.918 -4.26225,-4.2622 l 0,-17.0649 c 0,-2.34463 1.91763,-4.26225 4.26225,-4.26225"
         style="fill:#1f1917;fill-opacity:1;fill-rule:evenodd;stroke:none"
         id="path10990"
         inkscape:connector-curvature="0" />
      <path
         d="m 108.28427,978.02372 2.67125,0 0,32.41948 -2.67125,0 0,-32.41948 z"
         style="fill:#1f1917;fill-opacity:1;fill-rule:evenodd;stroke:none"
         id="path10992"
         inkscape:connector-curvature="0" />
      <path
         d="m 288.53152,1257.3472 0,0 c -3.7715,0 -6.85662,-3.0851 -6.85662,-6.8566 l 0,-18.7167 c 0,-3.7715 3.08512,-6.8567 6.85662,-6.8567 l 0,0 c 3.7715,0 6.85676,3.0852 6.85676,6.8567 l 0,18.7167 c 0,3.7715 -3.08526,6.8566 -6.85676,6.8566 z m 0,-3.5422 0,0 c -2.3445,0 -4.26225,-1.919 -4.26225,-4.2622 l 0,-17.0649 c 0,-2.3429 1.91775,-4.2623 4.26225,-4.2623 l 0,0 c 2.34463,0 4.26226,1.918 4.26226,4.2623 l 0,17.0649 c 0,2.3446 -1.91763,4.2622 -4.26226,4.2622"
         style="fill:#1f1917;fill-opacity:1;fill-rule:evenodd;stroke:none"
         id="path10994"
         inkscape:connector-curvature="0" />
      <path
         d="m 302.31153,1257.3586 -2.67138,0 0,-32.4195 2.67138,0 0,32.4195 z"
         style="fill:#1f1917;fill-opacity:1;fill-rule:evenodd;stroke:none"
         id="path10996"
         inkscape:connector-curvature="0" />
      <path
         d="m 179.0129,1024.8273 c -0.89,-2.6298 -18.71,-28.51408 -20.616,-31.28095 l 0,-0.25513 c -0.004,0 -0.0379,0.0525 -0.0892,0.12825 -0.0504,-0.0763 -0.0855,-0.12512 -0.0882,-0.12825 l 0,0.25513 c -1.90738,2.76687 -19.726,28.65115 -20.6175,31.28095 -0.93713,2.7769 -1.395,8.1163 1.34937,11.1664 2.74563,3.05 5.7965,4.8809 7.93125,4.8809 0.96775,0 2.58813,0.105 4.47775,-0.6721 2.155,-1.3465 4.3465,-4.077 4.56725,-9.6325 0,0 0.38663,9.4942 -3.2715,15.0144 -0.22887,0.4291 -0.46812,0.8291 -0.73487,1.1568 0,0 4.973,-0.4205 6.3865,-0.4081 1.41375,-0.013 6.386,0.4081 6.386,0.4081 -0.26538,-0.3277 -0.5045,-0.7277 -0.73413,-1.1568 -3.65737,-5.5202 -3.27012,-15.0144 -3.27012,-15.0144 0.21862,5.5555 2.41162,8.286 4.56775,9.6325 1.88712,0.7766 3.50925,0.6721 4.47512,0.6721 2.137,0 5.187,-1.8309 7.93138,-4.8809 2.74637,-3.0501 2.28787,-8.3895 1.34925,-11.1664"
         style="fill:#171717;fill-opacity:1;fill-rule:evenodd;stroke:none"
         id="path10998"
         inkscape:connector-curvature="0" />
      <path
         d="m 267.80252,1026.5026 c -0.89012,-2.6299 -18.71012,-28.514 -20.616,-31.281 l 0,-0.25513 c -0.004,0 -0.038,0.0525 -0.0894,0.12825 -0.0503,-0.0763 -0.0854,-0.12512 -0.0881,-0.12825 l 0,0.25513 c -1.90737,2.767 -19.726,28.6511 -20.6175,31.281 -0.93725,2.7769 -1.395,8.1162 1.34925,11.1664 2.74575,3.0501 5.7965,4.8809 7.93138,4.8809 0.96775,0 2.588,0.1049 4.47775,-0.6722 2.155,-1.3465 4.3465,-4.077 4.56725,-9.6325 0,0 0.38662,9.4943 -3.2715,15.0144 -0.22888,0.4291 -0.46813,0.8291 -0.73488,1.1569 0,0 4.973,-0.4205 6.38638,-0.4081 1.41387,-0.013 6.38612,0.4081 6.38612,0.4081 -0.26537,-0.3278 -0.5045,-0.7278 -0.73412,-1.1569 -3.65738,-5.5201 -3.27013,-15.0144 -3.27013,-15.0144 0.21863,5.5555 2.41163,8.286 4.56763,9.6325 1.88725,0.7766 3.50937,0.6722 4.47525,0.6722 2.137,0 5.187,-1.8308 7.93137,-4.8809 2.74638,-3.0501 2.28788,-8.3895 1.34925,-11.1664"
         style="fill:#171717;fill-opacity:1;fill-rule:evenodd;stroke:none"
         id="path11000"
         inkscape:connector-curvature="0" />
      <path
         d="m 223.40778,1054.9822 c -0.89013,-2.6297 -18.71013,-28.514 -20.61613,-31.281 l 0,-0.2551 c -0.004,0 -0.0379,0.053 -0.0892,0.1282 -0.0503,-0.076 -0.0854,-0.125 -0.0883,-0.1282 l 0,0.2551 c -1.90737,2.767 -19.72588,28.6513 -20.61737,31.281 -0.93726,2.777 -1.395,8.1164 1.34924,11.1664 2.74576,3.0501 5.79651,4.881 7.93138,4.881 0.96762,0 2.588,0.105 4.47763,-0.6723 2.155,-1.3463 4.34662,-4.0768 4.56737,-9.6323 0,0 0.3865,9.4942 -3.27162,15.0143 -0.22888,0.4292 -0.468,0.8292 -0.73488,1.1569 0,0 4.97313,-0.4206 6.3865,-0.4082 1.41375,-0.013 6.38613,0.4082 6.38613,0.4082 -0.26538,-0.3277 -0.50463,-0.7277 -0.73425,-1.1569 -3.65738,-5.5201 -3.27,-15.0143 -3.27,-15.0143 0.21862,5.5555 2.4115,8.286 4.56762,9.6323 1.88713,0.7768 3.50925,0.6723 4.47525,0.6723 2.13688,0 5.187,-1.8309 7.93125,-4.881 2.7465,-3.05 2.288,-8.3894 1.34938,-11.1664"
         style="fill:#171717;fill-opacity:1;fill-rule:evenodd;stroke:none"
         id="path11002"
         inkscape:connector-curvature="0" />
      <path
         d="m 179.0129,1090.1631 c -0.89,-2.6299 -18.71,-28.5141 -20.616,-31.281 l 0,-0.2551 c -0.004,0 -0.0379,0.053 -0.0892,0.1282 -0.0504,-0.076 -0.0855,-0.1251 -0.0882,-0.1282 l 0,0.2551 c -1.90738,2.7669 -19.726,28.6511 -20.6175,31.281 -0.93713,2.7769 -1.395,8.1162 1.34937,11.1664 2.74563,3.05 5.7965,4.8809 7.93125,4.8809 0.96775,0 2.58813,0.105 4.47775,-0.6722 2.155,-1.3465 4.3465,-4.077 4.56725,-9.6325 0,0 0.38663,9.4943 -3.2715,15.0144 -0.22887,0.4291 -0.46812,0.8291 -0.73487,1.1569 0,0 4.973,-0.4205 6.3865,-0.4081 1.41375,-0.013 6.386,0.4081 6.386,0.4081 -0.26538,-0.3278 -0.5045,-0.7278 -0.73413,-1.1569 -3.65737,-5.5201 -3.27012,-15.0144 -3.27012,-15.0144 0.21862,5.5555 2.41162,8.286 4.56775,9.6325 1.88712,0.7767 3.50925,0.6722 4.47512,0.6722 2.137,0 5.187,-1.8309 7.93138,-4.8809 2.74637,-3.0501 2.28787,-8.3895 1.34925,-11.1664"
         style="fill:#171717;fill-opacity:1;fill-rule:evenodd;stroke:none"
         id="path11004"
         inkscape:connector-curvature="0" />
      <path
         d="m 267.80252,1089.3255 c -0.89012,-2.6299 -18.71012,-28.5141 -20.616,-31.2811 l 0,-0.2551 c -0.004,0 -0.038,0.053 -0.0894,0.1283 -0.0503,-0.076 -0.0854,-0.1251 -0.0881,-0.1283 l 0,0.2551 c -1.90737,2.767 -19.726,28.6512 -20.6175,31.2811 -0.93725,2.7769 -1.395,8.1162 1.34925,11.1663 2.74575,3.0501 5.7965,4.8809 7.93138,4.8809 0.96775,0 2.588,0.105 4.47775,-0.6721 2.155,-1.3465 4.3465,-4.077 4.56725,-9.6325 0,0 0.38662,9.4943 -3.2715,15.0144 -0.22888,0.4291 -0.46813,0.8291 -0.73488,1.1568 0,0 4.973,-0.4206 6.38638,-0.4081 1.41387,-0.013 6.38612,0.4081 6.38612,0.4081 -0.26537,-0.3277 -0.5045,-0.7277 -0.73412,-1.1568 -3.65738,-5.5201 -3.27013,-15.0144 -3.27013,-15.0144 0.21863,5.5555 2.41163,8.286 4.56763,9.6325 1.88725,0.7766 3.50937,0.6721 4.47525,0.6721 2.137,0 5.187,-1.8308 7.93137,-4.8809 2.74638,-3.0501 2.28788,-8.3894 1.34925,-11.1663"
         style="fill:#171717;fill-opacity:1;fill-rule:evenodd;stroke:none"
         id="path11006"
         inkscape:connector-curvature="0" />
      <path
         d="m 228.40303,1211.2216 c 0.89012,2.6299 18.71012,28.514 20.61612,31.281 l 0,0.2551 c 0.004,0 0.0379,-0.053 0.0892,-0.1282 0.0503,0.076 0.0854,0.125 0.0883,0.1282 l 0,-0.2551 c 1.90737,-2.767 19.72588,-28.6511 20.61738,-31.281 0.93725,-2.7769 1.39499,-8.1164 -1.34926,-11.1664 -2.74575,-3.0501 -5.7965,-4.8809 -7.93137,-4.8809 -0.96762,0 -2.588,-0.105 -4.47763,0.6722 -2.155,1.3463 -4.34662,4.0768 -4.56737,9.6325 0,0 -0.3865,-9.4944 3.27162,-15.0145 0.22888,-0.429 0.468,-0.8292 0.73488,-1.1569 0,0 -4.97313,0.4206 -6.3865,0.4082 -1.41375,0.013 -6.38613,-0.4082 -6.38613,-0.4082 0.26538,0.3278 0.50463,0.7279 0.73413,1.1569 3.6575,5.5201 3.27012,15.0145 3.27012,15.0145 -0.21862,-5.5557 -2.4115,-8.2862 -4.56762,-9.6325 -1.88713,-0.7768 -3.50925,-0.6722 -4.47525,-0.6722 -2.13688,0 -5.187,1.8308 -7.93125,4.8809 -2.7465,3.05 -2.288,8.3895 -1.34938,11.1664"
         style="fill:#171717;fill-opacity:1;fill-rule:evenodd;stroke:none"
         id="path11008"
         inkscape:connector-curvature="0" />
      <path
         d="m 139.61352,1209.5463 c 0.89,2.6298 18.71,28.514 20.616,31.2811 l 0,0.2551 c 0.004,0 0.0379,-0.053 0.0892,-0.1283 0.0504,0.076 0.0854,0.125 0.0882,0.1283 l 0,-0.2551 c 1.90738,-2.7671 19.72588,-28.6513 20.61738,-31.2811 0.93725,-2.7769 1.395,-8.1163 -1.34925,-11.1663 -2.74575,-3.0502 -5.7965,-4.881 -7.93138,-4.881 -0.96762,0 -2.588,-0.105 -4.47762,0.6722 -2.155,1.3464 -4.34663,4.0769 -4.56738,9.6324 0,0 -0.3865,-9.4943 3.27163,-15.0144 0.22887,-0.4291 0.468,-0.8291 0.73487,-1.1569 0,0 -4.97312,0.4207 -6.3865,0.4083 -1.41375,0.013 -6.38612,-0.4083 -6.38612,-0.4083 0.26537,0.3278 0.50462,0.7278 0.73425,1.1569 3.65737,5.5201 3.27012,15.0144 3.27012,15.0144 -0.21862,-5.5555 -2.41162,-8.286 -4.56775,-9.6324 -1.88712,-0.7767 -3.50925,-0.6722 -4.47512,-0.6722 -2.137,0 -5.18713,1.8308 -7.93138,4.881 -2.74637,3.05 -2.28787,8.3893 -1.34925,11.1663"
         style="fill:#171717;fill-opacity:1;fill-rule:evenodd;stroke:none"
         id="path11010"
         inkscape:connector-curvature="0" />
      <path
         d="m 184.00827,1181.0666 c 0.89013,2.6299 18.71013,28.5141 20.616,31.281 l 0,0.2551 c 0.004,0 0.0379,-0.053 0.0892,-0.1282 0.0504,0.076 0.0855,0.1251 0.0883,0.1282 l 0,-0.2551 c 1.90738,-2.7669 19.726,-28.6511 20.61751,-31.281 0.93712,-2.7769 1.39499,-8.1162 -1.34926,-11.1664 -2.74575,-3.0501 -5.7965,-4.8809 -7.93137,-4.8809 -0.96775,0 -2.588,-0.1049 -4.47775,0.6722 -2.155,1.3465 -4.3465,4.077 -4.56725,9.6325 0,0 -0.38663,-9.4943 3.2715,-15.0144 0.22888,-0.4291 0.46813,-0.8291 0.73488,-1.1569 0,0 -4.97301,0.4205 -6.38651,0.4081 -1.41374,0.013 -6.38599,-0.4081 -6.38599,-0.4081 0.26537,0.3278 0.5045,0.7278 0.73412,1.1569 3.65738,5.5201 3.27013,15.0144 3.27013,15.0144 -0.21863,-5.5555 -2.41163,-8.286 -4.56763,-9.6325 -1.88725,-0.7766 -3.50937,-0.6722 -4.47525,-0.6722 -2.137,0 -5.187,1.8308 -7.93137,4.8809 -2.74638,3.0501 -2.28788,8.3895 -1.34925,11.1664"
         style="fill:#171717;fill-opacity:1;fill-rule:evenodd;stroke:none"
         id="path11012"
         inkscape:connector-curvature="0" />
      <path
         d="m 228.40303,1145.8859 c 0.89012,2.6298 18.71012,28.514 20.61612,31.281 l 0,0.2551 c 0.004,0 0.0379,-0.053 0.0892,-0.1283 0.0503,0.076 0.0854,0.125 0.0883,0.1283 l 0,-0.2551 c 1.90737,-2.767 19.72588,-28.6512 20.61738,-31.281 0.93725,-2.7769 1.39499,-8.1164 -1.34926,-11.1664 -2.74575,-3.0501 -5.7965,-4.8809 -7.93137,-4.8809 -0.96762,0 -2.588,-0.105 -4.47763,0.6721 -2.155,1.3465 -4.34662,4.0769 -4.56737,9.6325 0,0 -0.3865,-9.4944 3.27162,-15.0145 0.22888,-0.429 0.468,-0.8291 0.73488,-1.1568 0,0 -4.97313,0.4206 -6.3865,0.4082 -1.41375,0.012 -6.38613,-0.4082 -6.38613,-0.4082 0.26538,0.3277 0.50463,0.7278 0.73413,1.1568 3.6575,5.5201 3.27012,15.0145 3.27012,15.0145 -0.21862,-5.5556 -2.4115,-8.286 -4.56762,-9.6325 -1.88713,-0.7767 -3.50925,-0.6721 -4.47525,-0.6721 -2.13688,0 -5.187,1.8307 -7.93125,4.8809 -2.7465,3.05 -2.288,8.3895 -1.34938,11.1664"
         style="fill:#171717;fill-opacity:1;fill-rule:evenodd;stroke:none"
         id="path11014"
         inkscape:connector-curvature="0" />
      <path
         d="m 139.61352,1146.7235 c 0.89,2.6298 18.71,28.514 20.616,31.281 l 0,0.2551 c 0.004,0 0.0379,-0.053 0.0892,-0.1283 0.0504,0.076 0.0854,0.1252 0.0882,0.1283 l 0,-0.2551 c 1.90738,-2.767 19.72588,-28.6512 20.61738,-31.281 0.93725,-2.7769 1.395,-8.1163 -1.34925,-11.1664 -2.74575,-3.0501 -5.7965,-4.8809 -7.93138,-4.8809 -0.96762,0 -2.588,-0.105 -4.47762,0.6721 -2.155,1.3465 -4.34663,4.0769 -4.56738,9.6325 0,0 -0.3865,-9.4943 3.27163,-15.0143 0.22887,-0.4292 0.468,-0.8293 0.73487,-1.157 0,0 -4.97312,0.4206 -6.3865,0.4082 -1.41375,0.013 -6.38612,-0.4082 -6.38612,-0.4082 0.26537,0.3277 0.50462,0.7278 0.73425,1.157 3.65737,5.52 3.27012,15.0143 3.27012,15.0143 -0.21862,-5.5556 -2.41162,-8.286 -4.56775,-9.6325 -1.88712,-0.7767 -3.50925,-0.6721 -4.47512,-0.6721 -2.137,0 -5.18713,1.8308 -7.93138,4.8809 -2.74637,3.0501 -2.28787,8.3895 -1.34925,11.1664"
         style="fill:#171717;fill-opacity:1;fill-rule:evenodd;stroke:none"
         id="path11016"
         inkscape:connector-curvature="0" />
      <path
         d="m 129.52352,1029.726 c -0.45175,-1.3352 -9.4985,-14.4759 -10.46625,-15.8804 l 0,-0.1297 c -0.001,0 -0.0191,0.026 -0.0452,0.065 -0.0256,-0.039 -0.0433,-0.064 -0.0448,-0.065 l 0,0.1297 c -0.96837,1.4045 -10.01437,14.5452 -10.46687,15.8804 -0.47588,1.4098 -0.70825,4.1205 0.68488,5.6688 1.394,1.5486 2.94275,2.4779 4.02662,2.4779 0.49113,0 1.31388,0.054 2.27313,-0.3412 1.09412,-0.6835 2.20674,-2.0696 2.31862,-4.8902 0,0 0.19637,4.8201 -1.66075,7.6224 -0.11613,0.2179 -0.23775,0.421 -0.373,0.5875 0,0 2.5245,-0.2136 3.24212,-0.2072 0.71788,-0.013 3.24213,0.2072 3.24213,0.2072 -0.13475,-0.1665 -0.25625,-0.3696 -0.37275,-0.5875 -1.85675,-2.8023 -1.66013,-7.6224 -1.66013,-7.6224 0.11088,2.8206 1.22425,4.2067 2.31875,4.8902 0.95813,0.3944 1.78163,0.3412 2.27201,0.3412 1.085,0 2.63337,-0.9293 4.02662,-2.4779 1.39425,-1.5483 1.1615,-4.259 0.68487,-5.6688"
         style="fill:#171717;fill-opacity:1;fill-rule:evenodd;stroke:none"
         id="path11018"
         inkscape:connector-curvature="0" />
      <path
         d="m 283.41152,1208.7993 c 0.45175,1.3352 9.4985,14.4759 10.46625,15.8804 l 0,0.1298 c 10e-4,0 0.0191,-0.026 0.0453,-0.065 0.0255,0.039 0.0433,0.064 0.0448,0.065 l 0,-0.1298 c 0.96837,-1.4045 10.01437,-14.5452 10.46687,-15.8804 0.47587,-1.4098 0.70825,-4.1205 -0.68488,-5.6688 -1.394,-1.5485 -2.94275,-2.4779 -4.02662,-2.4779 -0.49113,0 -1.31388,-0.054 -2.27313,0.3412 -1.09412,0.6836 -2.20675,2.0697 -2.31862,4.8902 0,0 -0.19638,-4.82 1.66075,-7.6224 0.11612,-0.218 0.23775,-0.421 0.373,-0.5875 0,0 -2.5245,0.2136 -3.24213,0.2072 -0.71787,0.013 -3.24212,-0.2072 -3.24212,-0.2072 0.13475,0.1665 0.25625,0.3695 0.37275,0.5875 1.85675,2.8024 1.66012,7.6224 1.66012,7.6224 -0.11087,-2.8205 -1.22424,-4.2066 -2.31875,-4.8902 -0.95812,-0.3943 -1.78162,-0.3412 -2.272,-0.3412 -1.085,0 -2.63337,0.9294 -4.02662,2.4779 -1.39425,1.5483 -1.1615,4.259 -0.68488,5.6688"
         style="fill:#171717;fill-opacity:1;fill-rule:evenodd;stroke:none"
         id="path11020"
         inkscape:connector-curvature="0" />
    </g>
  </g>
</svg>
